<?xml version="1.0" encoding="utf-8"?>
<!-- Generator: Adobe Illustrator 16.0.0, SVG Export Plug-In . SVG Version: 6.00 Build 0)  -->
<!DOCTYPE svg PUBLIC "-//W3C//DTD SVG 1.1//EN" "http://www.w3.org/Graphics/SVG/1.1/DTD/svg11.dtd">
<svg version="1.1" id="Ebene_1" xmlns="http://www.w3.org/2000/svg" xmlns:xlink="http://www.w3.org/1999/xlink" x="0px" y="0px"
	 width="90.125px" height="199.875px" viewBox="0 0 90.125 199.875" enable-background="new 0 0 90.125 199.875"
	 xml:space="preserve">
<g>
	<path d="M33.291,58.984c-0.001-0.537-0.006-1.037-0.005-1.519c0.005-1.137-0.078-2.096-0.108-3.005
		c-0.012-0.3-0.018-0.635-0.025-0.974c-0.014-0.675-0.035-1.328-0.101-2.044c-0.063-0.691-0.126-1.455-0.23-2.226
		c-0.207-1.461-0.48-2.908-0.75-4.387c-0.085-0.444-0.167-0.914-0.243-1.389c-0.143-0.975-0.31-1.833-0.473-2.634
		c-0.352-1.605-0.854-3.847-1.506-5.709c-0.699-2.004-1.468-4.112-2.242-6.201c-0.52-1.412-1.106-2.737-1.53-3.944
		c-0.227-0.619-0.383-1.216-0.694-2.153c-0.089-0.255-0.196-0.551-0.291-0.8c-0.09-0.251-0.159-0.419-0.209-0.555
		c-0.059-0.161-0.125-0.35-0.195-0.541c-0.081-0.218-0.136-0.373-0.201-0.575c-0.154-0.492-0.307-1.033-0.496-1.619
		c-0.101-0.318-0.224-0.718-0.37-1.144c-0.265-0.705-0.554-1.591-0.983-2.487c-0.125-0.26-0.292-0.578-0.45-0.847
		c-0.123-0.211-0.242-0.401-0.323-0.535c-0.31-0.496-0.588-0.916-0.917-1.381c-0.208-0.288-0.391-0.511-0.508-0.671
		c-0.148-0.21-0.283-0.4-0.417-0.593c-0.273-0.381-0.595-0.86-0.98-1.346c-0.606-0.766-1.145-1.663-1.852-2.514
		c-0.187-0.227-0.338-0.386-0.412-0.478c-0.088-0.122-0.209-0.284-0.339-0.444c-0.25-0.241-0.447-0.409-0.58-0.523
		c-0.174-0.139-0.345-0.312-0.633-0.606c-0.199-0.208-0.336-0.325-0.381-0.365c0,0.019-0.183-0.226-0.495-0.521
		c-0.268-0.213-0.557-0.408-0.796-0.569c-0.189-0.131-0.328-0.22-0.426-0.296C13,3.298,12.843,3.16,12.603,2.976
		C12.429,2.849,12.22,2.7,12.038,2.579c-0.247-0.154-0.492-0.288-0.665-0.371c-0.258-0.125-0.688-0.292-1.173-0.412
		c-0.197-0.113-0.352-0.188-0.385-0.213C9.672,1.514,9.493,1.428,9.312,1.349C9.293,1.328,9.251,1.285,9.104,1.207
		C8.857,1.12,8.406,1.051,8.545,1.06c0.281,0.063,0.054-0.035-0.404-0.116c-0.4-0.055-1.047-0.089-1.579-0.054
		C6.417,0.9,6.109,0.929,5.787,1.003C5.779,1.005,5.771,1.01,5.762,1.012C5.725,1.02,5.687,1.023,5.65,1.032
		C5.468,1.094,5.222,1.194,5.064,1.273C4.979,1.317,4.818,1.408,4.695,1.488c-0.069,0.05-0.243,0.187-0.37,0.308
		c-0.016,0.019-0.04,0.063-0.059,0.09C4.204,1.955,4.146,2.025,4.092,2.1C3.758,2.401,3.561,2.721,3.476,2.845
		C3.393,2.962,3.314,3.123,3.246,3.24C3.19,3.605,3.186,4.008,3.168,4.292C3.172,5.12,3.077,5.978,3.021,6.906
		c-0.051,1.509,0.017,3.058,0.003,4.55c0.027,1.192,0.069,2.389,0.047,3.515c-0.031,0.996,0.009,2.186-0.01,3.309
		c-0.045,1.377-0.084,2.438-0.05,3.612c0.083,1.351,0.154,2.596,0.15,3.835c-0.005,0.326-0.002,0.659-0.006,0.933
		c0,0.159-0.011,0.353-0.011,0.613c0.003,0.55,0.052,1.042,0.063,1.385c0.004,0.166,0.001,0.301-0.001,0.494
		c-0.004,0.205-0.023,0.506-0.027,0.9c-0.003,0.281-0.001,0.59,0.002,0.842c0.016,0.285,0.05,0.537,0.064,0.642
		c0.079,0.471,0.13,0.911,0.174,1.412c0,0.904-0.044,1.841-0.06,2.83c0.014,0.795,0.052,1.51,0.06,2.21
		c0.008,0.452,0.037,0.876,0.041,1.207C3.521,41,3.456,42.761,3.449,44.697c0.009,1.291,0.014,2.705,0.021,4.024
		c0.003,1.168,0.02,2.794,0.093,4.297c0.074,1.776,0.064,3.449,0.096,5.554c0.001,1.489-0.064,2.711-0.09,4.084
		c-0.018,1.949-0.047,4.217-0.071,6.018c-0.042,1.936-0.064,4.266-0.104,6.264c-0.023,2.061-0.032,4.57-0.099,6.733
		c-0.03,1.47-0.054,3.248-0.05,4.9c-0.018,1.907-0.049,3.823-0.073,6.02c-0.019,2.043-0.048,3.736-0.077,5.904
		c-0.024,1.4-0.059,2.628-0.073,3.854c0,1.353-0.023,3.035-0.029,4.521c0.003,1.816,0.027,3.518-0.002,5.486
		c-0.047,2.059-0.081,3.631-0.176,5.716c-0.056,1.268-0.073,2.478-0.104,3.522c0.013,1.238,0.06,2.728,0.07,4.207
		c-0.07,2.465-0.156,4.313-0.22,6.668c-0.035,1.4-0.073,2.551-0.121,3.725c-0.122,2.918-0.29,5.8-0.292,8.377
		c-0.011,1.683-0.022,3.238-0.065,4.546c-0.014,1.121-0.095,2.583-0.077,4.075c0.006,0.609-0.021,1.188-0.028,1.832
		c-0.003,0.774-0.016,1.649-0.016,2.572c0,0.235,0.001,0.448,0.001,0.666c0.004,0.387,0.008,0.826,0.012,1.236
		c0.002,0.855,0.005,1.495,0.007,2.148c-0.018,0.399-0.043,0.875-0.054,1.373c-0.001,0.332,0.005,0.619,0.004,0.838
		c0.004,0.072,0.003,0.164,0.005,0.336c-0.001,1.338,0.008,2.904,0.012,4.099c0,0.649,0,1.271,0,1.896
		c-0.009,1.268,0.039,2.316,0.058,3.455c0.038,0.871,0.053,1.774,0.064,2.67c-0.028,0.916-0.082,1.902-0.194,2.943
		c-0.188,2.661-0.018,5.241-0.025,7.654c-0.027,1.497-0.04,2.932-0.076,4.412c0.049,0.777,0.104,1.677,0.187,2.429
		c0.028,0.239,0.069,0.608,0.137,0.96c0.012,0.057,0.025,0.12,0.039,0.182c0.025,0.06,0.052,0.127,0.079,0.19
		c0.021,0.063,0.044,0.14,0.066,0.206s0.046,0.146,0.07,0.215c0.005,0.072,0.013,0.16,0.02,0.233
		c0.017,0.073,0.039,0.169,0.058,0.243c0.032,0.072,0.075,0.181,0.112,0.26c0.03,0.082,0.081,0.224,0.122,0.32
		c0.052,0.104,0.162,0.323,0.253,0.475c0.123,0.161,0.466,0.57,0.777,0.833c0.095,0.062,0.24,0.125,0.41,0.188
		c0.156,0.096,0.32,0.178,0.493,0.24c0.003,0.018,0.009,0.04,0.012,0.057c0.134,0.146,0.338,0.318,0.426,0.403
		c0.077,0.081,0.181,0.175,0.229,0.232c0.294,0.196,0.998,0.524,1.708,0.686c0.621,0.071,1.224,0.029,1.47,0.021
		c0.232-0.032,0.289-0.05,0.274-0.041c0.357-0.005,1.061,0.059,1.877-0.015c0.685-0.125,1.041-0.271,1.11-0.272
		c0.104-0.022,0.313-0.063,0.572-0.124c0.375-0.076,0.739-0.161,1.014-0.225c0.69-0.189,1.546-0.518,2.228-0.914
		c1.518-1.018,2.665-2.875,3.113-4.228c0.217-0.733,0.342-1.435,0.466-1.874c0.38-1.563,0.435-3.381,0.487-4.727
		c0.022-1.127,0.125-2.489,0.157-3.877c0.009-0.92-0.024-1.738-0.014-2.545c0.045-1.715,0.034-3.404,0.103-4.998
		c0.006-0.127,0.042-0.446,0.052-0.892c0.001-0.231-0.002-0.467-0.003-0.672c-0.01-0.28-0.02-0.567-0.029-0.83
		c-0.007-0.177-0.014-0.33-0.021-0.481c-0.005-0.332-0.008-0.709-0.018-1.084c-0.008-0.778-0.041-1.357-0.038-1.987
		c-0.048-1.362-0.109-2.782-0.143-4.298c0.009-1.361-0.042-2.629-0.069-3.713c-0.05-1.747-0.055-3.621-0.139-5.476
		c-0.016-0.297-0.032-0.659-0.058-0.983c-0.033-0.457-0.064-0.68-0.075-0.957c-0.012-0.25-0.013-0.549-0.015-0.877
		c-0.016-0.576-0.036-1.172-0.074-1.799c-0.046-0.699-0.067-1.504-0.082-2.261c0.022-1.381,0.052-3.012,0.027-4.721
		c-0.004-0.695-0.013-1.144-0.011-1.831c-0.005-0.245-0.015-0.535-0.023-0.78c-0.007-0.223-0.013-0.432-0.023-0.646
		c-0.01-0.184-0.019-0.292-0.021-0.375c-0.008-0.303-0.006-0.672-0.023-1.127c-0.013-0.318-0.03-0.663-0.044-0.973
		c-0.017-0.361-0.029-0.699-0.044-1.037c-0.023-0.494-0.022-0.916-0.024-1.459c0.009-0.854,0.019-1.776,0.028-2.6
		c0-0.316,0.001-0.621,0.001-1.064c0-0.192,0-0.412,0-0.616c0-0.257,0-0.449,0-0.64c0-0.162,0-0.313,0-0.467
		c-0.003-0.398-0.006-0.773-0.009-1.191c0-0.737,0-1.568,0-2.32c-0.001-1.516-0.001-2.992-0.002-4.454
		c0.003-0.647,0.007-1.231,0.011-1.938c0.009-0.436,0.016-0.859,0.027-1.281c0.014-1.012-0.016-1.997,0.026-2.854
		c0.07-1.398,0.257-2.492,0.462-4.045c0.093-0.773,0.204-1.617,0.302-2.451c0.111-1.279,0.557-2.125,1.288-3.545
		c0.09-0.176,0.188-0.373,0.271-0.543c0.106-0.225,0.183-0.4,0.239-0.523c0.138-0.303,0.273-0.596,0.386-0.82
		c0.072-0.146,0.209-0.391,0.393-0.793c0.106-0.239,0.206-0.479,0.293-0.67c0.146-0.323,0.295-0.637,0.444-0.979
		c0.165-0.384,0.331-0.798,0.476-1.16c0.203-0.508,0.353-0.926,0.515-1.289c0.042-0.094,0.124-0.271,0.212-0.486
		c0.084-0.21,0.2-0.512,0.304-0.83c0.064-0.21,0.107-0.37,0.144-0.482c0.072-0.205,0.14-0.392,0.214-0.586
		c0.157-0.416,0.327-0.83,0.472-1.188c0.231-0.57,0.375-0.964,0.577-1.471c0.128-0.326,0.279-0.702,0.413-1.065
		c0.273-0.775,0.39-1.288,0.678-1.792c0.034-0.083,0.117-0.241,0.217-0.451c0.112-0.231,0.208-0.433,0.313-0.659
		c0.094-0.209,0.226-0.497,0.338-0.772c0.187-0.442,0.328-0.829,0.454-1.159c0.142-0.36,0.292-0.766,0.43-1.167
		c0.256-0.78,0.485-1.626,0.646-2.329c0.234-0.996,0.399-1.845,0.655-2.792c0.401-1.499,0.781-3.058,1.068-4.514
		c0.126-0.663,0.248-1.347,0.355-2.024c0.122-0.764,0.267-1.47,0.447-2.331c0.061-0.296,0.133-0.657,0.188-0.997
		c0.168-0.978,0.292-1.805,0.456-2.778c0.126-0.925,0.309-2.002,0.375-3.014c0.19-2.12,0.318-4.554,0.29-6.646
		c-0.015-0.338-0.029-0.662-0.033-0.971C33.293,59.598,33.293,59.295,33.291,58.984z M4.828,193.008
		c0.003-0.002,0.007-0.004,0.01-0.006c0.003,0,0.006,0,0.009,0C4.841,193.002,4.835,193.006,4.828,193.008z M6.656,6.084
		c0.005,0.005,0.011,0.008,0.016,0.012C6.664,6.113,6.657,6.127,6.649,6.144c-0.002-0.03-0.004-0.059-0.006-0.088
		C6.648,6.065,6.651,6.074,6.656,6.084z M6.114,39.912c0.038-0.465,0.072-0.933,0.103-1.406c0.057-0.841,0.104-1.689,0.141-2.541
		c0.064-1.384,0.103-2.764,0.115-4.107c0.022-1.957-0.017-3.707-0.05-6.283c-0.014-1.147,0.013-2.208,0.019-3.063
		c0.004-1.046,0.007-2.118,0.012-3.411c-0.008-1.637-0.048-3.028-0.047-4.211c0.038-1.683-0.052-3.331-0.017-5.275
		C6.362,9.553,6.334,9.491,6.308,9.43C6.31,9.181,6.514,8.981,6.763,8.984C7.012,8.986,7.212,9.19,7.209,9.439
		C7.181,9.5,7.152,9.559,7.124,9.619c0.011,1.917,0.147,3.563,0.156,5.278c-0.019,1.169,0.004,2.559-0.007,4.205
		c0.003,1.292,0.008,2.363,0.012,3.41c0.006,0.863-0.007,1.916,0.019,3.048c0.057,2.571,0.119,4.332,0.12,6.304
		c-0.003,1.352-0.032,2.75-0.086,4.144c-0.036,0.857-0.082,1.717-0.138,2.564c-0.032,0.477-0.067,0.951-0.105,1.419
		c-0.032,0.312-0.066,0.622-0.102,0.928c-0.007,0.074-0.034,0.14-0.07,0.2c-0.046,0.133-0.093,0.266-0.14,0.397
		C6.766,41.69,6.61,41.817,6.436,41.8c-0.174-0.017-0.302-0.172-0.285-0.347c-0.021-0.137-0.042-0.274-0.063-0.412
		c-0.024-0.064-0.039-0.134-0.032-0.207C6.077,40.528,6.096,40.222,6.114,39.912z M14.677,192.609
		c-0.191,0.283-0.398,0.535-0.605,0.769c-0.043,0.079-0.099,0.151-0.179,0.204c-0.258,0.186-0.545,0.354-0.812,0.479
		c-0.327,0.14-0.691,0.244-1.028,0.308c-0.337,0.056-0.705,0.081-1.051,0.077c-1.13-0.012-2.27-0.211-3.082-0.601
		c-1.215-0.622-2.163-1.76-2.429-3.608c-0.225-1.831-0.007-3.854-0.023-5.372c-0.009-0.249,0.186-0.458,0.435-0.468
		c0.249-0.008,0.458,0.188,0.466,0.437c0.091,1.586-0.053,3.552,0.235,5.243c0.234,1.587,0.819,2.189,1.855,2.663
		c0.63,0.311,1.518,0.452,2.551,0.454c0.302,0.002,0.561-0.014,0.835-0.061c0.276-0.041,0.508-0.1,0.771-0.203
		c0.225-0.076,0.423-0.166,0.65-0.299c0.316-0.105,0.625-0.25,0.964-0.469c0.125-0.124,0.325-0.123,0.449,0.001
		C14.801,192.286,14.801,192.486,14.677,192.609z M28.917,75.764c-0.325,1.116-0.664,2.118-0.885,3.235
		c-0.181,0.92-0.357,2.17-0.703,3.387c-0.267,0.958-0.472,1.643-0.716,2.513c-0.138,0.477-0.293,0.958-0.397,1.374
		c-0.083,0.34-0.136,0.642-0.245,1.094c-0.057,0.239-0.123,0.52-0.19,0.758c-0.061,0.214-0.122,0.384-0.183,0.532
		c-0.057,0.128-0.11,0.228-0.151,0.318c-0.1,0.217-0.194,0.428-0.311,0.686c-0.225,0.539-0.527,1.181-0.884,1.854
		c-0.241,0.445-0.45,0.837-0.413,0.91c0.019,0.248-0.167,0.464-0.415,0.483c-0.249,0.019-0.465-0.167-0.484-0.416
		c0-0.41,0.272-0.953,0.517-1.407c0.357-0.65,0.652-1.252,0.878-1.767c0.104-0.258,0.187-0.474,0.278-0.702c0,0,0-0.001,0-0.002
		s0.001-0.001,0.001-0.002c0.051-0.122,0.1-0.219,0.139-0.316c0.056-0.127,0.1-0.241,0.156-0.427
		c0.064-0.214,0.128-0.477,0.189-0.718c0.107-0.43,0.164-0.729,0.256-1.094c0.111-0.447,0.27-0.943,0.403-1.407
		c0.26-0.873,0.478-1.551,0.755-2.498c0.332-1.159,0.501-2.371,0.687-3.317c0.229-1.169,0.573-2.21,0.89-3.311
		c0.139-0.357,0.275-0.72,0.405-1.104c0.043-0.176,0.221-0.283,0.396-0.24c0.176,0.043,0.283,0.22,0.24,0.396
		C29.065,74.986,28.992,75.383,28.917,75.764z"/>
	<path d="M87.486,46.018c-0.002-0.439-0.012-0.88-0.022-1.225c-0.019-0.488-0.057-0.901-0.112-1.407
		c-0.011-0.1-0.021-0.2-0.031-0.32c-0.023-0.286-0.047-0.61-0.062-0.931c-0.021-0.441-0.024-0.854-0.036-1.228
		c-0.029-0.529-0.068-0.93-0.105-1.434c-0.016-0.171-0.027-0.399-0.057-0.621c-0.037-0.23-0.065-0.281-0.066-0.254
		c-0.016,0.023-0.008-0.145-0.084-0.507c-0.03-0.443-0.057-0.882-0.061-1.315c0-0.038,0-0.071,0-0.123c0-0.069,0.004-0.183,0-0.304
		c-0.002-0.084-0.007-0.157-0.009-0.211c-0.003-0.063-0.006-0.117-0.008-0.167c-0.004-0.089-0.008-0.192-0.015-0.304
		c-0.014-0.2-0.024-0.398-0.033-0.604c-0.02-0.459-0.047-0.804-0.067-1.243c-0.002-0.03-0.002-0.125-0.011-0.243
		c-0.008-0.084-0.018-0.178-0.03-0.266c-0.013-0.079-0.017-0.08-0.015-0.058c-0.003-0.039-0.008-0.111-0.016-0.198
		c-0.006-0.057-0.014-0.16-0.029-0.281c-0.008-0.058-0.01-0.063-0.01-0.063c-0.021-0.17-0.037-0.39-0.053-0.603
		c-0.021-0.214-0.047-0.375-0.059-0.606c-0.004-0.058-0.001-0.229-0.028-0.432c-0.022-0.138-0.034-0.167-0.022-0.112
		c-0.012-0.107-0.023-0.233-0.041-0.372c-0.018-0.129-0.038-0.258-0.055-0.372c-0.037-0.242-0.068-0.441-0.094-0.72
		c-0.027-0.36-0.053-0.822-0.081-1.183c-0.008-0.109-0.014-0.201-0.019-0.307c-0.014-0.201-0.02-0.438-0.027-0.723
		c-0.016-0.396-0.036-0.894-0.063-1.259c-0.004-0.076-0.01-0.158-0.019-0.243c-0.011-0.126-0.021-0.237-0.03-0.357
		c-0.021-0.262-0.037-0.576-0.052-0.955c-0.006-0.164-0.012-0.335-0.021-0.491c-0.006-0.103-0.012-0.189-0.016-0.268
		c-0.002-0.09-0.005-0.182-0.009-0.273c-0.006-0.16-0.014-0.316-0.024-0.473c-0.018-0.307-0.039-0.614-0.047-1.03
		c-0.006-0.229-0.015-0.469-0.021-0.656c-0.004-0.079-0.007-0.171-0.017-0.264c-0.015-0.158-0.031-0.304-0.049-0.442
		c-0.031-0.262-0.064-0.547-0.096-0.923c-0.016-0.192-0.029-0.405-0.042-0.595c-0.013-0.172-0.022-0.331-0.041-0.484
		c-0.017-0.155-0.03-0.284-0.043-0.404c-0.021-0.24-0.04-0.497-0.06-0.833c-0.014-0.204-0.024-0.454-0.047-0.682
		c-0.02-0.202-0.041-0.372-0.059-0.507c-0.014-0.113-0.027-0.208-0.037-0.302c-0.021-0.202-0.037-0.417-0.053-0.666
		c-0.021-0.39-0.036-0.861-0.057-1.221c-0.006-0.115-0.01-0.189-0.008-0.248c-0.007-0.106-0.005-0.217-0.009-0.37
		c-0.01-0.285-0.021-0.639-0.037-1.046c-0.013-0.371-0.024-0.746-0.034-1.045c-0.011-0.303-0.015-0.595-0.021-0.988
		c-0.008-0.438-0.018-0.991-0.023-1.39c-0.007-0.143-0.013-0.264-0.019-0.392c-0.015-0.3-0.024-0.638-0.037-1.02
		c-0.017-0.418-0.028-0.853-0.056-1.201c-0.025-0.385-0.055-0.698-0.066-1.102c-0.02-0.402-0.036-0.875-0.055-1.215
		c-0.018-0.147-0.032-0.274-0.049-0.403c-0.002-0.009-0.006-0.02-0.008-0.033c-0.012-0.305-0.033-0.574-0.047-0.806
		c-0.002-0.04-0.002-0.157-0.021-0.305c-0.009-0.072-0.009-0.131-0.015-0.213c0-0.005-0.002-0.041-0.009-0.105
		c-0.01-0.07-0.104-0.343-0.334-0.604c-0.168-0.101-0.565-0.167-0.737-0.135c-0.09,0.036-0.179,0.088-0.256,0.14
		c-0.024,0.001-0.043,0.001-0.074,0.003c-0.387,0.113-0.715,0.426-0.83,0.579c-0.049,0.066-0.125,0.173-0.188,0.284
		c-0.034,0.063-0.065,0.128-0.087,0.171c-0.018,0.039-0.044,0.093-0.075,0.166c-0.151,0.343-0.311,0.922-0.386,1.451
		c-0.073,0.488-0.155,0.932-0.239,1.415c-0.041,0.303-0.114,0.703-0.157,1.115C81.332,6.859,81.314,7.04,81.3,7.212
		c-0.028,0.334-0.063,0.651-0.108,1.002c-0.019,0.14-0.026,0.27-0.039,0.368c-0.012,0.113-0.035,0.23-0.06,0.386
		c-0.053,0.366-0.091,0.878-0.118,1.285c-0.037,0.507-0.078,0.96-0.134,1.437c-0.026,0.243-0.055,0.514-0.073,0.794
		c-0.011,0.156-0.019,0.311-0.025,0.447c-0.006,0.081-0.006,0.143-0.01,0.198c-0.002,0.035-0.006,0.072-0.017,0.154
		c-0.008,0.077-0.015,0.162-0.024,0.269c-0.012,0.115-0.019,0.206-0.019,0.189c-0.053,0.481-0.063,0.873-0.073,1.317
		c-0.005,0.421,0.004,0.957,0.002,1.403c-0.002,0.446-0.009,0.771-0.009,1.192c-0.008,0.376-0.014,0.865-0.021,1.358
		c-0.01,0.612-0.014,1.009-0.021,1.47c-0.006,0.362-0.026,0.795-0.045,1.268c-0.021,0.475-0.021,0.883-0.022,1.228
		c0.002,0.424,0,1.029-0.006,1.627c-0.006,0.629-0.022,1.046-0.043,1.507c-0.016,0.335-0.039,0.727-0.063,1.18
		c-0.013,0.234-0.021,0.473-0.036,0.669c-0.025,0.368-0.07,0.658-0.098,1.063c-0.021,0.369-0.038,0.83-0.063,1.27
		c-0.023,0.434-0.051,0.78-0.078,1.091c-0.039,0.461-0.094,1.138-0.139,1.766c-0.037,0.596-0.068,1.053-0.104,1.523
		c-0.025,0.362-0.078,0.787-0.123,1.26c-0.029,0.256-0.053,0.5-0.076,0.69c-0.027,0.244-0.08,0.452-0.129,0.757
		c-0.069,0.444-0.096,0.976-0.148,1.459c-0.055,0.53-0.125,0.908-0.174,1.353c-0.047,0.446-0.098,1.027-0.146,1.503
		c-0.027,0.339-0.051,0.646-0.084,0.949c-0.027,0.232-0.058,0.468-0.082,0.679c-0.015,0.107-0.022,0.201-0.033,0.297
		c-0.014,0.095-0.026,0.2-0.045,0.328c-0.012,0.093-0.022,0.193-0.033,0.28c-0.012,0.095-0.016,0.169-0.021,0.219
		c-0.004,0.046-0.008,0.068-0.02,0.127c-0.014,0.084-0.021,0.156-0.023,0.192c-0.057,0.487-0.117,0.851-0.191,1.313
		c-0.045,0.268-0.098,0.551-0.145,0.866c-0.023,0.149-0.048,0.305-0.072,0.473c-0.015,0.104-0.021,0.191-0.027,0.251
		c-0.002,0.017-0.012,0.051-0.026,0.129s-0.022,0.128-0.03,0.165c-0.021,0.092-0.045,0.189-0.072,0.29
		c-0.008,0.011-0.014,0.019-0.021,0.029c0,0-0.004,0.003-0.006,0.004c-0.152,0.022-0.165,0.031-0.111,0.022
		c-0.076,0.019-0.004,0.045-0.021,0.038c-0.074-0.036-0.091-0.045-0.103-0.058c-0.025-0.004-0.109-0.056-0.264-0.133
		c-0.003-0.001-0.003-0.001-0.006-0.002c-0.046-0.058-0.129-0.162-0.238-0.276c-0.037-0.037-0.098-0.101-0.166-0.17
		c-0.023-0.042-0.049-0.087-0.101-0.17c-0.069-0.094-0.11-0.139-0.108-0.133c-0.068-0.094-0.135-0.18-0.211-0.278
		c-0.052-0.059-0.113-0.13-0.172-0.2c-0.029-0.224-0.059-0.455-0.081-0.719c-0.048-0.417-0.086-0.887-0.144-1.309
		c-0.041-0.284-0.09-0.57-0.144-0.812c-0.097-0.48-0.164-0.737-0.209-1.373c-0.013-0.136-0.024-0.262-0.032-0.376
		c-0.02-0.193-0.033-0.37-0.052-0.548c-0.014-0.174-0.026-0.346-0.043-0.51c-0.026-0.327-0.069-0.662-0.119-0.93
		c-0.09-0.391-0.161-0.732-0.245-1.406c-0.039-0.323-0.087-0.684-0.14-1.023c-0.001-0.338-0.002-0.673-0.002-1.021
		c-0.001-1-0.021-2.096-0.021-3.114c0-0.136,0-0.293-0.004-0.46c-0.002-0.117-0.008-0.228-0.012-0.322c0-0.092,0-0.184,0-0.275
		c-0.006-0.115-0.013-0.227-0.02-0.332c-0.021-0.397-0.039-0.759-0.053-1.158c-0.013-0.21-0.039-0.263-0.023-0.283
		c0.006-0.05,0.012-0.173,0.005-0.287c-0.004-0.06-0.007-0.102-0.009-0.136c-0.006-0.132-0.008-0.215-0.008-0.297
		c0-0.058,0-0.123,0-0.202c-0.002-0.137-0.004-0.276-0.006-0.408c-0.005-0.235-0.007-0.43-0.007-0.672
		c-0.002-0.103-0.002-0.216-0.002-0.315c0.004-0.565,0.007-1.146,0.011-1.859c0-0.085,0-0.174,0-0.256
		c0-0.401,0.006-0.678,0.023-1.06c0.003-0.063,0.011-0.157,0.011-0.261c0-0.085-0.002-0.136,0-0.172
		c0.003-0.075,0.007-0.166,0.009-0.26c0.004-0.183,0.006-0.355,0.01-0.518c0.005-0.319,0.002-0.615,0.013-0.883
		c0.019-0.558,0.013-1.053,0.009-1.775c-0.002-0.451-0.006-0.852-0.008-1.207c-0.006-0.335-0.018-0.696-0.027-1.074
		c-0.006-0.388-0.004-0.826-0.006-1.19c0-0.32,0.002-0.659,0.002-0.969c0-0.118-0.002-0.221-0.004-0.352
		c0-0.079-0.002-0.167-0.002-0.255c0-0.087-0.002-0.175-0.002-0.253c0-0.069,0-0.135,0-0.204c-0.003-0.182-0.007-0.369-0.012-0.557
		c-0.008-0.273-0.016-0.538-0.02-0.759c-0.007-0.291-0.009-0.58-0.023-0.887c-0.012-0.216-0.023-0.453-0.041-0.681
		c-0.023-0.304-0.035-0.63-0.035-0.941c0-0.1,0-0.198,0-0.306c0.004-0.559,0.006-1.162,0.012-1.802c0-0.128-0.002-0.265-0.004-0.398
		c-0.002-0.254-0.007-0.488-0.007-0.698c0.001-0.261-0.005-0.513-0.011-0.784c-0.002-0.356-0.002-0.689-0.004-1.074
		c-0.002-0.474,0.004-0.971-0.014-1.428c-0.013-0.249-0.025-0.498-0.044-0.746c-0.01-0.113-0.02-0.221-0.028-0.327
		c-0.029-0.573-0.041-1.184-0.144-1.851c-0.045-0.221-0.09-0.476-0.144-0.686c-0.016-0.061-0.045-0.169-0.086-0.263
		c-0.043-0.091-0.193-0.271-0.357-0.385c-0.044-0.121-0.139-0.313-0.307-0.502c-0.166-0.1-0.568-0.166-0.746-0.13
		c-0.139,0.054-0.313,0.175-0.373,0.233c-0.096,0.109-0.188,0.268-0.225,0.359c-0.041,0.123-0.064,0.254-0.078,0.33
		c-0.01,0.068-0.019,0.151-0.024,0.234c-0.005,0.079-0.001,0.091,0.001,0.067c-0.004,0.014-0.021,0.063-0.037,0.149
		c-0.012,0.053-0.025,0.121-0.04,0.19c-0.013,0.112-0.021,0.201-0.03,0.289c-0.021,0.18-0.048,0.384-0.072,0.55
		c-0.034,0.217-0.079,0.42-0.129,0.657c-0.024,0.111-0.063,0.298-0.076,0.501c-0.004,0.078-0.004,0.137-0.006,0.173
		c-0.006,0.093-0.01,0.141-0.02,0.198c-0.005,0.042-0.018,0.103-0.027,0.188c-0.014,0.085-0.029,0.196-0.041,0.309
		c-0.008,0.085-0.015,0.153-0.02,0.202c-0.007,0.054-0.01,0.083-0.02,0.125c-0.041,0.235-0.092,0.512-0.127,0.777
		c-0.008,0.062-0.015,0.106-0.02,0.138c-0.01,0.059-0.041,0.191-0.057,0.375c0,0.001-0.006,0.058-0.008,0.127
		C71.85,7.128,71.852,7.16,71.85,7.172c-0.015,0.138-0.022,0.216-0.031,0.302C71.813,7.549,71.807,7.61,71.8,7.671
		c-0.007,0.057-0.012,0.103-0.019,0.146c-0.016,0.103-0.037,0.231-0.055,0.371c-0.016,0.113-0.022,0.201-0.035,0.27
		c-0.041,0.27-0.131,0.598-0.137,1.098c0,0.048,0.001,0.076,0.003,0.088c-0.005,0.045-0.016,0.074-0.03,0.197
		c-0.006,0.06-0.012,0.116-0.019,0.17c-0.015,0.146-0.024,0.285-0.038,0.409c-0.023,0.235-0.057,0.449-0.089,0.708
		c-0.028,0.231-0.053,0.487-0.065,0.818c-0.002,0.058-0.004,0.115-0.006,0.169c-0.002,0.068-0.006,0.083-0.012,0.132
		c-0.004,0.043-0.014,0.1-0.021,0.184c-0.01,0.088-0.021,0.189-0.031,0.285c-0.012,0.11-0.021,0.206-0.029,0.283
		c-0.009,0.08-0.014,0.132-0.021,0.186c-0.016,0.124-0.035,0.268-0.055,0.42c-0.02,0.182-0.037,0.387-0.048,0.652
		c-0.002,0.058-0.004,0.115-0.007,0.168c-0.002,0.074-0.005,0.112-0.009,0.165c-0.005,0.057-0.017,0.131-0.024,0.226
		c-0.01,0.121-0.019,0.23-0.029,0.333c-0.021,0.215-0.053,0.436-0.07,0.651c-0.02,0.238-0.045,0.483-0.044,0.944
		c0,0.083,0.003,0.126,0.001,0.146c-0.006,0.082-0.014,0.159-0.016,0.26c-0.002,0.1-0.002,0.177-0.004,0.238
		c-0.004,0.146-0.014,0.29-0.017,0.434c-0.007,0.27-0.013,0.502-0.021,0.72c-0.006,0.139,0,0.194-0.008,0.234
		c-0.017,0.143-0.017,0.323-0.021,0.5c-0.002,0.072-0.004,0.146-0.006,0.217c-0.004,0.154-0.006,0.248-0.008,0.337
		c-0.006,0.115-0.01,0.204-0.016,0.284c-0.011,0.182-0.023,0.33-0.039,0.49c-0.027,0.29-0.042,0.545-0.063,0.963
		c-0.002,0.05-0.006,0.121-0.008,0.2c-0.004,0.142-0.011,0.218-0.021,0.331c-0.009,0.107-0.019,0.213-0.028,0.315
		c-0.021,0.196-0.043,0.375-0.063,0.55c-0.027,0.256-0.057,0.493-0.069,0.885c-0.002,0.09-0.002,0.168-0.005,0.231
		c-0.007,0.146-0.02,0.259-0.023,0.395c-0.009,0.138-0.015,0.273-0.021,0.399c-0.017,0.251-0.032,0.457-0.054,0.645
		c-0.025,0.243-0.068,0.485-0.1,0.956c-0.007,0.09-0.012,0.189-0.017,0.28c-0.007,0.141-0.009,0.258-0.013,0.357
		c-0.006,0.112-0.015,0.217-0.021,0.326c-0.014,0.206-0.023,0.347-0.045,0.473c-0.03,0.208-0.117,0.466-0.15,0.931
		c-0.007,0.09-0.01,0.162-0.015,0.215c-0.013,0.134-0.022,0.25-0.037,0.375c-0.013,0.131-0.026,0.259-0.043,0.382
		c-0.028,0.238-0.06,0.437-0.09,0.663c-0.063,0.453-0.125,1.046-0.169,1.533c-0.02,0.194-0.031,0.379-0.04,0.542
		c-0.019,0.286-0.054,0.592-0.063,0.929c0,0.09,0.006,0.165,0.008,0.231c-0.012,0.121-0.023,0.245-0.035,0.367
		c-0.01,0.11-0.018,0.226-0.024,0.351c-0.006,0.105-0.006,0.201-0.008,0.269c-0.008,0.374-0.049,0.63-0.079,1.014
		c-0.014,0.172-0.027,0.352-0.042,0.538c-0.005,0.07-0.013,0.151-0.021,0.244c-0.017,0.171-0.021,0.34-0.026,0.458
		c-0.007,0.12-0.013,0.202-0.021,0.294c-0.006,0.11-0.014,0.216-0.021,0.321c-0.014,0.139-0.025,0.25-0.039,0.385
		c0,0.015-0.01,0.067-0.021,0.151c-0.006,0.105-0.006,0.202-0.004,0.24c0.008,0.083,0.026,0.193,0.104,0.426
		c-0.056,0.376-0.109,0.746-0.173,1.079c-0.066,0.426-0.094,0.789-0.129,1.127c-0.014,0.174-0.022,0.331-0.037,0.5
		c-0.008,0.095-0.014,0.198-0.021,0.31c-0.011,0.105-0.027,0.245-0.044,0.426c-0.013,0.143-0.021,0.274-0.026,0.367
		c-0.057,0.444-0.125,0.727-0.191,1.093c-0.037,0.293-0.076,0.606-0.123,1.01c-0.021,0.167-0.044,0.351-0.064,0.537
		c-0.039,0.328-0.065,0.66-0.101,0.932c-0.005,0.033-0.011,0.058-0.019,0.089c-0.004,0.006-0.004,0.006-0.008,0.013
		c-0.05,0.079-0.145,0.229-0.229,0.389c-0.059,0.124-0.063,0.149-0.045,0.123c-0.19,0.325-0.402,0.708-0.565,0.977
		c-0.036,0.064-0.055,0.093-0.103,0.161c-0.102,0.149-0.198,0.282-0.281,0.373c-0.035,0.042,0.001,0.011,0.023-0.009
		c-0.016,0.026-0.114,0.097-0.271,0.229c-0.096,0.085-0.116,0.104-0.2,0.138c-0.023,0.005-0.047,0.01-0.084,0.019
		c0.09-0.01-0.023,0.007-0.246,0.078c-0.014,0-0.016,0-0.031,0c-0.021,0-0.041-0.006-0.154-0.016c-0.126,0-0.198,0.004-0.262-0.002
		c0.005,0.007,0.027,0.017-0.031,0c-0.071-0.016-0.083-0.009-0.102-0.011c0,0.009-0.064-0.027-0.193-0.088
		c-0.031-0.052-0.078-0.141-0.146-0.263c0-0.024-0.004-0.051-0.006-0.075c-0.01-0.044-0.02-0.086-0.029-0.128
		c-0.018-0.084-0.033-0.163-0.047-0.242c-0.012-0.08-0.021-0.154-0.029-0.229c-0.012-0.075-0.022-0.145-0.033-0.217
		c-0.012-0.072-0.021-0.14-0.031-0.212c-0.012-0.107-0.021-0.212-0.031-0.323c-0.058-0.458-0.107-0.815-0.127-1.116
		c-0.05-0.375-0.052-0.705-0.089-1.131c-0.026-0.316-0.062-0.658-0.063-0.921c-0.002-0.053-0.004-0.114-0.006-0.195
		c-0.006-0.111-0.011-0.232-0.016-0.356c-0.006-0.265-0.02-0.525-0.048-0.788c-0.038-0.42-0.03-0.883-0.048-1.367
		c-0.027-0.665-0.036-1.508-0.053-2.137c-0.004-0.083-0.004-0.203-0.019-0.353c-0.011-0.118-0.022-0.196-0.022-0.23
		c-0.002-0.029-0.002-0.105-0.015-0.208c-0.012-0.093-0.026-0.208-0.048-0.331c-0.021-0.165-0.047-0.277-0.04-0.35
		c0.002-0.046,0.015-0.122,0.021-0.243c0.002-0.28,0.014-0.523,0.021-0.817c0.002-0.202,0.004-0.43,0.007-0.625
		c-0.005-0.644-0.008-1.314-0.014-1.974c-0.002-0.428-0.006-0.876,0.006-1.359c0.008-0.529,0.014-1.019,0.006-1.487
		c-0.001-0.16-0.003-0.333-0.003-0.512c0.001-0.374-0.003-0.702,0.005-0.983c0.018-0.455,0.034-0.936,0.051-1.436
		c0.004-0.212,0.021-0.467,0.028-0.739c0.013-0.365,0.017-0.732,0.019-1.049c0.008-0.584,0.016-1.111,0.021-1.763
		c-0.002-0.271,0-0.544,0.005-0.825c0.012-0.353,0.018-0.682,0.014-0.998c-0.002-0.583,0.021-1.204,0-1.973
		c-0.004-0.106-0.01-0.188-0.008-0.241c0-0.044,0.002-0.112,0-0.192c-0.002-0.067-0.006-0.147-0.011-0.229
		c-0.006-0.102-0.013-0.186-0.017-0.263c-0.006-0.219,0.003-0.478,0.004-0.781c-0.006-0.473-0.001-1.018-0.014-1.396
		c-0.01-0.328-0.039-0.571-0.045-0.864c-0.002-0.098,0-0.219-0.002-0.342c-0.002-0.18-0.004-0.345-0.009-0.513
		c-0.009-0.269-0.026-0.556-0.046-0.822c-0.042-0.486-0.049-0.913-0.082-1.5c-0.037-0.616-0.098-1.28-0.141-1.781
		c-0.037-0.495-0.059-0.872-0.12-1.512c-0.029-0.336-0.069-0.722-0.079-1c-0.005-0.056-0.006-0.113-0.01-0.189
		c0-0.054,0.004-0.124,0.004-0.197c-0.006-0.115-0.014-0.199-0.018-0.278c0-0.013,0-0.028,0-0.042
		c0.002-0.083,0.004-0.171,0.008-0.291c-0.004-0.06-0.006-0.139-0.01-0.209c0.002-0.049,0.004-0.094,0.006-0.148
		c0,0,0-0.002,0.002-0.003c0.012-0.055,0.021-0.121,0.023-0.15c0.001-0.027,0.003-0.056,0.004-0.077
		c0.003-0.093,0.001-0.182,0.001-0.258c-0.001-0.073-0.002-0.152-0.003-0.229c-0.001-0.088-0.002-0.176-0.004-0.264
		c-0.001-0.109-0.003-0.208-0.004-0.311c-0.003-0.149-0.008-0.318-0.018-0.486c0.002-0.277,0.002-0.524,0-0.788
		c-0.002-0.081-0.004-0.164-0.008-0.25c-0.002-0.184-0.007-0.383-0.013-0.57c-0.017-0.312,0.019-0.773-0.114-1.244
		C64.135,3.106,64.1,3.042,64.1,3.033c-0.017-0.051-0.035-0.118-0.059-0.193c-0.045-0.124-0.113-0.335-0.236-0.534
		c-0.043-0.058-0.061-0.078-0.074-0.091c-0.004-0.01-0.002-0.006-0.008-0.019c-0.014-0.031-0.053-0.107-0.094-0.167
		c-0.053-0.067-0.285-0.237-0.501-0.294c-0.024,0-0.054,0.007-0.081,0.011c-0.193-0.063-0.449-0.094-0.581-0.069
		c-0.05,0.021-0.103,0.051-0.153,0.081c-0.017-0.002-0.027-0.018-0.045-0.017c-0.054,0.003-0.09,0.039-0.133,0.063
		c-0.015,0.006-0.029,0.012-0.043,0.02c-0.021,0.017-0.042,0.024-0.058,0.045c-0.091,0.077-0.147,0.187-0.146,0.314
		c-0.037,0.063-0.06,0.134-0.063,0.211c-0.021,0.081-0.037,0.159-0.044,0.209c-0.012,0.068-0.02,0.151-0.026,0.234
		c-0.005,0.079-0.001,0.091,0.001,0.067c-0.004,0.014-0.021,0.063-0.035,0.149c-0.015,0.053-0.029,0.121-0.041,0.191
		c-0.015,0.111-0.021,0.201-0.033,0.289c-0.021,0.18-0.045,0.384-0.07,0.55c-0.035,0.218-0.08,0.42-0.129,0.656
		C61.422,4.85,61.384,5.037,61.37,5.24c-0.003,0.079-0.004,0.137-0.007,0.174c-0.006,0.093-0.01,0.141-0.018,0.198
		C61.34,5.654,61.328,5.715,61.316,5.8s-0.028,0.196-0.041,0.308c-0.008,0.085-0.012,0.153-0.019,0.203
		c-0.007,0.054-0.01,0.083-0.019,0.125c-0.041,0.235-0.092,0.512-0.129,0.776c-0.004,0.062-0.01,0.106-0.014,0.138
		c-0.011,0.058-0.041,0.19-0.058,0.375c0,0.001-0.005,0.057-0.009,0.126c-0.002,0.073-0.002,0.105-0.004,0.117
		c-0.012,0.138-0.021,0.216-0.03,0.302c-0.007,0.075-0.013,0.136-0.021,0.197c-0.008,0.057-0.013,0.103-0.02,0.146
		c-0.016,0.104-0.037,0.231-0.057,0.371c-0.014,0.113-0.021,0.201-0.032,0.27c-0.041,0.271-0.132,0.598-0.14,1.098
		c0.002,0.099,0.006,0.113,0.006,0.08c-0.004,0.051-0.016,0.076-0.031,0.206c-0.008,0.06-0.014,0.115-0.018,0.169
		c-0.016,0.145-0.024,0.285-0.039,0.409c-0.023,0.236-0.057,0.449-0.088,0.708c-0.029,0.231-0.054,0.487-0.065,0.818
		c-0.003,0.058-0.005,0.115-0.009,0.169c-0.002,0.068-0.004,0.083-0.01,0.133c-0.004,0.042-0.014,0.099-0.021,0.184
		c-0.012,0.088-0.021,0.189-0.031,0.285c-0.012,0.11-0.021,0.207-0.027,0.283c-0.011,0.08-0.016,0.133-0.021,0.187
		c-0.018,0.124-0.037,0.268-0.055,0.419c-0.021,0.182-0.039,0.388-0.049,0.652c-0.002,0.058-0.004,0.115-0.006,0.168
		c-0.004,0.074-0.007,0.111-0.011,0.165c-0.005,0.058-0.017,0.132-0.022,0.227c-0.012,0.121-0.021,0.229-0.029,0.333
		c-0.023,0.215-0.053,0.436-0.072,0.651c-0.018,0.238-0.045,0.483-0.044,0.944c0,0.083,0.003,0.126,0.001,0.146
		c-0.004,0.081-0.012,0.158-0.016,0.26c-0.002,0.1,0,0.177-0.002,0.238c-0.006,0.146-0.016,0.29-0.019,0.434
		c-0.007,0.27-0.012,0.502-0.021,0.72c-0.006,0.139,0.002,0.194-0.006,0.234c-0.018,0.143-0.019,0.323-0.022,0.5
		c-0.002,0.072-0.004,0.146-0.006,0.217c-0.003,0.154-0.007,0.248-0.009,0.337c-0.004,0.116-0.008,0.205-0.014,0.284
		c-0.012,0.182-0.023,0.33-0.039,0.49c-0.027,0.29-0.041,0.546-0.062,0.963c-0.002,0.05-0.009,0.121-0.011,0.199
		c-0.004,0.142-0.01,0.218-0.02,0.332c-0.009,0.107-0.018,0.213-0.029,0.315c-0.021,0.196-0.043,0.375-0.063,0.55
		c-0.027,0.256-0.055,0.493-0.068,0.885c-0.002,0.09-0.002,0.168-0.006,0.231c-0.007,0.146-0.018,0.258-0.025,0.394
		c-0.006,0.139-0.012,0.274-0.019,0.4c-0.017,0.251-0.032,0.457-0.052,0.644c-0.027,0.243-0.07,0.485-0.102,0.956
		c-0.006,0.09-0.013,0.189-0.018,0.28c-0.006,0.141-0.008,0.257-0.012,0.358c-0.008,0.111-0.016,0.217-0.021,0.325
		c-0.015,0.206-0.025,0.347-0.046,0.472c-0.03,0.208-0.116,0.466-0.151,0.931c-0.006,0.09-0.008,0.162-0.014,0.215
		c-0.012,0.134-0.023,0.25-0.035,0.374c-0.014,0.131-0.027,0.26-0.043,0.383c-0.029,0.238-0.06,0.436-0.091,0.662
		c-0.062,0.452-0.125,1.046-0.169,1.533c-0.018,0.194-0.031,0.379-0.04,0.542c-0.017,0.286-0.053,0.592-0.063,0.929
		c0,0.091,0.006,0.165,0.008,0.232c-0.014,0.12-0.022,0.244-0.034,0.366c-0.011,0.11-0.021,0.225-0.024,0.351
		c-0.002,0.045-0.002,0.075-0.005,0.114c-0.036,0.332-0.073,0.659-0.118,0.957c-0.07,0.529-0.151,0.993-0.224,1.479
		c-0.022,0.176-0.048,0.342-0.074,0.521c-0.062,0.452-0.108,0.941-0.168,1.305c-0.082,0.59-0.184,1.093-0.263,1.671
		c-0.049,0.419-0.102,0.977-0.139,1.509c-0.051,0.556-0.148,0.921-0.284,1.466c-0.066,0.284-0.151,0.636-0.222,1.042
		c-0.045,0.279-0.086,0.599-0.127,0.898c-0.033,0.271-0.063,0.488-0.097,0.668c-0.036,0.174-0.097,0.369-0.166,0.589
		c-0.03,0.001-0.051,0.001-0.083,0.002c-0.195,0.023-0.424-0.046-0.759-0.16c-0.099-0.033-0.065-0.012-0.035,0.001
		c-0.013-0.001-0.024-0.009-0.103-0.07c-0.064-0.047-0.178-0.143-0.313-0.247c-0.021-0.063-0.035-0.104-0.039-0.127
		c-0.028-0.113-0.043-0.284-0.08-0.519c-0.05-0.333-0.095-0.583-0.127-0.89c-0.019-0.174-0.036-0.33-0.046-0.467
		c-0.004-0.039-0.007-0.144-0.021-0.275c-0.026-0.199-0.06-0.335-0.069-0.425c-0.011-0.078-0.021-0.146-0.027-0.223
		c-0.006-0.092-0.01-0.237-0.024-0.402c-0.041-0.31-0.096-0.535-0.11-0.71c-0.043-0.404-0.073-0.823-0.118-1.257
		c-0.018-0.207-0.043-0.503-0.111-0.793c-0.029-0.116-0.053-0.17-0.062-0.199c-0.041-0.126-0.071-0.287-0.104-0.464
		c0.021-0.057,0.043-0.113,0.047-0.176c0.004-0.038-0.01-0.071-0.014-0.107c0.004,0.001,0.021,0.005,0.021,0.005
		c0.003,0.009,0.006,0.015,0.008,0.012c0.004-0.011,0.008-0.023,0.014-0.046c0.006-0.071,0.008-0.157,0.016-0.26
		c0.013-0.216,0.025-0.5,0.041-0.83c0.006-0.148,0.012-0.314,0.015-0.505c0.002-0.146,0.004-0.317,0.003-0.491
		c-0.018-0.371-0.044-0.745-0.072-1.09c-0.02-0.183-0.039-0.369-0.063-0.57c-0.016-0.097-0.027-0.195-0.041-0.292
		c0.006-0.396,0.015-0.793,0.025-1.12c0.021-0.465,0.037-0.933,0.043-1.48c0.004-0.404-0.002-0.831,0-1.184
		c0.002-0.456,0.037-0.854,0.045-1.491c0.006-0.522,0.013-1.077,0.039-1.513c0.033-0.501,0.033-0.909,0.051-1.472
		c0.016-0.504,0.051-1.076,0.066-1.49c0.012-0.377,0.043-0.738,0.069-1.267c0.026-0.525,0.035-1.104,0.05-1.52
		c0.016-0.457,0.038-0.926,0.041-1.533c0.002-0.419-0.005-0.846-0.008-1.192c0-0.391,0.002-0.709,0-1.098
		c-0.007-0.52-0.094-0.913-0.021-1.25c0.018-0.143,0.018-0.253,0.015-0.336c-0.005-0.107-0.009-0.196-0.011-0.266
		c-0.008-0.125-0.012-0.211-0.018-0.292c-0.003-0.104-0.008-0.179-0.008-0.248c-0.002-0.148-0.001-0.33-0.009-0.514
		c-0.013-0.322-0.036-0.62-0.038-0.937c-0.014-0.439-0.018-0.896-0.025-1.276c0-0.124,0-0.242,0-0.37
		c0-0.226-0.004-0.449-0.003-0.679c0.005-0.49-0.004-1.044,0.007-1.455c0.002-0.401,0.012-0.81,0.045-1.376
		c0.041-0.645,0.1-1.191,0.125-1.71c0.033-0.664,0.049-1.235,0.08-1.972c0.01-0.136,0.023-0.307,0.028-0.465c0-0.086,0-0.157,0-0.21
		c-0.003-0.119-0.006-0.236-0.01-0.346c-0.007-0.139-0.015-0.283-0.025-0.419c-0.014-0.242-0.022-0.525-0.056-0.805
		c-0.01-0.081-0.018-0.125-0.02-0.147c-0.02-0.146-0.033-0.39-0.082-0.65c-0.004-0.026-0.007-0.027-0.009-0.032
		c-0.001-0.042-0.003-0.089-0.009-0.15c-0.018-0.133-0.037-0.237-0.048-0.288c-0.021-0.093-0.063-0.286-0.146-0.466
		c-0.041-0.082-0.117-0.22-0.203-0.333c-0.102-0.114-0.215-0.204-0.234-0.217c-0.1-0.071-0.395-0.228-0.698-0.268
		c-0.035,0.002-0.041,0.005-0.063,0.007C53.55,2.019,53.54,2,53.523,1.981c-0.178-0.106-0.569-0.17-0.742-0.138
		c-0.148,0.058-0.325,0.179-0.385,0.236c-0.095,0.109-0.187,0.269-0.225,0.359c-0.033,0.104-0.055,0.207-0.066,0.284
		c-0.013,0.024-0.037,0.057-0.043,0.078c-0.069,0.124-0.082,0.26-0.063,0.391c0,0.017-0.004,0.035-0.003,0.051
		C52,3.267,52.014,3.289,52.018,3.314c-0.006,0.032-0.014,0.06-0.02,0.095c-0.014,0.111-0.021,0.201-0.032,0.289
		c-0.021,0.18-0.047,0.383-0.071,0.55c-0.035,0.217-0.08,0.42-0.129,0.657c-0.023,0.11-0.063,0.298-0.076,0.501
		c-0.004,0.078-0.004,0.137-0.006,0.173c-0.007,0.093-0.011,0.14-0.019,0.198C51.66,5.82,51.648,5.88,51.637,5.966
		c-0.013,0.084-0.029,0.196-0.043,0.308c-0.008,0.085-0.013,0.153-0.018,0.203c-0.006,0.054-0.01,0.083-0.018,0.125
		c-0.041,0.235-0.093,0.512-0.129,0.777c-0.009,0.062-0.014,0.106-0.02,0.138c-0.01,0.059-0.04,0.191-0.057,0.375
		c0,0.001-0.004,0.057-0.008,0.126c-0.004,0.073-0.003,0.105-0.005,0.117c-0.013,0.138-0.022,0.216-0.03,0.301
		c-0.006,0.076-0.013,0.137-0.021,0.197c-0.007,0.057-0.013,0.103-0.019,0.147c-0.016,0.103-0.037,0.229-0.056,0.371
		c-0.014,0.113-0.022,0.201-0.032,0.27c-0.041,0.271-0.133,0.598-0.139,1.098c0.001,0.098,0.006,0.113,0.005,0.08
		c-0.004,0.05-0.014,0.075-0.03,0.205c-0.006,0.06-0.013,0.116-0.019,0.17c-0.007,0.076-0.015,0.144-0.021,0.216
		c-0.065,0.276-0.14,0.638-0.196,1.005c-0.083,0.577-0.166,0.992-0.257,1.442c-0.084,0.43-0.105,0.93-0.16,1.317
		c-0.053,0.385-0.104,0.636-0.146,0.98c-0.052,0.403-0.117,0.986-0.164,1.507c-0.039,0.386-0.101,0.645-0.174,0.986
		c-0.078,0.396-0.138,0.919-0.183,1.325c-0.05,0.431-0.114,0.76-0.183,1.21c-0.068,0.438-0.146,0.972-0.218,1.518
		c-0.054,0.427-0.085,0.705-0.153,1.048c-0.084,0.407-0.17,0.931-0.238,1.361c-0.049,0.344-0.11,0.624-0.165,0.991
		c-0.063,0.407-0.119,0.943-0.173,1.386c-0.049,0.394-0.1,0.671-0.153,1.038c-0.062,0.423-0.108,0.981-0.155,1.452
		c-0.043,0.453-0.08,0.765-0.128,1.125c-0.055,0.396-0.106,0.932-0.146,1.406c-0.031,0.454-0.049,0.721-0.1,1.049
		c-0.052,0.313-0.135,0.74-0.184,1.18c-0.046,0.492-0.066,0.818-0.1,1.1c-0.043,0.337-0.082,0.782-0.115,1.207
		c-0.027,0.424-0.049,0.711-0.069,1.049c-0.021,0.297-0.04,0.676-0.063,1.024c-0.006,0.125-0.01,0.238-0.016,0.351
		c-0.058,0.321-0.117,0.645-0.167,0.98c-0.043,0.372-0.077,0.787-0.101,1.281c-0.014,0.262-0.021,0.54-0.038,0.82
		c-0.017,0.384-0.036,0.803-0.044,1.198c-0.003,0.357,0,0.688,0.003,1.021c0.01,0.456,0.022,0.936,0.034,1.412
		c0.006,0.357,0.012,0.705,0.018,1.012c0,0.009-0.001,0.022-0.002,0.031c-0.01,0.17-0.044,0.378-0.082,0.658
		c-0.016,0.11-0.031,0.233-0.048,0.362c-0.011,0.112-0.024,0.261-0.038,0.417c-0.014,0.162-0.018,0.31-0.021,0.411
		c-0.004,0.114-0.006,0.216-0.012,0.325c-0.014,0.188-0.057,0.384-0.095,0.688c-0.022,0.191-0.042,0.41-0.054,0.61
		c-0.006,0.148-0.006,0.26-0.008,0.305c0.002,0.037-0.016,0.127-0.025,0.32c-0.044,0.653-0.044,1.49,0.008,2.352
		c0.049,0.685,0.111,1.41,0.252,2.062c0.088,0.374,0.191,0.907,0.348,1.554c0.102,0.401,0.225,0.801,0.33,1.159
		c0.123,0.411,0.241,0.787,0.358,1.154c0.089,0.294,0.181,0.575,0.271,0.89c0.106,0.368,0.219,0.805,0.34,1.25
		c0.058,0.207,0.121,0.455,0.195,0.694c0.229,0.697,0.508,1.192,0.717,1.615c0.25,0.488,0.563,1.198,0.955,1.888
		c0.391,0.679,0.826,1.198,1.129,1.57c0.326,0.395,0.697,1.08,1.184,1.829c0.613,0.897,1.455,1.564,2.128,2.015
		c0.118,0.077,0.235,0.165,0.354,0.249c0.021,0.025,0.043,0.054,0.104,0.131c0.019,0.027,0.072,0.133,0.188,0.298
		c0.008,0.008,0.014,0.013,0.02,0.021c0.078,0.126,0.157,0.252,0.227,0.368c0.08,0.117,0.135,0.213,0.229,0.354
		c0.146,0.222,0.284,0.427,0.414,0.657c0.021,0.043,0.07,0.183,0.191,0.422c0.295,0.542,0.614,1.078,0.812,1.524
		c0.176,0.41,0.326,0.724,0.493,1.105c0.064,0.145,0.125,0.273,0.174,0.392c0.042,0.08,0.083,0.212,0.163,0.425
		c0.079,0.229,0.14,0.378,0.165,0.462c0.453,1.246,0.679,2.747,0.887,4.397c0.232,1.851,0.379,3.482,0.546,5.516
		c0.14,1.597,0.271,3.224,0.312,4.959c0.008,1.428,0.143,2.516,0.201,3.8c0.054,1.004-0.015,2.469,0.039,3.847
		c0.051,1.31,0.114,2.089,0.082,3.187c-0.014,0.74-0.019,1.443-0.021,2.134c-0.001,0.032-0.004,0.063-0.006,0.097
		c-0.088,1.969-0.098,3.857-0.139,5.83c-0.047,1.279-0.194,2.732-0.229,4.779c-0.012,2.229-0.156,4.128-0.303,6.729
		c-0.161,2.198-0.187,4.041-0.34,6.195c-0.094,1.813-0.113,3.768-0.155,5.693c-0.03,1.445-0.147,2.46-0.31,3.538
		c-0.201,1.39-0.279,3.165-0.359,4.657c-0.117,2.563-0.608,5.209-0.889,8.254c-0.187,1.879-0.33,3.778-0.508,5.353
		c-0.148,1.562-0.226,3.399-0.271,4.976c-0.048,1.334-0.013,2.541-0.075,3.638c-0.096,1.595-0.109,3.474-0.121,4.868
		c-0.016,1.836-0.104,3.983-0.094,5.932c0.011,1.057,0.02,2.302,0.081,3.684c0.024,0.778,0.048,1.443,0.059,2.064
		c0.03,0.589,0.063,1.171,0.085,1.82c0.016,0.42,0.024,0.834,0.035,1.238c0,0.168,0,0.334,0,0.502
		c-0.004,0.25-0.009,0.517-0.014,0.772c0.006,1.335,0.031,2.53,0.148,3.703c0.068,0.69,0.168,1.53,0.328,2.366
		c0.1,0.492,0.241,0.984,0.367,1.345c0.177,0.444,0.393,0.942,0.604,1.385c0.068,0.154,0.16,0.392,0.301,0.685
		c0.457,0.808,1.093,1.373,1.318,1.567c-0.031-0.054,0.036,0.044,0.199,0.222c0.354,0.568,0.835,1.092,1.225,1.381
		c0.396,0.308,0.937,0.639,1.487,0.877c0.787,0.313,2.163,0.412,3.244-0.063c0.548-0.283,1.092-0.718,1.479-1.07
		c0.207-0.189,0.429-0.412,0.586-0.578c0.164-0.164,0.293-0.275,0.461-0.445c0.529-0.563,1.046-1.428,1.388-2.137
		c0.259-0.572,0.578-1.332,0.783-1.938c0.06-0.167,0.112-0.313,0.169-0.479c0.087-0.276,0.182-0.541,0.277-0.795
		c0.076-0.17,0.201-0.449,0.317-0.801c0.185-0.645,0.3-1.334,0.364-1.861c0.087-0.674,0.094-1.349,0.128-2.008
		c0.021-0.49,0.056-0.916,0.116-1.316c0.078-0.585,0.183-1.387,0.266-2.361c0.061-0.742,0.125-1.477,0.188-2.051
		c0.033-0.288,0.082-0.572,0.125-0.945c0.095-0.898,0.123-2.093,0.219-3.121c0.064-0.685,0.15-1.287,0.226-1.881
		c0.101-0.752,0.169-1.697,0.21-2.644c0.035-0.812,0.1-1.568,0.147-2.226c0.024-0.367,0.046-0.699,0.065-1.109
		c0.057-0.816,0.101-1.942,0.121-2.955c0.012-0.674,0.016-1.295,0.021-1.891c0.003-0.904-0.025-2.039-0.047-3.101
		c-0.014-0.72-0.021-1.376-0.051-2.007c-0.017-0.348-0.041-0.664-0.056-1.01c-0.045-0.756-0.069-1.733-0.101-2.623
		c-0.021-0.666-0.036-1.252-0.063-1.828c-0.028-0.708-0.058-1.524-0.084-2.432c-0.019-0.563-0.036-1.123-0.046-1.617
		c-0.009-0.443-0.001-0.826,0.002-1.271c0.005-0.943-0.014-2.102-0.027-3.189c-0.008-0.605-0.008-1.172-0.015-1.717
		c-0.004-0.296-0.013-0.568-0.019-0.867c-0.016-0.75-0.018-1.739-0.034-2.631c-0.009-0.49-0.022-0.947-0.036-1.334
		c-0.012-0.367-0.023-0.676-0.035-1.019c-0.018-0.69-0.027-1.571-0.031-2.449c-0.004-0.483,0-0.958-0.002-1.394
		c-0.002-0.521-0.021-0.946-0.031-1.354c-0.021-0.827-0.021-1.905-0.033-2.934c-0.01-0.729-0.025-1.345-0.031-1.903
		c-0.004-0.32,0.001-0.652,0-1.054c0-0.671-0.008-1.449-0.009-2.151c-0.005-0.514-0.003-1.001-0.005-1.438
		c-0.002-0.342-0.004-0.639-0.006-0.961c-0.002-0.866-0.021-1.982-0.008-2.95c0.014-0.927,0.041-1.56,0.068-2.314
		c0.029-0.86,0.063-2.036,0.091-3.02c0.019-0.657,0.03-1.2,0.041-1.716c0.017-0.779,0.021-1.689,0.039-2.637
		c0.015-0.863,0.045-1.633,0.063-2.32c0.008-0.324,0.014-0.627,0.021-0.987c0.013-0.631,0.046-1.504,0.063-2.308
		c0.031-0.854,0.048-1.537,0.07-2.117c0.01-0.242,0.024-0.479,0.041-0.752c0.034-0.69,0.082-1.628,0.1-2.545
		c0.021-0.75,0.01-1.404,0.037-1.961c0.007-0.402,0.027-0.86,0.051-1.354c0.031-0.164,0.052-0.311,0.068-0.429
		c0.024-0.265,0.041-0.542,0.062-0.783c0.021-0.309,0.037-0.617,0.051-0.928c0.017-0.452,0.019-0.917,0.032-1.413
		c0.025-1.053,0.039-2.257,0.072-3.109c0.021-0.847,0.06-1.563,0.078-2.438c0.039-0.209,0.08-0.414,0.119-0.627
		c0.127-0.729,0.268-1.455,0.379-2.076c0.117-0.679,0.201-1.208,0.293-1.736c0.36-1.848,0.992-3.445,1.584-4.912
		c0.686-1.642,1.012-2.835,1.418-3.557c0.041-0.063,0.084-0.133,0.123-0.191c0.01-0.015,0.019-0.031,0.028-0.046
		c0.022-0.033,0.046-0.072,0.068-0.102c0.409-0.558,0.721-1.163,1.022-1.765c0.017-0.03,0.031-0.056,0.047-0.086
		c0.029-0.063,0.063-0.128,0.095-0.191c0.055-0.11,0.11-0.22,0.167-0.333c0.229-0.134,0.455-0.272,0.665-0.415
		c1.021-0.748,1.901-1.888,2.51-2.602c0.317-0.386,0.813-0.907,1.208-1.654c0.188-0.38,0.366-0.817,0.518-1.208
		c0.241-0.643,0.455-1.223,0.629-1.633c0.256-0.579,0.512-1.267,0.752-2.117c0.188-0.689,0.349-1.349,0.498-1.838
		c0.135-0.463,0.278-1.01,0.389-1.546c0.165-0.841,0.311-1.687,0.414-2.245c0.096-0.513,0.182-1.122,0.238-1.717
		c0.076-0.719,0.188-1.542,0.226-2.23c0.028-0.371,0.026-0.73,0.026-1.076c0-0.16,0-0.326,0-0.495
		c0.004-0.717,0.006-1.48,0.011-2.092c0.008-0.127,0.008-0.247,0.007-0.364C87.494,47.207,87.493,46.683,87.486,46.018z
		 M51.711,60.29c-0.113,0.133-0.314,0.148-0.447,0.034c-0.429-0.322-0.787-0.86-1.063-1.385c-0.253-0.539-0.452-1.103-0.612-1.511
		c-0.103-0.301-0.179-0.543-0.256-0.788c-0.058-0.173-0.119-0.361-0.171-0.552c-0.118-0.472-0.2-0.936-0.273-1.253
		c-0.041-0.179-0.082-0.332-0.117-0.493c-0.059-0.273-0.105-0.566-0.133-0.841c-0.047-0.47-0.074-0.905-0.102-1.31
		c-0.039-0.656-0.021-1.171-0.003-1.932c0.004-0.321,0.018-0.696,0.026-1.044c0.002-0.131,0.002-0.276,0.008-0.406
		c0.004-0.072,0.009-0.117,0.011-0.155c0.001-0.119-0.003-0.254,0.006-0.412c0.036-0.196,0.08-0.406,0.099-0.518
		c-0.025-0.013-0.054-0.016-0.08-0.021c-0.017-0.249,0.172-0.463,0.42-0.479c0.25-0.016,0.463,0.172,0.479,0.421
		c-0.024,0.024-0.051,0.053-0.078,0.075c0.021,0.166,0.017,0.401,0.025,0.585c-0.011,0.114-0.007,0.223-0.011,0.364
		c0,0.068-0.004,0.123-0.006,0.179c-0.007,0.106-0.007,0.244-0.01,0.387c-0.009,0.354-0.021,0.725-0.027,1.034
		c-0.002,0.763-0.002,1.234,0.052,1.854c0.032,0.408,0.061,0.829,0.108,1.282c0.026,0.242,0.07,0.479,0.131,0.727
		c0.033,0.132,0.078,0.276,0.129,0.471c0.092,0.344,0.184,0.794,0.306,1.23c0.042,0.167,0.092,0.331,0.146,0.505
		c0,0.001,0.002,0.001,0.002,0.002s0,0.001,0,0.002c0.078,0.243,0.152,0.472,0.252,0.76c0.133,0.432,0.287,0.972,0.49,1.479
		c0.182,0.521,0.385,0.971,0.666,1.258C51.811,59.956,51.825,60.157,51.711,60.29z M65.713,48.652
		c-0.021-0.013-0.025-0.009-0.027-0.006c-0.002-0.003-0.008-0.014-0.011-0.019C65.689,48.636,65.697,48.642,65.713,48.652z
		 M68.26,193.936c-0.006,0.188-0.086,0.367-0.246,0.485c-0.09,0.097-0.182,0.181-0.275,0.271c-0.062,0.096-0.139,0.18-0.24,0.24
		c-0.191,0.114-0.4,0.224-0.589,0.309s-0.396,0.165-0.576,0.223c-0.272,0.089-0.576,0.157-0.834,0.188
		c-0.263,0.029-0.551,0.031-0.792,0.01c-0.323-0.032-0.674-0.117-0.955-0.223c-0.352-0.136-0.71-0.342-0.988-0.553
		c-0.334-0.254-0.652-0.574-0.896-0.871c-0.237-0.302-0.448-0.634-0.604-0.92c-0.328-0.609-0.479-1.289-0.541-1.912
		c-0.076-0.729-0.078-1.516-0.158-2.1c-0.133-0.852-0.178-1.775-0.188-2.766c-0.021-0.053-0.044-0.107-0.05-0.17
		c0.007-0.107,0.021-0.248,0.036-0.396c0-0.021,0-0.036,0-0.055c-0.002-0.265,0.017-0.491,0.029-0.522
		c-0.117-0.301,0.008-0.645,0.306-0.785c0.31-0.147,0.681-0.019,0.827,0.291c0,0,0.002,0,0.002,0.002
		c0.059,0.12,0.063,0.248,0.041,0.37c0.013,0.237,0.005,0.468-0.002,0.651c-0.006,1.215,0.041,2.227,0.195,3.188
		c0.116,0.674,0.146,1.475,0.237,2.133c0.081,0.553,0.183,0.955,0.453,1.373c0.147,0.233,0.312,0.457,0.521,0.688
		c0.204,0.236,0.404,0.429,0.661,0.604c0.212,0.151,0.394,0.252,0.638,0.334c0.193,0.072,0.351,0.107,0.565,0.123
		c0.164,0.014,0.296,0.011,0.478-0.017c0.184-0.021,0.34-0.054,0.545-0.12c0.138-0.046,0.259-0.095,0.404-0.164
		c0-0.002,0.002,0,0.002,0c0.146-0.07,0.281-0.143,0.438-0.238c0.004-0.002,0.008-0.002,0.012-0.004
		c0.181-0.056,0.354-0.115,0.552-0.203c0.152-0.11,0.338-0.137,0.51-0.098c0.166-0.061,0.355-0.017,0.473,0.129
		C68.37,193.582,68.363,193.786,68.26,193.936z M75.127,76.78c-0.191,0.384-0.281,0.548-0.37,0.749
		c-0.065,0.142-0.126,0.279-0.176,0.442c-0.031,0.081-0.065,0.178-0.103,0.271c-0.049,0.124-0.09,0.206-0.123,0.29
		c-0.032,0.085-0.071,0.197-0.121,0.308c-0.049,0.118-0.104,0.23-0.148,0.328c-0.04,0.084-0.078,0.161-0.107,0.227
		c-0.068,0.146-0.112,0.278-0.218,0.482c-0.028,0.057-0.051,0.1-0.063,0.134c-0.049,0.11-0.084,0.202-0.116,0.313
		c-0.054,0.175-0.093,0.337-0.131,0.539c-0.066,0.316-0.12,0.751-0.192,1.099c-0.031,0.171-0.068,0.31-0.1,0.455
		c-0.034,0.144-0.066,0.271-0.083,0.374c-0.029,0.167-0.037,0.322-0.054,0.542c-0.016,0.328-0.064,0.673-0.09,1.047
		c-0.058,0.571-0.092,1.055-0.109,1.493c0,0.038-0.014,0.072-0.022,0.107c0.007,0.026,0.017,0.049,0.017,0.077
		c0.017,0.02,0.033,0.04,0.049,0.059c0,0.249-0.201,0.451-0.45,0.451s-0.451-0.202-0.451-0.451c0.017-0.021,0.034-0.042,0.052-0.063
		c0-0.028,0.01-0.053,0.017-0.08c-0.011-0.037-0.021-0.073-0.021-0.112c-0.005-0.453,0.008-0.966,0.043-1.551
		c0.039-0.405,0.1-0.747,0.125-1.031c0.012-0.213,0.021-0.41,0.053-0.621c0.022-0.145,0.063-0.298,0.094-0.434
		c0.04-0.162,0.078-0.287,0.109-0.429c0.062-0.309,0.109-0.745,0.181-1.101c0.047-0.22,0.102-0.427,0.166-0.624
		c0.046-0.135,0.102-0.276,0.163-0.408c0.035-0.069,0.072-0.128,0.097-0.167c0.089-0.161,0.132-0.273,0.224-0.452
		c0.037-0.073,0.08-0.15,0.121-0.228c0.049-0.094,0.1-0.189,0.146-0.29c0.036-0.08,0.069-0.174,0.108-0.273
		c0.045-0.113,0.086-0.195,0.125-0.292c0.028-0.072,0.058-0.162,0.09-0.257c0.084-0.196,0.183-0.371,0.265-0.509
		c0.129-0.212,0.243-0.36,0.455-0.715c0.084-0.154,0.276-0.21,0.431-0.126C75.157,76.437,75.211,76.626,75.127,76.78z
		 M77.677,48.207c0.011,0.008,0.021,0.015,0.03,0.022C77.706,48.236,77.707,48.242,77.677,48.207z"/>
</g>
</svg>
