<?xml version="1.0" encoding="utf-8"?>
<!-- Generator: Adobe Illustrator 16.0.0, SVG Export Plug-In . SVG Version: 6.00 Build 0)  -->
<!DOCTYPE svg PUBLIC "-//W3C//DTD SVG 1.1//EN" "http://www.w3.org/Graphics/SVG/1.1/DTD/svg11.dtd">
<svg version="1.1" id="Ebene_1" xmlns="http://www.w3.org/2000/svg" xmlns:xlink="http://www.w3.org/1999/xlink" x="0px" y="0px"
	 width="272.326px" height="288.779px" viewBox="0 0 272.326 288.779" enable-background="new 0 0 272.326 288.779"
	 xml:space="preserve">
<path fill="#FFFFFF" d="M272.427,102.643c-0.068-1.83-0.311-3.932-0.588-5.991c-0.206-1.521-0.445-3.18-0.763-4.816
	c-0.398-2.04-0.952-4.218-1.736-6.522c-0.997-2.909-2.438-6.365-4.5-10.289c-2.2-4.175-5.071-9.002-8.19-13.293
	c-1.76-2.415-3.748-4.749-5.906-7.263c-3.108-3.619-6.498-8.065-10.467-12.273c-2.123-2.241-4.481-4.331-6.686-6.282
	c-4.913-4.354-10.052-8.245-16.416-12.652c-2.797-1.938-5.771-3.998-8.779-5.904c-4.16-2.637-8.478-5.208-12.605-6.991
	c-3.404-1.458-7.038-2.577-10.439-3.545c-4.763-1.354-9.531-2.547-14.015-3.463c-3.423-0.697-7.03-1.271-10.783-1.814
	c-3.358-0.488-6.688-0.908-9.754-1.165c-3.427-0.284-6.905-0.321-10.313-0.323c-3.707,0-7.599-0.124-11.438,0.002
	c-3.503,0.119-6.956,0.457-10.095,0.928c-1.869,0.28-3.853,0.499-5.912,0.81c-3.721,0.56-7.504,1.221-11.192,1.979
	c-1.501,0.312-3.042,0.613-4.6,0.973c-5.563,1.275-11.354,2.646-16.732,4.569c-3.354,1.204-6.709,2.668-9.696,4.411
	c-6.384,3.745-12.856,7.916-18.784,12.368c-5.123,3.85-9.93,7.572-13.976,12.027c-2.495,2.765-4.775,5.825-6.909,8.647
	c-4.848,6.415-9.715,12.819-13.292,19.38c-0.988,1.844-1.685,3.786-2.357,5.449c-2.345,5.815-4.839,11.656-7.213,17.7
	c-1.36,3.475-2.441,7.331-3.513,11.409c-1.298,4.935-2.76,9.864-3.621,14.682c-0.662,3.753-0.926,7.868-1.032,12.267
	c-0.085,3.595-0.185,7.117-0.076,10.238c0.057,1.544-0.008,3.244,0.08,5.086c0.22,4.216,1.14,8.479,2.022,12.396
	c0.44,1.948,0.978,3.896,1.517,5.729c0.478,1.609,1.08,3.162,1.638,4.576c0.588,1.484,1.092,3.138,1.758,4.897
	c1.442,3.798,2.97,7.718,4.568,11.531c0.768,1.832,1.578,3.666,2.391,5.449c1.432,3.131,3.097,6.079,4.772,8.963
	c3.81,6.556,7.938,13.525,13.099,20.303c3.298,4.308,7.101,7.855,10.724,11.508c5.506,5.551,11.361,11.424,17.372,15.891
	c2.97,2.19,6.107,3.924,8.823,5.211c4.694,2.219,9.415,4.99,14.485,7.233c4.776,2.109,9.607,4.305,14.385,5.884
	c3.548,1.163,7.442,1.973,11.508,2.635c6.861,1.116,13.811,1.649,20.733,1.744c3.81,0.054,7.686,0.074,11.359,0
	c1.541-0.031,3.007,0.004,4.391,0.002c8.852-0.056,17.405-2.438,25.043-4.866c4.637-1.479,9.045-3.463,13.207-5.436
	c4.227-2.001,8.605-4.008,12.811-6.342c5.285-2.938,10.567-6.168,15.603-10.188c3.031-2.434,5.817-5.305,8.379-7.893
	c2.396-2.426,4.527-4.957,6.478-7.227c3.07-3.58,6.441-7.082,9.586-11.153c2.219-2.883,4.388-6.053,6.358-9.313
	c2.474-4.099,5.003-7.858,6.747-11.203c1.401-2.703,2.628-5.756,3.768-9.149c1.072-3.203,1.982-6.522,2.738-9.603
	c0.614-2.51,1.351-5.134,1.84-8.021c0.778-4.691,1.054-9.902,1.088-15.762c0.022-4.303-0.115-8.786-0.936-13.63
	c-0.316-1.853-0.751-3.872-1.252-6.04c-0.84-3.642-1.775-7.426-2.904-10.969c-0.49-1.531-1.07-3.032-1.638-4.395
	c-3.327-8.005-7.623-16.329-14.103-25.591c-1.064-1.52-3.159-1.888-4.68-0.823c-1.52,1.063-1.89,3.159-0.824,4.679
	c6.256,8.92,10.188,16.565,13.399,24.313c0.536,1.291,1.019,2.523,1.443,3.862c1.063,3.32,1.93,6.843,2.758,10.436
	c0.489,2.122,0.886,3.954,1.175,5.658c0.76,4.403,0.863,8.275,0.84,12.463c-0.031,5.714-0.271,10.391-0.996,14.688
	c-0.42,2.54-1.096,4.911-1.738,7.534c-0.731,2.988-1.567,6.042-2.584,9.065c-1.077,3.225-2.104,5.786-3.356,8.188
	c-1.539,2.975-3.979,6.594-6.537,10.826c-1.872,3.103-3.827,5.962-5.93,8.688c-2.913,3.79-6.162,7.154-9.361,10.876
	c-1.974,2.298-3.944,4.648-6.155,6.878c-2.588,2.616-5.101,5.224-7.799,7.372c-4.701,3.77-9.502,6.688-14.67,9.561
	c-3.972,2.211-8.156,4.124-12.422,6.144c-4.105,1.947-8.095,3.751-12.367,5.104c-7.529,2.395-15.084,4.561-23.023,4.552
	c-1.29,0.002-2.825-0.032-4.508,0c-3.586,0.071-7.352,0.052-11.133,0c-6.713-0.09-13.164-0.582-19.743-1.657
	c-3.933-0.64-7.317-1.336-10.487-2.386c-4.422-1.449-8.96-3.522-13.772-5.648c-4.718-2.075-9.361-4.807-14.325-7.16
	c-2.523-1.191-5.09-2.596-7.697-4.537c-5.596-4.132-11.1-9.676-16.603-15.222c-3.718-3.748-7.213-6.979-10.151-10.851
	c-4.938-6.466-8.836-13.072-12.631-19.604c-1.656-2.849-3.162-5.505-4.468-8.376c-0.798-1.748-1.566-3.484-2.307-5.254
	c-1.567-3.74-3.054-7.553-4.485-11.324c-0.591-1.551-1.108-3.239-1.789-4.976c-0.554-1.404-1.052-2.675-1.443-4.011
	c-0.524-1.778-1.005-3.517-1.407-5.308c-0.878-3.896-1.698-7.599-1.867-11.25c-0.079-1.548-0.014-3.199-0.075-4.992
	c-0.105-2.893-0.007-6.229,0.079-9.84c0.101-4.275,0.325-7.887,0.929-11.252c0.782-4.432,2.178-9.11,3.504-14.148
	c1.06-4.031,2.031-7.521,3.269-10.662c2.337-5.951,4.82-11.764,7.19-17.643c0.727-1.801,1.28-3.396,2.03-4.755
	c3.303-6.102,7.893-12.11,12.749-18.536c2.15-2.843,4.25-5.676,6.532-8.192c3.622-4.025,7.937-7.335,13.029-11.162
	c5.729-4.308,11.885-8.271,18.146-11.942c2.627-1.548,5.416-2.756,8.567-3.885c5.01-1.803,10.423-3.073,15.967-4.346
	c1.454-0.335,2.921-0.624,4.453-0.938c3.588-0.739,7.193-1.371,10.835-1.919c1.928-0.29,3.908-0.508,5.91-0.807
	c2.962-0.447,6.031-0.75,9.319-0.859c3.616-0.121,7.396,0,11.211,0.002c3.375,0.002,6.574,0.031,9.755,0.3
	c2.921,0.243,6.051,0.639,9.35,1.118c3.71,0.537,7.127,1.081,10.403,1.75c4.335,0.885,8.861,2.017,13.52,3.341
	c3.336,0.949,6.563,1.936,9.627,3.258c3.703,1.583,7.575,3.902,11.661,6.492c2.894,1.832,5.755,3.814,8.552,5.752
	c6.262,4.336,11.066,7.97,15.783,12.156c2.207,1.956,4.353,3.847,6.26,5.872c3.731,3.942,7.01,8.255,10.252,12.035
	c2.152,2.507,3.972,4.636,5.572,6.841c2.938,4.026,5.567,8.457,7.678,12.467c1.941,3.684,3.17,6.646,4.088,9.334
	c0.707,2.06,1.139,3.775,1.498,5.633c0.289,1.474,0.498,2.938,0.701,4.432c0.269,1.995,0.479,3.788,0.53,5.334
	c0.114,2.987-0.124,5.128,0.007,7.244c0.127,1.851,1.73,3.249,3.582,3.121c1.851-0.125,3.247-1.729,3.121-3.582
	C272.306,108.21,272.545,106.028,272.427,102.643z"/>
</svg>
