<?xml version="1.0" encoding="utf-8"?>
<!-- Generator: Adobe Illustrator 16.0.0, SVG Export Plug-In . SVG Version: 6.00 Build 0)  -->
<!DOCTYPE svg PUBLIC "-//W3C//DTD SVG 1.1//EN" "http://www.w3.org/Graphics/SVG/1.1/DTD/svg11.dtd">
<svg version="1.1" id="Ebene_1" xmlns="http://www.w3.org/2000/svg" xmlns:xlink="http://www.w3.org/1999/xlink" x="0px" y="0px"
	 width="272.326px" height="288.78px" viewBox="0 0 272.326 288.78" enable-background="new 0 0 272.326 288.78"
	 xml:space="preserve">
<g>
	<path d="M88.108,271.459c-3.86-0.114-5.928-0.95-7.827-1.857c-1.76-0.84-2.902-1.618-3.784-2.465
		c-1.767-1.674-2.738-2.149-3.183-3.389c-0.168-0.336-0.167-0.564-0.055-0.793c0.133-0.383,0.264-0.655,0.634-1.154
		c0.175-0.242,0.429-0.521,0.706-0.864c0.215-0.267,0.407-0.516,0.57-0.726c0.027-0.023,0.052-0.044,0.083-0.069
		c0.051-0.048,0.177-0.116,0.383-0.271c0.121-0.094,0.216-0.206,0.298-0.325c0.027-0.034,0.054-0.066,0.079-0.101
		c0.09-0.109,0.17-0.229,0.227-0.367c0.054-0.133,0.081-0.268,0.095-0.403c0.062-0.304,0.033-0.627-0.114-0.927
		c-0.352-0.722-1.217-1.021-1.938-0.676c-0.005,0.001-0.015,0.002-0.018,0.004c-0.084,0.045-0.171,0.097-0.208,0.121
		c-0.064,0.043-0.148,0.107-0.209,0.157c-0.111,0.092-0.281,0.248-0.421,0.396c-0.124,0.135-0.254,0.3-0.385,0.462
		c-0.206,0.191-0.413,0.397-0.573,0.61c-0.069,0.099-0.12,0.204-0.162,0.312c-0.222,0.275-0.503,0.591-0.764,0.942
		c-0.489,0.675-0.832,1.352-1.03,1.903c-0.224,0.712-0.214,1.722,0.018,2.555c0.017,0.108,0.044,0.217,0.087,0.323
		c0.872,1.959,2.293,2.883,3.869,4.391c1.076,1.015,2.604,2.054,4.538,2.982c2.008,0.958,4.749,1.99,8.986,2.14
		c0.805,0.029,1.478-0.604,1.505-1.407S88.912,271.484,88.108,271.459z"/>
	<path d="M186.982,236.855c-1.627-1.045-2.829-3.022-5.315-4.837c-0.912-0.652-2.005-1.291-3.073-1.779
		c-1.049-0.475-2.135-0.866-3.065-1.168c-0.716-0.233-1.371-0.412-1.974-0.58c-1.112-0.311-2.261-0.612-3.465-0.857
		c-0.729-0.146-1.484-0.291-2.125-0.4c-0.362-0.061-0.66-0.111-0.929-0.159c-0.229-0.21-0.524-0.353-0.859-0.38
		c-0.261-0.021-0.575-0.018-0.808,0.015c-0.033,0.007-0.081,0.02-0.136,0.037c-0.001,0.001-0.001,0.001-0.002,0.001
		c-0.023,0.005-0.046,0.013-0.069,0.02c-0.036,0.012-0.072,0.021-0.106,0.036c-0.129,0.046-0.256,0.104-0.372,0.188
		c-0.055,0.04-0.101,0.087-0.148,0.133c-0.011,0.01-0.022,0.02-0.033,0.029c-0.041,0.043-0.077,0.088-0.112,0.135
		c-0.028,0.035-0.056,0.069-0.08,0.107c-0.017,0.026-0.03,0.054-0.045,0.081c-0.035,0.063-0.066,0.127-0.093,0.195
		c0,0.001,0,0.001,0,0.002c-0.027,0.071-0.053,0.143-0.068,0.219c-0.078,0.382,0.004,0.758,0.195,1.064
		c0.006,0.012,0.011,0.031,0.017,0.041c0.013,0.015,0.025,0.024,0.039,0.038c0.13,0.181,0.303,0.329,0.506,0.436
		c0.139,0.093,0.258,0.155,0.332,0.184c0.32,0.107,0.627,0.157,0.835,0.196c0.387,0.077,0.875,0.161,1.453,0.258
		c0.607,0.102,1.318,0.237,2.033,0.382c1.121,0.226,2.164,0.502,3.258,0.808c0.61,0.172,1.203,0.332,1.855,0.545
		c0.888,0.287,1.821,0.621,2.76,1.05c0.934,0.424,1.785,0.92,2.58,1.493c2.088,1.47,3.277,3.433,5.395,4.893
		c0.67,0.446,1.575,0.268,2.021-0.4C187.831,238.207,187.652,237.303,186.982,236.855z"/>
	<path d="M92.783,153.442c-2.267,0.429-4.034,0.71-5.578,0.971c-0.463,0.078-0.9,0.153-1.319,0.229
		c-2.039,0.362-3.941,0.735-5.6,1.125c-0.778,0.184-1.487,0.369-2.143,0.528c-1.471,0.357-2.781,0.697-3.841,0.986
		c-0.771,0.207-1.451,0.396-1.997,0.578c-0.54,0.183-0.94,0.364-1.166,0.461c-0.123,0.053-0.23,0.125-0.331,0.205
		c-0.493,0.342-1,0.92-1.151,1.417c-0.181,0.786,0.308,1.568,1.091,1.75c0.65,0.151,1.293-0.163,1.6-0.719
		c0.25-0.109,0.502-0.224,0.883-0.349c0.461-0.157,1.069-0.325,1.833-0.533c1.043-0.281,2.315-0.61,3.766-0.964
		c0.684-0.164,1.381-0.349,2.124-0.523c1.602-0.377,3.427-0.734,5.441-1.093c0.417-0.073,0.841-0.148,1.295-0.226
		c1.528-0.259,3.329-0.545,5.634-0.98c0.791-0.148,1.311-0.911,1.161-1.702C94.337,153.812,93.574,153.293,92.783,153.442z"/>
	<path d="M272.222,81.392c-0.199-2.496-0.668-4.652-1.239-6.323c-0.328-0.932-0.714-1.757-1.071-2.592
		c-0.457-1.063-0.954-2.658-1.769-4.334c-1.696-3.329-4.651-6.07-7.329-7.856c-1.684-1.116-3.265-2.208-5.135-3.506
		c-1.789-1.241-4.022-2.632-6.507-3.971c-1.521-0.817-3.093-1.575-4.504-2.296c-1.586-0.81-3.172-1.685-4.93-2.441
		c-1.84-0.782-3.885-1.391-5.771-1.916c-2.647-0.737-5.178-1.376-7.746-1.857c-2.144-0.398-4.6-0.706-6.953-0.91
		c-2.056-0.177-4.033-0.276-5.946-0.312c-1.088-0.02-2.189-0.015-3.316,0c-1.417,0.019-3.103-0.005-4.844,0.145
		c-1.624,0.15-3.264,0.492-4.809,0.872c-0.104,0.015-0.21,0.035-0.315,0.062c-0.107,0.027-0.211,0.059-0.313,0.096
		c-0.82,0.213-1.674,0.452-2.529,0.708c-0.086,0.018-0.172,0.039-0.256,0.065c-0.086,0.026-0.169,0.056-0.252,0.088
		c-4.539,1.384-9.975,3.398-12.821,4.961c0.068-0.791,0.133-1.59,0.188-2.369c0.073-1.077,0.143-2.139,0.18-3.106
		c0.042-1.105,0.054-2.176-0.003-3.233c-0.077-1.321-0.301-2.734-0.577-4.152c-0.232-1.184-0.506-2.578-0.877-3.955
		c-0.979-3.525-2.76-6.713-4.785-9.604c-1.412-2.012-3.066-4.181-4.827-6.077c-0.937-1.004-2.006-2.083-3.18-3.033
		c-1.52-1.206-3.279-2.175-4.771-3.042c-2.396-1.389-4.695-2.997-7.419-4.334c-1.652-0.8-3.492-1.472-5.285-2.067
		c-0.986-0.326-1.956-0.586-2.816-0.848c-1.553-0.468-3.074-1.142-4.864-1.765c-0.802-0.278-1.706-0.596-2.686-0.876
		c-1.396-0.395-2.965-0.704-4.422-0.944c-1.136-0.186-2.314-0.318-3.379-0.417c-1.374-0.128-2.733-0.204-4.037-0.235
		c-1.322-0.032-2.633-0.017-3.944,0c-1.327,0.016-2.767-0.026-4.199,0c-2.701,0.052-5.278,0.302-7.834,0.803
		c-2.025,0.403-4.163,1.009-6.119,1.6c-1.635,0.494-3.193,0.994-4.591,1.449c-1.559,0.507-3.013,0.915-4.513,1.415
		c-2.305,0.771-4.812,1.758-7.08,2.921c-1.323,0.685-2.531,1.462-3.532,2.093c-1.276,0.807-2.572,1.5-3.968,2.45
		c-0.974,0.665-2.063,1.483-3.117,2.41c-1.117,0.99-2.233,2.175-3.193,3.229c-2.019,2.22-3.68,4.264-5.011,6.229
		c-0.589,0.875-1.173,1.804-1.723,2.765c-0.24,0.42-0.546,0.922-0.865,1.509c-0.062,0.092-0.12,0.188-0.171,0.288
		c-0.054,0.103-0.1,0.208-0.14,0.313c-0.844,1.704-1.586,3.723-2.354,5.612c-0.323,0.795-0.641,1.568-0.97,2.334
		c-0.035,0.067-0.068,0.136-0.098,0.206c-0.031,0.071-0.058,0.142-0.083,0.214c-0.56,1.282-1.24,2.64-1.967,4.405
		c0.014,0.083,0.004,0.17-0.001,0.255c-0.003,0.043,0.005,0.086-0.003,0.129c-0.023,0.124-0.067,0.247-0.135,0.361
		c-0.33,0.503-0.313,0.948-0.516,1.634c-0.092,0.281-0.211,0.543-0.344,0.798c-0.06,0.116-0.128,0.229-0.193,0.343
		c-0.081,0.143-0.159,0.286-0.243,0.43c-0.075,0.129-0.153,0.262-0.23,0.396c-0.031,0.126-0.064,0.253-0.1,0.383
		c-0.057,0.207-0.117,0.459-0.206,0.716c-0.051,0.143-0.121,0.305-0.279,0.605c-0.049,0.086-0.101,0.171-0.155,0.249
		c-0.161,0.256-0.372,0.592-0.615,1.012c-0.353,0.611-0.683,1.246-0.973,1.807c-0.034,0.057-0.066,0.114-0.097,0.173
		c-0.032,0.061-0.062,0.124-0.088,0.186c-0.155,0.303-0.298,0.591-0.429,0.858c-0.013,0.023-0.026,0.048-0.044,0.082
		c-0.113-0.011-0.212-0.028-0.33-0.037c-2.184-0.131-5.519,0.042-8.926,0.757c-0.063,0.01-0.125,0.021-0.353,0.076
		c-2.097,0.456-4.379,0.866-6.695,1.501c-0.096,0.017-0.191,0.039-0.287,0.066c-0.096,0.027-0.189,0.058-0.28,0.095
		c-1.589,0.47-3.252,1.111-4.876,1.77c-2.102,0.854-4.011,1.723-5.845,2.616c-0.978,0.478-2.013,1-3.164,1.597
		c-1.35,0.701-3.067,1.556-4.749,2.616c-2.899,1.856-5.313,4.262-7.279,6.193c-1.264,1.24-2.414,2.337-3.634,3.502
		c-0.694,0.665-1.567,1.434-2.5,2.417c-1.193,1.271-2.401,2.915-3.389,4.443c-1.331,2.077-2.309,4.241-3.012,5.887
		c-0.493,1.151-0.939,2.23-1.341,3.391c-0.854,2.497-1.557,5.782-2.037,8.62c-0.463,2.742-0.732,4.931-0.786,7.101
		c-0.046,1.994-0.016,4.429-0.001,6.633c0.023,3.081,0.221,5.356,0.514,7.456c0.388,2.701,1.35,6.025,2.129,8.745
		c0.71,2.47,1.437,4.42,2.22,6.238c0.653,1.499,1.365,3.787,2.568,5.982c1.222,2.131,2.873,3.721,4.075,4.809
		c0.594,0.54,1.137,1.027,1.647,1.515c0.377,0.349,0.917,1.009,1.772,1.707c0.904,0.681,1.905,1.144,2.48,1.454
		c1.089,0.582,1.808,1.041,2.686,1.581c1.527,0.914,3.786,1.734,5.683,2.084c0.366,0.064,0.718,0.136,1.131,0.215
		c0.402,0.076,0.712,0.117,0.94,0.164c0.238,0.039,0.544,0.16,1.019,0.316c0.373,0.119,0.693,0.227,1.018,0.335
		c0.272,0.092,0.459,0.146,0.633,0.206c0.26,0.089,0.536,0.196,0.846,0.317c0.293,0.109,0.694,0.321,1.301,0.568
		c0.466,0.177,0.934,0.306,1.228,0.39c2.73,0.764,5.702,0.907,8.701,0.896c1.408-0.008,2.871,0,4.304,0
		c0.99-0.004,2.244,0.093,3.536-0.013c0.984-0.105,1.9-0.362,2.507-0.539c0.673-0.197,1.216-0.354,1.877-0.435
		c0.137-0.032,0.454,0,1.059-0.023c0.507-0.031,0.985-0.11,1.39-0.189c-0.007,0.078-0.014,0.146-0.021,0.228
		c-0.098,1.086-0.143,2.37-0.151,3.523c-0.007,1.084,0,2.07,0.028,3.152c0.028,1.072,0.052,2.357,0.058,3.665
		c0.002,0.665,0,1.329,0,1.958c0,0.639,0.01,1.171,0,1.614c-0.007,0.461-0.049,0.847-0.101,1.436
		c-0.056,0.633-0.097,1.312-0.166,2.087c-0.069,0.793-0.18,1.734-0.275,2.729c-0.052,0.549-0.083,1.083-0.117,1.534
		c-0.052,0.702-0.12,1.377-0.167,2.077c-0.045,0.691-0.063,1.361-0.09,2.094c-0.028,0.811-0.067,1.745-0.11,2.7
		c-0.027,0.59-0.053,1.179-0.08,1.738c-0.041,0.858-0.097,1.652-0.138,2.468c-0.023,0.468-0.044,0.943-0.061,1.437
		c-0.036,1.052-0.057,2.209-0.081,3.345c-0.012,0.583-0.02,1.154-0.031,1.687c-0.012,0.504-0.032,0.987-0.052,1.479
		c-0.02,0.476-0.033,0.911-0.053,1.351c-0.036,0.791-0.088,1.661-0.139,2.65c-0.043,0.852-0.08,1.765-0.113,2.618
		c-0.024,0.622-0.044,1.222-0.06,1.775c-0.026,0.892-0.038,1.665-0.053,2.447c-0.009,0.472-0.016,0.944-0.027,1.446
		c-0.015,0.696-0.041,1.472-0.059,2.272c-0.021,1.005-0.023,2.021-0.027,2.912c-0.002,0.674-0.001,1.29,0,1.906
		c0,0.454,0,0.914,0,1.413c0,0.909-0.002,1.933,0,2.927c0.001,0.745-0.012,1.515,0,2.265c0.017,0.924,0.083,1.772,0.15,2.519
		c0.043,0.486,0.099,0.936,0.141,1.364c0.125,1.228,0.208,2.697,0.297,4.065c0.043,0.668,0.08,1.279,0.11,1.827
		c0.034,0.652,0.061,1.186,0.083,1.745c0.018,0.444,0.033,0.903,0.053,1.431c0.035,0.948,0.066,2.088,0.113,3.187
		c0.033,0.78,0.08,1.52,0.113,2.148c0.06,1.102,0.107,1.952,0.171,2.724c0.04,0.457,0.086,0.819,0.108,1.174
		c0.038,0.543,0.031,1.25,0.048,2.011c0.014,0.578,0.048,1.068,0.059,1.418c0.012,0.275-0.005,0.568-0.001,1
		c0.006,0.448,0.038,0.886,0.058,1.222c0.011,0.165,0.014,0.361,0.024,0.607c0.018,0.455,0.042,0.902,0.059,1.293
		c0.009,0.207,0.012,0.457,0.029,0.769c0.017,0.268,0.043,0.528,0.062,0.718c0.035,0.309,0.064,0.439,0.063,0.453
		c0.006,0.013,0.001,0.129,0.01,0.411c0.008,0.245,0.022,0.459,0.028,0.607c0.011,0.192-0.007,0.431-0.001,0.843
		c0.012,0.411,0.059,0.853,0.088,1.054c0.001,0.005,0.003,0.016,0.005,0.021c-0.143,0.329-0.27,0.671-0.351,1.029
		c-0.055,0.408-0.023,0.811,0.083,1.186c-0.169,0.559-0.263,1.247-0.285,1.677c-0.015,0.374-0.008,0.761-0.002,1.056
		c0.017,0.687,0.073,1.312,0.086,1.73c0.005,0.156,0.015,0.424,0.044,0.71c0.032,0.264,0.086,0.555,0.125,0.739
		c0.067,0.311,0.268,0.975,0.544,1.517c0.142,0.25,0.206,0.347,0.179,0.279c0.238,0.461,0.544,0.882,0.721,1.086
		c0.285,0.311,0.469,0.472,0.534,0.557c0.362,0.418,0.782,0.857,1.146,1.179c0.045,0.04,0.121,0.111,0.246,0.219
		c0.195,0.16,0.136,0.1-0.034-0.062c-0.247-0.367,0.068,0.168,1.166,1.015c-0.345-0.211-0.594-0.421-0.625-0.446
		c0.167,0.186,0.307,0.347,0.437,0.493c0.122,0.132,0.294,0.36,0.61,0.679c0.186,0.182,0.365,0.343,0.501,0.468
		c0.236,0.218,0.495,0.436,0.763,0.679c0.118,0.104,0.378,0.39,0.751,0.722c0.26,0.225,0.511,0.421,0.72,0.582
		c0.243,0.186,0.49,0.36,0.678,0.496c0.238,0.168,0.593,0.411,0.948,0.607c0.345,0.186,0.647,0.325,0.838,0.422
		c0.628,0.321,0.977,0.461,1.328,0.725c0.143,0.104,0.229,0.161,0.266,0.189c0.162,0.122,0.538,0.383,0.943,0.594
		c0.198,0.093,0.282,0.125,0.278,0.128c0.415,0.215,0.893,0.425,1.324,0.586c0.295,0.11,0.64,0.236,0.952,0.34
		c0.322,0.106,0.634,0.214,0.945,0.313c0.359,0.118,0.478,0.14,0.522,0.176c0.344,0.16,0.621,0.371,1.211,0.793
		c0.132,0.093,0.262,0.186,0.385,0.274c0.244,0.172,0.598,0.439,1.026,0.697c0.318,0.186,0.56,0.304,0.706,0.393
		c0.543,0.314,1.255,0.715,2.028,1.05c1.409,0.604,2.867,1.083,4.083,1.594c1.458,0.607,3.033,1.34,4.967,1.836
		c0.525,0.132,1.062,0.235,1.516,0.332c0.952,0.2,1.917,0.375,2.871,0.543c1.445,0.258,2.919,0.461,4.411,0.683
		c3.087,0.457,6.185,0.871,9.745,1.286c1.096,0.125,2.313,0.246,3.491,0.317c1.966,0.118,3.889,0.129,5.988,0.122
		c1.409-0.008,2.877-0.015,4.269-0.029c1.186-0.014,2.349-0.028,3.579-0.028c1.395-0.004,2.847,0.021,4.264,0
		c1.895-0.036,3.822-0.15,5.876-0.286c1.143-0.071,2.297-0.153,3.331-0.218c0.489-0.032,0.952-0.061,1.416-0.085
		c1.072-0.058,2.144-0.097,3.285-0.165c1.152-0.067,2.351-0.157,3.467-0.253c1.972-0.176,3.816-0.325,5.818-0.476
		c0.952-0.071,1.917-0.143,2.794-0.225c1.11-0.101,2.134-0.208,3.25-0.344c0.706-0.085,1.463-0.178,2.243-0.278
		c1.107-0.146,2.232-0.307,3.221-0.457c0.657-0.1,1.332-0.196,2.008-0.325c1.304-0.254,2.612-0.582,3.967-0.925
		c0.709-0.183,1.477-0.379,2.184-0.575c0.67-0.193,1.329-0.396,1.94-0.607c1.735-0.607,3.273-1.314,4.738-2.019
		c2.101-1.004,3.993-1.868,5.583-2.65c1.636-0.811,3.158-1.354,4.997-2.125c1.394-0.597,2.708-1.415,3.585-1.954
		c0.349-0.215,0.806-0.457,1.37-0.832c0.223-0.146,0.407-0.282,0.537-0.368c0.2-0.133,0.491-0.34,0.749-0.55
		c0.276-0.24,0.451-0.422,0.535-0.497c0.131-0.121,0.504-0.439,0.918-0.961c0.004,0.011,0.052-0.024,0.291-0.214
		c0.068-0.043,0.135-0.09,0.198-0.14c0.254-0.193,0.504-0.347,0.863-0.625c0.377-0.304,0.638-0.554,0.791-0.675
		c-0.343,0.218,0.263-0.146,1.17-1.482c-0.075,0.139-0.263,0.489-0.515,0.839c0.189-0.207,0.593-0.686,0.92-1.275
		c-0.035,0.075,0,0.029,0.09-0.096c0.147-0.211,0.219-0.325,0.251-0.357c0.03-0.047,0.351-0.411,0.691-1.033
		c0.17-0.395,0.271-0.73,0.321-0.87c0.174-0.507,0.392-1.403,0.435-2.247c0.021-0.733-0.007-1.534-0.027-2.157
		c-0.007-0.24-0.021-0.572-0.052-0.932c0.827-0.822,1.115-2.094,0.622-3.227c-0.066-0.132-0.043-0.071-0.101-0.427
		c-0.039-0.23-0.072-0.52-0.123-0.913c-0.108-0.871-0.207-2.089-0.367-3.247c-0.066-0.459-0.125-0.796-0.15-1.089
		c-0.059-0.614-0.09-1.232-0.131-1.95c-0.033-0.588-0.064-1.176-0.082-1.754c-0.03-1.008-0.03-2.001-0.054-2.926
		c-0.011-0.504-0.021-0.965-0.03-1.386c-0.024-1.034-0.046-1.879-0.054-2.926c-0.005-0.653,0-1.364,0-2.09c0-1.3,0-2.519,0-3.558
		c0-0.722,0.004-1.386,0-2.265c-0.001-0.579-0.007-1.208,0-1.879c0.009-0.941,0.043-1.978,0.054-2.943
		c0.011-1.029,0.006-1.838,0.054-2.572c0.036-0.61,0.129-1.293,0.216-2.247c0.064-0.692,0.133-1.475,0.195-2.258
		c0.089-1.078,0.175-2.191,0.23-3.183c0.028-0.532,0.05-0.998,0.078-1.448c0.054-0.855,0.12-1.767,0.196-2.851
		c0.045-0.662,0.084-1.34,0.136-2.002c0.104-1.327,0.234-2.689,0.31-3.978c0.063-1.116,0.085-2.251,0.084-3.392
		c-0.002-1.019-0.025-1.976,0-2.861c0.022-0.892,0.073-1.736,0.132-2.644c0.059-0.875,0.132-1.84,0.175-2.976
		c0.023-0.589,0.047-1.247,0.056-1.9c0.013-0.847,0.004-1.636,0.025-2.312c0.021-0.66,0.055-1.257,0.084-1.866
		c0.035-0.723,0.072-1.384,0.134-2.17c0.039-0.515,0.085-1.061,0.136-1.633c0.13-1.475,0.293-3.039,0.393-4.343
		c0.069-0.924,0.105-1.729,0.143-2.565c0.021-0.442,0.045-0.946,0.056-1.454c0.028-1.266,0.038-2.482,0.107-3.545
		c0.054-0.811,0.112-1.477,0.203-2.122c0.068-0.498,0.168-1.016,0.271-1.675c0.063-0.411,0.134-0.87,0.197-1.32
		c0.097-0.688,0.193-1.403,0.263-2.08c0.081-0.771,0.146-1.494,0.198-2.152c0.104-1.275,0.179-2.351,0.279-3.678
		c0.052-0.672,0.119-1.488,0.146-2.329c0.05-1.734,0.005-3.37,0.1-4.324c0.043-0.474,0.138-1.045,0.152-1.782
		c-0.005,0.037,0-0.07-0.003-0.263c0.3-0.031,0.618-0.068,0.962-0.116c0.104-0.004,0.207-0.014,0.313-0.032
		c0.11-0.016,0.218-0.039,0.323-0.067c2.395-0.443,4.831-1.387,6.996-1.939c0.035-0.008,0.069-0.017,0.209-0.054
		c2.409-0.607,5.303-0.976,8.255-2.144c3.275-1.343,6.219-3.33,9.539-5.367c2.91-1.793,5.824-4.053,8.298-6.005
		c2.387-1.884,5.065-3.796,7.559-6.228c1.376-1.355,2.628-2.908,3.792-4.398c0.702-0.898,1.366-1.801,2-2.612
		c0.863-1.106,1.82-2.105,2.852-3.326c1.235-1.47,2.509-3.197,3.779-5.011c0.973-1.394,1.91-2.874,2.763-4.185
		c1.414-2.184,2.809-3.981,4.063-6.07c1.14-1.923,2.136-4.239,2.786-6.5c0.35-1.23,0.575-2.49,0.761-3.504
		c0.308-1.672,0.597-3.207,0.732-4.729c0.097-1.108,0.104-2.217,0.104-3.256C272.326,84.788,272.347,83.043,272.222,81.392z
		 M193.269,149.721c0.018,0.012,0.057,0.033,0.143,0.077c0.34,0.17,0.792,0.374,1.271,0.542c0.164,0.057,0.336,0.11,0.491,0.16
		c-0.011-0.021,0.046,0.032,0.432,0.211c0.381,0.166,0.646,0.252,0.715,0.284c0.08,0.026,0.098,0.045,0.271,0.148
		c0.059,0.024,0.27,0.198,0.709,0.47c0.569,0.328,1.152,0.564,1.383,0.666c0.199,0.089,0.173,0.073,0.319,0.16
		c0.138,0.08,0.251,0.145,0.347,0.202c0.028,0.021,0.063,0.048,0.116,0.088c0.068,0.044,0.127,0.076,0.19,0.115
		c0.145,0.335,0.349,0.641,0.606,0.901c-0.083,1.296-0.058,2.858-0.101,4.284c-0.02,0.683-0.079,1.366-0.131,2.068
		c-0.102,1.34-0.177,2.398-0.276,3.646c-0.052,0.633-0.109,1.286-0.186,2.016c-0.062,0.589-0.146,1.207-0.238,1.875
		c-0.059,0.41-0.123,0.828-0.186,1.239c-0.087,0.561-0.194,1.122-0.285,1.765c-0.107,0.788-0.188,1.665-0.245,2.545
		c-0.078,1.24-0.091,2.572-0.118,3.796c-0.009,0.432-0.03,0.866-0.05,1.318c-0.039,0.839-0.069,1.55-0.134,2.386
		c-0.093,1.216-0.252,2.754-0.386,4.275c-0.052,0.581-0.1,1.158-0.143,1.697c-0.064,0.836-0.107,1.586-0.144,2.336
		c-0.028,0.586-0.064,1.234-0.087,1.961c-0.025,0.806-0.017,1.64-0.027,2.411c-0.009,0.593-0.03,1.187-0.052,1.769
		c-0.039,1.028-0.107,1.9-0.168,2.813c-0.061,0.928-0.116,1.883-0.143,2.863c-0.026,1.043-0.002,2.083-0.002,3.029
		c0.002,1.082-0.016,2.043-0.075,3.051c-0.065,1.172-0.192,2.48-0.3,3.859c-0.056,0.72-0.097,1.42-0.142,2.051
		c-0.072,1.077-0.141,2-0.197,2.881c-0.032,0.511-0.054,1-0.081,1.496c-0.052,0.928-0.132,1.969-0.22,3.033
		c-0.063,0.771-0.127,1.523-0.189,2.197c-0.076,0.846-0.177,1.6-0.23,2.418c-0.057,0.936-0.053,1.888-0.063,2.875
		c-0.009,0.9-0.043,1.937-0.054,2.944c-0.008,0.723-0.002,1.396,0,1.961c0.003,0.857,0,1.509,0,2.243c0,1.039,0,2.258,0,3.558
		c0,0.705-0.006,1.437,0,2.133c0.009,1.093,0.03,1.989,0.055,3.019c0.01,0.419,0.021,0.88,0.031,1.388
		c0.021,0.852,0.021,1.871,0.055,2.967c0,0.008,0.001,0.016,0.001,0.022c-0.601-0.445-1.128-0.793-1.678-1.184
		c-0.185-0.129-0.327-0.226-0.438-0.31c-0.247-0.18-0.489-0.334-0.657-0.442c-0.116-0.075-0.295-0.195-0.511-0.321
		c-0.418-0.232-0.624-0.316-0.677-0.355c-0.084-0.049-0.365-0.232-0.754-0.429c-0.282-0.134-0.495-0.222-0.625-0.282
		c-0.263-0.125-0.411-0.187-0.506-0.239c-0.3-0.161-0.679-0.386-1.136-0.625c-0.804-0.422-1.667-0.846-2.515-1.247
		c-1.429-0.672-2.792-1.506-4.619-2.51c-0.939-0.514-1.989-1.013-2.929-1.434c-1.633-0.729-3.406-1.329-5.27-1.829
		c-2.048-0.547-4.308-1.125-6.611-1.681c-1.394-0.336-2.911-0.631-4.559-0.926c-1.048-0.188-2.061-0.334-2.935-0.53
		c-0.423-0.093-0.854-0.2-1.323-0.304c-0.748-0.168-1.655-0.378-2.654-0.521c-0.953-0.13-2.002-0.231-3.032-0.321
		c-1.056-0.093-2.084-0.16-3.025-0.27c-0.581-0.066-1.104-0.129-1.622-0.207c-0.86-0.129-1.752-0.288-2.763-0.426
		c-0.811-0.108-1.738-0.223-2.663-0.294c-1.095-0.084-2.242-0.129-3.346-0.144c-0.864-0.014-1.725-0.003-2.604,0
		c-0.927,0.002-1.968-0.003-2.995,0.029c-1.209,0.039-2.327,0.106-3.369,0.136c-0.859,0.021-1.722,0.033-2.601,0.055
		c-0.864,0.021-1.755,0.045-2.652,0.088c-0.856,0.043-1.834,0.089-2.833,0.213c-0.984,0.125-1.959,0.293-2.882,0.427
		c-1.218,0.175-2.458,0.355-3.617,0.526c-1.138,0.17-2.141,0.334-3.104,0.467c-0.793,0.106-1.578,0.218-2.417,0.334
		c-0.656,0.091-1.401,0.19-2.15,0.321c-0.706,0.123-1.469,0.259-2.192,0.412c-0.706,0.152-1.313,0.308-1.838,0.415
		c-0.526,0.106-1.061,0.209-1.639,0.332c-0.817,0.179-1.635,0.364-2.438,0.528c-1.208,0.247-2.489,0.482-3.692,0.765
		c-0.581,0.138-1.108,0.278-1.594,0.401c-0.912,0.23-1.832,0.484-2.732,0.745c-1.63,0.472-3.377,1.019-4.874,1.642
		c-0.757,0.317-1.588,0.698-2.393,1.142c-0.501,0.278-0.922,0.535-1.313,0.735c-0.759,0.393-1.48,0.747-2.206,1.061
		c-0.885,0.385-1.769,0.726-2.648,1.09c-0.858,0.355-1.66,0.704-2.505,1.068c-0.608,0.261-1.206,0.523-1.792,0.766
		c-1.358,0.562-2.715,1.12-3.87,1.676c-0.109,0.052-0.219,0.105-0.33,0.162c-0.108-0.011-0.217-0.014-0.326-0.011
		c-0.558,0.429-1.171,0.881-1.657,1.251c-0.305,0.231-0.594,0.471-0.891,0.671c-0.104,0.062-0.213,0.101-0.324,0.124
		c-0.278,0.223-0.548,0.449-0.803,0.669c-0.77,0.667-1.463,1.333-2.04,1.822c-0.118,0.101-0.219,0.185-0.327,0.276
		c-0.009-0.199-0.02-0.4-0.027-0.595c-0.007-0.186-0.013-0.442-0.03-0.729c-0.023-0.377-0.046-0.675-0.048-0.939
		c-0.004-0.25,0.012-0.62-0.001-1.118c-0.016-0.475-0.049-0.922-0.058-1.357c-0.015-0.67-0.01-1.493-0.059-2.27
		c-0.036-0.521-0.088-0.939-0.116-1.273c-0.057-0.683-0.099-1.452-0.159-2.555c-0.037-0.657-0.081-1.354-0.111-2.075
		c-0.043-1.056-0.076-2.179-0.112-3.156c-0.019-0.514-0.034-0.987-0.053-1.459c-0.024-0.578-0.052-1.146-0.087-1.81
		c-0.03-0.573-0.069-1.22-0.114-1.898c-0.087-1.341-0.176-2.904-0.313-4.271c-0.05-0.491-0.102-0.91-0.136-1.296
		c-0.064-0.722-0.116-1.349-0.127-2.103c-0.011-0.646,0.001-1.375,0-2.176c-0.001-0.983,0-2.004,0-2.916c0-0.497,0-0.959,0-1.419
		c0-0.623-0.002-1.223,0-1.877c0.003-0.9,0.004-1.86,0.026-2.808c0.017-0.765,0.044-1.541,0.058-2.278
		c0.012-0.519,0.019-0.997,0.028-1.456c0.014-0.791,0.027-1.53,0.052-2.388c0.016-0.545,0.035-1.118,0.058-1.722
		c0.033-0.847,0.069-1.726,0.111-2.547c0.048-0.965,0.102-1.849,0.139-2.685c0.021-0.479,0.036-0.928,0.054-1.379
		c0.02-0.484,0.043-1.021,0.055-1.581c0.013-0.561,0.021-1.136,0.032-1.696c0.023-1.14,0.045-2.264,0.079-3.271
		c0.016-0.466,0.034-0.892,0.057-1.338c0.038-0.757,0.095-1.561,0.139-2.482c0.027-0.57,0.054-1.17,0.081-1.76
		c0.043-0.962,0.083-1.92,0.112-2.748c0.028-0.761,0.042-1.344,0.082-1.917c0.039-0.602,0.105-1.259,0.164-2.034
		c0.036-0.498,0.064-0.968,0.106-1.409c0.089-0.931,0.203-1.892,0.281-2.777c0.073-0.843,0.115-1.53,0.164-2.079
		c0.049-0.556,0.107-1.153,0.123-1.836c0.011-0.558,0-1.14,0.001-1.729c0-0.614,0.003-1.293,0-1.982
		c-0.007-1.351-0.032-2.695-0.06-3.79c-0.027-1.032-0.033-1.915-0.026-2.962c0.007-1.073,0.042-2.125,0.126-3.032
		c0.066-0.73,0.131-1.357,0.178-1.846c0.125-0.076,0.228-0.142,0.302-0.184c0.165-0.098,0.224-0.14,0.159-0.1
		c0.088-0.049,0.189-0.097,0.346-0.172c0.085-0.043,0.217-0.091,0.45-0.188c0.178-0.073,0.352-0.148,0.5-0.213
		c1.854-0.804,3.564-1.896,5.548-2.922c1.546-0.813,3.3-1.364,5.71-1.879c0.909-0.194,1.852-0.399,2.834-0.614
		c1.701-0.368,3.684-0.752,5.567-1.021c1.108-0.159,2.188-0.325,3.25-0.511c1.584-0.278,3.285-0.571,4.916-0.825
		c1.516-0.234,2.925-0.475,4.459-0.771c1.358-0.263,2.892-0.532,4.351-0.797c1.303-0.236,2.448-0.47,3.648-0.657
		c1.242-0.194,2.651-0.361,4.021-0.546c1.643-0.222,3.005-0.435,4.413-0.57c1.48-0.145,3.165-0.243,4.754-0.357
		c1.132-0.081,2.127-0.155,3.117-0.219c0.628-0.04,1.212-0.081,1.857-0.11c0.8-0.037,1.708-0.042,2.654-0.054
		c1.359-0.018,2.645-0.027,3.851-0.051c0.573-0.012,1.095-0.044,1.577-0.057c1.314-0.039,2.852-0.005,4.315,0.001
		c1.288,0.005,2.357-0.011,3.424-0.001c1.549,0.016,3.32,0.109,5.039,0.215c1.456,0.09,2.731,0.159,4.158,0.25
		c1.622,0.101,3.43,0.193,5.094,0.304c1.849,0.124,3.471,0.312,5.271,0.539c1.608,0.203,3.35,0.39,4.876,0.542
		c0.745,0.074,1.437,0.141,2.133,0.218c0.563,0.061,1.154,0.141,1.81,0.217c0.679,0.081,1.351,0.146,1.961,0.22
		c1.646,0.197,2.892,0.438,4.267,0.717c1.62,0.329,3.492,0.702,5.251,1.054c2.359,0.472,4.371,0.993,6.589,1.446
		c1.043,0.215,1.909,0.436,2.732,0.67c0.372,0.104,0.74,0.227,1.152,0.359c0.313,0.1,0.541,0.153,0.654,0.188
		c0.039,0.007,0.121,0.044,0.356,0.134c0.209,0.077,0.388,0.138,0.521,0.188c0.194,0.073,0.285,0.105,0.378,0.145
		c0.138,0.054,0.388,0.196,0.797,0.393C193.089,149.648,193.186,149.689,193.269,149.721z M196.163,263.24
		c0.009,0.229-0.015,0.236-0.173,0.697c-0.211,0.27-0.376,0.516-0.454,0.628c-0.099,0.136-0.254,0.357-0.435,0.687
		c-0.021,0.018-0.059,0.054-0.184,0.2c-0.33,0.274-0.541,0.48-0.702,0.604c-0.073,0.063-0.229,0.164-0.492,0.352
		c-0.092,0.056-0.183,0.116-0.271,0.181c-0.149,0.114-0.311,0.242-0.457,0.359c-0.334,0.269-0.755,0.668-1.11,1.111
		c-0.019,0-0.099,0.064-0.258,0.211c-0.229,0.211-0.315,0.307-0.35,0.328c-0.052,0.047-0.082,0.064-0.243,0.175
		c-0.222,0.146-0.396,0.275-0.52,0.354c-0.343,0.231-0.693,0.414-1.191,0.718c-0.911,0.561-1.845,1.161-2.793,1.547
		c-1.704,0.718-3.402,1.332-5.319,2.271c-1.502,0.739-3.376,1.597-5.522,2.626c-1.429,0.682-2.652,1.253-4.137,1.765
		c-0.514,0.182-1.007,0.332-1.612,0.503c-0.627,0.179-1.322,0.357-2.029,0.536c-1.347,0.339-2.497,0.632-3.64,0.851
		c-0.534,0.106-1.092,0.186-1.769,0.285c-0.97,0.146-2.04,0.304-3.105,0.439c-0.758,0.1-1.492,0.189-2.195,0.275
		c-1.068,0.132-1.997,0.229-3.074,0.325c-0.83,0.074-1.752,0.146-2.7,0.218c-2.019,0.149-3.904,0.304-5.896,0.479
		c-1.075,0.097-2.188,0.179-3.297,0.243c-1.074,0.063-2.134,0.1-3.265,0.164c-0.471,0.024-0.959,0.054-1.464,0.086
		c-1.052,0.067-2.208,0.146-3.336,0.221c-2.042,0.133-3.833,0.239-5.601,0.271c-1.307,0.021-2.718-0.003-4.176,0
		c-1.252,0.004-2.441,0.015-3.633,0.029c-1.372,0.014-2.816,0.021-4.222,0.028c-2.075,0.007-3.81,0-5.619-0.11
		c-1.057-0.062-2.115-0.168-3.166-0.29c-3.514-0.41-6.516-0.811-9.563-1.261c-1.517-0.225-2.912-0.422-4.252-0.657
		c-0.939-0.164-1.806-0.321-2.677-0.507c-0.512-0.107-0.951-0.193-1.31-0.282c-1.415-0.34-2.548-0.9-4.133-1.562
		c-1.439-0.6-2.872-1.068-4.024-1.568c-0.493-0.207-0.887-0.436-1.407-0.739c-0.313-0.179-0.543-0.293-0.681-0.375
		c-0.123-0.064-0.263-0.182-0.585-0.411c-0.135-0.096-0.269-0.192-0.394-0.282c-0.583-0.414-1.259-0.889-2.011-1.271
		c-0.521-0.242-1.027-0.399-1.301-0.492c-0.282-0.09-0.567-0.187-0.891-0.297c-0.26-0.086-0.514-0.179-0.765-0.271
		c-0.301-0.11-0.43-0.168-0.67-0.293c-0.164-0.086-0.295-0.146-0.444-0.235c-0.136-0.101-0.255-0.183-0.352-0.251
		c-0.813-0.563-1.579-0.921-2.054-1.168c-0.322-0.164-0.567-0.274-0.72-0.36c-0.091-0.043-0.127-0.075-0.321-0.214
		c-0.209-0.15-0.393-0.282-0.549-0.4c-0.18-0.14-0.278-0.215-0.443-0.357c-0.09-0.071-0.3-0.304-0.635-0.618
		c-0.351-0.317-0.629-0.55-0.742-0.657c-0.163-0.149-0.283-0.257-0.384-0.357c0.01,0.021-0.058-0.078-0.329-0.386
		c-0.114-0.128-0.262-0.296-0.449-0.506c-0.096-0.104-0.226-0.226-0.375-0.351c-0.036-0.05-0.083-0.112-0.14-0.189
		c-0.319-0.328-0.568-0.524-0.535-0.5c-0.026-0.021-0.083-0.076-0.203-0.18c-0.156-0.134-0.3-0.284-0.572-0.603
		c-0.255-0.287-0.457-0.48-0.538-0.564c-0.064-0.121-0.114-0.207-0.15-0.276c-0.025-0.114-0.03-0.132-0.036-0.198
		c-0.005-0.009-0.003-0.05-0.009-0.243c-0.022-0.595-0.075-1.172-0.084-1.657c-0.006-0.271-0.011-0.465-0.004-0.64
		c0.15-0.222,0.32-0.482,0.471-0.732c0.162-0.274,0.306-0.578,0.384-0.778c0.044-0.061,0.131-0.159,0.269-0.327
		c0.19-0.237,0.165-0.216,0.325-0.325c-0.022,0.008,0.084-0.044,0.37-0.233c0.34-0.236,0.596-0.457,0.701-0.54
		c0.16-0.128,0.314-0.25,0.513-0.408c0.064-0.056,0.223-0.157,0.461-0.333c0.435-0.328,0.856-0.72,1.146-1.021
		c0.409-0.429,1.06-1.084,1.732-1.929c0.351-0.448,0.708-0.97,1.013-1.438c0.171-0.269,0.308-0.508,0.524-0.775
		c0.461-0.314,0.907-0.543,1.558-0.855c0.986-0.477,2.203-0.976,3.566-1.54c0.647-0.266,1.282-0.546,1.867-0.798
		c0.856-0.368,1.623-0.7,2.435-1.036c0.813-0.338,1.748-0.7,2.74-1.129c0.847-0.369,1.743-0.807,2.563-1.23
		c0.564-0.295,1.061-0.595,1.46-0.816c0.607-0.337,1.14-0.578,1.821-0.862c1.222-0.517,2.664-0.963,4.237-1.416
		c0.87-0.252,1.693-0.48,2.538-0.693c0.532-0.134,1.016-0.265,1.51-0.381c1.056-0.25,2.255-0.47,3.519-0.727
		c0.87-0.179,1.719-0.371,2.501-0.541c0.502-0.109,1.009-0.202,1.583-0.319c0.666-0.14,1.291-0.301,1.885-0.426
		c0.621-0.134,1.274-0.25,1.968-0.371c0.638-0.111,1.285-0.196,1.957-0.289c0.843-0.118,1.621-0.226,2.405-0.333
		c1.042-0.143,2.073-0.313,3.167-0.475c1.15-0.172,2.381-0.351,3.595-0.525c1.004-0.145,1.931-0.306,2.781-0.412
		c0.768-0.099,1.518-0.131,2.384-0.174c0.833-0.039,1.654-0.061,2.512-0.082c0.848-0.021,1.72-0.032,2.616-0.057
		c1.143-0.032,2.27-0.101,3.396-0.136c0.92-0.029,1.877-0.023,2.827-0.025c0.902-0.004,1.715-0.015,2.506-0.002
		c1.034,0.015,1.999,0.052,2.983,0.127c0.79,0.061,1.55,0.155,2.329,0.261c0.89,0.118,1.732,0.271,2.678,0.413
		c0.602,0.091,1.225,0.166,1.825,0.233c1.077,0.122,2.183,0.198,3.181,0.286c1.006,0.087,1.911,0.173,2.738,0.289
		c0.739,0.1,1.398,0.257,2.179,0.433c0.416,0.093,0.851,0.199,1.333,0.307c1.089,0.239,2.218,0.407,3.179,0.579
		c1.603,0.285,2.949,0.548,4.212,0.854c2.267,0.547,4.458,1.107,6.476,1.646c1.693,0.45,3.012,0.894,4.387,1.515
		c0.886,0.396,1.731,0.797,2.512,1.226c1.724,0.946,3.23,1.861,4.929,2.668c0.81,0.383,1.568,0.758,2.307,1.144
		c0.315,0.164,0.666,0.373,1.084,0.598c0.321,0.17,0.605,0.293,0.775,0.374c0.271,0.127,0.466,0.207,0.6,0.271
		c-0.032-0.025,0.032,0.026,0.293,0.182c0.395,0.227,0.616,0.32,0.773,0.413c-0.011-0.009,0.041,0.026,0.203,0.134
		c0.219,0.143,0.325,0.207,0.347,0.225c0.228,0.17,0.438,0.313,0.564,0.404c0.65,0.457,1.118,0.761,1.594,1.121
		c0.257,0.193,0.416,0.314,0.571,0.468c0.091,0.051,0.151,0.204,0.448,0.65c0.129,0.189,0.265,0.383,0.379,0.545
		c0.153,0.214,0.278,0.386,0.397,0.559c0.029,0.036,0.081,0.129,0.195,0.314c0.129,0.204,0.198,0.301,0.234,0.361
		c0.059,0.097,0.145,0.271,0.287,0.539c0.121,0.227,0.239,0.439,0.33,0.611c0.08,0.149,0.111,0.203,0.125,0.229
		c0.004,0.024,0.023,0.102,0.066,0.25c0.034,0.11,0.082,0.296,0.155,0.528c0.168,0.48,0.325,0.78,0.341,0.829
		c0.073,0.175,0.105,0.242,0.125,0.307c0.029,0.054,0.025,0.079,0.054,0.347c0.021,0.121,0.002,0.37,0.011,0.831
		c0.021,0.44,0.077,0.755,0.079,0.789c0.024,0.186,0.022,0.332,0.034,0.666C196.156,262.097,196.18,262.722,196.163,263.24z
		 M266.493,86.285c0,1.033,0,1.889-0.078,2.754c-0.107,1.23-0.351,2.501-0.66,4.186c-0.191,1.038-0.36,2.022-0.631,2.954
		c-0.543,1.912-1.241,3.542-2.189,5.118c-1.061,1.788-2.405,3.513-3.947,5.883c-0.87,1.34-1.752,2.735-2.648,4.016
		c-1.232,1.758-2.353,3.284-3.462,4.597c-0.914,1.087-1.944,2.168-2.982,3.488c-0.689,0.882-1.354,1.785-2.004,2.617
		c-1.141,1.461-2.146,2.723-3.279,3.824c-2.159,2.129-4.585,3.841-7.089,5.815c-2.456,1.939-5.106,4.003-7.737,5.614
		c-3.351,2.059-5.859,3.778-8.5,4.861c-0.063,0.021-0.123,0.042-0.186,0.068c-0.063,0.026-0.125,0.053-0.186,0.083
		c-2.209,0.878-4.676,1.156-7.403,1.841c-2.665,0.681-5.053,1.646-6.885,1.912c-1.486,0.241-3.07,0.252-4.437,0.656
		c-0.332,0.116-0.621,0.295-0.877,0.506c-0.094-0.045-0.19-0.093-0.275-0.131c-0.369-0.161-0.629-0.254-0.73-0.329
		c-0.121-0.064-0.314-0.225-0.73-0.482c-0.211-0.125-0.607-0.346-1.009-0.52c-0.333-0.136-0.51-0.188-0.556-0.214
		c-0.102-0.041-0.5-0.259-1.073-0.457c-0.165-0.054-0.269-0.084-0.34-0.109c-0.274-0.095-0.321-0.12-0.564-0.243
		c-0.03-0.012-0.217-0.114-0.52-0.245c-0.267-0.128-0.611-0.316-1.034-0.5c-0.25-0.105-0.468-0.185-0.614-0.239
		c-0.213-0.081-0.4-0.145-0.536-0.196c-0.145-0.053-0.42-0.162-0.752-0.264c-0.28-0.081-0.438-0.116-0.509-0.142
		c-0.382-0.122-0.854-0.279-1.354-0.421c-0.898-0.253-1.976-0.528-3.147-0.768c-2.075-0.425-4.111-0.952-6.617-1.454
		c-1.758-0.352-3.624-0.725-5.236-1.051c-1.402-0.284-2.899-0.57-4.727-0.791c-0.675-0.082-1.354-0.148-1.975-0.222
		c-0.611-0.072-1.228-0.154-1.859-0.223c-0.729-0.08-1.449-0.15-2.188-0.223c-1.502-0.149-3.17-0.329-4.724-0.525
		c-1.827-0.229-3.628-0.438-5.612-0.571c-1.709-0.114-3.531-0.208-5.117-0.306c-1.45-0.091-2.727-0.161-4.161-0.249
		c-1.747-0.109-3.66-0.208-5.34-0.226c-1.14-0.012-2.224,0.005-3.458,0c-1.409-0.006-3.038-0.04-4.508,0.001
		c-0.577,0.017-1.074,0.048-1.525,0.056c-1.167,0.023-2.433,0.032-3.81,0.049c-0.929,0.012-1.923,0.02-2.84,0.06
		c-0.714,0.032-1.361,0.077-1.974,0.117c-1.018,0.066-2.031,0.141-3.156,0.221c-1.55,0.112-3.304,0.215-4.9,0.369
		c-1.571,0.153-3.042,0.38-4.633,0.597c-1.319,0.178-2.785,0.352-4.14,0.563c-1.327,0.209-2.542,0.455-3.787,0.68
		c-1.445,0.262-3.009,0.538-4.418,0.81c-1.474,0.286-2.771,0.506-4.246,0.735c-1.68,0.261-3.435,0.564-5.027,0.841
		c-1.005,0.177-1.995,0.329-3.076,0.484c-1.728,0.25-3.55,0.59-5.153,0.924c-0.667-0.304-1.447-0.361-2.191-0.094
		c-1.886,0.679-3.002,0.938-4.185,1.335c-0.997,0.339-1.975,0.72-2.795,1.081c-0.054,0.021-0.106,0.043-0.312,0.141
		c-1.594,0.734-2.256,1.195-3.16,1.481c-0.353,0.117-0.75,0.237-1.186,0.364c-0.254,0.071-0.627,0.168-1.032,0.307
		c-0.333,0.118-0.653,0.243-0.911,0.349c-0.438,0.181-0.687,0.309-0.842,0.359c-0.044,0.021-0.509,0.149-1.097,0.436
		c-0.467,0.257-0.66,0.405-0.671,0.388c-0.014,0.014-0.206,0.057-0.615,0.212c-0.18,0.075-0.388,0.15-0.662,0.258
		c-0.499,0.192-0.952,0.375-1.383,0.518c-0.322,0.107-0.595,0.183-0.984,0.268c-0.512,0.114-0.773,0.193-1.021,0.189
		c-0.263,0.019-0.829-0.013-1.556,0.068c-1.043,0.143-2.033,0.407-2.748,0.616c-0.63,0.184-0.984,0.305-1.413,0.33
		c-0.756,0.082-1.766-0.009-3-0.011c-1.422,0-2.896-0.007-4.327,0c-2.874,0.013-5.023-0.061-7.068-0.668
		c-0.352-0.102-0.563-0.153-0.699-0.213c-0.314-0.119-0.716-0.334-1.313-0.573c-0.33-0.128-0.71-0.274-1.065-0.396
		c-0.311-0.106-0.531-0.171-0.674-0.22c-0.348-0.117-0.699-0.233-1.077-0.355c-0.361-0.117-0.988-0.341-1.679-0.489
		c-0.427-0.084-0.765-0.128-0.987-0.171c-0.386-0.075-0.781-0.154-1.214-0.232c-1.373-0.23-2.718-0.716-3.65-1.311
		c-0.844-0.519-1.736-1.083-2.979-1.751c-0.784-0.418-1.376-0.661-1.625-0.891c-0.371-0.27-0.7-0.712-1.362-1.354
		c-0.57-0.543-1.166-1.08-1.755-1.613c-1.174-1.064-2.145-1.911-2.896-3.324c-0.93-1.638-1.525-3.626-2.309-5.457
		c-0.728-1.685-1.316-3.255-1.969-5.536c-0.782-2.731-1.658-5.714-1.959-7.946c-0.274-1.951-0.439-3.8-0.458-6.688
		c-0.015-2.22-0.045-4.579-0.001-6.459c0.04-1.878,0.26-3.626,0.707-6.262c0.457-2.711,1.064-5.579,1.799-7.692
		c0.344-0.998,0.708-1.874,1.19-2.999c0.683-1.597,1.44-3.313,2.551-5.017c0.891-1.383,1.793-2.622,2.727-3.601
		c0.754-0.801,1.505-1.456,2.292-2.208c1.216-1.163,2.397-2.288,3.69-3.558c1.993-1.958,3.944-3.95,6.311-5.426
		c1.425-0.906,2.915-1.64,4.317-2.367c1.124-0.583,2.093-1.073,3.036-1.532c1.761-0.859,3.485-1.644,5.483-2.455
		c1.665-0.676,3.13-1.244,4.533-1.639c1.592-0.456,3.231-0.788,4.94-1.145c0.013,0.007,0.025,0.018,0.039,0.025
		c0.068-0.027,0.129-0.051,0.18-0.071c0.259-0.103,0.489-0.181,0.664-0.25c0,0.008,0.042-0.029,0.212-0.121
		c0.597-0.306,1.268-0.555,2.007-0.706c0.492-0.095,1.071-0.138,1.571-0.164c0.669-0.029,1.227-0.162,1.992-0.245
		c0.354-0.037,0.789-0.061,1.185-0.069c0.866,0,1.645,0.259,2.284,0.405c0.111,0.027,0.249,0.052,0.385,0.079
		c0.225,0.045,0.478,0.099,0.736,0.188c0.145,0.058,0.267,0.121,0.366,0.176c0.061,0.034,0.123,0.068,0.164,0.092
		c0,0,0.001,0,0.001,0c0.019,0.011,0.054,0.032,0.067,0.039c0.076,0.043,0.167,0.075,0.334,0.144c0.121,0.05,0.26,0.102,0.405,0.155
		c0.034-0.003,0.072-0.012,0.107-0.017c0.083,0.049,0.189,0.109,0.332,0.184c0.127,0.051,0.248,0.103,0.364,0.153
		c1.064,0.346,1.924,0.353,2.274,0.397c0.278,0.029,0.482,0.054,0.715,0.099c0.225,0.034,0.405,0.106,0.739,0.239
		c1.468,0.562,2.005,0.989,3.019,1.965c0.538,0.514,0.818,0.748,1.105,1.251c0.221,0.347,0.428,0.822,0.767,1.478
		c0.227,0.432,0.426,0.739,0.563,1.01c0.069,0.117,0.164,0.4,0.356,0.84c0.217,0.465,0.443,0.832,0.619,1.139
		c0.013,0.024,0.027,0.047,0.113,0.223c0.04,0.115,0.088,0.229,0.145,0.342c0.049,0.099,0.104,0.194,0.163,0.285
		c0.122,0.238,0.248,0.482,0.368,0.716c0.041,0.108,0.088,0.214,0.143,0.318c0.055,0.104,0.115,0.204,0.18,0.298
		c0.389,0.744,0.685,1.307,1.099,2.169c0.698,1.451,2.44,2.061,3.89,1.363c1.451-0.697,2.061-2.438,1.364-3.89
		c-0.514-1.068-0.885-1.766-1.35-2.655c-0.21-0.403-0.435-0.836-0.63-1.229c-0.08-0.155-0.206-0.448-0.414-0.825
		c-0.22-0.383-0.338-0.541-0.357-0.614c-0.1-0.222-0.26-0.663-0.514-1.17c-0.259-0.492-0.471-0.823-0.56-1.002
		c-0.265-0.51-0.564-1.168-0.977-1.852c-0.67-1.053-1.495-1.888-2.044-2.412c-1.268-1.207-2.873-2.353-4.906-3.174
		c-0.431-0.169-1.124-0.407-1.792-0.544c-0.201-0.037-0.408-0.069-0.608-0.097c0.015-0.028,0.03-0.064,0.044-0.089
		c0.16-0.295,0.522-0.861,0.821-1.576c0.269-0.709,0.438-1.408,0.488-1.788c0.004-0.058-0.017-0.185-0.054-0.341
		c0.483-1.904,0.967-3.406,1.446-4.684c0.156-0.374,0.312-0.742,0.472-1.114c0.268-0.625,0.613-1.301,0.938-1.955
		c0.204-0.41,0.332-0.672,0.556-1.078c0.274-0.501,0.664-1.13,1.022-1.717c0.177-0.289,0.324-0.533,0.472-0.773
		c0.146-0.24,0.368-0.545,0.655-1.007c0.237-0.391,0.429-0.771,0.563-1.018c0.715-1.345,1.144-2.512,1.552-3.459
		c0.136-0.321,0.285-0.613,0.476-0.966c0.037-0.058,0.072-0.117,0.187-0.338c0.092-0.157,0.205-0.341,0.346-0.581
		c0.31-0.522,0.627-1.09,0.917-1.581c0.78-1.321,1.302-2.164,2.864-4.477c0.385-0.571,0.528-1.228,0.477-1.864
		c0.411-0.475,0.847-0.965,1.316-1.481c0.927-1.019,1.829-1.983,2.738-2.781c0.884-0.782,1.682-1.377,2.549-1.969
		c1.136-0.78,2.341-1.42,3.79-2.333c1.029-0.649,2.014-1.291,3.088-1.839c1.999-1.033,4.101-1.855,6.259-2.576
		c1.364-0.456,2.802-0.859,4.468-1.4c1.389-0.451,2.887-0.933,4.475-1.412c1.911-0.578,3.781-1.113,5.563-1.461
		c2.283-0.455,4.326-0.65,6.812-0.694c1.292-0.025,2.713,0.017,4.162,0c1.311-0.015,2.517-0.03,3.733,0
		c1.212,0.028,2.37,0.093,3.636,0.212c1.011,0.094,1.99,0.202,2.974,0.364c1.372,0.225,2.622,0.469,3.772,0.798
		c0.813,0.23,1.558,0.495,2.375,0.778c1.568,0.541,3.195,1.255,5.073,1.833c0.957,0.292,1.86,0.532,2.679,0.805
		c1.718,0.57,3.202,1.105,4.568,1.775c2.322,1.121,4.438,2.619,7.045,4.135c1.563,0.906,2.961,1.656,4.043,2.543
		c0.922,0.736,1.688,1.519,2.568,2.464c1.564,1.674,2.976,3.534,4.322,5.453c1.876,2.665,3.178,4.925,3.93,7.779
		c0.319,1.172,0.548,2.362,0.782,3.553c0.259,1.32,0.425,2.338,0.477,3.355c0.05,0.855,0.038,1.646-0.002,2.688
		c-0.032,0.879-0.098,1.855-0.171,2.927c-0.093,1.364-0.211,2.769-0.343,4.043c-0.177,1.714-0.347,3.026-0.603,4.181
		c-0.485,2.255-1.177,4.047-1.852,5.904c-0.877,2.418-1.846,4.679-1.876,6.94c0.051,1.609,1.396,2.873,3.005,2.823
		c1.609-0.049,2.871-1.394,2.823-3.003c-0.104-0.622,0.373-1.726,1.088-3.597c0.036-0.206,0.077-0.407,0.116-0.571
		c0.084-0.361,0.184-0.635,0.259-0.854c0.009-0.058,0.021-0.116,0.11-0.345c0.062-0.199,0.131-0.428,0.219-0.657
		c0.074-0.182,0.16-0.353,0.249-0.516c0.01-0.019,0.019-0.04,0.029-0.058c0.083-0.15,0.166-0.288,0.246-0.418
		c0.126-0.204,0.243-0.385,0.325-0.534c0.061-0.105,0.102-0.19,0.166-0.316c0.125-0.243,0.273-0.559,0.497-0.926
		c0.16-0.259,0.36-0.525,0.522-0.752c0.047-0.065,0.137-0.183,0.234-0.292c0.258-0.276,0.602-0.606,0.886-0.845
		c0.256-0.209,0.439-0.323,0.527-0.389c0.13-0.097,0.284-0.214,0.475-0.35c0.306-0.214,0.691-0.499,1.085-0.76
		c0.337-0.224,0.71-0.438,0.989-0.617c0.067-0.043,0.128-0.083,0.188-0.123c0.25-0.25,0.577-0.55,0.923-0.801
		c0.191-0.137,0.349-0.238,0.482-0.333c0.078-0.052,0.224-0.186,0.45-0.337c0.441-0.266,0.852-0.373,1.134-0.5
		c0.185-0.078,0.395-0.203,0.699-0.361c0.229-0.12,0.473-0.229,0.656-0.321c0.047-0.021,0.116-0.071,0.267-0.152
		c0.298-0.152,0.584-0.241,0.739-0.3c0.061-0.031,0.125-0.062,0.189-0.09c0.245-0.115,0.482-0.18,0.609-0.197
		c0.08-0.007,0.239-0.005,0.352,0.009c0.05,0.011,0.159,0.047,0.275,0.099c1.416-0.489,2.873-0.961,4.256-1.377
		c1.002-0.302,1.92-0.561,2.834-0.791c1.463-0.368,2.699-0.647,3.975-0.773c0.078-0.001,0.159-0.004,0.239-0.012
		c0.078-0.007,0.157-0.018,0.235-0.03c1.359-0.108,2.744-0.084,4.164-0.103c1.102-0.014,2.11-0.019,3.134,0
		c1.818,0.033,3.594,0.122,5.55,0.291c2.243,0.193,4.424,0.465,6.387,0.833c2.388,0.443,4.667,1.022,7.251,1.742
		c1.842,0.513,3.528,1.005,5.039,1.658c1.493,0.636,2.902,1.42,4.572,2.273c1.472,0.752,2.989,1.483,4.396,2.24
		c2.329,1.251,4.281,2.47,5.942,3.625c1.875,1.302,3.511,2.431,5.238,3.578c2.302,1.514,4.206,3.188,5.322,5.572
		c0.629,1.254,1.052,2.667,1.634,4.044c0.398,0.934,0.71,1.58,0.924,2.212c0.465,1.321,0.774,2.725,0.938,4.871
		C266.521,83.217,266.497,84.74,266.493,86.285z"/>
	<path d="M239.043,113.841c-0.719,0.64-1.09,1.517-1.687,2.412c-0.411,0.636-1.047,1.325-1.756,2.003
		c-0.806,0.777-1.582,1.367-2.425,1.971c-0.441,0.316-0.974,0.67-1.536,1.118c-0.976,0.789-1.902,1.802-2.82,2.574
		c-1.204,1.021-2.312,1.749-3.441,2.481c-1.063,0.692-2.306,1.273-3.578,1.872c-1.916,0.904-3.366,1.777-4.838,2.659
		c-1.26,0.769-2.633,1.154-3.871,1.468c-1.039,0.266-1.807,0.563-2.632,0.754c-0.945,0.226-2.103,0.395-3.051,0.509
		c-0.691,0.084-1.303,0.158-1.898,0.221c-0.347,0.036-0.666,0.068-0.959,0.085c-0.499,0.03-0.926,0.019-1.514,0.015
		c-1.114-0.007-2.318-0.112-3.293-0.358c-0.823-0.202-1.566-0.465-2.654-0.738c-0.938-0.229-2.088-0.371-3.267-0.562
		c-0.775-0.124-1.545-0.307-2.458-0.497c-0.498-0.104-1.045-0.212-1.668-0.323c-0.888-0.158-1.98-0.355-3.181-0.523
		c-0.655-0.091-1.39-0.197-2.193-0.256c-0.788-0.055-1.663-0.057-2.627-0.026c-1.529,0.05-3.512,0.128-5.387,0.579
		c-0.782,0.191-1.262,0.98-1.07,1.762c0.191,0.781,0.98,1.261,1.761,1.07c1.581-0.394,3.269-0.447,4.791-0.497
		c0.917-0.03,1.641-0.03,2.32,0.02h0.001c0.001,0,0.001,0,0.001,0h0.001c0.702,0.05,1.336,0.143,2,0.236
		c1.146,0.159,2.18,0.347,3.072,0.506c0.599,0.106,1.103,0.206,1.583,0.306c0.878,0.183,1.713,0.379,2.59,0.521
		c1.232,0.199,2.285,0.325,3.028,0.513c0.969,0.24,1.704,0.502,2.658,0.739c1.214,0.294,2.729,0.432,3.97,0.443
		c0.568,0.003,1.098,0.014,1.706-0.02c0.357-0.021,0.741-0.061,1.092-0.098c0.621-0.065,1.255-0.142,1.944-0.226
		c0.99-0.12,2.294-0.312,3.374-0.566c1.002-0.24,1.788-0.542,2.678-0.766c1.289-0.328,3.061-0.853,4.65-1.792
		c1.476-0.885,2.783-1.678,4.581-2.522c1.271-0.599,2.683-1.267,3.921-2.063c1.143-0.74,2.411-1.582,3.738-2.701
		c1.061-0.901,1.974-1.899,2.763-2.527c0.461-0.37,0.922-0.673,1.409-1.021c0.881-0.631,1.827-1.358,2.747-2.239
		c0.777-0.746,1.609-1.659,2.172-2.503c0.566-0.866,0.856-1.491,0.91-1.619c0.658-0.458,0.825-1.361,0.369-2.022
		C240.614,113.552,239.707,113.385,239.043,113.841z"/>
	<path d="M42.701,68.934c-0.015-0.019-0.028-0.042-0.043-0.058c-0.02-0.011-0.042-0.019-0.062-0.029
		c-0.083-0.057-0.172-0.106-0.269-0.146c-0.139-0.058-0.282-0.084-0.424-0.098c-0.12-0.025-0.226-0.042-0.282-0.04
		c-0.136,0.012-0.291,0.04-0.359,0.056c-0.125,0.031-0.195,0.055-0.212,0.057c-0.42,0.096-1.146,0.303-1.972,0.533
		c-0.38,0.107-0.872,0.213-1.37,0.372c-1.082,0.366-1.988,0.995-2.879,1.689c-0.388,0.302-0.851,0.648-1.371,1.075
		c-0.642,0.526-1.323,1.138-2.035,1.726c-0.342,0.284-0.741,0.568-1.154,0.89c-0.512,0.402-0.969,0.813-1.398,1.189
		c-0.415,0.362-0.883,0.748-1.409,1.231c-0.521,0.48-1.103,1.056-1.76,1.736c-0.53,0.55-1.084,1.172-1.655,1.799
		c-0.761,0.835-1.616,1.726-2.439,2.645c-0.365,0.407-0.751,0.825-1.137,1.271c-0.684,0.796-1.331,1.784-1.994,2.883
		c-0.366,0.608-0.808,1.227-1.232,1.889c-0.737,1.151-1.46,2.202-2.044,3.151c-0.405,0.674-0.698,1.448-0.938,2.14
		c-0.421,1.215-0.805,2.424-1.1,3.483c-0.137,0.496-0.247,0.935-0.354,1.316c-0.05,0.184-0.125,0.378-0.229,0.655
		c-0.286,0.752,0.092,1.594,0.845,1.88c0.752,0.287,1.594-0.092,1.88-0.845c0.107-0.28,0.223-0.594,0.311-0.9
		c0.12-0.425,0.229-0.865,0.357-1.325c0.279-1.004,0.637-2.13,1.046-3.312c0.229-0.665,0.402-1.151,0.666-1.566
		c0.541-0.88,1.253-1.917,2.015-3.106c0.384-0.6,0.848-1.251,1.273-1.954c0.639-1.06,1.151-1.848,1.704-2.482
		c0.355-0.412,0.723-0.81,1.103-1.233c0.789-0.88,1.636-1.763,2.424-2.628c0.582-0.639,1.109-1.231,1.597-1.736
		c0.636-0.659,1.156-1.173,1.637-1.615c0.47-0.433,0.905-0.791,1.354-1.183c0.446-0.39,0.842-0.748,1.278-1.087
		c0.359-0.282,0.79-0.589,1.213-0.939c0.756-0.625,1.437-1.237,2.025-1.717c0.473-0.389,0.902-0.71,1.313-1.03
		c0.854-0.666,1.302-1.012,1.985-1.216c0.351-0.115,0.786-0.207,1.255-0.337c0.445-0.125,0.84-0.236,1.166-0.325
		c0.131,0.017,0.265,0.022,0.402,0.002c0.274-0.044,0.6-0.142,0.794-0.222c0.111-0.05,0.309-0.164,0.454-0.271
		c0.02-0.017,0.047-0.046,0.078-0.08c0.113-0.103,0.208-0.226,0.285-0.365c0.001-0.003,0.003-0.005,0.004-0.008
		c0.026-0.048,0.056-0.093,0.078-0.145C43.368,70,43.177,69.331,42.701,68.934z"/>
	<path d="M167.213,38.979c-0.099-0.47-0.213-1-0.359-1.523c-0.296-1.063-0.625-2.086-1.018-3.014
		c-0.392-0.909-0.853-1.636-1.148-2.322c-0.414-0.945-0.877-1.986-1.445-2.934c-0.618-1.024-1.293-2.042-2.079-2.794
		c-0.291-0.271-0.561-0.497-0.787-0.718c-0.924-0.899-1.838-1.692-2.606-2.385c-0.727-0.653-1.451-1.288-2.182-1.755
		c-0.706-0.445-1.497-0.868-2.228-1.089c-0.691-0.193-1.37-0.258-1.808-0.278c-0.496-0.019-1.023,0.049-1.345,0.138
		c-0.101,0.032-0.224,0.083-0.343,0.14c-0.055,0.021-0.105,0.053-0.157,0.082c-0.035,0.019-0.079,0.039-0.109,0.057
		c-0.002,0.001-0.005,0.005-0.007,0.007c-0.271,0.183-0.456,0.442-0.556,0.729c-0.061,0.117-0.113,0.239-0.151,0.361
		c-0.116,0.796,0.434,1.536,1.23,1.653c0.39,0.058,0.765-0.047,1.062-0.261c0.051-0.002,0.121-0.001,0.24,0.007
		c0.377,0.016,0.704,0.037,1.136,0.167c0.405,0.106,0.849,0.354,1.478,0.753c0.528,0.327,1.073,0.813,1.789,1.458
		c0.79,0.71,1.657,1.462,2.524,2.306c0.303,0.293,0.594,0.539,0.826,0.757c0.532,0.482,0.984,1.189,1.575,2.17
		c0.476,0.785,0.859,1.66,1.273,2.602c0.394,0.884,0.844,1.592,1.135,2.289c0.343,0.8,0.61,1.646,0.895,2.659
		c0.123,0.436,0.215,0.87,0.311,1.336c0.261,1.237,0.427,2.262,0.441,3.088c0.032,1.295,0.079,2.545,0.045,3.679
		c-0.03,1.032-0.103,1.847-0.218,2.421c-0.224,1.13-0.431,2.159-0.663,3.203c-0.078,0.374-0.196,0.668-0.355,1.022
		c-0.327,0.736,0.006,1.597,0.739,1.923c0.736,0.328,1.599-0.003,1.926-0.739c0.188-0.422,0.403-0.993,0.536-1.574
		c0.239-1.073,0.453-2.136,0.677-3.271c0.145-0.751,0.237-1.786,0.271-2.898c0.035-1.235-0.013-2.558-0.043-3.835
		C167.686,41.552,167.484,40.28,167.213,38.979z"/>
</g>
</svg>
