<?xml version="1.0" encoding="utf-8"?>
<!-- Generator: Adobe Illustrator 16.0.0, SVG Export Plug-In . SVG Version: 6.00 Build 0)  -->
<!DOCTYPE svg PUBLIC "-//W3C//DTD SVG 1.1//EN" "http://www.w3.org/Graphics/SVG/1.1/DTD/svg11.dtd">
<svg version="1.1" id="Ebene_1" xmlns="http://www.w3.org/2000/svg" xmlns:xlink="http://www.w3.org/1999/xlink" x="0px" y="0px"
	 width="113.396px" height="125.031px" viewBox="0 0 113.396 125.031" enable-background="new 0 0 113.396 125.031"
	 xml:space="preserve">
<path d="M113.371,35.721c-0.02-0.484-0.043-0.98-0.076-1.462c-0.013-0.176-0.021-0.372-0.034-0.585
	c-0.042-0.525-0.11-1.068-0.186-1.581c-0.079-0.568-0.191-1.153-0.304-1.68c-0.102-0.456-0.229-0.916-0.37-1.377
	c-0.146-0.491-0.313-1.03-0.512-1.639c-0.171-0.52-0.366-1.065-0.577-1.583c-0.211-0.512-0.476-1.01-0.726-1.466
	c-0.409-0.74-0.836-1.551-1.31-2.308c-0.45-0.718-0.989-1.441-1.555-2.02c-0.596-0.606-1.285-1.272-2.101-1.966
	c-0.729-0.619-1.554-1.211-2.336-1.635c-0.861-0.461-1.858-0.853-2.919-1.189c-0.939-0.294-1.981-0.606-3.1-0.836
	c-0.47-0.095-0.945-0.146-1.357-0.191c-0.326-0.026-0.696-0.053-1.07-0.061c-1.266-0.052-2.688,0.007-4.065,0.262
	c-0.425,0.08-0.871,0.197-1.261,0.324c-0.466,0.152-0.975,0.304-1.495,0.489c-1.323,0.475-2.674,1.059-3.943,1.689
	c-0.362,0.182-0.741,0.351-1.122,0.537c-0.938,0.465-1.83,1.123-2.698,1.782c-0.838,0.641-1.617,1.354-2.359,2.007
	c-0.207,0.182-0.439,0.357-0.663,0.535c0.074-0.272,0.149-0.541,0.222-0.825c0-0.002,0-0.005,0.002-0.008
	c0.053-0.159,0.125-0.408,0.181-0.635c0.006-0.028,0.008-0.036,0.012-0.056c0.061-0.195,0.163-0.533,0.261-0.995
	c0.044-0.316,0.074-0.671,0.08-0.824c0.002-0.066,0.004-0.123,0.004-0.182c0.047-0.338,0.083-0.692,0.099-1.076
	c0.022-0.568,0.021-1.18-0.004-1.753c-0.035-0.854-0.137-1.724-0.341-2.675c-0.04-0.191-0.078-0.395-0.12-0.625
	c-0.196-1.001-0.637-1.942-1.082-2.75c-0.472-0.846-1.007-1.754-1.522-2.548c-0.349-0.53-0.79-0.979-1.166-1.354
	c-0.565-0.561-1.218-1.097-1.882-1.638c-0.335-0.265-0.686-0.563-1.071-0.872c-0.354-0.286-0.749-0.554-1.088-0.749
	c-0.395-0.224-0.834-0.418-1.243-0.578c-0.49-0.19-1.007-0.322-1.454-0.447c-0.757-0.21-1.568-0.499-2.521-0.715
	c-0.492-0.109-1.05-0.2-1.637-0.269c-0.938-0.106-1.952-0.19-3.055-0.193C59.624,0,59.314-0.002,58.98,0.002
	C58.2,0.014,57.385,0.06,56.551,0.14c-0.286,0.027-0.601,0.05-0.944,0.083c-0.958,0.098-1.911,0.346-2.786,0.564
	c-0.903,0.223-1.844,0.462-2.77,0.748c-0.306,0.097-0.592,0.209-0.842,0.302c-1.432,0.53-3.041,1.01-4.525,1.791
	c-0.232,0.123-0.5,0.264-0.769,0.428c-0.617,0.381-1.211,0.843-1.758,1.273c-0.742,0.583-1.499,1.188-2.231,1.823
	c-0.165,0.145-0.368,0.296-0.6,0.49c-0.26,0.216-0.536,0.448-0.836,0.7c-1.151,0.993-2.06,2.358-2.786,3.599
	c-0.087,0.158-0.271,0.369-0.481,0.695c-0.226,0.362-0.403,0.752-0.57,1.118c-0.094-0.164-0.19-0.329-0.325-0.493
	c-0.618-0.68-1.639-1.201-2.807-1.66c-0.681-0.258-1.395-0.537-2.102-0.814c-0.372-0.143-0.757-0.299-1.191-0.455
	c-0.458-0.166-0.964-0.321-1.455-0.461c-0.652-0.177-1.316-0.36-1.998-0.488c-0.695-0.136-1.474-0.205-2.24-0.217
	c-0.649-0.009-1.309,0.016-1.942,0.066c-0.744,0.064-1.566,0.189-2.359,0.403c-0.681,0.19-1.377,0.466-2.008,0.791
	c-0.758,0.396-1.5,0.936-2.2,1.447c-0.397,0.293-0.813,0.587-1.208,0.889c-0.386,0.295-0.745,0.597-1.091,0.894
	c-0.322,0.278-0.703,0.58-1.094,0.959c-0.323,0.313-0.637,0.677-0.917,1.013c-0.377,0.449-0.709,0.928-1.014,1.359
	c-0.282,0.4-0.589,0.795-0.904,1.244c-0.405,0.579-0.81,1.229-1.227,1.924c-0.426,0.712-0.883,1.488-1.304,2.261
	c-0.307,0.562-0.625,1.145-0.921,1.8c-0.168,0.379-0.3,0.768-0.43,1.112c-0.18,0.479-0.391,0.953-0.602,1.458
	c-0.252,0.6-0.574,1.211-0.879,1.929c-0.186,0.441-0.326,0.895-0.459,1.273c-0.222,0.633-0.48,1.239-0.705,1.931
	c-0.117,0.361-0.233,0.774-0.343,1.231c-0.137,0.573-0.234,1.151-0.324,1.673c-0.103,0.613-0.245,1.207-0.349,1.879
	c-0.112,0.712-0.191,1.482-0.251,2.258c-0.06,0.791-0.138,1.549-0.171,2.395c-0.037,0.912-0.038,1.898-0.038,2.769
	c0,0.319-0.001,0.65,0.003,1.01c0.01,0.768,0.043,1.59,0.097,2.388c0.049,0.688,0.085,1.384,0.187,2.122
	c0.113,0.804,0.297,1.655,0.49,2.421c0.233,0.906,0.527,1.767,0.853,2.608c0.267,0.693,0.56,1.443,0.904,2.108
	c0.344,0.648,0.776,1.202,1.179,1.723c0.225,0.289,0.457,0.609,0.703,0.93c0.34,0.439,0.708,0.879,1.067,1.263
	c0.499,0.523,1.059,0.94,1.569,1.293c0.657,0.453,1.379,0.881,2.234,1.397c0.598,0.359,1.225,0.731,1.877,1.052
	c0.855,0.409,1.794,0.714,2.698,0.944c0.899,0.232,1.85,0.391,2.853,0.52c0.845,0.098,1.759,0.18,2.654,0.258
	c0.366,0.031,0.752,0.079,1.188,0.117c0.94,0.081,1.945,0.125,2.941,0.179c0.463,0.023,0.946,0.06,1.455,0.084
	c0.567,0.023,1.154,0.023,1.727,0.023c0.5-0.004,1.013-0.014,1.547-0.034c0.385-0.02,0.786-0.05,1.195-0.082
	c0.006,0.003,0.014,0.005,0.021,0.007c0,0.197-0.04,0.446-0.075,0.892c-0.006,0.067-0.009,0.119-0.013,0.185
	c-0.061,0.172-0.125,0.358-0.175,0.563c-0.093,0.296-0.185,0.593-0.281,0.888c0,0.004-0.002,0.004-0.002,0.008l0,0
	c-0.055,0.347-0.108,0.695-0.164,1.036c-0.053,0.297-0.103,0.583-0.153,0.864c-0.045,0.23-0.095,0.467-0.135,0.714
	c-0.123,0.717-0.203,1.286-0.33,1.765c-0.06,0.169-0.122,0.372-0.18,0.584c-0.11,0.435-0.245,0.937-0.339,1.487
	c-0.034,0.356-0.061,0.669-0.099,0.962c-0.039,0.289-0.07,0.554-0.111,0.808c-0.036,0.209-0.088,0.447-0.125,0.712
	c-0.041,0.295-0.087,0.607-0.129,0.931c-0.048,0.366-0.091,0.687-0.143,0.983c-0.054,0.283-0.096,0.527-0.152,0.75
	c-0.043,0.203-0.103,0.479-0.147,0.782c-0.105,0.722-0.191,1.379-0.29,1.987c-0.075,0.523-0.158,1.037-0.219,1.563
	c-0.076,0.652-0.121,1.285-0.202,1.864c-0.057,0.431-0.113,0.936-0.155,1.461c-0.05,0.604-0.08,1.209-0.13,1.776
	c-0.021,0.256-0.043,0.515-0.063,0.77c-0.015,0.203-0.028,0.404-0.04,0.605c-0.016,0.24-0.036,0.499-0.048,0.766
	c-0.02,0.567-0.031,1.053-0.054,1.486c-0.014,0.188-0.032,0.382-0.043,0.582c-0.016,0.423-0.028,0.826-0.042,1.211
	c-0.031,0.781-0.064,1.521-0.085,2.253c-0.014,0.553-0.024,1.108-0.039,1.64c-0.008,0.532-0.019,1.038-0.026,1.529
	c-0.003,0.253-0.01,0.549-0.014,0.863c-0.013,0.52-0.027,1.009-0.046,1.464c-0.014,0.411-0.035,0.792-0.046,1.177
	c-0.011,0.392-0.024,0.771-0.037,1.146c-0.02,0.403-0.031,0.783-0.06,1.127c-0.033,0.421-0.081,0.813-0.103,1.225
	c-0.03,0.533-0.045,1.076-0.049,1.562c-0.004,0.474,0.007,0.865-0.003,1.2c-0.012,0.265-0.034,0.518-0.046,0.796
	c-0.013,0.278-0.023,0.565-0.041,0.851c-0.02,0.314-0.031,0.604-0.063,0.842c-0.022,0.158-0.054,0.311-0.08,0.479
	c-0.032,0.196-0.056,0.357-0.086,0.515c-0.031,0.182-0.074,0.392-0.098,0.603c-0.039,0.332-0.048,0.643-0.057,0.894
	c-0.01,0.529-0.028,0.954,0.015,1.394c0.029,0.126,0.063,0.256,0.098,0.358c0.026,0.023,0.052,0.047,0.078,0.068
	c0.024,0.063,0.051,0.128,0.078,0.178c0,0,0.001,0.002,0.001,0.002c0.017,0.079,0.061,0.143,0.116,0.195
	c0.041,0.062,0.095,0.109,0.161,0.139c0.102,0.228,0.213,0.442,0.313,0.615c0.27,0.471,0.613,1.152,1.094,1.753
	c0.276,0.334,0.633,0.662,0.986,0.925c0.492,0.362,1.091,0.661,1.713,0.951c0.314,0.142,0.677,0.326,1.087,0.5
	c0.74,0.313,1.621,0.664,2.614,0.931c0.519,0.142,1.076,0.25,1.619,0.348c0.259,0.046,0.528,0.093,0.798,0.134
	c0.317,0.052,0.646,0.096,0.961,0.138c0.555,0.052,1.12,0.098,1.678,0.136c0.667,0.059,1.367,0.11,2.077,0.162
	c1.023,0.07,2.109,0.153,3.249,0.221c0.326,0.024,0.662,0.046,1.009,0.07c0.433,0.023,0.878,0.052,1.331,0.076
	c0.793,0.053,1.618,0.103,2.472,0.139c0.488,0.018,0.983,0.023,1.464,0.031c0.38,0.002,0.767,0.009,1.163,0.004
	c0.44,0.002,0.892,0.002,1.35-0.004c0.52-0.006,1.044-0.027,1.556-0.05c1.409-0.071,2.861-0.177,4.339-0.309
	c0.521-0.04,1.059-0.078,1.604-0.127c0.464-0.044,0.928-0.113,1.392-0.178c0.588-0.08,1.2-0.154,1.822-0.244
	c0.533-0.077,1.068-0.163,1.595-0.249c0.137-0.025,0.284-0.055,0.421-0.081c0.427-0.018,0.932-0.065,1.459-0.163
	c0.396-0.074,0.771-0.159,1.161-0.221c0.407-0.066,0.847-0.131,1.284-0.188c0.592-0.084,1.089-0.158,1.525-0.228
	c0.227-0.033,0.459-0.062,0.726-0.102c0.42-0.06,0.912-0.156,1.397-0.24c0.522-0.09,0.99-0.154,1.443-0.223
	c0.433-0.07,0.918-0.13,1.413-0.212c0.693-0.119,1.26-0.269,1.795-0.403c0.547-0.138,1.202-0.267,1.803-0.396
	c0.952-0.209,1.632-0.495,2.352-0.654c0.311-0.071,0.617-0.144,0.899-0.211c0.036-0.008,0.066-0.016,0.104-0.025
	c0.058,0.014,0.119,0.02,0.182,0.004c0.127-0.03,0.269-0.09,0.407-0.151c0.295-0.079,0.577-0.161,0.842-0.257
	c0.295-0.101,0.587-0.217,0.857-0.313c0.297-0.111,0.571-0.201,0.856-0.315c0.112-0.046,0.24-0.099,0.375-0.162
	c0.109-0.054,0.242-0.119,0.358-0.185c0.139-0.076,0.259-0.16,0.345-0.221c0.058-0.042,0.103-0.072,0.15-0.104
	c0.076-0.054,0.17-0.113,0.271-0.174c0.191-0.128,0.347-0.231,0.514-0.345c0.142-0.072,0.29-0.145,0.45-0.223
	c0.167-0.086,0.35-0.172,0.533-0.259c0.104-0.048,0.219-0.1,0.325-0.152c0.082-0.039,0.16-0.078,0.222-0.11
	c0.043-0.021,0.113-0.048,0.215-0.102c0.101-0.059,0.207-0.125,0.293-0.183c0.131-0.084,0.232-0.17,0.299-0.223
	c0.064-0.048,0.122-0.088,0.214-0.15c0.053-0.038,0.133-0.084,0.231-0.146c0.133-0.082,0.242-0.168,0.326-0.232
	c0.087-0.063,0.194-0.14,0.314-0.238c0.073-0.055,0.188-0.135,0.312-0.244c0.14-0.129,0.269-0.285,0.358-0.394
	c0.076-0.098,0.126-0.178,0.161-0.227c0.036-0.05,0.077-0.1,0.14-0.17c0.03-0.04,0.067-0.081,0.115-0.135s0.091-0.096,0.14-0.147
	c0.092-0.107,0.156-0.211,0.181-0.247c0.029-0.044,0.063-0.077,0.149-0.185c0.104-0.124,0.238-0.284,0.342-0.406
	c0.06-0.073,0.104-0.117,0.172-0.197c0.238-0.271,0.449-0.636,0.608-0.946c0.079-0.17,0.169-0.385,0.229-0.562
	c0.043-0.132,0.076-0.256,0.101-0.374c0.014-0.072,0.042-0.188,0.063-0.316c0.036-0.243,0.036-0.514,0.026-0.734
	c-0.006-0.08-0.026-0.154-0.042-0.23c0.027-0.177,0.058-0.356,0.078-0.516c0.031-0.258,0.058-0.549,0.081-0.85
	c-0.002,0.022,0,0.034,0.013-0.021c0.037-0.278,0.02-0.521,0.028-0.679c0.013-0.245,0.034-0.522,0.05-0.804
	c0.007-0.14,0.019-0.288,0.026-0.45c0.022-0.272,0.026-0.543,0.036-0.798c0.002-0.463-0.008-0.962-0.014-1.476
	c0.002-0.052,0.006-0.114,0.008-0.206c-0.006-0.459-0.036-0.922-0.04-1.401c-0.004-0.369,0.008-0.77,0.018-1.21
	c0.013-0.481,0.022-0.989,0.038-1.469c0.01-0.28,0.021-0.539,0.032-0.804c0.021-0.496,0.034-1.009,0.05-1.517
	c0.012-0.367,0.026-0.737,0.038-1.092c0.008-0.173,0.008-0.327,0.01-0.443c0.015-0.331,0.041-0.678,0.063-1.063
	c0.026-0.438,0.04-0.884,0.064-1.306c0.018-0.358,0.044-0.695,0.074-1.012c0.023-0.278,0.031-0.553,0.046-0.802
	c0.025-0.453,0.063-0.94,0.095-1.476c0.02-0.651,0.056-1.327,0.084-2.085c0.016-0.337,0.025-0.677,0.037-1.008
	c0.032-0.747,0.066-1.516,0.087-2.335c0.009-0.313,0.015-0.644,0.021-0.995c0.002-0.815-0.002-1.634-0.027-2.463
	c-0.012-0.349-0.027-0.693-0.044-1.019c-0.04-0.556-0.077-1.095-0.119-1.605c-0.019-0.293-0.032-0.592-0.051-0.898
	c-0.02-0.354-0.044-0.71-0.066-1.05c-0.016-0.274-0.034-0.535-0.05-0.766c-0.022-0.27-0.032-0.55-0.048-0.853
	c-0.038-0.679-0.094-1.362-0.138-2.018c-0.047-0.263-0.087-0.506-0.129-0.736c-0.03-0.338-0.068-0.684-0.103-1.036
	c-0.025-0.328-0.046-0.653-0.068-0.978c-0.016-0.29-0.034-0.559-0.048-0.806c-0.017-0.275-0.019-0.559-0.022-0.857
	c-0.002-0.36-0.02-0.713-0.023-1.048c-0.013-0.548,0-1.081,0.023-1.646c-0.025-0.285-0.05-0.575-0.071-0.876
	c-0.002-0.33-0.006-0.675-0.008-1.045c0.006-0.306,0.021-0.614,0.037-0.926c0.015-0.264,0.032-0.498,0.053-0.706
	c0.002-0.212,0.008-0.436,0.012-0.657c0.002-0.001,0.006-0.003,0.008-0.003c0.369,0.076,0.902,0.191,1.7-0.008
	c0.573-0.177,1.282-0.566,1.969-0.987c0.336-0.208,0.669-0.43,1.026-0.653c0.416-0.254,0.934-0.515,1.499-0.863
	c0.351-0.215,0.781-0.478,1.203-0.819c0.44-0.367,0.836-0.832,1.204-1.261c0.497-0.573,0.979-1.189,1.506-1.752
	c0.238-0.263,0.619-0.513,1.05-0.898c0.415-0.371,0.803-0.803,1.161-1.223c0.656-0.795,1.253-1.712,1.844-2.492
	c0.147-0.207,0.383-0.417,0.667-0.74c0.453-0.514,0.844-1.106,1.184-1.644c0.396-0.647,0.707-1.367,0.974-1.975
	c0.173-0.409,0.461-0.826,0.764-1.412c0.457-0.897,0.784-1.91,1.064-2.754c0.131-0.406,0.251-0.79,0.354-1.128
	c0.359-1.201,0.483-2.536,0.555-3.771c0.006-0.142,0.025-0.321,0.037-0.544C113.413,37.336,113.399,36.543,113.371,35.721z
	 M23.084,13.769c-0.109,0.19-0.353,0.257-0.544,0.147c-0.023-0.041-0.054-0.071-0.134-0.109c-0.268-0.036-0.643,0.002-0.981,0.085
	c-0.617,0.139-1.053,0.282-1.807,0.566c-0.571,0.202-1.293,0.525-2.097,1.042c-0.462,0.287-0.907,0.62-1.39,1.074
	c-0.276,0.263-0.549,0.513-0.836,0.875c-0.3,0.372-0.607,0.836-0.958,1.464c-0.383,0.683-0.763,1.544-1.182,2.457
	c-0.283,0.602-0.639,1.143-0.941,1.813c-0.244,0.528-0.446,1.115-0.652,1.722c-0.275,0.78-0.555,1.536-0.766,2.292
	c-0.135,0.486-0.262,0.954-0.358,1.458c-0.055,0.289-0.101,0.592-0.144,0.928c-0.124,0.854-0.254,1.688-0.369,2.416
	c-0.018,0.154-0.157,0.265-0.312,0.247c-0.154-0.017-0.264-0.157-0.246-0.311c0.053-0.735,0.121-1.576,0.183-2.432
	c0.031-0.346,0.068-0.673,0.114-0.978c0.077-0.535,0.186-1.041,0.298-1.538c0.181-0.802,0.432-1.601,0.667-2.386
	c0.193-0.614,0.399-1.254,0.651-1.835c0.327-0.739,0.682-1.295,0.923-1.833c0.416-0.905,0.813-1.801,1.222-2.531
	c0.371-0.658,0.727-1.192,1.061-1.604c0.337-0.414,0.669-0.716,0.942-0.97c0.52-0.491,1.043-0.889,1.543-1.206
	c0.875-0.534,1.713-0.888,2.336-1.088c0.796-0.236,1.323-0.343,1.979-0.43c0.4-0.048,0.897-0.045,1.254,0.047
	c0.129,0.005,0.28,0.034,0.396,0.074C23.127,13.334,23.193,13.578,23.084,13.769z M40.362,20.475
	c0.097-0.252,0.198-0.473,0.243-0.699c0.157-0.709,0.464-1.547,0.806-2.407c0.147-0.346,0.292-0.714,0.499-1.032
	c0.488-0.764,0.99-1.456,1.396-2.17c0.451-0.767,0.871-1.585,1.396-2.269c0.513-0.663,1.042-1.281,1.552-1.768
	c0.81-0.736,1.561-1.11,2.052-1.415c0.303-0.197,0.569-0.36,0.805-0.477c0.53-0.285,0.948-0.381,1.231-0.377
	c0.219,0.02,0.38,0.214,0.36,0.434c-0.019,0.219-0.213,0.38-0.432,0.36c-0.158-0.036-0.369-0.018-0.842,0.207
	c-0.199,0.106-0.427,0.257-0.719,0.456c-0.001,0-0.001,0.001-0.002,0.001h-0.001c-0.508,0.362-1.164,0.72-1.873,1.423
	c-0.479,0.452-0.967,1.023-1.469,1.669c-0.481,0.616-0.879,1.39-1.344,2.177c-0.453,0.74-0.985,1.432-1.48,2.164v0l0,0
	c-0.165,0.245-0.282,0.555-0.434,0.914c-0.381,0.833-0.714,1.61-0.903,2.262c-0.082,0.283-0.218,0.537-0.325,0.766
	c-0.061,0.142-0.225,0.209-0.368,0.148C40.369,20.782,40.302,20.617,40.362,20.475z M31.828,62.521
	c-0.012,0.001-0.023,0.003-0.036,0.003c-0.034-0.066-0.064-0.12-0.091-0.164C31.736,62.404,31.778,62.457,31.828,62.521z
	 M31.517,63.018c0.034-0.021,0.077-0.04,0.112-0.061c-0.008-0.018-0.027-0.028-0.031-0.049c-0.025-0.159,0.083-0.308,0.24-0.333
	c0.3-0.044,0.596-0.115,0.892-0.177c0.127-0.056,0.254-0.119,0.377-0.17c0.584-0.245,1.135-0.466,1.774-0.678
	c0.409-0.137,0.871-0.274,1.326-0.401c0.497-0.133,0.95-0.282,1.456-0.443c0.355-0.114,0.743-0.228,1.122-0.337
	c0.498-0.142,0.958-0.263,1.389-0.399c0.361-0.113,0.717-0.255,1.169-0.407c0.206-0.068,0.432-0.134,0.654-0.202
	c0.379-0.166,0.77-0.349,1.188-0.548c0.008-0.006,0.017-0.011,0.026-0.016c0.011-0.005,0.022-0.009,0.033-0.012
	c0.363-0.163,0.731-0.3,1.085-0.441c0.013-0.012,0.028-0.023,0.045-0.03c0.02-0.008,0.041-0.012,0.062-0.012
	c0.377-0.153,0.746-0.361,1.135-0.572c0.054-0.031,0.123-0.013,0.153,0.041c0.031,0.054,0.013,0.122-0.041,0.154
	c-0.301,0.187-0.601,0.37-0.906,0.536c0.145-0.045,0.279-0.091,0.427-0.134c0.611-0.179,1.205-0.32,1.81-0.461
	c0.979-0.224,2.081-0.444,3.181-0.628c0.425-0.072,0.865-0.139,1.295-0.199c0.496-0.068,0.967-0.12,1.46-0.175
	c0.929-0.105,1.992-0.229,2.974-0.314c0.621-0.056,1.224-0.091,1.812-0.124c0.589-0.034,1.152-0.066,1.681-0.094
	c0.218-0.012,0.432-0.024,0.654-0.037c0.471-0.026,0.971-0.054,1.457-0.081c0.477-0.029,0.927-0.058,1.376-0.085
	c0.294-0.016,0.585-0.034,0.896-0.052c0.319-0.021,0.655-0.043,0.989-0.064c0.409-0.023,0.813-0.04,1.191-0.05
	c0.291-0.008,0.571-0.008,0.855-0.009c0.447-0.003,0.925-0.012,1.39-0.011c0.152,0,0.3,0.001,0.446,0.002
	c0.146,0.001,0.293,0.002,0.437,0.004c0.145,0.002,0.289,0.006,0.436,0.009c0.143,0.004,0.286,0.008,0.432,0.015
	c0.073,0.002,0.147,0.005,0.219,0.008c0.075,0.003,0.151,0.006,0.221,0.01c0.077,0.003,0.153,0.008,0.229,0.012
	c0.073,0.004,0.15,0.009,0.23,0.015c0.076,0.005,0.152,0.01,0.23,0.016c0.062,0.004,0.126,0.009,0.188,0.014
	c0.019-0.002,0.038-0.003,0.056-0.001c0.021,0.001,0.04,0.005,0.057,0.01c0.038,0.003,0.073,0.006,0.111,0.009
	c0.019-0.003,0.041-0.004,0.062-0.002c0.021,0.001,0.044,0.006,0.063,0.012c0.066,0.006,0.13,0.013,0.197,0.019
	c0.002,0.002,0.004,0.004,0.008,0.006c0.09,0.014,0.163,0.071,0.199,0.149c0.012,0.008,0.024,0.017,0.034,0.025
	c0.061,0.005,0.104,0.059,0.099,0.119c-0.006,0.06-0.058,0.103-0.118,0.098c-0.011,0.004-0.021,0.009-0.028,0.013
	c-0.052,0.082-0.147,0.132-0.251,0.122c-0.018-0.002-0.033-0.005-0.048-0.009c-0.063-0.006-0.128-0.012-0.188-0.017
	c-0.082-0.006-0.162-0.013-0.244-0.019c-0.078-0.006-0.156-0.013-0.232-0.018c-0.079-0.005-0.154-0.01-0.232-0.015
	c-0.074-0.005-0.148-0.01-0.223-0.014c-0.076-0.004-0.148-0.008-0.225-0.012c-0.072-0.004-0.144-0.007-0.217-0.01
	c-0.072-0.003-0.144-0.006-0.216-0.008c-0.143-0.005-0.286-0.009-0.427-0.013c-0.146-0.003-0.285-0.006-0.43-0.008
	c-0.142-0.002-0.287-0.003-0.433-0.004c-0.146-0.001-0.292-0.002-0.442-0.002c-0.46-0.001-0.935,0.009-1.388,0.012
	c-0.286,0-0.56,0-0.843,0.007c-0.373,0.01-0.771,0.026-1.176,0.048c-0.332,0.017-0.667,0.037-0.988,0.054
	c-0.309,0.019-0.603,0.036-0.896,0.054c-0.447,0.025-0.897,0.052-1.376,0.08c-0.485,0.03-0.985,0.061-1.457,0.091
	c-0.222,0.014-0.435,0.027-0.653,0.041c-0.527,0.032-1.091,0.068-1.68,0.106c-0.587,0.036-1.182,0.074-1.795,0.132
	c-0.974,0.088-2.03,0.215-2.959,0.324c-0.494,0.058-0.957,0.111-1.445,0.181c-0.426,0.061-0.858,0.128-1.28,0.2
	c-1.09,0.184-2.175,0.401-3.146,0.625c-0.603,0.141-1.181,0.278-1.778,0.452c-0.458,0.133-0.896,0.274-1.313,0.415
	c-0.554,0.184-1.103,0.374-1.673,0.548c-0.3,0.093-0.595,0.177-0.857,0.263c-0.438,0.146-0.797,0.289-1.178,0.41
	c-0.21,0.066-0.442,0.127-0.663,0.189c-0.316,0.12-0.635,0.243-0.948,0.357c-0.769,0.277-1.537,0.52-2.263,0.774
	c-0.015,0.009-0.03,0.016-0.046,0.021c-0.015,0.005-0.03,0.009-0.046,0.011c-1.017,0.362-1.99,0.677-2.923,0.937
	c-0.012,0.005-0.024,0.009-0.038,0.013c-0.01,0.003-0.021,0.005-0.032,0.007c-0.265,0.072-0.534,0.119-0.801,0.176
	c-0.295,0.136-0.58,0.276-0.825,0.421c-0.112,0.068-0.257,0.031-0.325-0.079C31.369,63.231,31.405,63.086,31.517,63.018z
	 M73.847,96.453c1.814,0.147,3.518,0.306,5.02,0.599c1.136,0.236,2.152,0.525,3.026,0.764c1.078,0.331,1.931,0.657,2.593,0.932
	c0.125,0.038,0.161,0.06,0.195,0.083c0.417,0.18,0.758,0.349,1.034,0.494c0.098,0.039,0.127,0.058,0.151,0.075
	c0.696,0.328,1.064,0.587,1.248,0.762c0.073,0.072,0.114,0.166,0.118,0.263c-0.066,0.096-0.108,0.204-0.126,0.314
	c-0.156,0.144-0.398,0.142-0.552-0.008c-0.13-0.137-0.395-0.336-1.106-0.664c-0.318-0.124-0.706-0.267-1.204-0.433
	c-0.67-0.227-1.5-0.499-2.572-0.777c-0.084-0.021-0.102-0.026-0.12-0.032c-0.833-0.24-1.764-0.514-2.803-0.744
	c-0.036,0-0.071-0.002-0.107-0.01c-0.04-0.01-0.079-0.022-0.115-0.04c-1.389-0.313-2.969-0.509-4.689-0.702
	c-0.104-0.002-0.133-0.008-0.161-0.016c-0.897-0.09-1.844-0.146-2.82-0.211c-0.465-0.071-0.903-0.188-1.299-0.292
	c-0.151-0.022-0.259-0.164-0.236-0.317c0.023-0.154,0.166-0.26,0.318-0.236c0.369,0.014,0.744,0.032,1.129,0.022
	c0.044-0.013,0.092-0.019,0.138-0.015C71.97,96.328,72.931,96.373,73.847,96.453z M33.741,70.601
	c0.001-0.008,0.006-0.012,0.007-0.018c0.008-0.044,0.022-0.084,0.044-0.125c0.002-0.004,0.003-0.006,0.006-0.01
	c0.013-0.022,0.021-0.044,0.038-0.064c0.003-0.004,0.008-0.006,0.011-0.008c0-0.002,0-0.004,0-0.004
	c0.009-0.008,0.022-0.014,0.032-0.021c0.034-0.027,0.066-0.052,0.104-0.067c0.033-0.021,0.062-0.044,0.097-0.063
	c0.155-0.088,0.473-0.235,1.112-0.514c0.658-0.278,1.643-0.732,3.036-1.299c0.612-0.251,1.291-0.546,2.014-0.83
	c0.313-0.121,0.639-0.234,0.972-0.352c0.745-0.263,1.543-0.545,2.386-0.812c0.902-0.267,1.855-0.49,2.785-0.703
	c0.411-0.101,0.808-0.199,1.182-0.281h0h0c0.929-0.172,1.931-0.354,3.059-0.557c0.151-0.034,0.3,0.062,0.334,0.214
	c0.033,0.15-0.063,0.302-0.214,0.333c-1.11,0.285-2.09,0.546-3,0.796c-0.363,0.084-0.754,0.184-1.167,0.289
	c-0.921,0.238-1.842,0.481-2.71,0.77c-0.824,0.261-1.606,0.541-2.353,0.806c-0.33,0.12-0.641,0.231-0.941,0.353
	c-0.71,0.271-1.387,0.558-2.013,0.804c-1.382,0.552-2.362,0.988-3.041,1.264c-0.264,0.104-0.459,0.18-0.623,0.241
	c-0.045,0.067-0.105,0.125-0.185,0.155c-0.187,0.067-0.365,0.121-0.456,0.141c-0.001,0-0.005,0-0.006,0s-0.002,0.002-0.004,0.002
	c-0.009,0.002-0.018-0.002-0.026,0c-0.043,0.006-0.097,0.012-0.147,0.008c-0.083-0.012-0.15-0.055-0.208-0.108c0,0-0.001,0-0.002,0
	c0-0.002-0.001-0.002-0.002-0.002c-0.032-0.032-0.057-0.066-0.077-0.106c-0.007-0.014-0.013-0.025-0.019-0.038
	c-0.009-0.025-0.016-0.053-0.02-0.081c-0.006-0.029-0.008-0.06-0.006-0.092C33.744,70.614,33.74,70.608,33.741,70.601z
	 M30.623,62.876c0.001-0.002,0.003-0.006,0.004-0.008c0,0.004,0.001,0.006,0.002,0.009c-0.002,0.001-0.003,0.001-0.006,0.002
	C30.623,62.878,30.623,62.877,30.623,62.876z M91.242,107.325c-0.107,0.166-0.326,0.212-0.489,0.104
	c-0.058-0.035-0.115-0.075-0.171-0.113c-0.529-0.366-1.133-0.707-1.726-1.11c-0.331-0.223-0.626-0.421-0.931-0.563
	c-0.555-0.263-1.181-0.491-1.856-0.744c-0.675-0.255-1.404-0.476-2.154-0.746c-0.778-0.278-1.588-0.553-2.404-0.83
	c-0.36-0.123-0.702-0.25-1.053-0.344c-0.474-0.128-0.927-0.237-1.37-0.337c-0.395-0.093-0.783-0.179-1.173-0.244
	c-0.358-0.064-0.716-0.115-1.078-0.173c-0.453-0.076-0.928-0.134-1.398-0.221c-0.399-0.072-0.79-0.148-1.181-0.21
	c-0.843-0.135-1.673-0.265-2.49-0.399c-0.356-0.06-0.709-0.114-1.066-0.177c-0.475-0.082-0.928-0.164-1.369-0.235
	c-2.015-0.328-3.936-0.569-5.812-0.688c-1.52-0.1-3.001-0.142-4.438-0.109c-1.416,0.027-2.776,0.138-4.108,0.209
	c-0.369,0.021-0.732,0.041-1.088,0.063c-0.294,0.02-0.593,0.04-0.895,0.062c-0.339,0.026-0.674,0.05-1.004,0.08
	c-0.257,0.021-0.528,0.048-0.811,0.076c-0.363,0.034-0.707,0.068-1.035,0.103c-0.868,0.09-1.69,0.198-2.505,0.293
	c-0.328,0.037-0.635,0.071-0.928,0.113c-0.807,0.115-1.56,0.247-2.29,0.352c-0.288,0.042-0.562,0.07-0.819,0.12
	c-0.426,0.08-0.857,0.169-1.294,0.25c-0.705,0.133-1.401,0.261-2.055,0.426c-0.851,0.21-1.642,0.442-2.364,0.657
	c-0.707,0.213-1.328,0.419-1.898,0.593c-0.571,0.175-1.078,0.32-1.53,0.478c-0.347,0.12-0.672,0.246-0.987,0.349
	c-0.62,0.204-1.162,0.367-1.65,0.525c-0.581,0.188-1.067,0.359-1.442,0.511c-0.317,0.133-0.567,0.243-0.78,0.333
	c-0.435,0.181-0.704,0.263-0.93,0.389c-0.045,0.028-0.086,0.055-0.127,0.066c-0.008,0.023-0.022,0.048-0.043,0.067
	c-0.009,0.007-0.018,0.015-0.028,0.019c-0.002,0.01-0.005,0.018-0.009,0.024c-0.014,0.042-0.043,0.074-0.084,0.092
	c-0.079,0.034-0.169-0.002-0.204-0.081c-0.012-0.035-0.015-0.091-0.009-0.123c0.051-0.1,0.083-0.136,0.114-0.167
	c0.058-0.054,0.143-0.113,0.229-0.166c0.247-0.16,0.525-0.269,0.941-0.461c0.208-0.094,0.458-0.215,0.775-0.353
	c0.382-0.171,0.877-0.358,1.459-0.563c0.491-0.168,1.028-0.339,1.64-0.551c0.302-0.103,0.622-0.234,0.976-0.361
	c0.463-0.168,0.976-0.322,1.542-0.503c0.562-0.181,1.182-0.397,1.894-0.617c0.721-0.226,1.525-0.467,2.384-0.688
	c0.67-0.171,1.383-0.303,2.087-0.438c0.435-0.078,0.866-0.167,1.293-0.244c0.279-0.057,0.564-0.088,0.843-0.128
	c0.723-0.104,1.477-0.232,2.291-0.35c0.301-0.044,0.617-0.08,0.942-0.118c0.811-0.094,1.637-0.202,2.513-0.294
	c0.329-0.032,0.674-0.066,1.037-0.104c0.283-0.027,0.556-0.054,0.815-0.077c0.334-0.03,0.672-0.057,1.011-0.08
	c0.303-0.024,0.603-0.046,0.9-0.066c0.359-0.023,0.726-0.047,1.093-0.068c1.325-0.078,2.695-0.196,4.126-0.232
	c1.452-0.038,2.959,0,4.491,0.095c1.893,0.117,3.843,0.362,5.87,0.688c0.444,0.071,0.904,0.153,1.377,0.234
	c0.351,0.061,0.701,0.113,1.061,0.171c0.815,0.134,1.644,0.261,2.487,0.393c0.4,0.061,0.798,0.133,1.196,0.203
	c0.453,0.079,0.923,0.135,1.387,0.206c0.359,0.057,0.723,0.108,1.089,0.173c0.405,0.068,0.809,0.156,1.207,0.248
	c0.445,0.101,0.91,0.209,1.394,0.337c0.379,0.101,0.743,0.235,1.096,0.353c0.816,0.275,1.632,0.55,2.418,0.826
	c0.733,0.263,1.47,0.483,2.164,0.74c0.645,0.236,1.268,0.459,1.833,0.715c0.029,0.007,0.06,0.017,0.09,0.028
	c0.027,0.015,0.057,0.032,0.081,0.053c0.3,0.149,0.593,0.34,0.879,0.531c0.021,0.008,0.038,0.018,0.057,0.029
	c0.018,0.012,0.033,0.026,0.048,0.04c0.545,0.36,1.118,0.685,1.649,1.043c0.014,0.006,0.027,0.014,0.041,0.021
	c0.012,0.008,0.021,0.016,0.032,0.026c0.042,0.027,0.081,0.054,0.123,0.08C91.3,106.942,91.348,107.161,91.242,107.325z
	 M91.698,60.778c-0.032,0.021-0.07,0.019-0.104,0.006c-0.042-0.003-0.084-0.019-0.113-0.055c-0.036-0.027-0.071-0.046-0.113-0.067
	c-0.03-0.02-0.055-0.037-0.086-0.054c-0.065-0.035-0.129-0.062-0.211-0.09c-0.082-0.03-0.165-0.056-0.257-0.082
	c-0.069-0.021-0.139-0.041-0.213-0.061c-0.1-0.026-0.2-0.052-0.305-0.077c-0.105-0.026-0.21-0.053-0.316-0.078
	c-0.106-0.026-0.21-0.053-0.313-0.081c-0.129-0.035-0.259-0.073-0.377-0.114c-0.404-0.144-0.86-0.293-1.392-0.444
	c-0.771-0.219-1.765-0.408-2.585-0.613c-0.16-0.04-0.298-0.083-0.419-0.099c-0.066-0.008-0.151-0.009-0.253-0.023
	c-0.175-0.025-0.368-0.052-0.604-0.07c-0.441-0.038-0.992-0.074-1.531-0.181c-0.625-0.125-1.261-0.305-1.952-0.427
	c-0.915-0.16-1.767-0.311-2.853-0.571c-0.579-0.141-1.192-0.293-1.788-0.424c-0.521-0.112-1.044-0.221-1.605-0.3
	c-0.507-0.079-1.036-0.148-1.506-0.213c-0.065-0.018-0.13-0.035-0.19-0.052c-0.063-0.025-0.126-0.052-0.182-0.078
	c-0.085-0.01-0.145-0.087-0.135-0.172c0.01-0.084,0.087-0.146,0.171-0.135c0.062-0.01,0.119-0.019,0.185-0.028
	c0.004,0,0.006-0.003,0.008-0.002c0.002,0,0.002,0.001,0.002,0.001c0-0.001,0.002-0.001,0.002-0.001
	c0.063-0.001,0.13-0.002,0.198-0.003c0.469,0.047,1.004,0.103,1.52,0.165c0.579,0.082,1.12,0.196,1.644,0.31
	c0.605,0.132,1.223,0.288,1.8,0.428c1.075,0.265,1.906,0.421,2.818,0.586c0.714,0.127,1.356,0.306,1.962,0.427
	c0.508,0.102,1.03,0.136,1.478,0.175c0.245,0.022,0.458,0.055,0.634,0.083c0.068,0.011,0.146,0.012,0.242,0.024
	c0.169,0.026,0.329,0.08,0.474,0.118c0.804,0.201,1.807,0.39,2.6,0.614c0.54,0.154,1.008,0.308,1.421,0.453
	c0.104,0.038,0.217,0.071,0.341,0.104c0.099,0.027,0.201,0.053,0.301,0.079c0.106,0.026,0.215,0.052,0.318,0.079
	c0.109,0.028,0.215,0.057,0.319,0.088c0.076,0.024,0.154,0.049,0.229,0.076c0.099,0.038,0.198,0.082,0.285,0.126
	c0.088,0.046,0.178,0.102,0.249,0.157c0,0,0.003,0,0.003,0.001l0,0c0,0,0,0.001,0.002,0.001c0.036,0.027,0.072,0.057,0.106,0.086
	l0,0l0,0c0.002,0.001,0.002,0.001,0.004,0.002c0.042,0.053,0.086,0.114,0.116,0.173c0,0.003,0,0.005,0.002,0.008
	c0.025,0.039,0.027,0.082,0.016,0.124C91.746,60.715,91.734,60.755,91.698,60.778z M106.832,36.178
	c-0.038,0.563-0.178,1.114-0.33,1.686c-0.193,0.674-0.375,1.45-0.609,2.224c-0.068,0.24-0.155,0.466-0.227,0.653
	c-0.088,0.221-0.153,0.482-0.251,0.769c0,0,0,0,0,0.001s-0.002,0.001-0.002,0.001c-0.169,0.438-0.378,0.826-0.562,1.144
	c-0.656,1.149-1.09,2.5-1.8,3.814c-0.068,0.139-0.236,0.196-0.375,0.128c-0.139-0.069-0.196-0.237-0.128-0.376
	c0.58-1.308,0.9-2.705,1.487-3.985c0.15-0.329,0.303-0.667,0.422-1.058c0.088-0.248,0.161-0.529,0.274-0.811
	c0.073-0.18,0.144-0.358,0.201-0.559c0.209-0.749,0.372-1.519,0.55-2.221c0.158-0.569,0.284-1.02,0.319-1.483
	c0.078-0.905-0.004-1.917-0.131-2.849c-0.094-0.664-0.234-1.235-0.391-1.815c-0.2-0.782-0.449-1.526-0.676-2.173
	c-0.223-0.627-0.396-1.104-0.573-1.395c-0.104-0.162-0.188-0.258-0.272-0.347c-0.151-0.146-0.255-0.176-0.393-0.297
	c-0.145-0.165-0.129-0.417,0.036-0.562c0.166-0.146,0.416-0.129,0.563,0.036c-0.029,0.001,0.116,0.087,0.323,0.313
	c0.1,0.101,0.234,0.256,0.364,0.457c0.24,0.354,0.465,0.884,0.712,1.508c0.002,0,0.002,0,0.002,0.001s0,0,0,0.001
	c0.259,0.642,0.551,1.41,0.794,2.213c0.171,0.586,0.337,1.213,0.451,1.918C106.771,34.073,106.887,35.185,106.832,36.178z
	 M107.404,23.689c-0.045-0.032-0.089-0.067-0.131-0.095c0.056,0.039,0.096,0.068,0.129,0.092c0.002,0.002,0.002,0.003,0.004,0.004
	C107.404,23.689,107.404,23.689,107.404,23.689z"/>
</svg>
