<svg id="Ebene_2" data-name="Ebene 2" xmlns="http://www.w3.org/2000/svg" viewBox="0 0 316.04 104.09"><path d="M48.05,48.89l0,0c-.05-.35-.07-.78-.14-1.17a4.33,4.33,0,0,1-.05-1.11,3,3,0,0,0-.1-.61.5.5,0,0,0,.05-.16.66.66,0,0,0,0-.15.8.8,0,0,0-.08-.28.75.75,0,0,0-.35-.23l-.23,0c-.21.07-.25.11-.21.08a.11.11,0,0,1-.06,0l-.19,0-.39,0-.74,0c-.5,0-1,0-1.47,0H42.16l-.2,0h0c0-.3.08-.63.11-.92s0-.61,0-.85a3.33,3.33,0,0,0,0-.46,2.14,2.14,0,0,0,0-.36s0-.06,0-.23a.33.33,0,0,0,0-.1s0,0,0,0a4.89,4.89,0,0,0,.06-.59v-.28a5.89,5.89,0,0,1,0-.84c0-.17.06-.33.1-.49s.09-.44.12-.65.05-.68.06-1,0-.91,0-1.42c0-.08,0-.15,0-.23s0-.17,0-.23h0v-.11s0-.07,0-.1a.57.57,0,0,0-.05-.17s0,0-.07-.06l.07-.07.05-.08v0h0a.57.57,0,0,0,0-.14.42.42,0,0,0-.38-.44h-.07a.33.33,0,0,0-.14,0,1,1,0,0,0-.29.13.61.61,0,0,0-.14.14,1.69,1.69,0,0,0-.21.31c-.06.1,0,.11,0,0C41,36,41,36,41,36a.84.84,0,0,0-.23.37l-.25.25-.22.2-.14.13-.1.1-.07,0a1.54,1.54,0,0,0-.19.17l0,0-.19.16-.15.11-.12.1-.18.13-.17.14a2.12,2.12,0,0,0-.21.2l-.1.09-.07.06-.25.21c-.06.06-.1.12-.13.14a1.53,1.53,0,0,1-.18.18l-.07.05-.12.09-.21.16c-.08.06-.14.13-.18.16l-.25.23-.14.13-.11.1-.12.09-.17.13-.08.05-.12.08a1.81,1.81,0,0,0-.33.42,1.19,1.19,0,0,0-.07.4c0,.47,0,1,0,1.53a11.8,11.8,0,0,0,.06,1.46.92.92,0,0,1,0,.18c0,.08,0,.14,0,.18a2.09,2.09,0,0,0,0,.24c0,.16,0,.34,0,.51h-.26c-.24,0-.49,0-.67-.05H35l-.31,0a1.84,1.84,0,0,0-.27,0l-.22,0h-.35c-.21,0-.42,0-.65,0l-.2,0a1,1,0,0,0-.29.08,1,1,0,0,0-.47.15,1.07,1.07,0,0,0-.16.25,1.93,1.93,0,0,0-.05.53c0,.6-.06,1.25-.08,1.94,0,.32,0,.64,0,1,0,.16,0,.32,0,.49s0,.17,0,.26a1.89,1.89,0,0,0,0,.26,1.18,1.18,0,0,0,.17.44,1.08,1.08,0,0,0,.62.24l.26,0,.24-.09s.1,0,.33,0c.47,0,.89-.06,1.29,0s.74,0,1,0l.15,0a2,2,0,0,0,0,.27s0,.13,0,.29c0,.59,0,1.16.05,1.7,0,.38,0,.76,0,1.2v.07c0,.06,0,.11,0,.18s0,.31,0,.41,0,.51,0,.77c0,.51,0,1,0,1.47,0,1,0,2.07,0,2.91,0,.07,0,.17,0,.28v.19c0,.11-.05.26-.07.48a8.35,8.35,0,0,0,0,1.13c0,.55,0,1.22,0,1.89a3.21,3.21,0,0,0,0,.39,1,1,0,0,0,0,.14.88.88,0,0,1,0,.15c0,.12,0,.19,0,.25s-.08.36-.12.72-.05.69-.09.93a2.57,2.57,0,0,1-.07.34,3.38,3.38,0,0,0-.12.71,5.8,5.8,0,0,0,0,.6c.06.48.17.88.22,1.15a8,8,0,0,0,.19.86c0,.1,0,.12,0,.08.06.25.11.51.14.71a2.22,2.22,0,0,0,0,.33c0,.12.07.18.07.2s0,0,0,.05,0,.09,0,.2a2,2,0,0,0,0,.35,1.87,1.87,0,0,0,.08.28,3.16,3.16,0,0,0,.31.53,6.78,6.78,0,0,0,.43.76,7.47,7.47,0,0,0,1,1.06s.14.15.31.28l.11.06.18.15.21.14a3.3,3.3,0,0,0,.5.27l.47.17c.08,0,.11,0,.1,0a2.66,2.66,0,0,0,.41.12c.16,0,.29,0,.37,0l.63.1a11,11,0,0,0,1.4,0,.79.79,0,0,1,.16,0l.6,0a5.05,5.05,0,0,0,.85-.15l.17,0,.56-.2.29-.06.27-.06a1.36,1.36,0,0,1,.2,0h.29a1.44,1.44,0,0,0,.37-.1h0l.15,0a.36.36,0,0,0,.09,0H47a.28.28,0,0,0,.13,0h0l.05,0s0,0,0,0a.43.43,0,0,0,.21-.17.38.38,0,0,0,0-.36.08.08,0,0,0,0,0,.75.75,0,0,0,0-.15V74s0-.09,0-.14c0-.59.06-1.22.09-1.84,0-.32,0-.61,0-.9a5.49,5.49,0,0,0,0-.56c0-.11,0-.23,0-.31s0-.12,0-.2,0-.06,0-.1a.41.41,0,0,0,0-.4.42.42,0,0,0-.58-.14l-.14.06a.49.49,0,0,0-.16,0l-.22.14a2.37,2.37,0,0,1-.36.13l-.12,0h-.26l-.27.08a1.34,1.34,0,0,1-.24,0l-.42.06h-.11l-.5,0h-.24c-.18-.05-.3-.06-.33-.07l-.15-.06-.12,0L43,69.78l-.06,0-.17-.1s0,0,0,0-.16-.15-.16-.17l-.1-.1-.07-.11-.12-.13,0-.08c-.05-.08-.1-.14-.13-.18v0s0,0,0-.12a1.5,1.5,0,0,0-.11-.22c0-.93.06-1.89.09-2.9,0-.5,0-1,.05-1.52,0-.73,0-1.49-.05-2.2v-.55c0-.23,0-.46,0-.68s0-.55,0-.78v-.16c0-.07,0-.14,0-.2,0-.22,0-.41,0-.61,0-.52,0-1.08,0-1.62,0-.18,0-.36,0-.52s0-.55,0-.87c0-.11,0-.22,0-.34,0-.32,0-.75,0-1.15s0-.56,0-.81,0-.26,0-.42,0-.73,0-1.13c0-.22,0-.43,0-.62l0-.48c.55,0,1.06-.09,1.57-.12H45.3a4.87,4.87,0,0,0,.54,0c.33,0,.63-.06.95-.07H47l.22,0a.94.94,0,0,0,.23,0,1,1,0,0,0,.4-.23A.87.87,0,0,0,48,50l0-.2a3,3,0,0,0,.08-.47l0-.23A.73.73,0,0,0,48.05,48.89Zm-6-6.41v0S42,42.49,42,42.48Zm-9,6.8v-.16a.71.71,0,0,0,0,.15Zm.14-4.3Zm3,7.49h0ZM38,41l.05,0Z" transform="translate(0 0)" fill="#fff"/><polygon points="45.99 75.21 45.99 75.21 45.99 75.21 45.99 75.21" fill="#fff"/><path d="M46,75.2h0Z" transform="translate(0 0)" fill="#fff"/><path d="M68.31,45.32h0C68.41,45.25,68.44,45.22,68.31,45.32Z" transform="translate(0 0)" fill="#fff"/><path d="M84.64,73.65c0-.05,0-.12,0-.21a1.7,1.7,0,0,0-.08-.3.63.63,0,0,1,0-.18c0-.32-.07-.55-.08-.79s0-.22,0-.34,0-.11,0-.21a2,2,0,0,0,0-.29s0,0,0-.11a.8.8,0,0,1,0-.16,1.88,1.88,0,0,0,0-.6,1.27,1.27,0,0,0-.38-.41L84,70l-.2,0a7.68,7.68,0,0,0-.84,0H82.6l-.35,0L82,70q-.4,0-.84.06H79.44c0-.24,0-.48,0-.74,0-.79,0-1.53,0-2.21,0-.47,0-1,0-1.4,0-.22,0-.44,0-.66s0-.22,0-.37,0-.2,0-.25,0-.11,0-.15,0-.1,0-.2a1.77,1.77,0,0,0,0-.23v-.16a.82.82,0,0,0,.27-.67c0-.09,0-.2,0-.31s0-.1,0-.16h0c0-.17,0-.31,0-.46,0-.35,0-.71,0-1.11s0-1,0-1.54,0-.94,0-1.44c0-.67,0-1.21-.06-1.63,0-.16,0-.33,0-.55s0-.74,0-1.13c0-.12,0-.2,0-.26V54a1.37,1.37,0,0,1,0-.19c0-.35,0-.67,0-1.06,0-.22,0-.47,0-.71,0-.47,0-.84,0-1.21v-.14c0-.24,0-.47,0-.71a0,0,0,0,1,0,0h0c0-.45,0-.9,0-1.35,0-.67,0-1.35,0-2.07,0-.08,0-.15,0-.2s0,0,0-.08a.5.5,0,0,0,.28-.44.51.51,0,0,0-.5-.53h0l-.14,0a1.35,1.35,0,0,0-.33,0l-.12-.07-.23.06h-.29c-.32,0-.69,0-1,0l-.44,0-.77,0-.78,0-.92,0h-.69l-.29,0h-.55l-.09,0h-.87a.47.47,0,0,0-.17,0l-.16,0h0s0,0-.07,0l-.34,0h-1l-.48,0h-.46l-.09,0a1.51,1.51,0,0,0-.67,0l-.13.12a1.58,1.58,0,0,0-.15.4,1.51,1.51,0,0,0,0,.39,1.78,1.78,0,0,0,.1.35c0,.09,0,.17,0,.28a.87.87,0,0,1,0,.1,1,1,0,0,0-.1.22,1.94,1.94,0,0,0,0,.22c0,.07,0,.13,0,.13s0,.11,0,.25-.07.5-.08.84a2,2,0,0,0,0,.32,2.54,2.54,0,0,0,.06.37.62.62,0,0,0,0,.1.2.2,0,0,0,0,0,3.25,3.25,0,0,0,0,.42,2.44,2.44,0,0,0,0,.29,1.64,1.64,0,0,0,.51.72A2.35,2.35,0,0,0,69,51a2.86,2.86,0,0,0,.51,0h.36l.32,0,.38,0h.14c.29,0,.64,0,1,0a8.47,8.47,0,0,0,.9-.13,5.51,5.51,0,0,1,.81,0c0,.25,0,.5,0,.75s0,.44,0,.67c0,.54,0,1,0,1.51,0,.33,0,.65,0,1,0,.16,0,.35,0,.53s0,.33,0,.43,0,.09,0,.16V56a4.6,4.6,0,0,0,0,.5c0,.32,0,.58,0,.86l0,1.13c0,.71,0,1.48,0,2.08,0,.09,0,.18,0,.29V61c0,.2,0,.45,0,.74,0,.12,0,.23,0,.35s-.06.54-.06.86c0,.52-.08,1.08-.08,1.71v1.46c0,.2,0,.41,0,.62l0,0a1.69,1.69,0,0,0-.28.19l-.19.17-.14.11-.2.12a2.54,2.54,0,0,0-.2.21l-.14.12a1.3,1.3,0,0,1-.2.17l-.19.17-.14.11-.13.09-.13.12-.1,0L71,68.6l-.18.11-.11.05-.2.11a2,2,0,0,1-.26.13s0,0,0,0l-.61.23-.2.1-.24.06-.2.05a3.21,3.21,0,0,0-.62.25l-.12.07h-.1a1.94,1.94,0,0,0-.39.13,4.1,4.1,0,0,0-.51.34l-.16.12-.27.08-.33.09a5.25,5.25,0,0,1-1.07.07c-.24,0-.44,0-.7,0l-.44,0h-.14l-.12,0-.3-.09-.13,0-.29-.09-.11-.05-.17,0-.1-.07L62.63,70l0,0-.2-.13v0a2.78,2.78,0,0,0-.28-.25s0,0,0,0a1.15,1.15,0,0,0-.16-.18.41.41,0,0,0,0-.17c-.07-.25-.13-.42-.18-.62s-.05-.38-.08-.61a1.74,1.74,0,0,0,0-.21s0-.1,0-.27,0-.21,0-.28,0-.13,0-.23,0-.2,0-.27a5.52,5.52,0,0,1-.09-.68c0-.2,0-.43,0-.64s0-.2,0-.3a.85.85,0,0,0-.05-.2,1.3,1.3,0,0,1,0-.15,1.32,1.32,0,0,1,0-.16,24.36,24.36,0,0,1,.07-2.68c0-.45.07-1,.06-1.48s0-1.22.05-1.8c0-.41,0-.78.06-1.17a5.61,5.61,0,0,0,0-.82c0-.11,0-.22,0-.28a2.73,2.73,0,0,1-.07-.37q0-.12.06-.27a.58.58,0,0,1,0-.18c0-.11,0-.24,0-.38,0-.31,0-.58,0-.8,0-.43.05-.94,0-1.47a9.84,9.84,0,0,1,0-1.63,2.54,2.54,0,0,0,0-.31v-.2c0-.11,0-.25,0-.41s-.06-.52-.07-.76v-.2a2.44,2.44,0,0,1,0-.27c0-.11,0-.23,0-.33s0-.4,0-.54c0,0,0,0,0,0s0-.19,0-.32,0-.29,0-.41,0-.24,0-.38,0-.27,0-.4,0-.43,0-.66a2.26,2.26,0,0,0,0-.26s0-.11,0-.16,0-.09,0-.13a1,1,0,0,0-.53-.4l-.12,0a.5.5,0,0,0-.13,0H60.7s0,0,0,0h-3a19.9,19.9,0,0,0-2.32,0h-.1l-.3,0h-.14l-.94,0h-.43l-.37,0-.5-.06-.27,0a1.84,1.84,0,0,0-.41,0,1.41,1.41,0,0,0-.49.14,1.67,1.67,0,0,0-.52.84,3.44,3.44,0,0,0,0,.51c0,.16,0,.33-.06.57a3,3,0,0,0,0,.52c0,.18.06.29.06.29s0,0,0,.11,0,.08,0,.19c0,.33.08.53.07.61a1.25,1.25,0,0,1,0,.33,1.83,1.83,0,0,0,0,.25l-.07.17a1.59,1.59,0,0,0,.12.68,1.54,1.54,0,0,0,.28.34l.27.12a.67.67,0,0,0,.22.15,2.45,2.45,0,0,0,1,0l.16,0,.23-.05.19,0,.42,0c.45,0,1,0,1.52-.09,0,.12,0,.23,0,.29s0,.17,0,.32,0,.32,0,.4,0,.15,0,.2,0,.43,0,.81a4.22,4.22,0,0,1,0,.69c0,.22-.06.41-.09.65s0,.22,0,.31-.08.5-.12.86a3.33,3.33,0,0,0,0,.54,4.11,4.11,0,0,0,.14.79,3.22,3.22,0,0,1,0,.69c0,.26,0,.46,0,.61s-.09.46-.12.87c0,.14,0,.28,0,.45s0,.2,0,.28a2.36,2.36,0,0,1,0,.25c0,.11,0,.23,0,.34v.46c0,.14.05.26.05.27s0,.14,0,.23,0,.2,0,.39,0,.32,0,.48a1.75,1.75,0,0,0,.07.26,1.2,1.2,0,0,0,.09.23l0,.16c0,.26,0,.51,0,.71s0,.67-.07,1.11,0,.72,0,1c0,.51.07,1,.1,1.52,0,.24,0,.48,0,.75s0,.3,0,.42A4.25,4.25,0,0,0,55.59,69a1.44,1.44,0,0,0,0,.39c0,.2.11.32.1.32a3.76,3.76,0,0,0,.06.38.87.87,0,0,0,.09.24l0,.13c0,.11.06.19.09.3a2.41,2.41,0,0,1,.07.35,4.29,4.29,0,0,0,.15.66,3.43,3.43,0,0,0,.12.33l.06.14a2.51,2.51,0,0,0,.28.51.79.79,0,0,0,.12.13l.16.19c0-.06.1.11.4.32l-.21-.14a2.05,2.05,0,0,0,.2.19l.09.11a1.13,1.13,0,0,0,.2.2l.07,0,.08.07A2.09,2.09,0,0,0,58,74c.19.15.28.19.28.2a2.55,2.55,0,0,0,.43.3l.16.07.09.08.16.14c.12.08.16.1.13.09s.13.1.33.21.14.06,0,0l.14.08a3.72,3.72,0,0,0,.38.22,4.75,4.75,0,0,0,.5.14.68.68,0,0,0,.25,0l.35,0c.07,0,.1,0,.11,0h0l.13,0,.45.09.28.06a4.24,4.24,0,0,0,.47.06c.33,0,.46,0,.41,0l.16.06a3.77,3.77,0,0,0,.45.1c.19,0,.34,0,.41,0l.9,0a6.66,6.66,0,0,0,1.11-.21c.23,0,.5-.09.82-.17a5,5,0,0,0,.53-.13l.24-.1c.21-.09.35-.17.51-.23a3.1,3.1,0,0,0,.34-.14c.29-.14.44-.27.53-.3l.25-.1a3.39,3.39,0,0,0,.53-.28l.18-.1L70.3,74a3.15,3.15,0,0,0,.33-.22l.09-.06.18-.16.3-.22a2.07,2.07,0,0,1,.24-.17c.08,0,.22-.07.38-.14l.34-.15c.17-.1.34-.2.48-.3a5.57,5.57,0,0,0,.62-.51v.31a6.86,6.86,0,0,0,.15,1,2.07,2.07,0,0,1,0,.47v.66s0,.08,0,.14a0,0,0,0,1,0,0,.16.16,0,0,0,0,.06.65.65,0,0,0-.13.39.73.73,0,0,0,.4.37h0a.4.4,0,0,0,.13,0h.13s0,0,.14,0l1.1.08.61,0,.33,0,.33,0,.12,0h.2c1-.08,1.94-.06,2.93,0h1.47l.93,0,.24,0,.27,0H83l0,0,.23.07.27.06a1.71,1.71,0,0,0,.32,0,1.12,1.12,0,0,0,.45-.14,1.4,1.4,0,0,0,.39-.67,2.45,2.45,0,0,0,0-.43,1.61,1.61,0,0,0,0-.26,2.14,2.14,0,0,0-.07-.4S84.66,73.78,84.64,73.65ZM69.07,45.33l.07,0,.07,0,.08.06Zm.56.73h0v0Zm0-.05h0v-.17a.51.51,0,0,1,0,.09A.37.37,0,0,1,69.64,46Zm-17,3.81h0ZM62.3,69.76h0S62.26,69.74,62.3,69.76Zm.27.21h0S62.55,70,62.57,70ZM74,63.84h0S74.08,63.87,74,63.84Z" transform="translate(0 0)" fill="#fff"/><path d="M125.16,72.2c0-.16,0-.37,0-.63a2,2,0,0,0,0-.28s0-.06,0-.23a1.33,1.33,0,0,0-.48-.77,1.57,1.57,0,0,0-.63-.09c-.74.07-1.61,0-2.44.1-.43,0-.89,0-1.36,0-.23,0-.43,0-.68,0h-.13a.83.83,0,0,0,0-.24c0,.06,0,0,0-.07s0-.48,0-.79,0-.34,0-.48v-.17c0-.07,0-.14,0-.22l0-.25c0-.15,0-.3.06-.5.1-.62.08-1.19.12-1.66s0-.61,0-.87v-.44c0-.07,0-.14,0-.22V64.2c0-.48,0-1.06,0-1.58s0-1.12,0-1.71c0-.16,0-.31,0-.46a1.77,1.77,0,0,1,0-.23c0-.18,0-.38,0-.6a1.77,1.77,0,0,0,0-.24c0-.24,0-.43,0-.64,0-.89,0-1.81,0-2.7,0-.45,0-.92,0-1.36s0-.62,0-.94c0-.13,0-.25,0-.37a1.93,1.93,0,0,1,0-.23c0-.16,0-.31,0-.43,0-.67,0-1.36,0-2.05,0-.42,0-.88,0-1.29,0-.2,0-.39,0-.63s0-.49,0-.68v0c0-.15,0-.26,0-.28s0-.12,0-.25a1.69,1.69,0,0,1,0-.23c0-.25,0-.49,0-.72a2.44,2.44,0,0,0,0-.27,5.66,5.66,0,0,0,0-.58c0-.31,0-.76,0-1.21,0-.16,0-.32,0-.43v-.27a1.77,1.77,0,0,1,0-.23v-1c0-.35,0-.69,0-1s0-.4,0-.63a3.53,3.53,0,0,1-.12-.55v-.25c0-.07,0-.17,0-.28a1.36,1.36,0,0,0,0-.21,2.75,2.75,0,0,1,0-.34c0-.18,0-.35,0-.58,0-.46,0-1,0-1.41a1.28,1.28,0,0,0,0-.19c0-.09,0-.17,0-.24l0-.25c0-.09,0-.17,0-.23a4.9,4.9,0,0,0,.07-.61c0-.39,0-.75,0-1.21s0-.72,0-1v0a.59.59,0,0,0,0-.08.8.8,0,0,0,.08-.26,1.28,1.28,0,0,0-.12-.52,1.37,1.37,0,0,0-.47-.36,2.5,2.5,0,0,0-.52-.06l-.38,0a6,6,0,0,0-.84,0,8.76,8.76,0,0,1-1.34.05,2.68,2.68,0,0,0-.4-.05h-5.84a11.06,11.06,0,0,1-1.12,0h-.2l-.21,0a1.28,1.28,0,0,0-.52.35,1.55,1.55,0,0,0-.14.49c0,.17,0,.24,0,.22a3.13,3.13,0,0,0,0,.41c0,.16,0,.18,0,.16s0,.09,0,.16a.77.77,0,0,1,0,.19s0,.11-.06.24,0,.2-.06.32a.85.85,0,0,1,0,.21c0,.06,0,.17,0,.3a3.62,3.62,0,0,0,0,.66c0,.12,0,.16,0,.14,0,.32.12.52.07.51a1.69,1.69,0,0,0-.14.45,2,2,0,0,0,0,.32,1.14,1.14,0,0,0,.47.5A1.34,1.34,0,0,0,109,38v0a.91.91,0,0,0,.23,0h.17a3.07,3.07,0,0,1,.33,0c.34,0,.86,0,1.28,0l.23,0,1.32,0h1v.61c0,.38,0,.72,0,1,0,.73,0,1.46,0,2.17s0,1.46,0,1.87a2.09,2.09,0,0,0,0,.34v.15c0,.08,0,.16,0,.24v.17c0,.13,0,.25,0,.38v.2c0,.17,0,.31,0,.45s-.06.53-.07.88c0,.12,0,.22,0,.34s0,.31,0,.48,0,.26,0,.39v.68h0v0h0v.06h0a.86.86,0,0,0,0,.17h0c0,.05,0,.11,0,.17v.22c0,.07,0,.14,0,.2a.57.57,0,0,0,0,.13,1.21,1.21,0,0,0,0,.19v.1h0l-.13-.09a2.43,2.43,0,0,1-.39-.45L113,49a4.9,4.9,0,0,0-.36-.48l-.12-.11a3.29,3.29,0,0,0-.32-.31c-.08-.06-.06-.05,0,0l0,0a2.89,2.89,0,0,0-.34-.32l-.22-.12a2.62,2.62,0,0,0-.27-.19,1.06,1.06,0,0,0-.24-.12s-.15-.13-.33-.26l-.19-.1-.11-.12a3,3,0,0,0-.5-.3h0a.92.92,0,0,1-.14-.11l-.13-.15a2.4,2.4,0,0,0-.39-.32l-.15-.07-.15-.12a4.3,4.3,0,0,0-.48-.26l-.23-.09s-.22-.08-.45-.14a1.55,1.55,0,0,0-.43,0l0,0c-.09,0-.27-.07-.48-.1l-.33,0-.39,0h-.18l-.16,0-.2,0a1.8,1.8,0,0,0-.32,0l-.32,0h-.41c-.34,0-.77-.08-1.18-.08a18.11,18.11,0,0,0-2.28.07l-.93.14c-.73.09-1.38.31-1.91.4,0,0-.19,0-.42.08l-.25.08-.29.14L97,45.9l-.25.13c-.14.08-.31.18-.44.27a2.6,2.6,0,0,0-.25.18l-.07.06-.2.12a.88.88,0,0,1-.14.11l-.27.21,0,0-.21.12a3.31,3.31,0,0,0-.35.25l-.14.11a.48.48,0,0,0-.15.07,2.68,2.68,0,0,0-.43.26s-.06,0-.06.06a1.73,1.73,0,0,0-.32.18l-.32.24-.15.14,0,.06-.21.23-.28.3-.15.18-.14.18-.16.21-.12.17c-.06.09-.07.11-.07.1l-.21.23c-.06.09,0,.09,0,0l-.12.14-.23.19s-.1.1-.17.2l-.06.09-.14.14c0,.06-.16.15-.27.28a2.51,2.51,0,0,0-.27.37,3.81,3.81,0,0,0-.25.49,3.24,3.24,0,0,1-.13.31c-.06.12-.11.23-.15.3s-.07.12-.12.22l0,.06-.07.11-.4.58-.13.23a3.3,3.3,0,0,0-.21.39c0,.09-.1.25-.15.4s0,.24-.06.26-.07.29-.1.47v.22s-.07.11-.12.21-.1.24-.14.36l-.1.3v0c0,.08-.07.22-.11.35s0,.24-.06.34,0,.19,0,.29a0,0,0,0,1,0,0,.06.06,0,0,1,0,0c-.09.26-.18.54-.26.86,0,.16-.09.4-.13.64a1.83,1.83,0,0,1,0,.19s-.05.17-.08.38a5.2,5.2,0,0,0,0,.58,9.29,9.29,0,0,0,.06,1.11v.31c0,.12,0,.23,0,.31s0,.14,0,.2,0,.27,0,.43A5.41,5.41,0,0,0,87.9,64c0,.06,0,.08,0,.1a2.27,2.27,0,0,0,.06.36c.05.15.06.16,0,.08a2.72,2.72,0,0,0,.16.62l.07.14c0,.08.11.23.2.39s0,0,0,0,0,0,0,.13.07.23.14.41l0,.06a1.55,1.55,0,0,1,0,.15,2,2,0,0,0,0,.32,4.68,4.68,0,0,0,.21.55,2.37,2.37,0,0,0,.3.43h0l.14.24.21.23c0,.07,0,.14.08.24a3.36,3.36,0,0,0,.33.47A.25.25,0,0,0,90,69a3,3,0,0,0,.31.74c.1.11.22.24.28.29l0,0a2.94,2.94,0,0,0,.28.42,2,2,0,0,0,.26.2,1.09,1.09,0,0,0,.08.15,2.59,2.59,0,0,0,.34.39l.18.12,0,0,0,0,.08.11a1.93,1.93,0,0,0,.18.22l.16.19.12.14.12.15,0,0,.15.29c.07.09.17.24.28.36l.28.28a3.45,3.45,0,0,0,.53.39l.14,0,.32.19a2,2,0,0,0,.3.15l.16.06.09,0a1.19,1.19,0,0,1,.22.15,3.27,3.27,0,0,0,1.11.55h.07l.19.11a1.91,1.91,0,0,1,.24.1l.12,0s0,0,0,0a2.4,2.4,0,0,0,.5.32,2.3,2.3,0,0,0,.39.3l.24.09a2.61,2.61,0,0,0,.59.23.4.4,0,0,0,.17.07s0,0-.11-.08,0,0,.21.08L99,76l.15,0,.15,0,.35.06a1.58,1.58,0,0,0,.28,0,1.55,1.55,0,0,1,.28,0s.18.06.43.1.27,0,.27,0l.15,0,.17,0a3.1,3.1,0,0,0,.41.07h1.15l.51,0h.93a3.54,3.54,0,0,0,.57,0c.28,0,.48-.11.6-.14a2,2,0,0,0,.65,0l.36-.15.17-.08a.46.46,0,0,1,.14,0l.25-.08.28-.12.31-.14.06,0,.42-.18.12-.07.25-.13.15-.09a2.11,2.11,0,0,0,.27-.18c.16-.11.27-.21.37-.28l.24-.16.14-.09.21-.13.15-.09.06,0,0,0,.17-.05.2-.07.2-.08a5.06,5.06,0,0,0,.73-.4,3.85,3.85,0,0,0,.41-.4l.14-.17a3.79,3.79,0,0,0,.38-.32c.36-.37.68-.78.94-1.09l.18-.12v.07c0,.13,0,.25,0,.33,0,.38,0,.77,0,1.31,0,.22,0,.44,0,.69s0,.49,0,.7v.11c0,.1,0,.19,0,.26V75a1,1,0,0,0,1.15,1l.21,0h.58l.65,0c.19,0,.34-.08.4-.09a1.77,1.77,0,0,1,.52,0l.26,0h.3l.19.07s0,0,0,0h.08s0,0,.16,0c1,0,2,.07,3,.1.53,0,1.08,0,1.59,0,.23,0,.48,0,.76,0h.54l.09,0a1.17,1.17,0,0,0,.5-.12l.09-.07a1.39,1.39,0,0,0,.31-.63c0-.13,0-.27,0-.37a1.65,1.65,0,0,1,0-.3s0,.07.06,0,0-.19.06-.32,0-.37,0-.44a.81.81,0,0,1,0-.09s0,.09,0,.12A4,4,0,0,0,125.16,72.2ZM108.94,37.93ZM88.76,55.54v0a.17.17,0,0,1,0-.07h0Zm21.92-8.42s0,0,0,0l0,0ZM95.28,64.17s0,0,0-.06l0,0S95.29,64.19,95.28,64.17Zm1.39,10.72s0,0,.06,0Zm16.64-15c0,.29,0,.47-.07.71s0,.23,0,.34v.34c0,.06,0,.14,0,.26s0,.21-.06.3-.06.34-.1.53l-.26,1.33a2,2,0,0,1-.17.51,2.53,2.53,0,0,1-.15.31,3.26,3.26,0,0,1-.19.38,2.48,2.48,0,0,0-.13.22c0,.07-.07.14-.1.2s-.06.13-.08.19-.08.15-.12.25a.85.85,0,0,1-.06.13c0,.07-.06.11-.08.15a.49.49,0,0,1-.07.11l-.08.11s-.1.14-.16.25l-.11.19c0,.05,0,0,0,0s0,.09,0,.1a3.12,3.12,0,0,0-.28.32,3,3,0,0,0-.27.38l-.09.18c-.08.13-.18.27-.29.42l-.14.19a2.28,2.28,0,0,1-.21.22,1.41,1.41,0,0,1-.18.14l-.22.12-.28.14-.19.13-.17.1a3.84,3.84,0,0,1-.4.21l-.32.14-.26.14c-.07,0-.08,0-.07,0l-.28.09-.28.15,0,0s-.17,0-.41.11a2.72,2.72,0,0,0-.28.13l-.15.06-.23.06h0a2.89,2.89,0,0,0-.56.15l-.18.1-.11.07-.07,0-.35.11-.9,0c-.14,0-.31,0-.51,0s-.11,0-.11,0,0,0-.1,0a2.58,2.58,0,0,0-.51-.07l-.24,0-.15,0-.6-.11-.26-.09c-.29-.09-.4-.09-.53-.2a2.08,2.08,0,0,0-.31-.2,2.36,2.36,0,0,0-.47-.16l-.33,0s0,0-.12,0l-.07,0-.09-.06a2.78,2.78,0,0,0-.3-.18l-.19-.1c-.29-.14-.45-.17-.44-.19s0,0-.07-.08a2,2,0,0,0-.23-.21s-.19-.13-.34-.21l0-.07a4,4,0,0,0-.3-.4,1.37,1.37,0,0,0-.25-.24c-.07-.06-.08-.07,0,0l-.11-.12,0,0a1.23,1.23,0,0,0-.08-.12,2.78,2.78,0,0,0-.22-.29c-.09-.09-.16-.15-.19-.19s-.09-.09-.17-.17-.08-.06-.09-.08l-.14-.19a1.77,1.77,0,0,0-.12-.17l-.07-.1a.83.83,0,0,1,0-.15,1.29,1.29,0,0,0-.06-.27.63.63,0,0,1,0-.14c0-.11-.06-.15,0-.17s0-.23-.13-.49a3.11,3.11,0,0,0-.13-.42,3,3,0,0,0-.44-.79c0-.15,0-.32-.08-.53s0-.16,0-.24c0-.25-.09-.44-.12-.64a15,15,0,0,1-.1-1.55c0-.25,0-.56,0-.86a8.45,8.45,0,0,1,0-1.35s0-.13.06-.23,0-.21,0-.3,0-.36,0-.44a1,1,0,0,1,0-.19,3.65,3.65,0,0,1,.13-.5c0-.07,0-.12.06-.16a1.21,1.21,0,0,1,.09-.2l.16-.32a6.17,6.17,0,0,0,.29-.67.93.93,0,0,1,.05-.14c0-.06.08-.17.14-.3a2,2,0,0,1,.12-.25l.1-.16a2.53,2.53,0,0,0,.15-.22c0-.06.06-.11.08-.13a.9.9,0,0,1,.07-.11l.11-.18a1.83,1.83,0,0,0,.16-.22,3.18,3.18,0,0,0,.17-.27c0-.06,0-.08,0-.07l.16-.22c0-.06.13-.17.21-.3s.09-.15.12-.19l.09-.14a3.65,3.65,0,0,1,.26-.32l.22-.28.07,0,.43-.27.1,0a2,2,0,0,0,.25-.17s0,0,.22-.17h0l.16-.08.15-.09.15-.06c.14-.07.23-.13.33-.17a3.33,3.33,0,0,1,.52-.21c.14-.06.28-.1.45-.18l.27-.12.21-.13.17-.07a4.56,4.56,0,0,1,1.79-.27c.4,0,.75,0,1.1,0a4.28,4.28,0,0,1,.52,0h.11l.36,0,.35,0a1.66,1.66,0,0,1,.26,0l.16,0a2.19,2.19,0,0,1,.31,0l.09,0,.21.06.31.08.19.05.17.07.16.08.2.09c.07,0,.24.16.5.29s.26.11.32.14l.11,0c-.09-.05-.07,0,.09.09a5.05,5.05,0,0,0,.53.25l.11.06.13.11a2.8,2.8,0,0,0,.25.14l.15.07.1.09s.05.07.14.17.23.25.22.25,0,0,0,.07a.76.76,0,0,1,.08.11,1.88,1.88,0,0,1,.12.18,1,1,0,0,0,.17.18,0,0,0,0,1,0,0,.13.13,0,0,1,0,.05.42.42,0,0,1,0,.06,1.78,1.78,0,0,1,.09.24,2.24,2.24,0,0,0,.34.51,1.84,1.84,0,0,0,.22.19s0,0,.06.09l.17.25.2.19,0,0c0,.05.06.08.08.12v0l0,.14.06.19.15.36,0,.08a.36.36,0,0,1,0,.1s0,.17.07.31.13.41.18.56a1.17,1.17,0,0,1,0,.22,2,2,0,0,1,0,.27c0,.14,0,.26,0,.38a4.57,4.57,0,0,0,.37,1.1l.1.13v.27C113.32,59.46,113.33,59.68,113.31,59.9ZM118,75.77s0,0,0,0Zm6.22-1h0Z" transform="translate(0 0)" fill="#fff"/><path d="M131.21,35.88a1.74,1.74,0,0,0,0,.18,1.92,1.92,0,0,0,.08.37.76.76,0,0,0,0,.14c.05.12.09.22.13.3a.09.09,0,0,0,0,.05,2.55,2.55,0,0,0,.38.92,1.72,1.72,0,0,0,.17.22,7,7,0,0,0,.55.56,3.38,3.38,0,0,0,.36.27l.25.14a2.67,2.67,0,0,0,1.35.38,3.09,3.09,0,0,0,.43,0h.24a2.16,2.16,0,0,0,.49-.1l.22-.06a2.13,2.13,0,0,0,.37-.18l.2-.13.11-.06a2.52,2.52,0,0,0,.55-.4,2.32,2.32,0,0,0,.36-.44l.11-.18c0-.05.1-.14.18-.29s.09-.19.1-.21,0-.12.08-.19L138,37l.09-.26c0-.11.06-.25.08-.35s0-.15,0-.2a2.26,2.26,0,0,0,0-.66h0a1.6,1.6,0,0,0,.06-.24,1.71,1.71,0,0,0-.05-.47,2.05,2.05,0,0,0-.24-.48.14.14,0,0,0,0-.07c0-.1-.08-.22-.11-.31a2.92,2.92,0,0,0-.22-.34,1.77,1.77,0,0,0-.1-.19l-.19-.29s-.07-.09-.16-.18l-.21-.17a.79.79,0,0,0-.69-.46l-.12-.05-.34-.07-.55-.16a1.6,1.6,0,0,0-.32,0h-.43a3.77,3.77,0,0,0-.45,0l-.12,0h-.06a3.25,3.25,0,0,0-.42,0,3.49,3.49,0,0,0-.62.2l-.21.07a1.5,1.5,0,0,0-.32.18l-.18.12a2.17,2.17,0,0,0-.4.53,3.89,3.89,0,0,0-.26.56c-.06.18-.09.34-.11.42a1.57,1.57,0,0,0-.12.23,1.33,1.33,0,0,0-.09.28,3.58,3.58,0,0,0,0,.6,1,1,0,0,0,0,.17A2.5,2.5,0,0,0,131.21,35.88Zm.35,1.22,0-.06C131.6,37.15,131.63,37.18,131.56,37.1Z" transform="translate(0 0)" fill="#fff"/><polygon points="141.28 71 141.28 71 141.29 71.01 141.28 71 141.28 71" fill="#fff"/><path d="M142.42,72.28a8.22,8.22,0,0,0-.09-1,2.39,2.39,0,0,0-.12-.4,1,1,0,0,0-.4-.36,1.3,1.3,0,0,0-.51,0,2.33,2.33,0,0,0-.36,0h0a2.51,2.51,0,0,0-.35,0l-.38.07a4.12,4.12,0,0,1-.62,0h-.48c-.25,0-.51,0-.87-.06h-.35a.53.53,0,0,0-.2,0,4.51,4.51,0,0,0,0-.52c0-.15,0-.34,0-.57s0-.67,0-1c0-.18,0-.36,0-.54s0-.17,0-.25v-.33c0-.1,0-.18,0-.24,0-.91,0-1.83,0-2.78s0-1.88,0-2.86c0-.17,0-.32,0-.45,0-.67,0-1.31,0-2.07,0-.34,0-.68,0-1,0,0,0,0,0,0s0-.2.07-.35,0-.18,0-.18a2,2,0,0,0,.09-.34,4.26,4.26,0,0,0,.08-.72,6.15,6.15,0,0,0,0-1c0-.11,0-.19,0-.23a.59.59,0,0,1,0-.11c0-.1-.06-.34-.13-.6s0-.15,0-.13a1.87,1.87,0,0,0,0-.21c0-.13,0-.24,0-.35s0-.43,0-.72,0-.26,0-.36v-.34a1.77,1.77,0,0,0,0-.22c0-.15,0-.25,0-.33a5.89,5.89,0,0,1,.08-.71c0-.33,0-.66.07-1,0-.14,0-.24,0-.29s0-.07,0-.12,0-.38,0-.6,0-.47,0-.59,0-.22,0-.38a2.3,2.3,0,0,0,0-.28c0-.38-.06-.63,0-.83s0-.23,0-.16a1.7,1.7,0,0,0,0-.26,1.17,1.17,0,0,0,0-.29,1.11,1.11,0,0,0-.48-.42,1.44,1.44,0,0,0-.51.07l-.19,0h0s0,0-.05,0a1.12,1.12,0,0,0-.49-.14h-.31l-.21,0-.15,0c-.16,0-.35,0-.6,0s-.69.07-1,.08l-1.95,0c-.62,0-1.16,0-1.8,0-.26,0-.54,0-.82,0s-.5,0-.83-.08a2.9,2.9,0,0,0-.51,0,1.14,1.14,0,0,0-.27.08l-.1-.06a1.27,1.27,0,0,0-.36.24.47.47,0,0,0-.22.39.45.45,0,0,0,0,.2c0,.25,0,.47,0,.66,0,.46,0,.89,0,1.35s0,.71,0,1.08c0,.19,0,.37,0,.54v.24a2,2,0,0,0,0,.4.84.84,0,0,0,.21.39,1.07,1.07,0,0,0,.44.16,1.77,1.77,0,0,0,.38-.1,1,1,0,0,0,.24,0c.34,0,.63,0,.88,0a5.3,5.3,0,0,1,.71,0s0,0,.08,0a4.8,4.8,0,0,0,1.23.11h.59a1.23,1.23,0,0,0,0,.19l0,0-.06.1a2,2,0,0,0-.11.29c0,.07,0,.16,0,.26-.07.43-.06.86-.09,1.22,0,.52,0,1.06,0,1.61s0,1.16,0,1.62.13,1.22.16,1.74c0,.07,0,.14,0,.22,0,.33,0,.68,0,1s.07.85.08,1.22c0,.74,0,1.56,0,2.37,0,.38,0,.74-.05,1.12,0,.18,0,.39-.05.62s0,.6,0,.85v.23c0,.07,0,.14,0,.23a2.36,2.36,0,0,1,0,.29c0,.16,0,.3,0,.46s0,.26,0,.43a2.45,2.45,0,0,0,0,.25.92.92,0,0,0,0,.19c0,.11,0,.25,0,.37s0,.27,0,.38,0,.47,0,.7v.47a1.41,1.41,0,0,0,0,.21,2.26,2.26,0,0,0,0,.25.66.66,0,0,0,0,.15,9.77,9.77,0,0,1-1.21,0,10.83,10.83,0,0,1-2.22-.17,1.6,1.6,0,0,0-.68,0,1,1,0,0,0-.36.26,1.22,1.22,0,0,0-.2.48,3.48,3.48,0,0,0,0,.44,1.54,1.54,0,0,0,0,.23v0a1.82,1.82,0,0,0-.09.24c0,.13,0,.23-.06.3a2.94,2.94,0,0,0,0,.42c0,.15,0,.24,0,.3a1.7,1.7,0,0,1,0,.23c0,.19,0,.44,0,.79a3,3,0,0,1,0,.37c0,.2,0,.43,0,.72,0,.1,0,.19,0,.21s0,.08,0,.15a1.77,1.77,0,0,0,0,.2,1,1,0,0,0,.34.38,1.43,1.43,0,0,0,.51.08h.87l1.17,0c.77,0,1.54,0,2.26,0l.57,0h.35l.21,0h1c.49,0,1,0,1.47,0h3.4l.43,0,.72,0h.24l.45,0a5.89,5.89,0,0,1,.72,0c.15,0,.22,0,.18,0a1,1,0,0,0,.29,0l.17-.06a1,1,0,0,0,.3-.4.92.92,0,0,0,0-.35,2.62,2.62,0,0,0,0-.28c0-.19,0-.34,0-.47s.09-.65.09-1S142.4,72.66,142.42,72.28ZM128.88,47.85V47.8l0,0h0Zm-1,27.42h0s0,.07,0,.08S127.88,75.33,127.88,75.27Zm4-23h0v0l0,0ZM135,74.77l.08,0h.09l.07,0ZM141.32,71h0Zm.07,0h0Z" transform="translate(0 0)" fill="#fff"/><path d="M279,75.54l.22.06h0Z" transform="translate(0 0)" fill="#fff"/><path d="M286.61,71.83c0-.16,0-.38,0-.64a2,2,0,0,0,0-.27s0-.06,0-.23a1.28,1.28,0,0,0-.48-.76,1.4,1.4,0,0,0-.63-.09c-.74.08-1.61.06-2.44.12-.43,0-.89,0-1.36,0-.23,0-.43,0-.69,0h-.12l0-.24c0,.06,0,0,0-.07s0-.48,0-.79,0-.33,0-.48a.81.81,0,0,1,0-.16,1.77,1.77,0,0,1,0-.23,2.42,2.42,0,0,1,0-.25c0-.15,0-.3.06-.5.09-.62.06-1.19.1-1.66,0-.32,0-.61,0-.87v-.88c0-.48-.05-1.06-.06-1.58s0-1.12,0-1.71V59.9c0-.18,0-.38,0-.6a1.77,1.77,0,0,0,0-.24c0-.24,0-.43,0-.64,0-.89,0-1.81,0-2.7,0-.45,0-.92,0-1.36s0-.62,0-.94c0-.13,0-.25,0-.37v-.22c0-.17,0-.32,0-.44,0-.67,0-1.36,0-2,0-.42,0-.88,0-1.29,0-.2,0-.39,0-.64s0-.48,0-.67v0a2.3,2.3,0,0,0,0-.28c0-.06,0-.12,0-.26a1.62,1.62,0,0,0,0-.22c0-.25,0-.49,0-.73,0-.08,0-.17,0-.26s0-.38,0-.58,0-.76,0-1.22c0-.15,0-.31,0-.43V43c0-.06,0-.13,0-.2V41.3a3.47,3.47,0,0,0,0-.63,5.35,5.35,0,0,1-.12-.55v-.25c0-.08,0-.17,0-.28a1.65,1.65,0,0,1,0-.21,2.8,2.8,0,0,1-.05-.34,5.36,5.36,0,0,1,0-.58c0-.46,0-1,0-1.41a1.21,1.21,0,0,0,0-.19,1.77,1.77,0,0,1,0-.24l0-.25a1.4,1.4,0,0,1,0-.23c0-.17.06-.38.07-.61,0-.39,0-.75,0-1.21s0-.72,0-1h0l0-.09a.88.88,0,0,0,.08-.26,1.47,1.47,0,0,0-.12-.52,1.53,1.53,0,0,0-.48-.36A3,3,0,0,0,280,32l-.38,0a8.16,8.16,0,0,0-.84,0,7.69,7.69,0,0,1-1.34.06l-.41,0-.35,0c-.35,0-.8,0-1.17,0h-2.69l-1.61,0c-.46,0-.81.05-1.13,0h-.18l-.19,0a1.19,1.19,0,0,0-.55.36,1.63,1.63,0,0,0-.15.5c0,.16,0,.24,0,.22a3,3,0,0,0,0,.4c0,.16,0,.18,0,.16s0,.1,0,.17a.82.82,0,0,1,0,.19c0,.05,0,.11-.05.24a3.14,3.14,0,0,0-.06.32,1,1,0,0,1,0,.21c0,.06,0,.17,0,.3a3.6,3.6,0,0,0,0,.65c0,.13,0,.16,0,.14,0,.32.12.52.07.52a1.39,1.39,0,0,0-.13.44,1.31,1.31,0,0,0,0,.33,1.23,1.23,0,0,0,.48.49,1.27,1.27,0,0,0,.75-.06l0,0h.22l.17,0a3,3,0,0,1,.33,0c.35,0,.86,0,1.29,0h.23l1.32,0c.22,0,.43,0,.61,0h.43c0,.21,0,.42,0,.62,0,.38,0,.71,0,1,0,.73,0,1.46,0,2.17s.06,1.45,0,1.86a2.09,2.09,0,0,0,0,.34v.15a2.09,2.09,0,0,1,0,.24,1.09,1.09,0,0,1,0,.18v.57c0,.17,0,.31,0,.45s-.06.53-.06.89c0,.12,0,.21,0,.33v.48c0,.13,0,.26,0,.39v.68h0v0h0a.16.16,0,0,0,0,.07h0a1.13,1.13,0,0,0,0,.18s0,.09,0,.15v0c0,.07,0,.14,0,.21a1.21,1.21,0,0,0,0,.19v.13c0,.07,0,.13,0,.19v.1h0l-.13-.08a3,3,0,0,1-.4-.46s0,0-.08-.12a4.17,4.17,0,0,0-.37-.49l-.12-.11c-.05,0-.16-.17-.31-.3l0,0,0-.06s-.13-.13-.36-.31l-.22-.12-.26-.19-.25-.12-.32-.24-.2-.11-.13-.13a2.76,2.76,0,0,0-.49-.28h0l0,0L271,46.2l-.13-.15a3.41,3.41,0,0,0-.44-.34l-.12-.05a.74.74,0,0,0-.16-.12,2.55,2.55,0,0,0-.47-.25l-.22-.09s-.22-.08-.45-.13a3.26,3.26,0,0,0-.43,0h0c-.13,0-.3-.07-.51-.1l-.32,0-.39,0h-.2l-.15,0-.2,0a3.28,3.28,0,0,0-.34,0l-.31,0h-.41c-.34,0-.77-.07-1.18-.07a18.21,18.21,0,0,0-2.27.09l-.93.15c-.74.09-1.38.32-1.91.42a4,4,0,0,0-.41.08l-.26.09a2,2,0,0,0-.29.14l-.27.16a1.86,1.86,0,0,1-.25.14l-.44.28a1.63,1.63,0,0,0-.25.17s-.05.06-.06.06a1.4,1.4,0,0,1-.22.14s-.07.05-.13.1l-.27.22,0,0-.2.12a4.06,4.06,0,0,0-.36.26l-.14.11-.15.07a3.59,3.59,0,0,0-.43.27s-.06,0-.06.06a2.1,2.1,0,0,0-.31.18l-.32.25-.13.12-.07.07c0,.06-.12.13-.2.23s-.2.22-.28.31l-.15.18-.14.18-.16.22-.12.17-.06.09s-.1.1-.21.24-.05.08,0,.05l-.13.14-.21.19-.17.18c-.05.08-.07.11-.06.11l-.13.14a2.48,2.48,0,0,0-.27.28,3.27,3.27,0,0,0-.28.37,3.12,3.12,0,0,0-.24.51c-.05.12-.08.2-.13.3a3,3,0,0,1-.14.3c0,.06-.07.12-.12.23s0,.08,0,0l-.08.13-.4.58-.13.23a2.79,2.79,0,0,0-.2.39,4.28,4.28,0,0,0-.15.41c0,.15-.05.24-.05.25a3.3,3.3,0,0,0-.1.48,1.46,1.46,0,0,0,0,.21,1.9,1.9,0,0,0-.11.21,3.18,3.18,0,0,0-.14.37l-.1.3s0,0,0,0l-.11.36a2.15,2.15,0,0,0,0,.34,1.5,1.5,0,0,0,0,.29v.07a7.07,7.07,0,0,0-.25.87c0,.16-.09.39-.13.64s0,.21,0,.18a2.9,2.9,0,0,0-.08.38,5.39,5.39,0,0,0,0,.59c0,.4,0,.78.07,1.1,0,.06,0,.15,0,.32s0,.22,0,.3,0,.15,0,.2,0,.27,0,.43a5.43,5.43,0,0,0,.12,1.38.29.29,0,0,0,0,.1,2,2,0,0,0,.06.35l.05.14,0,0a3.51,3.51,0,0,0,.16.6c.09.17.12.2.08.14s.11.23.2.4l0,0a.5.5,0,0,0,0,.14,3.33,3.33,0,0,0,.14.4l0,.06a.53.53,0,0,1,0,.16,2.56,2.56,0,0,0,.06.31,3.38,3.38,0,0,0,.21.55,2.77,2.77,0,0,0,.31.43,1.79,1.79,0,0,0,.15.24,2.51,2.51,0,0,0,.21.23,1.86,1.86,0,0,0,.09.24,2,2,0,0,0,.32.46l0,.09a2.6,2.6,0,0,0,.32.73,2.66,2.66,0,0,0,.28.29l0,0a3.27,3.27,0,0,0,.29.42,2,2,0,0,0,.26.2,1.19,1.19,0,0,0,.09.15,2.12,2.12,0,0,0,.35.4c.18.12.22.13.15.1h0l.08.12c.08.11.14.16.18.21l.17.2.12.13a1.34,1.34,0,0,0,.11.14s0,0,0,0,.07.15.16.3.17.23.28.35a3.29,3.29,0,0,0,.28.27,2.28,2.28,0,0,0,.54.39l.13,0,.33.19.28.14.18.06.1,0,.22.14a3.28,3.28,0,0,0,1.1.55h.08l.17.1.27.1.13.06h0a2.34,2.34,0,0,0,.5.31,2.78,2.78,0,0,0,.4.29l.24.1a2.54,2.54,0,0,0,.59.22.73.73,0,0,0,.17.07s0,0-.11-.08,0,0,.21.08l.26.06c.12,0,.17,0,.12,0l.22,0,.31.05a1.67,1.67,0,0,0,.27,0l.27,0a2.15,2.15,0,0,0,.44.1,1.65,1.65,0,0,1,.26,0l.15,0,.19,0a3.21,3.21,0,0,0,.4.06h1.14l.51,0h1a5.13,5.13,0,0,0,.53,0,4.1,4.1,0,0,0,.61-.15,2,2,0,0,0,.65,0c.19-.07.32-.14.35-.15l.19-.09.11,0,.28-.1.25-.1.32-.16.08,0c.07,0,.23-.09.4-.18l.12-.07.23-.12.18-.11.26-.18c.16-.11.27-.21.36-.28l.25-.17.14-.08.19-.13.18-.1,0,0,.05,0,.16,0,.2-.07a1,1,0,0,1,.2-.08c.18-.1.46-.23.72-.4a4,4,0,0,0,.41-.41l.15-.18a3.59,3.59,0,0,0,.36-.32c.36-.37.68-.79.94-1.1l.18-.12v.06c0,.14,0,.26,0,.34,0,.38,0,.76,0,1.31,0,.22,0,.44,0,.69a5.27,5.27,0,0,0,0,.7v.11a1.59,1.59,0,0,0,0,.26v.08a1.58,1.58,0,0,0,.33.76,1.56,1.56,0,0,0,.85.24l.18,0a5.55,5.55,0,0,1,.59,0c.19,0,.43,0,.65,0a3,3,0,0,0,.41-.1,2.63,2.63,0,0,1,.51,0l.26,0H279l.15,0,.08.08h.27c1,.05,2,.06,3,.08.54,0,1.07,0,1.59-.05.23,0,.48,0,.76,0h.53l.1,0a1.16,1.16,0,0,0,.5-.12l.11-.09a1.22,1.22,0,0,0,.28-.62,2.38,2.38,0,0,0,0-.37,1.67,1.67,0,0,1,0-.3s0,.07.06,0,0-.17,0-.31a2.59,2.59,0,0,0,0-.44.81.81,0,0,1,0-.09s0,.08,0,.11A4.48,4.48,0,0,0,286.61,71.83ZM270.06,37.72h0ZM249.85,58.08h0S250,58.14,249.85,58.08Zm.19-2.54v0h0Zm0,0v0l0-.12A.88.88,0,0,0,250.05,55.5Zm1,2.67h0l.08,0Zm20.81-11.28,0,0s0,0,0,0ZM256.66,64.08s0,0,0,0l0,0S256.67,64.1,256.66,64.08Zm18-4.44c0,.3,0,.47-.06.71s0,.23,0,.34V61c0,.08,0,.08,0,.07a2.33,2.33,0,0,1-.05.27c0,.1,0,.2,0,.29a5.34,5.34,0,0,1-.09.53c-.09.46-.18,1-.25,1.33A2.43,2.43,0,0,1,274,64a2.57,2.57,0,0,1-.14.32c-.09.17-.14.3-.19.37a2.48,2.48,0,0,0-.13.22l-.1.21c0,.06,0,.13-.08.19l-.11.24a.62.62,0,0,0-.06.14,1.15,1.15,0,0,0-.08.15l-.06.1-.09.12s-.1.14-.16.25l-.11.21,0,0-.06.1s-.14.15-.27.32a3.19,3.19,0,0,0-.26.38l-.09.17c-.08.14-.18.28-.28.44l-.15.19-.19.22-.19.13a1.3,1.3,0,0,1-.21.12l-.29.16-.18.12-.17.1a4.1,4.1,0,0,1-.41.22l-.3.14a2.26,2.26,0,0,0-.26.14c-.08,0-.08,0-.08,0l-.28.1-.27.14-.05,0a2.86,2.86,0,0,0-.41.11l-.29.13-.15.07-.22.06a3.09,3.09,0,0,0-.58.17l-.18.1-.11.07,0,0-.38.12-.89.05-.51,0c-.1,0-.12,0-.11,0l-.11,0a2.25,2.25,0,0,0-.5-.06l-.25,0-.15,0-.6-.1-.25-.08c-.29-.09-.41-.09-.53-.2a3.47,3.47,0,0,0-.32-.2,3.23,3.23,0,0,0-.47-.15l-.33,0-.11,0-.08,0-.09-.06c-.05,0-.15-.1-.3-.17l-.2-.1c-.29-.13-.45-.17-.43-.19s0,0-.07-.07a2.21,2.21,0,0,0-.23-.2,2.07,2.07,0,0,0-.36-.23l0-.06a3.15,3.15,0,0,0-.29-.4,2,2,0,0,0-.24-.22l-.06,0-.11-.14h0l-.08-.12a3.56,3.56,0,0,0-.23-.29l-.19-.19-.18-.17-.09-.08-.14-.2s-.07-.1-.13-.17l-.06-.08a1.13,1.13,0,0,1,0-.15,1.3,1.3,0,0,0-.06-.28l-.05-.14a.5.5,0,0,1-.05-.17c0-.08-.05-.22-.13-.48a4.11,4.11,0,0,0-.14-.42,2.92,2.92,0,0,0-.44-.79c0-.15-.05-.32-.09-.53s0-.16,0-.23c-.06-.25-.1-.44-.13-.65a14.84,14.84,0,0,1-.11-1.55c0-.25,0-.55,0-.85a7.6,7.6,0,0,1,0-1.35s0-.13.06-.23,0-.21,0-.31,0-.35,0-.43a2,2,0,0,0,0-.2,3.65,3.65,0,0,1,.13-.5c0-.06,0-.12.06-.15a1,1,0,0,1,.09-.21c0-.06.09-.18.15-.32a6.29,6.29,0,0,0,.29-.68.72.72,0,0,1,.05-.14s.08-.16.13-.29a1.47,1.47,0,0,1,.12-.25,1.28,1.28,0,0,1,.1-.17s.08-.11.15-.22a1.05,1.05,0,0,1,.08-.13.64.64,0,0,1,.06-.1,1.67,1.67,0,0,1,.12-.19s.09-.12.15-.22.11-.17.16-.27,0-.08,0-.08l.15-.21c0-.07.13-.17.21-.3a1.52,1.52,0,0,0,.11-.2l.1-.14.25-.32.22-.28.07-.05c.12-.09.27-.17.42-.27l.11-.06c.11-.06.2-.14.24-.16l.21-.16s0,0,0,0l.16-.09.15-.08.16-.07.31-.18.53-.21.44-.17.28-.14c.13-.07.18-.12.19-.12l.18-.08a4.49,4.49,0,0,1,1.78-.28c.41,0,.76,0,1.1,0,.19,0,.37,0,.53,0h.13l.35,0,.33,0a2.06,2.06,0,0,1,.28,0l.14,0,.32,0,.08,0,.22.07.31.08.19,0,.17.07.15.08.21.09c.07,0,.25.16.5.28a2.24,2.24,0,0,0,.34.14l.1,0c-.09-.05-.07,0,.09.09s.45.21.53.25l.1,0,.15.11.24.14.15.07.11.09s.05.07.14.18.23.23.22.23,0,0,0,.08l.09.11.12.18a1.15,1.15,0,0,0,.17.17.05.05,0,0,0,0,0l0,0a.42.42,0,0,1,0,.06,1.74,1.74,0,0,0,.08.24,2.62,2.62,0,0,0,.35.51,1,1,0,0,0,.24.19s0,0,0,.08l.17.25c.11.11.2.18.21.19l.05,0c0,.05.06.08.08.12s0,0,0,0a1.19,1.19,0,0,0,0,.14s0,.11.07.19l.15.36,0,.08a.37.37,0,0,1,0,.09c0,.06,0,.17.07.31s.14.41.19.56,0,.13,0,.22,0,.17,0,.28,0,.26.05.37a4.66,4.66,0,0,0,.38,1.1l.1.13a2.18,2.18,0,0,1,0,.27A6.05,6.05,0,0,1,274.65,59.64Zm4.86,15.82s0,0,0,0S279.49,75.47,279.51,75.46Zm6.13-1.07h0Z" transform="translate(0 0)" fill="#fff"/><path d="M177.86,45.68a1.3,1.3,0,0,0,.32-.06,1.84,1.84,0,0,0,.53-.38,2.77,2.77,0,0,0,.14-.55v0h0c0-.18,0-.28,0-.26v-.24c0-.13,0-.27,0-.39s0-.47,0-.66c0-.45,0-.87,0-1.31,0-1-.08-1.85-.1-2.68,0-.31,0-.61,0-1s0-.61,0-.9a.47.47,0,0,1,0-.16V35.58c0-.34,0-.62,0-.9,0-.45.07-.85.08-1.3,0-.09,0-.25,0-.42a1,1,0,0,0-.17-.35.34.34,0,0,0-.12-.06l-.07-.15a2.17,2.17,0,0,0-.53-.24,2,2,0,0,0-.54.25c-.48,0-.91.07-1.35.08h-1.81l-.29,0c-.42,0-.71,0-1.24,0s-1.38,0-2.14,0h-2.28l-1,0-.09,0a8,8,0,0,0-1-.12c-.35,0-.74,0-1.08,0l-.92,0-1.36,0h-3.34l-1.51,0c-1,0-2,0-3-.06l-.62,0-1.32-.08c-.74,0-1.46.08-2.09.12h0s-.06,0-.1,0v0h-.48l-.55,0h-.24l-.49,0h-1.56l-.13,0-.44-.06-.42,0a4.41,4.41,0,0,0-.55-.06h-.26a1.83,1.83,0,0,0-.28,0,.55.55,0,0,0-.28,0,.67.67,0,0,0-.41.73s0,.06,0,.07a.31.31,0,0,0,0,.08h0a.14.14,0,0,0,0,.06s0,0,0,0a.41.41,0,0,0,.05.09l0,.14v.13c0,.11,0,.23,0,.34v.2a.35.35,0,0,1,0,.13,3.85,3.85,0,0,0,0,.57,2.23,2.23,0,0,0,0,.27c0,.14,0,.23.06.31a3.37,3.37,0,0,1,0,.54c0,.13,0,.27,0,.46s0,.18,0,.33a1,1,0,0,0-.14.25,1.49,1.49,0,0,0,.06.65,1.31,1.31,0,0,0,.61.38h.3l.31-.06a5.83,5.83,0,0,1,.64-.1c.49,0,1,0,1.48,0h2.24v.23c0,.4,0,.88,0,1.3v.95c0,.48,0,1,0,1.36s0,.72,0,1.22,0,.95,0,1.38.07.72.1,1a12.46,12.46,0,0,1,0,1.26c0,.52,0,.91,0,1.18v.32a5.75,5.75,0,0,1,0,.59c0,.23,0,.48,0,.69s0,.26,0,.4,0,.37,0,.52v1.26c0,.3,0,.63,0,.91V53c0,.15,0,.27,0,.41s0,.35,0,.57c0,.48,0,1,0,1.41,0,.2,0,.38,0,.54,0,.33.05.6.07.9s0,.87,0,1.24,0,.63,0,1.06c0,.16,0,.33,0,.48v.23a3,3,0,0,0,0,.34.41.41,0,0,0,0,.11.57.57,0,0,0,0,.29.62.62,0,0,0,.09.27v.06c0,.09,0,.2,0,.34s0,.32,0,.5c0,.51-.08,1.1-.11,1.56,0,.26,0,.53,0,.82s0,.41,0,.58,0,.16,0,.26a1.62,1.62,0,0,0,0,.21.89.89,0,0,0,.1.29c0,.38,0,.76,0,1.11,0,.12,0,.23,0,.39s0,.43,0,.67-.08.72-.11,1.07a5.79,5.79,0,0,0,0,.61c0,.16,0,.32,0,.45v.17h-.8l-1,0L148,70h-.8c-.41,0-.75,0-1.07,0l-.36,0a.85.85,0,0,0-.8.47c-.1.31-.09.44-.08.36a1.61,1.61,0,0,0-.06.3c0,.1,0,.2,0,.3s0,.09,0,0a1.45,1.45,0,0,1-.07.24,3.08,3.08,0,0,0-.18.86,2.5,2.5,0,0,0,0,.51,1.44,1.44,0,0,0,.1.34,1.16,1.16,0,0,0-.07.35,2.07,2.07,0,0,0,0,.21c0,.16,0,.26,0,.34a1.85,1.85,0,0,0,.2.87c.05.06.08.1.09.1l0,0s0,0,0,0,0,0,0,0l.06.13a1.68,1.68,0,0,0,.59.29,2.84,2.84,0,0,0,.31,0h0l0,0a1.35,1.35,0,0,0,.31.09h.33l.31,0,.26,0,.23,0,.25,0c.17,0,.44,0,.71,0a8.58,8.58,0,0,1,1.07-.08l1.68,0,.47,0h.57l.33,0c.24,0,.5,0,.75,0h.7l.2,0a3.54,3.54,0,0,0,.64,0h3.53c1,0,2.08.05,3.15,0a2.51,2.51,0,0,0,.39,0l.17,0a1.43,1.43,0,0,0,.46-.33,1.63,1.63,0,0,0,.15-.7v-.13c0-.08.07-.24.11-.48s0-.24,0-.32a1.56,1.56,0,0,1,0-.25s0-.1,0-.21,0-.25,0-.39v-.37c0-.23,0-.44,0-.66,0-.4-.12-.69-.13-.53a.88.88,0,0,1,0-.1s0-.09.06-.17,0-.09,0-.16a1.12,1.12,0,0,0-.1-.39,1.63,1.63,0,0,0-.4-.32h0l-.11-.07a2,2,0,0,0-.56,0l-.54,0h-.71c-.46,0-.84.09-1.16.08a7.24,7.24,0,0,0-.91,0h-.07a.42.42,0,0,0-.16,0h0s0,0,0,0h.12a3.16,3.16,0,0,0-.42-.08l-.23,0h-.19c0-.17,0-.41,0-.74s0-.4-.06-.58,0-.28,0-.46,0-.5,0-.78v-.64c0-.25,0-.47,0-.69s0-.32,0-.47,0-.59,0-.88,0-.54,0-.77,0-.4,0-.59v-.23c0-.27,0-.54,0-.84s0-.36,0-.56c0-.38,0-.76,0-1.1,0-.73,0-1.48,0-2.21,0-.29,0-.56,0-.82s-.08-.67-.12-1c0-.16,0-.3,0-.43h.12l.64,0,1.29,0h.49l1.1,0c.44,0,.92,0,1.29,0s.9-.05,1.46-.06l1.87,0c.88,0,1.76,0,2.6,0,.17,0,.39,0,.69,0h.31c.27,0,.47,0,.69,0l.4,0h.17a1.07,1.07,0,0,0,1.07-1.29l-.05-.13v0a.78.78,0,0,1,0-.13,2.15,2.15,0,0,0,0-.32,1.48,1.48,0,0,0,0-.22c0-.26,0-.4,0-.45a1.81,1.81,0,0,0,.06-.36c0-.16,0-.27,0-.33v0a.07.07,0,0,0,0-.05,2.27,2.27,0,0,0,.07-.37c0-.12,0-.17,0-.16a.59.59,0,0,1,0-.2,6.5,6.5,0,0,0,.06-.73s0-.11,0-.21a1.64,1.64,0,0,0-.41-.69,1.78,1.78,0,0,0-.63-.14l-.37.12.08,0h0l-.24,0-.62-.08a11.47,11.47,0,0,0-1.18,0l-.16,0a1.25,1.25,0,0,0-.26,0l-.08,0h-.41l-.48,0c-.32,0-.66,0-1,0a13.19,13.19,0,0,1-1.95-.08,3.8,3.8,0,0,0-.72-.06c-.18,0-.32,0-.45,0-.39,0-.76,0-1.12.06l-.23,0a2.26,2.26,0,0,0-.4,0h-.54l-.28,0h-.32a5.16,5.16,0,0,1-.91,0l-.31,0h-.16a3.15,3.15,0,0,1-.37,0l-.63-.05v-.3c0-.26,0-.59,0-1s0-.66-.06-1v-.33c0-.24,0-.43,0-.58a1.42,1.42,0,0,0,0-.31.84.84,0,0,0-.06-.18c0-.11,0-.23,0-.36,0-.3,0-.6,0-.86s0-.66,0-1c0-.89.12-1.82.19-2.78,0-.44,0-.76,0-1.18,0-.25,0-.55,0-.78s0-.25,0-.36v-.31c0-.14,0-.29,0-.45s0-.46,0-.67h.73a11.27,11.27,0,0,0,1.42.08h.48c.77,0,1.58-.07,2.31-.13l1.07-.05H164l1.51,0,2.09-.1,1.49,0h4a.72.72,0,0,1,0,.13c0,.05,0,.11,0,.17s0,.38,0,.58,0,.6,0,.85a.78.78,0,0,1,0,.22c0,.05,0,.14,0,.25a4.56,4.56,0,0,0,0,.54c0,.36,0,.71,0,1.06s-.06,1.09,0,1.69v.32c0,.26,0,.49,0,.72a2.1,2.1,0,0,0,.17.81,1.69,1.69,0,0,0,.88.54c.19,0,.35,0,.42,0l.46,0,.42,0c.21,0,.46,0,.68,0a9,9,0,0,1,1.67-.12Zm-32-7.68Zm-1,37.16h0l0,0s0,0,0,.07A.58.58,0,0,0,144.85,75.16Zm.46.38h.05l.07,0Zm.19,0Zm.24.12c-.09-.08-.06,0,.07,0Zm14.37-38.21h0l.08,0Z" transform="translate(0 0)" fill="#fff"/><path d="M208.9,60.4a3.1,3.1,0,0,0,0-.41c0-.11,0-.2,0-.3s0-.11,0-.15,0-.24,0-.34,0-.17,0-.26,0-.49,0-.72,0-.34,0-.56a6.08,6.08,0,0,0,0-.77c-.06-.23-.13-.43-.16-.52l-.06-.09c-.06-.16-.12-.41-.25-.72-.06-.14-.13-.28-.19-.39v0l-.11-.32a.41.41,0,0,0,0-.09,2,2,0,0,0-.18-.32l0,0a3.45,3.45,0,0,0-.16-.33s0,0,0-.12-.1-.17-.13-.23l-.07-.18a1.74,1.74,0,0,0-.18-.32l-.1-.18a1.53,1.53,0,0,1-.15-.23l-.09-.14a.86.86,0,0,1-.1-.16,2.72,2.72,0,0,1-.16-.25l-.06-.12c-.14-.22-.28-.42-.4-.58s-.09-.18-.13-.25,0,0-.06-.17a3.06,3.06,0,0,0-.35-.36l-.23-.2,0,0,.07.08a1,1,0,0,1,.11.16l0,.08a1.14,1.14,0,0,0-.42-.45c.06,0,.07,0,.06,0l0,0,0,0a.5.5,0,0,0-.06-.08l-.13-.17a1.52,1.52,0,0,1-.19-.27,1.2,1.2,0,0,1-.1-.15l-.19-.28-.19-.22s0,0,0-.07l-.12-.15s-.05-.08-.18-.24l-.19-.21-.28-.23s-.1-.08-.25-.18A2.7,2.7,0,0,0,203,48l-.32-.15-.13-.09-.21-.12-.08-.07c.05,0,.08,0,0,0l-.23-.19-.05,0-.08-.08a3.06,3.06,0,0,0-.27-.21l-.2-.14s0,0,0,0l-.17-.14c-.15-.13-.27-.2-.29-.22l-.08-.06a3,3,0,0,0-.37-.25,2.08,2.08,0,0,0-.38-.22,5.23,5.23,0,0,0-.89-.24l-.18,0a2.08,2.08,0,0,1-.35-.13l-.33-.09-.32-.11-.71-.2-.63-.11h0l-.18,0-.22-.06s0,0-.16-.05l-.49-.11-.19,0-.22-.07c-.26,0-.4,0-.36,0a15.68,15.68,0,0,0-1.6-.13c-.2,0-.55,0-1,0a6.4,6.4,0,0,0-.72.13l-.29.08a1.2,1.2,0,0,0-.27.1h-.31a1.41,1.41,0,0,0-.27,0H190l-.43,0-.33,0c.09,0,.07,0-.09,0a2.7,2.7,0,0,0-.39.06h-.55a2.41,2.41,0,0,0-.38.07,2.57,2.57,0,0,0-.38.13l-.39.16-.07,0-.28.08c-.15.05-.36.11-.6.21l-.42.19a3.15,3.15,0,0,0-.27.19l-.14.09-.32.19-.05,0-.22.12-.06,0a2.6,2.6,0,0,0-.58.31l-.33.27-.18.16c-.06,0-.2.15-.34.28l-.28.29-.07.08,0,0-.25.17,0,.05a.33.33,0,0,0-.1.06l-.1.08a1,1,0,0,0-.41.32l0,0a2.06,2.06,0,0,0-.31.32c-.1.15-.14.23-.13.21s-.05.08,0,0-.08.07-.22.28a1.84,1.84,0,0,0-.15.28A1.61,1.61,0,0,0,181,50l0,.06s0,0-.09.13a1.14,1.14,0,0,1-.11.11v0a2.21,2.21,0,0,0-.24.19l-.09.1-.11.09c-.05,0-.18.16-.31.3l-.16.19a3.85,3.85,0,0,0-.33.36c-.09.13-.17.28-.22.37s-.16.31-.26.51l-.09.16-.12.22v0a2,2,0,0,0-.43.69c0,.08,0,.13,0,.15a1.43,1.43,0,0,1,0,.2c0,.09-.06.26-.09.42s0,.19,0,.24,0,.25,0,.26l-.1.32v0a1.17,1.17,0,0,0-.12.2l0,.07a1.09,1.09,0,0,1-.08.15,4.5,4.5,0,0,0-.21,1,.65.65,0,0,1,0,.13c0-.07,0-.11,0,0l-.08.25a2.76,2.76,0,0,0,0,.55c0,.8-.12,1.61-.14,2.51,0,.38-.06.79-.07,1.28,0,.22,0,.44,0,.63a7.83,7.83,0,0,0,.15,1.55c.05.24.1.51.14.76a3.72,3.72,0,0,0,.07.39,2,2,0,0,0,.1.35l.06.23a3.71,3.71,0,0,1,.11.45c0,.12,0,.18,0,.2s0,0,0,.13a7.66,7.66,0,0,0,.25.85c0,.1.07.27.15.5a2.74,2.74,0,0,0,.18.4l.08.14s.07.12.15.25l.2.33.06.1.19.28c.09.14.19.3.29.43a3.26,3.26,0,0,0,.23.55c.05.1.12.21.18.31l.14.21.19.23.18.21a1.56,1.56,0,0,0,.18.17l.17.14.18.14.12.15.11.11c.09.11.13.18.24.33a4,4,0,0,0,.46.53l.22.21.11.1.32.29c.2.15.4.28.52.36l.19.11.2.12.09,0,.32.19.22.15.1.07.12.1.15.11.15.12.11.08c.09.06.19.15.3.24l.31.22a1,1,0,0,0,.14.13,3.65,3.65,0,0,0,.32.19l.22.12.18.11a3.54,3.54,0,0,0,.44.22l.35.18c.22.1.48.19.66.26a1.17,1.17,0,0,0,.26.12,3.65,3.65,0,0,0,.6.11,2.94,2.94,0,0,0,.32.08,3.05,3.05,0,0,0,.39,0l.06,0h0a7.05,7.05,0,0,0,1.75.19l.62,0c.47,0,.93.07,1.55.07h.81a5.09,5.09,0,0,0,.56,0c.15,0,.25,0,.3,0a3.57,3.57,0,0,0,.5,0c.27-.06.4-.12.36-.1a4,4,0,0,1,.66-.11l.56-.11a.66.66,0,0,1,.15,0l.55-.13.24-.09a2.9,2.9,0,0,0,.35-.17l.14-.07c-.06,0-.07,0,0,0l.19-.08.13-.05.45-.2a1.93,1.93,0,0,0,.26-.16l.22-.12c.19-.12.27-.2.31-.21a9.82,9.82,0,0,0,.92-.53l.21-.16.19-.1c.07-.05.28-.12.59-.32l.23-.18s0,0,.06-.05.19-.14.25-.18l.13-.1.17-.12c.11-.08.19-.16.23-.19l.22-.19.19-.21.06-.07,0,0a3.11,3.11,0,0,0,.53-.58l0,0a2.19,2.19,0,0,0,.15-.22l.12-.08c.14-.14.22-.24.24-.26l.07-.06s.05-.06-.09.07l.06-.07a1.1,1.1,0,0,0,.2-.23l0,0,.13-.13,0,0a2.16,2.16,0,0,0,.37-.27,2.28,2.28,0,0,0,.24-.33s0,0,0,0a3.34,3.34,0,0,0,.21-.29l0,0,.17-.23.09-.1a6.2,6.2,0,0,0,.62-1.06c.11-.2.2-.35.32-.55a7.08,7.08,0,0,0,.68-1.38s0,0,0-.13.15-.52.22-.71.09-.33.11-.41a3.57,3.57,0,0,1,.1-.35s0-.07,0-.11a3.52,3.52,0,0,0,.14-.48c0-.1,0-.18,0-.24s0,0,0-.06a6.33,6.33,0,0,0,.19-.76,1.12,1.12,0,0,0,.08-.17c0-.07,0-.16.05-.2a.28.28,0,0,0,0-.08.06.06,0,0,0,0,0c.06-.29.08-.57.11-.77a9.51,9.51,0,0,0,.05-1.06,4.38,4.38,0,0,0-.05-.5C208.91,60.62,208.91,60.53,208.9,60.4Zm-30.72-5.34h0Zm24.06,4.27v0s0-.07,0-.14A.5.5,0,0,1,202.24,59.33Zm.16,1.56a10.08,10.08,0,0,1-.08,1,5.67,5.67,0,0,0-.09.57.25.25,0,0,0,0,.11c0,.12-.05.24-.08.38s-.07.47-.12.8a7.75,7.75,0,0,1-.31,1.09,2.15,2.15,0,0,0-.07.24c0,.07-.08.19-.13.34l-.05.15c0,.09,0,.16-.09.26l-.07.08-.15.22a.54.54,0,0,1-.06.11l-.22.32-.07.09s-.07.09-.09.11a.88.88,0,0,0-.11.13c-.06.06-.06.07,0,0s-.06.06-.17.18l-.08.11-.2.21-.24.29a.94.94,0,0,0-.09.13l-.08.07-.13.12-.28.26a5.74,5.74,0,0,1-.67.43c-.26.17-.59.35-.94.59l-.32.18,0,0-.32.15-.11.06s0,0,0,0l-.25,0c-.16,0-.29.11-.34.13s0,0,0,0a1.45,1.45,0,0,0-.27.08l-.4.13c-.1,0,0,0-.17,0a3.63,3.63,0,0,0-.4,0l-.25,0h-.37c-.49,0-.94.07-1.32.08a9.75,9.75,0,0,1-1.83-.05h-.12l-.32-.12-.18,0-.1,0-.25-.08-.26-.1-.23-.08-.28-.1a1.78,1.78,0,0,1-.26-.13l-.13-.06-.36-.17-.18-.08c-.05,0-.14-.1-.31-.2l-.07,0-.13-.11a1.59,1.59,0,0,0-.24-.16l-.12-.09-.28-.22a1.63,1.63,0,0,1-.35-.28,2,2,0,0,1-.23-.22c-.11-.1-.16-.13-.14-.11s-.06-.06-.16-.15-.14-.09-.14-.1,0,0-.06,0a3.1,3.1,0,0,0-.28-.3l-.28-.22-.26-.19-.13-.2-.1-.14-.22-.29-.09-.13a2,2,0,0,1-.07-.19s0-.07-.05-.15c-.09-.24-.18-.45-.23-.59a2,2,0,0,1-.11-.32s0-.13-.09-.3a3.58,3.58,0,0,0-.24-.44l-.05,0c0-.1,0-.2-.06-.3a.71.71,0,0,1,0-.17c0-.07,0-.18,0-.3s0-.25-.06-.33a5.25,5.25,0,0,0-.06-.66,7,7,0,0,1-.09-1.12,12.94,12.94,0,0,1,.08-1.91c.07-.56.09-1.13.12-1.58a1.32,1.32,0,0,1,0-.16c0-.06,0-.09,0-.11v0l.07-.23v-.05l0-.07c.06-.13.08-.2.07-.2a1.38,1.38,0,0,0,.08-.17c0-.06.07-.13.12-.2a3.74,3.74,0,0,0,.19-.35.68.68,0,0,0,.06-.15c.05-.11.06-.16.08-.21a2.72,2.72,0,0,1,.11-.25.25.25,0,0,1,0-.09.13.13,0,0,1,0-.07l.09-.17,0-.08.12-.17c.1-.14.13-.21.15-.23s0,0,.17-.15l.18-.21a1.69,1.69,0,0,0,.24-.26l0,0a1.71,1.71,0,0,0,.21-.2c.14-.17.17-.25.16-.21a4.09,4.09,0,0,0,.25-.34l.06-.06a2.31,2.31,0,0,0,.19-.28,2.72,2.72,0,0,0,.23-.32s0,0,0,0l.11,0,.15-.11.08,0,.13-.06.21-.09.18-.08.14-.06.27-.11,0,0,.25-.08a4.28,4.28,0,0,0,.42-.19l.25-.13.09,0,.11,0,.25-.09.38-.17.3-.19.12-.08a1.39,1.39,0,0,1,.26-.14l.14,0c.3,0,.63,0,1,0h.4l.43,0a2,2,0,0,1,.47.05l.14,0,.41.09.32,0a4.55,4.55,0,0,1,.52,0l.14,0,.22.06.35.12.28.09.07,0,.09,0,.06,0a.54.54,0,0,0,.13.07l.2.12.34.15.32.13.13,0c.09,0,.21.11.45.22l.08,0,.21.14.16.09.14.09.14.09.3.17.28.16.28.17.07,0h0l.13.15a.68.68,0,0,1,.09.14l0,0,.12.18a.93.93,0,0,0,.1.15l.06.09s.11.17.22.31l.11.13.09.11.18.25a1.65,1.65,0,0,0,.17.18c.06.09.17.23.28.36a1.61,1.61,0,0,1,.18.2.91.91,0,0,1,.12.17.89.89,0,0,1,.12.14h0s0,.09.06.16a1.91,1.91,0,0,1,.13.29c0,.06.08.19.15.35s.1.2.12.25a1,1,0,0,0,.08.17c0,.11.12.33.23.58l.07.14a.45.45,0,0,1,0,.08c0,.06,0,.14.06.27a1,1,0,0,1,.05.22c0,.14,0,.51.13,1,0,.08,0,.1,0,.09s0,.19,0,.32.06.31.07.36,0,.21.05.31,0,.16,0,.18S202.41,60.69,202.4,60.89Zm2.52-10.6h0Zm2.49,3.36Z" transform="translate(0 0)" fill="#fff"/><path d="M245,60.29a3.29,3.29,0,0,0,0-.41l0-.3a.4.4,0,0,0,0-.15c0-.12,0-.25,0-.34s0-.17,0-.26,0-.49,0-.73,0-.33,0-.55a4.66,4.66,0,0,0,0-.77c-.06-.23-.13-.43-.16-.52l-.06-.09c0-.16-.12-.41-.24-.72l-.2-.39s0,0,0,0-.06-.2-.11-.32l0-.09a1.7,1.7,0,0,0-.2-.33l0,0c-.08-.18-.15-.3-.16-.32s0,0,0-.12a2.22,2.22,0,0,0-.14-.22,1.62,1.62,0,0,0-.06-.19,2.2,2.2,0,0,0-.19-.32l-.1-.18-.15-.23a.64.64,0,0,0-.1-.14l-.1-.17-.15-.24L242.6,52a6.39,6.39,0,0,0-.4-.58c0-.09-.09-.18-.13-.25s0,0-.06-.17a2.48,2.48,0,0,0-.34-.36l-.23-.19h0s0,0,.11.14l-.06,0a1.14,1.14,0,0,0-.37-.32l.09,0,.08.06,0,0,0-.08-.14-.17a1.78,1.78,0,0,1-.18-.26,1.19,1.19,0,0,1-.1-.16l-.19-.27-.2-.22-.06-.08a1.43,1.43,0,0,0-.11-.15s0-.08-.18-.24l-.19-.21-.28-.23-.25-.18a2.1,2.1,0,0,0-.3-.19c-.21-.11-.33-.14-.33-.15s0,0-.14-.11l-.22-.12-.06-.06c.06,0,.07,0,0,0l-.24-.2,0,0-.06-.08-.29-.22-.2-.13s0,0,0,0l-.18-.15-.29-.21-.07-.06a3,3,0,0,0-.37-.25l-.38-.22a4.79,4.79,0,0,0-.89-.24l-.22,0-.31-.12a2.8,2.8,0,0,0-.33-.1l-.32-.11-.72-.19c-.25-.06-.49-.09-.63-.11h0l-.19-.05-.22-.06-.14,0a3.85,3.85,0,0,0-.49-.11l-.2,0-.21-.07a1.77,1.77,0,0,0-.36,0,11.64,11.64,0,0,0-1.61-.13,9.31,9.31,0,0,0-1,0,6.62,6.62,0,0,0-.71.13l-.29.08-.27.1h-.33l-.25,0H226l-.4,0-.33.05c.08,0,.06,0-.1,0l-.39.07h-.54l-.38.06-.39.14c-.09,0-.24.09-.38.16l-.07,0-.29.09a5.9,5.9,0,0,0-.59.2,4,4,0,0,0-.43.2,3.16,3.16,0,0,0-.27.18l-.13.09a2.44,2.44,0,0,0-.32.19l-.05,0-.24.13-.05,0a3,3,0,0,0-.58.32l-.33.26-.18.17a3.05,3.05,0,0,0-.33.27l-.28.29-.07.08,0,0-.26.17,0,.05-.1.06-.09.08a1,1,0,0,0-.41.32s0,0,0,0-.12.1-.3.31l-.13.21c-.05.08-.05.09,0,.06a2.21,2.21,0,0,0-.22.27c0,.07-.1.19-.14.28a2.33,2.33,0,0,0-.09.23l0,.06-.09.14-.11.11,0,0a1.62,1.62,0,0,0-.23.19c-.11.11-.13.14-.1.11s0,0-.1.08a2.62,2.62,0,0,0-.31.3c-.1.1-.15.17-.17.19a3.85,3.85,0,0,0-.33.36c-.08.13-.16.28-.21.37l-.27.51a.94.94,0,0,0-.08.15,2,2,0,0,0-.12.23l0,0h0a2.42,2.42,0,0,0-.42.68,1.54,1.54,0,0,0,0,.16c0,.06,0,.12-.05.2a2.49,2.49,0,0,0-.09.42c0,.1,0,.19,0,.24s0,.25,0,.25,0,.16-.1.33c0,0,0,0,0,0l-.12.2a.25.25,0,0,0,0,.07.8.8,0,0,0-.08.16,3.43,3.43,0,0,0-.21.95.57.57,0,0,1,0,.14c0-.07,0-.11,0,0s0,.13-.07.26a3,3,0,0,0-.05.54c0,.8-.11,1.61-.13,2.51,0,.38-.07.79-.08,1.28v.63a7.86,7.86,0,0,0,.16,1.55c0,.24.09.51.13.76,0,.08,0,.22.07.38a3.45,3.45,0,0,0,.11.36l.06.23c0,.14.06.26.11.46a1.83,1.83,0,0,1,0,.19s0,0,0,.13a6,6,0,0,0,.25.85c0,.1.06.27.14.5a4,4,0,0,0,.19.4c0,.06.06.1.07.13l.15.26a3.89,3.89,0,0,0,.21.33l.06.1.18.28c.09.14.2.29.3.43a3.26,3.26,0,0,0,.23.55A2.48,2.48,0,0,0,216,70l.14.21.19.23.18.21.18.17a.62.62,0,0,0,.17.13l.16.14.14.15.1.12a3.52,3.52,0,0,1,.25.33,3.89,3.89,0,0,0,.46.53l.23.22.09.07.33.3c.2.16.4.28.52.37l.2.12.2.12s.05,0,0,0l.38.23.23.14a.28.28,0,0,0,.08.06l.14.11.15.12.12.1.14.1.3.23.31.23.14.12.32.2.22.12.18.11a3.54,3.54,0,0,0,.44.22l.35.17c.22.11.48.2.66.27a2.52,2.52,0,0,0,.27.12,3.59,3.59,0,0,0,.58.11l.32.08.39,0a.15.15,0,0,1,.07,0h0a7.05,7.05,0,0,0,1.75.19l.62,0c.47,0,.93.07,1.55.07h.81a5,5,0,0,0,.56,0l.28,0a3.77,3.77,0,0,0,.52,0c.26-.06.42-.13.41-.12a5.83,5.83,0,0,1,.6-.09l.58-.12.14,0,.55-.13L234,76a3.63,3.63,0,0,0,.38-.18l.13-.07s-.05,0,0,0a1.11,1.11,0,0,0,.16-.08l.15-.06a3.49,3.49,0,0,0,.46-.2l.22-.12a1.88,1.88,0,0,1,.24-.14c.2-.13.28-.21.32-.22.26-.15.58-.29.93-.53l.2-.16s0,0,.21-.11.26-.11.57-.31l.23-.19.06,0a2.76,2.76,0,0,0,.23-.17l.13-.1.17-.12A2.42,2.42,0,0,0,239,73l.21-.16.2-.22.05-.06h0a2.58,2.58,0,0,0,.54-.6s0,0,.05,0,.11-.17.15-.22l.11-.07c.19-.19.28-.31.25-.27l.06-.06,0,0h0l.13-.17s0,0,0,0L241,71l0,0a2.17,2.17,0,0,0,.35-.25,3.52,3.52,0,0,0,.26-.36l0,0a1.76,1.76,0,0,0,.19-.27l.05,0a2,2,0,0,0,.17-.23l.09-.09a5.22,5.22,0,0,0,.62-1.07c.11-.2.2-.35.33-.55a7.65,7.65,0,0,0,.67-1.38l.05-.11c.09-.28.16-.54.22-.74s.09-.32.11-.4a1.69,1.69,0,0,1,.11-.34.93.93,0,0,1,0-.13,3.07,3.07,0,0,0,.13-.47,2.32,2.32,0,0,0,0-.24l0-.06c0-.16.13-.43.19-.76,0,0,.07-.16.07-.17s0-.15.05-.18a.56.56,0,0,1,0-.1.28.28,0,0,1,0-.06c0-.26.07-.55.1-.75a7.6,7.6,0,0,0,0-1.06,4.35,4.35,0,0,0,0-.49C245,60.51,245,60.42,245,60.29Zm-6.67-1.08v0a.7.7,0,0,0,0-.14A.39.39,0,0,1,238.29,59.21Zm.16,1.57c0,.4,0,.8-.07,1a3.65,3.65,0,0,0-.09.57v.11c0,.11,0,.23-.08.38s-.06.46-.11.8a7.91,7.91,0,0,1-.32,1.09c0,.12-.06.19-.07.23s-.07.19-.12.34,0,.13-.05.15a2,2,0,0,1-.1.26h0l-.06.09-.15.21-.07.13a3,3,0,0,1-.22.31l-.06.09-.09.1-.12.14c0,.07-.06.08,0,0l-.17.19a.58.58,0,0,0-.08.1l-.21.22-.23.28-.1.13-.07.07-.12.11-.29.27a5.48,5.48,0,0,1-.67.42c-.27.19-.59.36-.94.6-.05,0-.15.08-.31.17l-.06,0-.32.15c-.11.06-.13.08-.12.08h0l-.26,0-.36.15s0,0,0,0l-.25.07c-.18.06-.32.12-.44.15s0,0-.15,0h-.41l-.23,0c-.08,0-.21,0-.39,0-.48,0-.94.07-1.31.08a9.83,9.83,0,0,1-1.84-.06h-.11l-.33-.12-.17,0-.11,0-.24-.08-.27-.11-.22-.07-.29-.1-.25-.13-.15-.07-.35-.16-.18-.08s-.14-.1-.32-.2l-.06,0-.13-.12-.25-.16a1.09,1.09,0,0,1-.11-.1l-.27-.2a2.86,2.86,0,0,1-.36-.28l-.23-.22a1.18,1.18,0,0,0-.14-.12l-.15-.14-.15-.1-.05-.06a3.87,3.87,0,0,0-.29-.29c-.12-.11-.21-.17-.27-.22l-.26-.19-.13-.2-.1-.13-.22-.31a.73.73,0,0,1-.09-.13,1.13,1.13,0,0,1-.07-.18l-.06-.16c-.08-.24-.17-.44-.22-.58a2.19,2.19,0,0,1-.12-.33s0-.13-.08-.3a2.76,2.76,0,0,0-.26-.45l0,0-.06-.3c0-.09,0-.13,0-.17s0-.17,0-.29,0-.26-.06-.33,0-.37-.06-.67a5.91,5.91,0,0,1-.09-1.12,11.63,11.63,0,0,1,.08-1.9c.06-.57.09-1.14.12-1.58a.59.59,0,0,1,0-.17.41.41,0,0,1,0-.1v0s0-.1.06-.23a.11.11,0,0,0,0,0,.25.25,0,0,0,0-.07,1.12,1.12,0,0,0,.08-.2l.08-.17a1.28,1.28,0,0,1,.11-.2,3.5,3.5,0,0,0,.2-.35c0-.09.05-.15.06-.16l.08-.21a2.56,2.56,0,0,1,.11-.24.3.3,0,0,1,0-.1.41.41,0,0,1,0-.07l.1-.18c0-.06,0-.07,0,0l.13-.19.16-.23a1.12,1.12,0,0,0,.16-.15c.1-.11.16-.19.19-.21A3.24,3.24,0,0,0,222,54l0-.05a1.47,1.47,0,0,0,.21-.19c.14-.18.17-.25.15-.21a2.5,2.5,0,0,0,.26-.35.45.45,0,0,0,.07-.07,3.15,3.15,0,0,0,.19-.27,2.94,2.94,0,0,0,.22-.31l0,0,.12-.07.14-.1s0,0,.09,0l.11-.06.21-.08.19-.09.12,0,.28-.12,0,0,.24-.08.44-.2.24-.12.09-.05.13,0a2.33,2.33,0,0,0,.23-.09,3.55,3.55,0,0,0,.38-.17l.3-.18.1-.08a1.77,1.77,0,0,1,.27-.14.52.52,0,0,1,.16,0c.29,0,.61,0,1,0h.81a3.22,3.22,0,0,1,.5.06l.15,0a2.78,2.78,0,0,0,.38.08l.36,0h.49l.15,0,.2.06.36.12.29.1.07,0,.05,0,.09,0,.12.07.21.12.35.15.31.13.13,0c.09,0,.21.11.44.22l.09,0a1.49,1.49,0,0,0,.23.16l.14.08.14.08.14.09.31.18.28.16.23.14.11.06a1.53,1.53,0,0,1,.14.17l.1.14s0,0,0,0l.11.19a.63.63,0,0,1,.1.15l.08.1a2.81,2.81,0,0,0,.23.32l.09.12.1.11.18.25.16.18c.07.09.17.23.29.36l.18.2.12.17.11.13,0,0a1.16,1.16,0,0,0,.06.16c.06.14.11.23.13.29l.15.35c.05.12.1.21.11.25a1.55,1.55,0,0,1,.08.15c.05.13.13.35.24.6l.07.14a.45.45,0,0,1,0,.08c0,.06,0,.14.06.27s0,.17,0,.22,0,.51.12,1c0,.08,0,.1,0,.09a2.51,2.51,0,0,0,0,.32c0,.2.06.31.07.36a2.87,2.87,0,0,0,.05.31c0,.12,0,.16,0,.18S238.46,60.57,238.45,60.78Zm2.39,10.3,0,0h0ZM241,50.19l0,0,0,0Z" transform="translate(0 0)" fill="#fff"/><path d="M30.68,63.54a1.88,1.88,0,0,0,0-.23V63c0-.14,0-.25,0-.36s0-.34,0-.54c0,0,0-.05,0-.06a2.14,2.14,0,0,0,0-.24,2.62,2.62,0,0,0,0-.27l0-.37a3.84,3.84,0,0,0-.08-.55l0-.11v-.27a3.19,3.19,0,0,0-.09-.59l0-.12,0-.16c0-.07-.05-.16-.07-.24a.65.65,0,0,0,0-.13c0-.08-.05-.13-.06-.17s-.06-.31-.13-.52-.06-.15-.07-.2,0-.16-.07-.25a2.8,2.8,0,0,0-.15-.43c-.13-.29-.27-.51-.33-.66a1.44,1.44,0,0,1-.07-.16,2.42,2.42,0,0,1-.12-.23l-.06-.09-.07-.16L29,55.87l-.13-.2a1.28,1.28,0,0,0-.15-.23s-.09-.11-.13-.14l-.08-.11s-.08-.11-.14-.19l-.11-.14-.11-.14-.1-.12L28,54.51a.15.15,0,0,1,0-.06l-.1-.14a5.62,5.62,0,0,0-.44-.5c-.09-.08-.19-.18-.28-.25l-.21-.16a1.94,1.94,0,0,0-.17-.1,2.38,2.38,0,0,0-.23-.14l-.1-.06L26.33,53l-.12-.1-.16-.12-.1-.08-.11-.11a2.36,2.36,0,0,0-.22-.21,2,2,0,0,0-.17-.12l-.15-.12-.12-.08-.1-.07-.18-.11-.2-.1-.37-.19h0l-.17-.11-.27-.12-.23-.1-.48-.19-.27-.1-.18,0-.25-.09-.11-.06s-.12,0-.27-.08l-.09,0h0l-.17-.07-.29-.09L21,50.4l-.12,0-.2-.06a2.45,2.45,0,0,1-.33-.16L20,50a1.11,1.11,0,0,0-.23-.09l-.18,0-.24-.07-.21-.06c-.15-.05-.32-.08-.47-.12a2.66,2.66,0,0,0-.32-.06h0l-.08,0-.2-.09a1.57,1.57,0,0,0-.28-.06l-.12,0-.14,0-.13,0-.3-.07-.23,0c-.19-.05-.38-.09-.59-.16L16,48.93l-.2,0-.36-.1-.16-.06-.19-.06-.24-.06-.24-.07-.18-.06-.24-.08a2.08,2.08,0,0,1-.35-.08l-.31-.12-.3-.07h0L13,48.05a1.17,1.17,0,0,0-.29-.13l-.16,0-.13,0-.12,0h0c-.05,0-.14-.08-.25-.12l-.16-.08-.25-.12-.22-.07-.2,0-.07,0h0l-.17,0h-.05l-.06,0-.11,0-.23-.07-.16-.05-.11,0-.06,0L10,46.93l-.27-.08a2.68,2.68,0,0,0-.26-.12l-.15,0-.16-.1-.17-.13-.08-.07-.22-.18-.09-.08a1.73,1.73,0,0,0-.3-.27l-.12-.08L8,45.7l-.11-.09-.21-.17-.16-.09,0,0-.08-.11a.57.57,0,0,1-.14-.17l-.08-.14-.08-.11-.08-.14L7,44.49l-.08-.13,0-.06a.64.64,0,0,1-.06-.11A2.27,2.27,0,0,0,6.74,44c-.06-.11-.12-.19-.15-.25a1.19,1.19,0,0,0-.1-.24c0-.07,0-.07,0-.06s0-.13,0-.2a1.42,1.42,0,0,0-.05-.16s0,0,0,0v-.14c0-.42,0-.84.09-1.22h0a1.82,1.82,0,0,0,.06-.24v-.16c0-.1,0-.2,0-.29a.25.25,0,0,0,0-.07,2,2,0,0,0,.08-.26h0l0,0a1.15,1.15,0,0,0,.07-.11l.09-.18.06-.15h0c.05-.1.16-.24.26-.39l.12-.18.18-.31.08-.14L7.64,39l.15-.17a.53.53,0,0,1,.07-.1l.1-.1.18-.16a2,2,0,0,0,.19-.16l.14-.13.28-.23a5.27,5.27,0,0,0,.52-.44l.13-.13a.58.58,0,0,1,.15-.13l.16-.1.1,0L9.93,37l.38-.11a3.88,3.88,0,0,1,.39-.09l.17,0,.21,0,.25,0,.21,0h.13l.15,0,.14,0,.29,0h.18a.94.94,0,0,0,.19-.06l.23,0a5.58,5.58,0,0,1,.61,0c.34,0,.72,0,1,0l.16,0h.62l.38,0a4.69,4.69,0,0,1,.56,0l.12,0,.44.07.18.05h.42l.23.08.07,0,.12.06.38.22.21.1a1.4,1.4,0,0,1,.3.15l.21.13.17.1.05,0,.22.16.11.08.18.14.08.06.16.09.06,0,.12.08.15.09a1.52,1.52,0,0,0,.31.2l.15.06a1.11,1.11,0,0,0,.15.14l.17.12,0,0,.07,0,.06.09.1.14.05.06a.33.33,0,0,0,.06.08c.05.08.08.1.08.11s0,0,.07.12l.12.18.12.14.13.12.07.08a1.78,1.78,0,0,0,.15.17l.14.11,0,0,0,0,.13.13s-.05,0,0,0,.05.05,0,.05a1.21,1.21,0,0,1,.1.16l.07.1s.1.18.25.37l.15.14.08.08.06.08c0,.06,0,.12,0,.2s0,.16,0,.25a.61.61,0,0,1,0,.14v.65c0,.19,0,.38,0,.56v.26a.62.62,0,0,1,0,.19.61.61,0,0,1,0,.12h0v0h0l0,0a.51.51,0,0,1,0,.11.57.57,0,0,0,0,.14l.53.54.34-.17-.07.06,0,0s-.05,0,0,0a.28.28,0,0,0,.13,0l.62.05h1.22c.32,0,.68,0,1,0l.58,0a1,1,0,0,1,.24,0s0,0,.23,0a1.1,1.1,0,0,0,.44-.17,1,1,0,0,0,.2-.25,2.13,2.13,0,0,0,.1-.76c0-.1,0-.22,0-.35a1.09,1.09,0,0,0,0-.18c0-.07,0-.14,0-.27v-.14c0-.19,0-.32,0-.46s0-.47,0-.68,0-.24,0-.36a.53.53,0,0,0,0-.13v-.19h0a1.53,1.53,0,0,0,0-.18.89.89,0,0,0,0-.23,2,2,0,0,1,0-.57,2.15,2.15,0,0,1,0-.23,3.18,3.18,0,0,0,0-.41c0-.06,0-.11,0-.17s0-.14,0-.23V38.6c0-.05,0-.06,0,0a1.24,1.24,0,0,0,0-.36v-.33c0-.1,0-.2,0-.31s0-.09,0-.14v-.69c0-.11,0-.26,0-.38v-.18a.92.92,0,0,0,0-.18c0-.15,0-.36,0-.55V35c0-.17,0-.36,0-.53s0-.23,0-.36v-.23c0-.12,0-.21,0-.25v-.19c0-.07,0-.14,0-.19s0-.12,0-.17,0-.2,0-.32v-.25c0-.1,0-.22,0-.31a1,1,0,0,1,0-.15.15.15,0,0,1,0-.07c0-.05,0-.12,0-.2a1.16,1.16,0,0,0-.22-.51.94.94,0,0,0-.44-.16l-.15,0-.05,0s-.05-.06-.08-.08a2.07,2.07,0,0,0-.38-.13,1.59,1.59,0,0,0-.46.08l-.12.08h-.07l-.22,0c-.14,0-.31-.05-.54-.08l-.31,0h-.2l-.38,0a2.78,2.78,0,0,0-.29,0h-.22l-.19,0a1.57,1.57,0,0,0-.38.11s0,0,0,0a.6.6,0,0,0-.19-.06l-.07,0h-.12a.49.49,0,0,0-.49.39.41.41,0,0,0,0,.09.34.34,0,0,0,0,.11.59.59,0,0,0,0,.14c0-.09,0-.08,0,0,0,.73,0,1.44,0,2.15v0l-.47-.29-.1-.06-.26-.18-.14-.1L22,33.18l-.17-.08-.05,0a2.84,2.84,0,0,0-.4-.23l-.15,0s0,0-.11-.09-.32-.2-.37-.24l-.12-.09-.18-.11s0,0,0-.05c-.24-.16-.44-.22-.53-.28a3.33,3.33,0,0,0-.38-.19l-.26-.09-.16,0-.15,0-.14,0h0a.53.53,0,0,0-.34-.15c.08,0,0,0-.06,0l-.22-.06-.08,0-.3-.07-.23-.06-.12-.05L17.24,31l-.15,0h0a3.24,3.24,0,0,0-.41-.13l-.19,0s0,0-.08,0l-.13,0-.15-.06L16,30.65l-.14,0-.21,0-.37-.09c-.32-.07-.7-.12-1-.16s-.41,0-.56,0h-.31c-.34,0-.63.07-.89.09l-.36,0-.25,0-.39,0-.66.09-.29.05-.21.05-.24.06-.12,0-.34.06-.33.07-.18,0-.14,0-.1,0L8.6,31l-.44.12-.11,0-.12,0a3.8,3.8,0,0,0-.46.12l-.17,0-.09,0h0a2.55,2.55,0,0,0-.54.15l-.2.09h0l-.17,0-.17,0c-.11,0-.21.08-.27.1l-.28.14-.29.19a2.55,2.55,0,0,0-.3.26,2.91,2.91,0,0,0-.24.27l-.19.12a2,2,0,0,0-.22.16l-.17.17-.08.09L4,33.27l-.2.15a1.44,1.44,0,0,0-.15.14l-.2.22a2.43,2.43,0,0,0-.14.22l-.12.2-.29.4-.41.61a1.7,1.7,0,0,0-.2.26l-.14.25a5,5,0,0,0-.33.52c-.06.11-.1.2-.15.28s-.07.13-.12.2L1.39,37c0,.12,0,.2-.07.25s0,0-.06.12,0,0,0,.06l-.13.22c0,.06-.07.17-.09.22s0,0,0,.06a.08.08,0,0,0,0,0,1.47,1.47,0,0,0-.08.3.66.66,0,0,0,0,.14.88.88,0,0,0,0,.14h0v0a1.25,1.25,0,0,0-.09.25.65.65,0,0,0,0,.13c0,.16-.06.31-.08.43s0,.06,0,.12l0,.19c0,.17-.07.42-.1.65s0,.2,0,.32,0,.26,0,.38c0,.45-.1,1-.1,1.52,0,.23,0,.46,0,.71s0,.49,0,.74,0,.26,0,.39a4.32,4.32,0,0,0,.07.68c0,.13,0,.27,0,.44s0,.18.06.25,0,.16.05.25.09.31.13.43.08.26.14.45a4.92,4.92,0,0,0,.28.6,1.62,1.62,0,0,0,.1.18,3.55,3.55,0,0,0,.25.41c0,.05.07.1.1.16l.1.17c0,.05.05.1.08.16l.09.14s0,.07.06.13L2,49c.06.11.13.25.2.36a2.15,2.15,0,0,0,.24.37l.15.17.19.17.19.17.1.12.08.11.18.18.21.16.08.07.14.11.27.22.09.08.17.16.19.15.09.07.24.17.39.22.22.11.24.11s.09,0,.09.06l0,0,.18.18L6,52.6l.11.11a2.58,2.58,0,0,0,.32.34l.26.17.07,0h0l.14.11a4,4,0,0,0,.62.31l.27.1.07,0,.13,0,.09,0,.1,0,.13.05.18.07.14,0,.25.07.25.07.14,0,.16.06.14,0,.17.06.11,0,.12.06.09.05.19.11.33.16.11.05c.26.13.49.19.68.28l.11,0c.11,0,.23.08.28.1l.2.06.11.05.15,0,.2.08.47.13.27.06.16,0,.12,0,.19,0,.62.14.26.07.33.09.25,0,.25.06.39.09.18,0,.12,0,.18.06.22.06.36.12.36.11.25.1.14.06.19.09.17.07.27.14.17.07.12.05.09,0,.15.07.15.07.16.09.37.19c.24.11.44.16.59.22l.35.15.14.05a.43.43,0,0,1,.13,0l.22.12.16.09.18.08.06,0,.22.16.3.19.11.07.16.13.12.1.12.09.08.07.1.09s0,0,0,0l.25.27c.16.14.23.18.24.2l0,.06,0,.09a1,1,0,0,1,.06.14,5.58,5.58,0,0,1,.22.85,2.81,2.81,0,0,1,.08.31c.07.21.14.35.16.41a.31.31,0,0,1,0,.1.5.5,0,0,1,0,.12c0,.15.05.36.08.61a2.14,2.14,0,0,0,.05.23c0,.1,0,.19,0,.27s0,.14,0,.25,0,.15,0,.15a3.75,3.75,0,0,1,0,.65c0,.08,0,.2-.05.36s0,.28,0,.36,0,.12,0,.19,0,0,0,0,0,.1,0,.15c-.08.24-.14.41-.23.62s-.11.29-.16.44-.08.22-.12.31a1.06,1.06,0,0,1,0,.12s0,0,0,.05a3.58,3.58,0,0,0-.18.32l-.06.08c0,.07,0,.08,0,.06s0,0-.06.08l0,0a1.61,1.61,0,0,0-.29.34c0,.1-.06.17-.07.2l-.07.1-.09.16c0,.09,0,.07,0,0s-.06,0-.2.32h0a.65.65,0,0,0-.21.16s0,0,0,0h0l-.2.11a1.27,1.27,0,0,1-.23.12.46.46,0,0,1-.14.07l-.15.07-.11,0-.22.1-.39.12c-.33.1-.66.21-1,.3-.19.06-.41.1-.65.16-.43.11-.87.25-1.22.31s-.48.08-.75.1a10.84,10.84,0,0,1-1.48.07H14.9l-.2,0-.36,0-.16,0-.13,0-.21,0h-.11l-.19,0-.12,0L13.07,70l-.31-.08-.3,0-.52-.31-.12-.07-.19-.1-.15-.08-.37-.24L11,69l-.17-.1c-.08,0-.2-.14-.37-.23l-.19-.11-.13-.08L10,68.34l-.18-.15L9.6,68l-.11-.12-.07-.09-.2-.25-.09-.11-.19-.21-.17-.17-.13-.14a1.78,1.78,0,0,0-.14-.14l-.09-.09-.11-.12a1.1,1.1,0,0,0-.11-.12l-.06-.08-.22-.29-.45-.61-.16-.2-.13-.14-.07-.08-.2-.23,0,0-.16-.21a1.58,1.58,0,0,1-.12-.15l-.16-.25L6.29,64l-.1-.14-.07-.09,0,0v-.42s0-.12,0-.2,0-.16,0-.24v-.67c0-.11,0-.22,0-.32v-.92c0-.29,0-.58,0-.88v-.27s0-.12,0-.18a.39.39,0,0,0,0-.11l0,.07a.29.29,0,0,0,0-.09.41.41,0,0,0-.39-.42.48.48,0,0,0-.18,0,.82.82,0,0,0-.11-.17A1.44,1.44,0,0,0,5,58.77l-.23,0-.26,0-.43,0H3.85a2.3,2.3,0,0,0-.35,0H3.42c-.14,0-.36,0-.59,0l-.51.08H1.4l-.4,0H.91a1.05,1.05,0,0,0-.45.15,1,1,0,0,0-.22.43.72.72,0,0,0,0,.22v.11a.8.8,0,0,0,0,.16.26.26,0,0,0,0,.07v1.06c0,.17,0,.37,0,.57v.47a1.09,1.09,0,0,1,0,.18c0,.06,0,.11,0,.17v.12c0,.07,0,.12,0,.18s0,.25,0,.39,0,.27,0,.44a1.16,1.16,0,0,0,0,.17c0,.07,0,.15,0,.25v.18c0,.12,0,.27,0,.42v.1c0,.22,0,.47,0,.72v.11c0,.44,0,1,0,1.47v.18c0,.15,0,.31,0,.48v.58a1.43,1.43,0,0,0,0,.21v.17c0,.09,0,.14,0,.17V69c0,.12,0,.24,0,.37s0,.51,0,.73v.38s0,.08,0,.13v.08s0,.1,0,.16a2.26,2.26,0,0,0,0,.26c0,.15,0,.26,0,.39a2.91,2.91,0,0,1,0,.3c0,.17,0,.3,0,.45,0,.38,0,.75,0,1.11S0,74,0,74.38v.09c0,.1,0,.15,0,.15s0,0,0,.1a1.79,1.79,0,0,0,0,.21,1.2,1.2,0,0,0,.32.42h0l.06.06a1.38,1.38,0,0,0,.38.09l.24,0h.12a1.76,1.76,0,0,0,.28,0l.15,0c.19,0,.51,0,.81,0a9.28,9.28,0,0,0,1-.09,1.45,1.45,0,0,1,.32,0l.39,0a1.49,1.49,0,0,1,.41,0,2.37,2.37,0,0,0,.43.12c.14,0,.15,0,.09,0s0,0,.12,0a.88.88,0,0,0,.5-.1A1.22,1.22,0,0,0,5.89,75c.06-.21.06-.31.06-.26s0-.15,0-.21,0-.25.06-.36a.49.49,0,0,1,0-.14c0-.07,0-.17,0-.28v-.19c0-.12,0-.24,0-.39s0-.44.06-.71a2.65,2.65,0,0,1,0-.27l0,0c.06.07.15.15.2.2s.1.08.1.09l.06.08.13.11a.62.62,0,0,0,.14.1,2.88,2.88,0,0,0,.23.21,2.65,2.65,0,0,0,.3.25l.15.09.21.1.13.07.14.07.23.08.1,0,.14.06.1.06.28.12L9,74l.1,0,.08,0,.14,0s0,0,0,0,.1.09.2.16l.42.27.14.11.19.1a3.15,3.15,0,0,0,.57.24.55.55,0,0,0,.22.18l0,0s0,0,0,0,.18,0,.2,0a1,1,0,0,0,.17.06l.14,0,.27.06.1,0,.1,0,.14.06.22.06.39.1.12,0,.16,0,.19,0,.18,0,.27,0h.16l.17,0c.16.06.35.11.53.16a11.63,11.63,0,0,0,1.28.14h.4c.32,0,.64.07,1,.08a3.3,3.3,0,0,0,.62,0,4.83,4.83,0,0,1,.58,0l.4,0,.32,0,.23,0,.42-.08.19,0,.56-.11.21,0,.22-.07.17,0,.54-.18.26-.1.28-.13.08,0,.25-.13.27-.08.29-.13.14-.09.12-.06.23-.14.16-.08L24,74.5l.13-.06.24-.14.14-.09A5.1,5.1,0,0,1,25,74l.34-.17.27-.18c.21-.15.5-.38.77-.6l.55-.53c.21-.19.53-.47.83-.76a5.32,5.32,0,0,0,.45-.57l.19-.29.13-.2a.59.59,0,0,0,0-.08l.07-.12c0,.06,0,0,0,0s0,0,0-.05a.84.84,0,0,0,.07-.24.89.89,0,0,0,.19-.17c.11-.14.12-.19.1-.15a1,1,0,0,0,.18-.19c.05-.08.09-.16.11-.2l.09-.15a1.42,1.42,0,0,0,.13-.25c.07-.15.14-.32.19-.45a1.66,1.66,0,0,0,.12-.39s0,0,0-.1v0s0,0,0,0a.39.39,0,0,0,0-.1.69.69,0,0,1,0-.08l0-.12c0-.06.05-.15.07-.23s.05-.16.07-.24.05-.25.07-.36l.11-.46s0-.09,0-.18V66.3a.88.88,0,0,1,0-.14c0-.09,0,0,0-.1h0c0-.06,0-.14,0-.22l.06-.22c0-.07,0-.14.05-.21a.56.56,0,0,1,0-.12l0-.13c0-.05,0-.13,0-.21s0-.32,0-.42a1.19,1.19,0,0,0,.05-.23c0-.1,0-.19,0-.26a1.18,1.18,0,0,0,0-.19c0-.07,0-.12,0-.14A1.24,1.24,0,0,0,30.68,63.54ZM23.1,43.91h0l0,0Zm1.5-9.1h0l-.05,0S24.59,34.82,24.6,34.81ZM9.29,31.56h0Zm-2.84.08Zm-1.31.79.1,0A.49.49,0,0,1,5.14,32.43Zm5.79,16.79a.78.78,0,0,1,0-.14.7.7,0,0,0,0,.14ZM1.24,75s0,0,0,0a0,0,0,0,1,0,0S1.25,75,1.24,75Zm0-.12v-.06h0Zm1.92-8.79a0,0,0,0,0,0,0v0h0S3.19,66.11,3.19,66.12ZM6,59.75H6v0S6,59.74,6,59.75Zm0-.29H6a0,0,0,0,0,0,0s0,0,0,0A.36.36,0,0,0,6,59.46ZM21.47,74.12l-.22.08-.46.16-.18.07-.12,0c.18-.07.36-.15.58-.22l.45-.14Zm7.06-3.45,0,0h0l0,0Z" transform="translate(0 0)" fill="#fff"/><path d="M316,4.69A6,6,0,0,0,314.87,2a2.51,2.51,0,0,0-.46-.43c-.15-.09-.24-.13-.24-.14a3.85,3.85,0,0,0-.85-.39L313,1c-.25-.07-.52-.16-.87-.23-.2,0-.42-.08-.62-.1-.42-.05-.79-.09-1.1-.15s-.64-.1-1-.13-.79-.07-1.19-.07-.52,0-.78,0a10.37,10.37,0,0,1-1.39,0c-1.11-.11-2.34,0-3.27-.14A20.46,20.46,0,0,0,299.3,0a18.45,18.45,0,0,0-2.68.36c-.55.13-1,.28-1.75.46l-.09,0a.34.34,0,0,0-.1,0,19.86,19.86,0,0,0-2.9.42l-1.12.38c-.38.14-.78.28-1.12.44a2.07,2.07,0,0,0-.25.15,4.16,4.16,0,0,0-1.37,1l-.13.18a.75.75,0,0,0-.45.33,4.36,4.36,0,0,0-.34,1.1.85.85,0,0,1,0,.17c0,.09-.06.19-.08.28h0a1.23,1.23,0,0,0,0,.19c-.05.23-.1.48-.14.73-.08.48-.17,1-.24,1.67-.05.39-.1.82-.14,1.23s-.08,1.06-.1,1.48a.81.81,0,0,0,.09.37,4,4,0,0,0,.18.8.59.59,0,0,0,.3.4h0c0,.13,0,.27,0,.4,0,.3,0,.61,0,.89l0,.41a.9.9,0,0,0,.12.36l.05.12c0,.32,0,.61,0,.88s0,.74,0,1.14v.2c0,.56,0,1.11.06,1.6a.14.14,0,0,0,0,.06c0,.22,0,.44,0,.65,0,.41.07.79.11,1.11.16,1,.3,2,.51,3a11.9,11.9,0,0,0,.33,1.29c.29.56.57,1,.83,1.46a.49.49,0,0,0,.53.3q.08.16.15.36l.21.7a.86.86,0,0,0-.1.16,1.34,1.34,0,0,0,.15.79.73.73,0,0,0,.19.2c.07.05.13.11.2.15a.46.46,0,0,0,.16.23l.52.53q.15.16.3.3h0c.39.36.8.85,1.26,1.32a13.53,13.53,0,0,0,1.11,1,5.82,5.82,0,0,0,.93.57,2,2,0,0,0,.22.09l.33.27a.7.7,0,0,0,.64.55l.3,0h0a6.48,6.48,0,0,0,1,.26l.07.07a1,1,0,0,1,.19.38,2.77,2.77,0,0,1,.26,1,1,1,0,0,0,0,.17c0,.38,0,.8,0,1.27v.14a1.75,1.75,0,0,0,0,.24.44.44,0,0,0,0,.16v0a.88.88,0,0,1,0,.16,1.42,1.42,0,0,1,0,.2.46.46,0,0,0,0,.48l0,.24c-.05.64-.1,1.28-.15,1.84s0,1,0,1.32a.47.47,0,0,0,0,.4c0,.34-.07.68-.1,1.06s-.11,1-.15,1.46c0,.2,0,.38-.06.56a.9.9,0,0,0,.09.46s0,.06,0,.08c0,.42,0,.83.05,1.21s0,.57.06.82-.05.7-.09,1-.11.89-.17,1.36-.13,1.12-.19,1.64,0,1,0,1.5,0,1.07,0,1.47,0,.77,0,1.12a.49.49,0,0,0,.4.49h0c0,.38,0,.77,0,1.2s0,.84,0,1.23,0,1.06,0,1.63c0,.76,0,1.52,0,2.24v.41a.66.66,0,0,0-.08.32,7.28,7.28,0,0,1,0,.73c0,.45-.07.9-.12,1.36s-.08,1-.12,1.31-.05.48-.09.74c-.06,1.13,0,2.07,0,2.71s.12,1.06.19,1a.48.48,0,0,0,.3.81s0,0,0,.06c0,.62,0,1.21-.06,1.71,0,.31.08.55.11.74A1.81,1.81,0,0,0,297,74a1.6,1.6,0,0,0-.91.4,1.24,1.24,0,0,0-.11.23,1.67,1.67,0,0,1-.05.18c0,.09,0,.2-.05.3l-.06.11v0h0c0,.07-.05.15-.06.21a1.79,1.79,0,0,0,0,.52.58.58,0,0,0,.09.23v.06c0,.4,0,.93-.08,1.54,0,.4,0,.81-.05,1.25s0,.79-.09,1.28c-.06.8-.14,1.72-.22,2.51,0,.36,0,.67,0,.9-.07.78-.06,1.56-.07,2.22a21.92,21.92,0,0,0,.13,2.2c0,.1,0,.17.07.26-.08,1-.11,1.88-.15,2.74,0,.11,0,.27,0,.43v.25c0,.1,0,.2,0,.31a4,4,0,0,1,0,.49c0,.4-.15,1.07-.18,2,0,.27,0,.56,0,.85a.8.8,0,0,0,0,.15.36.36,0,0,0,0,.15.11.11,0,0,0,0,.09,2.11,2.11,0,0,1,0,.26.55.55,0,0,0,0,.18c0,.17,0,.36-.07.58s-.07.47-.1.76,0,.65,0,.89,0,.38,0,.62a2,2,0,0,0,.31.75h0a.88.88,0,0,0,.25.54,1,1,0,0,0,.09.55h0a3.78,3.78,0,0,0,.37.55,7.21,7.21,0,0,0,.59.64c0,.11.05.22.08.31a.49.49,0,0,0,.58.38l.05,0a2.43,2.43,0,0,0,.25.2,4.11,4.11,0,0,0,2,.45h0c.35,0,.69-.07,1-.11h0a.86.86,0,0,0,.44.42h0a1.71,1.71,0,0,0,.88.19,1.86,1.86,0,0,0,.72-.56,1,1,0,0,0,.06-.13,4.64,4.64,0,0,0,.69-.65,7,7,0,0,0,.64-.87l.09,0h0a1.84,1.84,0,0,0,.57-.55s0,0,0,0l.17-.25h0c.07-.22.16-.5.23-.79s.22-.87.3-1.34a10.51,10.51,0,0,0,0-1.58c0-.26-.05-.52-.08-.78l0,0a.74.74,0,0,0,.12-.55h0a1.43,1.43,0,0,1,0-.23c0-.27.09-.58.12-.89h0c0-.62,0-1.22,0-1.75,0-.3,0-.59,0-.88s0-.34-.05-.52,0-.17,0-.26,0-.4,0-.61.05-.63.11-1,.1-1,.18-1.66.08-1,.14-1.54.11-.9.13-1.32,0-.71,0-1.05.05-.43.07-.65h0c0-.15,0-.32.05-.49,0-.36.08-.77.1-1.19h0c0-.51,0-.94,0-1.31,0-.7,0-1.33,0-1.94s-.15-1-.22-1.46q-.07-.45-.15-.81a4.74,4.74,0,0,0-.07-.67,2.6,2.6,0,0,0-.12-.46s0-.11,0-.16a.17.17,0,0,0,0-.07l0,0a.77.77,0,0,0-.08-.28.13.13,0,0,1,0-.06.65.65,0,0,0-.09-.53c0-.36-.11-.68-.14-.92s0-.23,0-.29h0s0,0,0,0a.68.68,0,0,0-1.11-.62c0-.14,0-.28,0-.42,0-.72-.1-1.46-.15-2.2v-.1c0-.42.05-.86.05-1.27v-.07c0-.29,0-.58,0-.89s0-.87,0-1.45h0c0-.42,0-.88,0-1.36,0-.69,0-1.41-.06-2.13,0-.18,0-.37,0-.57,0-.51-.06-1-.1-1.56.06-.72.13-1.52.22-2.35,0-.43.09-.88.11-1.36,0-1.15,0-2.28,0-3.33,0-.21,0-.44,0-.68s0-.25,0-.38,0-.54.05-.82c0-.52.07-1,.13-1.4s.09-.81.11-1.26c0-.73,0-1.5,0-2.22,0-.47,0-.9,0-1.29a13.43,13.43,0,0,0-.17-1.79c-.09-.44-.16-.83-.21-1.16s0-.48,0-.66.06-.65.1-1a.24.24,0,0,0,0-.09.16.16,0,0,0,0-.07c0-.31.07-.62.1-.94,0-.53.11-1.06.15-1.55,0-.18,0-.33.05-.49a1.1,1.1,0,0,0,0-.16h0c.06-.3.14-.61.22-1s.14-.62.21-.93c0,0,.05-.07.06,0a.67.67,0,0,0,.14-.92c0-.17.07-.33.11-.47a4.14,4.14,0,0,1,.09-.42h0a.45.45,0,0,0,.11,0h0a2,2,0,0,0,.36-.08l.43-.19h0a7.57,7.57,0,0,0,.76-.53h0a0,0,0,0,1,0,0l.39-.34.08-.06a13,13,0,0,0,1.35-1.13c.53-.56,1-1.18,1.35-1.6a4.35,4.35,0,0,0,.32-.47,2.12,2.12,0,0,0,.41-.44h0c.15-.25.33-.6.53-1,.28-.7.66-1.59,1.06-2.44a13.89,13.89,0,0,0,.87-2,15.08,15.08,0,0,0,.35-1.67c.07-.45.11-.87.15-1.26,0-.09,0-.19.07-.29.11-.39.22-.79.32-1.22.21-1,.38-2,.53-2.94,0-.2.06-.41.08-.61s.1-.32.15-.5c.16-.84.3-1.94.49-2.93a11.47,11.47,0,0,0,.19-1.71c0-.24,0-.48,0-.71s.05-.46.07-.67,0-.63,0-.88c0-.52.06-.83.09-1.25A11.19,11.19,0,0,0,316,4.69ZM295.33,25.07s0,0,0,0h0Zm-2.55-14.93h0a.16.16,0,0,1,0,.07,5.94,5.94,0,0,1,.34,1.14c.1.45.18.88.25,1.33.08.67.19,1.17.23,1.76,0,.17,0,.36,0,.53s0,.16,0,.2c.09.68.18,1.48.25,2.15,0,.28.09.52.13.77s0,.39,0,.56,0,.36.05.59.05.37.06.5,0,.44.05.71,0,.42.05.62c0,.39,0,.7,0,1s-.06.59-.1,1a2.91,2.91,0,0,0,0,.31c-.05.43-.11.81-.18,1.17a6.78,6.78,0,0,1-.16-.83c-.11-.76-.23-1.45-.39-2.24s-.27-1.6-.35-2.38c0-.37-.11-.81-.17-1.22-.09-.57-.16-1-.2-1.47a19.7,19.7,0,0,1,0-2c0-.52,0-1.05-.05-1.54s0-.78,0-1.13a11.47,11.47,0,0,0,0-1.52Zm1.49,16.53Zm3.15,4.38a.33.33,0,0,1-.46.05,5.66,5.66,0,0,0-1-.56,2.28,2.28,0,0,0-.3-.17l-.41-.22a7.19,7.19,0,0,1-.81-.43l-.27-.19-.24-.16-.19-.12a2.06,2.06,0,0,1-.34-.26l-.26-.25a3,3,0,0,1-.24-.26c-.12-.13-.2-.25-.29-.36a2.18,2.18,0,0,1-.36-.65,1.7,1.7,0,0,1-.15-.22.47.47,0,0,1,.43-.49.46.46,0,0,1,.49.42s-.07.05-.09.09a.91.91,0,0,0,.26.36h0l.28.3.24.19.25.21a1.24,1.24,0,0,0,.24.16l.2.1.28.2.25.16a6.36,6.36,0,0,0,.72.39l.44.23.34.19c.26.21.58.48.95.83A.35.35,0,0,1,297.42,31.05Zm.83-28.54v0h-.15Zm-.11,13.73c0-.65.13-1.22.21-2,0-.51.07-1,.09-1.5s0-.77.07-1.11a9.55,9.55,0,0,0,.1-1.53.86.86,0,0,0,0-.16s0,0,0,0a1.19,1.19,0,0,1,.12.26A5.11,5.11,0,0,1,299,11.4c.07.45.1.87.13,1.32,0,.66.07,1.15.06,1.74,0,.16,0,.35,0,.52a1.21,1.21,0,0,0,0,.2c0,.66,0,1.45.05,2.12,0,.27,0,.51,0,.76s0,.38,0,.54,0,.36,0,.59,0,.36,0,.49,0,.43,0,.7,0,.41,0,.61a8.14,8.14,0,0,1-.06,1,7.33,7.33,0,0,1-.19.93c0,.09,0,.2-.06.3-.08.39-.17.73-.26,1.06a5.91,5.91,0,0,1-.08-.76c0-.75-.09-1.44-.17-2.22s-.12-1.58-.13-2.35c0-.36,0-.8-.06-1.21C298.17,17.12,298.14,16.69,298.14,16.24Zm.07,44.38.05-.06a.44.44,0,0,1,.07-.19c0-.35.06-.77.08-1.19,0-.62.08-1.1.09-1.77s0-1.41.05-2.12c0-.5,0-.95,0-1.49,0-.7.05-1.62.14-2.51a.33.33,0,1,1,.65.05c-.05.87,0,1.77,0,2.47,0,.55,0,1,0,1.49,0,.71,0,1.51,0,2.13s0,1.19-.09,1.81c0,.43-.1.86-.14,1.19a.39.39,0,0,1,0,.18l0,0a.45.45,0,0,1-.48.44A.46.46,0,0,1,298.21,60.62Zm3.91,37.88a2.34,2.34,0,0,1-.19.54,6,6,0,0,1-.65.86l-.33.33a1.79,1.79,0,0,1-.7.26l-.15.05a3.14,3.14,0,0,1-.42,0,2.05,2.05,0,0,1-.79-.41,1.82,1.82,0,0,1-.25-.54l-.08-.29a2.65,2.65,0,0,1-.07-.51v-.13c0-.17,0-.34,0-.47a4.27,4.27,0,0,1,.18-1c0-.07.05-.13.07-.19s0-.13,0-.16a2.3,2.3,0,0,1,.33-.77l.11-.07a2,2,0,0,1,.42-.37h.07a2.77,2.77,0,0,1,.31-.21,2.06,2.06,0,0,1,1,0,1.77,1.77,0,0,1,.74.66s.08.15.12.25a2.56,2.56,0,0,1,.17.83l.07.15A2.89,2.89,0,0,1,302.12,98.5Zm2.74-83.73c0,.17,0,.37-.06.55s0,.15,0,.2c0,.71-.09,1.56-.13,2.26,0,.29,0,.55,0,.82s0,.41,0,.58,0,.38-.05.62,0,.38,0,.52,0,.46-.08.74l-.06.65a9.45,9.45,0,0,1-.15,1,9.19,9.19,0,0,1-.28,1l-.09.31c-.13.44-.26.82-.4,1.19l0,.13a6,6,0,0,1,0-1c0-.8,0-1.53,0-2.37s0-1.7.06-2.52c0-.38,0-.85.05-1.28,0-.61,0-1.07.06-1.55a20.58,20.58,0,0,1,.38-2.08c.1-.54.16-1.09.23-1.59s.11-.81.18-1.18a10,10,0,0,0,.23-1.6,1.71,1.71,0,0,0,0-.32.37.37,0,0,1,.1.16,2.12,2.12,0,0,1,.11.29,6.49,6.49,0,0,1,.13,1.25c0,.48,0,.93,0,1.41C304.92,13.61,304.93,14.14,304.86,14.77Zm1.34-3.85a.07.07,0,0,1,0,.05,1.58,1.58,0,0,1,0,.37C306.23,11.2,306.21,11.06,306.2,10.92Zm.16,12.3h0l0,0Zm1.56,4.15,0-.14h.16Zm3-16c0,.49-.05.95-.1,1.43-.1.7-.12,1.24-.25,1.86,0,.17-.08.38-.1.55a1.14,1.14,0,0,0,0,.21c-.1.71-.23,1.56-.33,2.27,0,.29-.05.54-.08.82s-.06.41-.1.58-.07.38-.1.62-.05.38-.07.53-.1.45-.15.74-.08.43-.12.64a10,10,0,0,1-.23,1,9.7,9.7,0,0,1-.37.95c0,.1-.07.21-.11.31-.18.43-.34.81-.51,1.17,0,0,0,.09-.07.14h0a7.53,7.53,0,0,1,.05-1.06c.11-.81.17-1.55.22-2.39s.15-1.71.28-2.53c.06-.39.11-.86.16-1.3.06-.6.11-1.08.19-1.55a20.43,20.43,0,0,1,.57-2.07c.14-.53.25-1.08.36-1.58s.19-.81.28-1.17a11.88,11.88,0,0,0,.38-1.6v0l.06-.26a.22.22,0,0,1,.06.12,2.12,2.12,0,0,1,.09.31A6.6,6.6,0,0,1,310.92,11.39ZM314.14,7a.31.31,0,0,1-.3.34.32.32,0,0,1-.34-.3c-.07-.37-.17-.74-.27-1.09l-.06-.35Q313.1,5.24,313,5c0-.13,0-.16-.1-.23l-.18-.22-.15-.17-.13-.16a.86.86,0,0,0-.2-.13l-.34-.16a1.15,1.15,0,0,0-.28-.09l-.17,0h-.2a3.85,3.85,0,0,0-.8-.1c-.16,0-.35.05-.66.06l-.09.05a.46.46,0,1,1,0-.91s0,0,.06,0a6,6,0,0,1,.64-.19,4.27,4.27,0,0,1,1,.08h.15l.31.07a2.75,2.75,0,0,1,.41.11c.12.05.29.11.44.19a2.55,2.55,0,0,1,.4.27,2.88,2.88,0,0,1,.25.26l.15.18a3.42,3.42,0,0,1,.22.28,1.84,1.84,0,0,1,.26.59c.05.22.09.46.12.7l.06.38A11.84,11.84,0,0,1,314.14,7Z" transform="translate(0 0)" fill="#fff"/></svg>