<?xml version="1.0" encoding="utf-8"?>
<!-- Generator: Adobe Illustrator 16.0.0, SVG Export Plug-In . SVG Version: 6.00 Build 0)  -->
<!DOCTYPE svg PUBLIC "-//W3C//DTD SVG 1.1//EN" "http://www.w3.org/Graphics/SVG/1.1/DTD/svg11.dtd">
<svg version="1.1" id="Ebene_1" xmlns="http://www.w3.org/2000/svg" xmlns:xlink="http://www.w3.org/1999/xlink" x="0px" y="0px"
	 width="251.543px" height="227.43px" viewBox="0 0 251.543 227.43" enable-background="new 0 0 251.543 227.43"
	 xml:space="preserve">
<path fill="#FFFFFF" d="M251.5,85.459c-0.008-0.175,0.001-0.706-0.036-1.361c-0.052-0.721-0.134-1.392-0.206-1.961
	c-0.042-0.326-0.067-0.516-0.084-0.71c-0.011-0.11-0.001-0.515-0.059-1.259c-0.052-0.542-0.08-0.703-0.065-0.687
	c-0.037-0.603-0.063-1.563-0.171-2.62c-0.146-1.082-0.311-1.838-0.367-2.276c-0.194-0.63-0.391-1.384-0.611-2.199
	c-0.11-0.616-0.22-1.218-0.318-1.813c-0.262-1.297-0.522-3.191-0.855-5.074c-0.146-1.296-0.395-2.926-0.836-4.6
	c-0.011-0.057-0.021-0.112-0.032-0.167c-0.046-0.157-0.091-0.304-0.135-0.435c-0.108-0.373-0.227-0.747-0.356-1.119
	c-0.061-0.148-0.115-0.279-0.161-0.391c-0.038-0.115-0.077-0.234-0.119-0.354c-0.063-0.149-0.142-0.346-0.23-0.563
	c-0.21-0.584-0.399-1.089-0.56-1.541c-0.291-0.725-0.574-1.397-0.828-2.041c-0.534-1.322-1.295-3.169-2.228-4.99
	c-2.012-3.783-4.599-7.232-6.729-9.663c-0.042-0.046-0.083-0.093-0.124-0.14c-0.273-0.449-0.602-0.986-0.957-1.522
	c-0.582-0.862-1.132-1.592-1.625-2.261c-0.1-0.131-0.236-0.318-0.406-0.546c-0.002,0.007-0.029-0.042-0.229-0.358
	c-0.07-0.111-0.19-0.309-0.348-0.559c-0.105-0.188-0.219-0.373-0.34-0.555c-0.451-0.668-1.001-1.455-1.535-2.164
	c-0.371-0.49-0.717-0.921-0.949-1.217c-0.355-0.459-0.877-1.107-1.404-1.684c-1.211-1.297-2.479-2.342-3.377-3.074
	c-0.357-0.299-1.02-0.848-1.758-1.381c-0.508-0.354-0.869-0.586-1.024-0.702c-0.526-0.375-0.908-0.64-1.278-0.903
	c-0.217-0.145-0.582-0.406-1.028-0.709c-0.451-0.303-0.323-0.184-0.395-0.257c-0.42-0.353-0.964-0.849-1.523-1.366
	c-0.271-0.255-0.843-0.825-1.611-1.465c-0.517-0.418-1.08-0.874-1.614-1.285c-0.324-0.244-0.59-0.437-0.826-0.61
	c-0.287-0.218-0.523-0.392-0.715-0.54c-0.529-0.395-1.155-0.873-1.783-1.33c-0.588-0.431-1.086-0.774-1.504-1.072
	c-0.6-0.429-1.469-1.047-2.372-1.611c-1.64-1.018-3.209-1.863-4.728-2.735c-0.363-0.208-0.48-0.266-0.488-0.278
	c-0.372-0.236-0.783-0.52-1.324-0.875c-0.255-0.165-0.606-0.396-0.979-0.627c-0.727-0.444-1.564-0.912-2.232-1.248
	c-0.533-0.277-1.275-0.625-1.884-0.874c-0.935-0.369-1.665-0.594-2.141-0.771c-1.306-0.489-2.745-0.991-3.964-1.431
	c-0.717-0.258-1.151-0.421-1.752-0.69c-0.71-0.294-1.455-0.585-1.99-0.812c-0.32-0.131-0.699-0.285-1.068-0.425
	c-0.652-0.248-1.713-0.596-2.649-0.822c-1.284-0.281-2.851-0.503-4.036-0.607c-2.381-0.198-4.942-0.118-7.212-0.084
	c-3.143,0.064-6.565,0.092-10.806,0.795c-2.98,0.518-6.918,1.409-10.156,2.522c-2.144,0.769-3.988,1.584-5.744,2.302
	c-0.211,0.065-0.422,0.131-0.633,0.197c-2.318,0.742-5.318,1.791-7.908,3.002c-1.447,0.694-3.026,1.557-4.313,2.365
	c-2.947,1.857-5.292,3.828-7.613,5.602c-2.723,2.122-5.722,4.479-7.939,6.321c-1.706,1.394-3.637,3.032-5.486,5.098
	c-1.888,2.105-3.639,4.417-4.957,5.916c-1.561,1.946-2.545,3.386-3.561,4.657c-0.455,0.533-1.004,1.253-1.463,1.883
	c-0.191,0.286-0.391,0.58-0.572,0.859c-0.504,0.737-0.895,1.381-1.141,1.798c-0.342,0.522-0.813,1.266-1.234,2.022
	c-0.689,1.27-1.291,2.536-1.84,3.647c-1.09,2.022-2.491,4.396-3.701,6.413c-0.736,1.368-1.854,3.201-2.871,5.709
	c-0.803,2.107-1.43,4.486-1.914,6.385c-0.721,2.859-1.332,5.403-1.859,7.536c-0.634,2.499-1.081,5.753-1.141,8.847
	c-0.052,3.145,0.016,6.539,0.259,9.256c0.153,1.978,0.376,4.275,0.838,6.861c0.022,0.139,0.048,0.279,0.09,0.48
	c0.647,3.064,1.6,6.443,2.419,8.972c0.885,2.642,1.644,4.528,2.412,6.937c0.958,2.859,2.053,6.097,3.339,8.902
	c0.178,0.378,0.408,0.865,0.661,1.37c-0.655,0.576-1.302,1.165-1.89,1.662c-1.211,1.13-2.21,1.892-3.415,2.706
	c-1.426,1.148-2.769,2.025-4.609,3.109c-2.088,1.243-4.449,2.926-6.67,4.682c-2.637,2.029-5.467,4.446-8.056,6.531
	c-3.099,2.426-5.534,4.199-8.347,5.839c-1.448,0.833-3.298,1.849-5.297,3.224c-1.777,1.273-3.482,2.822-4.724,3.929
	c-3.679,3.438-5.901,5.013-8.746,6.39c-3.956,2.029-7.965,5.146-11.211,8.203c-1.588,1.496-2.777,2.607-4.259,3.715
	c-0.728,0.543-1.589,1.113-2.605,1.82c-2.066,1.529-4.034,2.949-6.131,4.701c-2.601,2.182-5.24,4.771-7.577,7.199
	c-1.263,1.34-2.691,2.788-3.891,4.088c-0.548,0.593-1.247,1.369-1.855,2.135c-0.991,1.31-1.973,3.028-2.51,4.173
	c-0.333,0.735-0.683,1.637-0.912,2.298c-0.283,0.818-0.637,1.944-0.906,2.992c-0.175,0.691-0.42,1.709-0.591,2.68
	c-0.16,1.033-0.219,2.08-0.236,2.457c-0.04,0.521-0.078,1.386-0.063,2.23c-0.01,0.434,0.069,2.402,0.729,4.775
	c0.572,1.35,2.29,3.732,3.513,4.813c0.591,0.313,1.139,0.579,1.644,0.811c0.037,0.047,0.142,0.136,0.364,0.307
	c0.108,0.088,0.62,0.483,1.348,0.96c0.783,0.507,1.965,1.103,2.664,1.405c1.94,0.622,4.339,0.852,5.176,0.877
	c-0.454-0.008,0.128,0.047,1.425,0.001c1.658-0.192,2.966-0.544,3.154-0.585c1.119-0.272,2.462-0.705,3.421-1.064
	c0.19-0.063,0.709-0.241,1.38-0.518c1.338-0.614,2.511-1.314,3.036-1.613c-0.229,0.132,0.178-0.049,1.084-0.586
	c1.18-0.782,2.256-1.673,2.747-2.087c1.993-1.741,3.289-3.236,4.249-4.163c0.698-0.684,1.313-1.289,1.993-1.912
	c0.48-0.415,0.843-0.726,1.201-1.007c0.22-0.167,0.454-0.313,0.94-0.668c0.256-0.192,0.525-0.39,0.813-0.603
	c0.713-0.537,1.168-0.916,1.3-0.996c0.113-0.09,0.581-0.402,1.368-1.013c0.375-0.296,0.773-0.62,1.068-0.863
	c2.267-1.919,3.843-3.919,4.767-5.027c1.565-2.005,3.459-4.466,5.293-6.47c1.215-1.572,3.547-3.303,6.179-6.289
	c0.117-0.147,0.217-0.29,0.33-0.436c0.16-0.102,0.316-0.211,0.468-0.332c0.172-0.139,0.334-0.287,0.484-0.441
	c0.041-0.033,0.07-0.055,0.099-0.068c0.035-0.019,0.06-0.025,0.134-0.08c-0.05,0.031,0.498-0.332,1.342-1.537
	c0.137-0.122,0.264-0.241,0.385-0.356c-0.302,0.604-0.289,0.607-0.129,0.464c0.25-0.229,0.518-0.467,0.801-0.71
	c0.222-0.188,0.52-0.421,0.914-0.761c0.327-0.273,0.703-0.592,1.1-0.943c0.221-0.209,0.336-0.326,0.375-0.371
	c0.559-0.441,1.164-1.018,1.549-1.42c0.177-0.191,0.407-0.441,0.63-0.695c0.556-0.645,0.912-1.143,1.126-1.404
	c0.395-0.496,0.76-0.965,1.13-1.42c0.597-0.732,1.347-1.558,2.185-2.578c0.328-0.4,0.57-0.717,0.753-0.926
	c0.441-0.516,0.826-0.945,1.275-1.473c0.085-0.101,0.169-0.199,0.251-0.297c0.177-0.144,0.348-0.286,0.502-0.418
	c0.262-0.238,0.646-0.58,1.134-1.034c0.345-0.317,0.64-0.614,0.837-0.81c1.294-1.227,2.481-2.27,3.633-3.234
	c0.434-0.367,1.137-0.885,1.967-1.644c1.263-1.19,2.341-2.558,3.164-3.499c1.73-2.017,2.777-2.979,4.586-4.223
	c1.045-0.732,2.385-1.653,3.962-2.863c1.831-1.303,3.839-2.835,5.684-4.536c2.885-2.687,5.33-5.347,6.8-6.698
	c0.957-0.858,1.318-1.211,1.729-1.424c0,0,0,0,0.001,0c2.482,1.536,4.246,2.232,5.413,3.119c1.779,1.379,4.339,3.283,7.303,4.781
	c2.488,1.156,4.916,2.36,6.981,3.403c2.73,1.444,5.82,3.046,9.034,4.151c1.246,0.421,2.65,0.851,3.922,1.189
	c2.777,0.699,5.258,0.969,6.908,1.353c0.458,0.106,1.155,0.32,2.101,0.544c1.617,0.375,3.969,0.871,6.263,1.081
	c3.955,0.3,7.434,0.23,10.777,0.05c2.97-0.127,7.007-0.443,10.344-1.001c2.869-0.495,5.267-1.069,7.902-1.591
	c0.792-0.158,1.965-0.383,3.155-0.705c1.815-0.508,3.622-1.054,5.26-1.648c1.72-0.665,3.322-1.561,4.737-2.424
	c0.515-0.176,1.01-0.349,1.482-0.516c3.221-1.041,7.184-2.614,10.363-4.736c3.303-2.427,5.822-5.074,7.765-6.628
	c0.772-0.649,1.618-1.391,2.496-2.227c0.249-0.157,0.509-0.324,0.769-0.498c0.481-0.328,0.917-0.646,1.238-0.874
	c0.52-0.365,1.176-0.845,1.743-1.305c0.53-0.439,1.04-0.912,1.383-1.238c0.571-0.535,1.313-1.289,1.901-1.955
	c0.812-0.916,1.738-2.083,2.595-3.355c0.146-0.229,0.217-0.346,0.237-0.382c0.074-0.101,0.182-0.24,0.357-0.475
	c0.277-0.371,0.424-0.57,0.584-0.751c0.27-0.337,0.656-0.718,1.223-1.353c0.433-0.494,0.631-0.757,0.691-0.822
	c0.441-0.433,1.45-1.444,2.395-2.712c0.402-0.543,0.717-1.009,0.928-1.286c0.214-0.286,0.438-0.589,0.646-0.87
	c0.221-0.328,0.473-0.699,0.728-1.096c0.493-0.781,0.975-1.58,1.418-2.33c0.612-1.013,1.378-2.351,2.006-3.675
	c0.681-1.461,1.026-2.378,1.419-3.046c0.1-0.18,0.305-0.539,0.538-1.01c0.152-0.303,0.341-0.614,0.644-1.193
	c0.22-0.413,0.519-0.998,0.78-1.563c0.174-0.377,0.339-0.769,0.454-1.038c0.281-0.74,0.565-1.57,0.815-2.298
	c0.086-0.255,0.21-0.612,0.334-0.996c0.191-0.593,0.328-1.075,0.43-1.411c0.231-0.746,0.534-1.793,0.766-2.83
	c0.506-2.658,0.347-3.678,0.583-3.852c0.221-0.734,0.364-1.389,0.445-1.834c0.118-0.683,0.182-1.154,0.231-1.436
	c0.491-2.229,0.895-4.627,0.994-7.038C251.558,87.936,251.502,86.665,251.5,85.459z M8.924,225.141
	c-0.469-0.191-0.872-0.365-1.241-0.527C8.886,225.069,9.414,225.176,8.924,225.141z M20.817,221.98
	c-0.306,0.366-0.809,0.656-1.301,0.871c-0.201,0.084-0.447,0.177-0.706,0.259c-0.256,0.08-0.563,0.161-0.88,0.228
	c-0.207,0.051-0.448,0.102-0.684,0.143c-0.237,0.042-0.508,0.078-0.774,0.105c-0.403-0.005-0.865-0.032-1.338-0.083
	c-0.154-0.009-0.324-0.026-0.488-0.044c-0.002,0-0.003,0.001-0.005,0.001c-0.008-0.001-0.015-0.006-0.022-0.007
	c-0.322-0.066-0.669-0.142-1.023-0.23c-0.23-0.033-0.423-0.156-0.562-0.322c-0.349-0.077-0.583-0.413-0.522-0.769
	c0.059-0.351,0.381-0.583,0.73-0.551c0.175-0.113,0.385-0.174,0.607-0.142c0.347,0.008,0.656,0.003,0.961-0.013
	c0.15,0.009,0.288,0.013,0.429,0.016c0.421-0.006,0.775-0.034,1.12-0.078c0.231,0.002,0.425-0.004,0.626-0.015
	c0.204-0.012,0.372-0.027,0.549-0.051c0.259-0.048,0.469-0.101,0.682-0.164c0.211-0.057,0.386-0.114,0.563-0.178
	c0.424-0.144,0.58-0.194,0.506-0.136c0.32-0.422,0.922-0.506,1.345-0.188C21.053,220.954,21.138,221.556,20.817,221.98z
	 M88.134,139.15c-0.814,0.861-1.382,1.566-2.021,2.173c-0.579,0.484-1.175,0.908-1.73,1.315c-0.588,0.392-1.161,0.768-1.69,1.147
	c-0.646,0.464-1.235,0.915-1.723,1.296c-0.302,0.233-0.555,0.439-0.799,0.637c-0.424,0.356-0.85,0.729-1.419,1.113
	c-0.414,0.279-0.904,0.586-1.415,0.869c-1.1,0.635-2.192,1.153-2.674,1.585c-0.152,0.124-0.261,0.244-0.433,0.411
	c-0.096,0.096-0.211,0.215-0.334,0.328c-0.215,0.208-0.424,0.388-0.634,0.563c-0.225,0.197-0.483,0.403-0.743,0.608
	c-0.514,0.322-1.083,0.655-1.579,0.946c-0.765,0.438-1.453,0.84-2.161,1.16c-0.197,0.092-0.389,0.176-0.559,0.257
	c-0.012,0.009-0.021,0.018-0.031,0.026c-0.077,0.16-0.185,0.308-0.346,0.404c-0.143,0.083-0.278,0.164-0.386,0.223
	c-0.443,0.239-0.985,0.066-1.212-0.387c-0.225-0.451-0.05-1.011,0.394-1.248c0.072-0.042,0.177-0.103,0.315-0.186
	c0.163-0.097,0.34-0.119,0.514-0.107c0.019-0.008,0.034-0.014,0.053-0.021c0.185-0.124,0.379-0.241,0.552-0.352
	c0.577-0.385,1.139-0.846,1.849-1.396c0.467-0.354,0.977-0.731,1.417-1.088c0.265-0.17,0.501-0.325,0.718-0.478
	c0.206-0.15,0.368-0.273,0.56-0.433c0.087-0.074,0.184-0.167,0.297-0.271c0.14-0.133,0.319-0.319,0.56-0.517
	c0.751-0.57,1.958-1.108,3.011-1.674c0.47-0.264,0.894-0.529,1.277-0.79c0.474-0.323,0.809-0.632,1.245-1.006
	c0.237-0.21,0.505-0.445,0.818-0.705c0.498-0.399,1.118-0.883,1.78-1.369c0.559-0.411,1.155-0.812,1.734-1.208
	c0.594-0.368,1.163-0.706,1.713-1.1c0.001-0.001,0.002-0.002,0.003-0.003c0.002-0.002,0.005-0.002,0.008-0.004
	c0.647-0.396,1.289-0.933,2.235-1.689c0.263-0.239,0.662-0.219,0.895,0.048C88.422,138.497,88.396,138.91,88.134,139.15z
	 M234.952,85.221c0,0.07,0,0.117,0,0.152c0,0.062,0,0.111,0,0.152c0,0.044,0,0.094,0,0.15c-0.01,0.338-0.035,0.563-0.043,0.643
	c0.002,0.021,0.003,0.076,0.004,0.174c-0.001,0.029,0,0.095,0,0.188c-0.002,0.061-0.008,0.134-0.017,0.216
	c0.001,0.076,0,0.12-0.001,0.132c0.002,0.121,0.001,0.209,0.002,0.227c-0.001,0.111,0,0.211,0,0.338c0,0.057,0,0.116,0,0.174
	c-0.002,0.255-0.014,0.43-0.015,0.52c-0.001,0.025,0.001,0.078,0.001,0.187c0,0.101,0,0.185,0,0.261c0,0.084,0,0.166,0,0.238
	c0,0.251,0.005,0.647-0.021,1.059c-0.021,0.242-0.05,0.436-0.065,0.537c-0.014,0.207-0.027,0.332-0.033,0.398
	c-0.016,0.195-0.033,0.369-0.045,0.521c-0.002,0.254-0.014,0.437-0.021,0.521s-0.021,0.175-0.036,0.266
	c-0.026,0.334-0.062,0.551-0.067,0.592c-0.021,0.152-0.045,0.324-0.074,0.514c-0.011,0.067-0.021,0.13-0.029,0.178
	c-0.025,0.154-0.053,0.296-0.059,0.331c-0.004,0.009-0.01,0.059-0.032,0.207c-0.029,0.19-0.065,0.38-0.089,0.503
	c-0.007,0.033-0.016,0.084-0.029,0.151c-0.039,0.179-0.071,0.308-0.093,0.39c-0.051,0.252-0.133,0.555-0.196,0.734
	c-0.027,0.074-0.057,0.15-0.082,0.211c-0.007,0.025-0.024,0.081-0.056,0.174c-0.05,0.138-0.086,0.228-0.105,0.275
	c-0.04,0.152-0.06,0.229-0.083,0.316c0.008,0.334,0.002,0.539,0.002,0.567c-0.001-0.015,0,0.042-0.001,0.172
	c-0.001-0.003,0.001,0.04,0.001,0.143c-0.002,0.134-0.027,0.429-0.076,0.734c0,0.022-0.005,0.085-0.014,0.192
	c-0.052,0.33-0.112,0.566-0.114,0.577c-0.005,0.022-0.022,0.132-0.067,0.328c-0.018,0.074-0.035,0.146-0.048,0.195
	c-0.042,0.156-0.071,0.249-0.075,0.262c-0.055,0.208-0.068,0.26-0.086,0.356c-0.002,0.006-0.006,0.037-0.022,0.139
	c-0.005,0.018-0.019,0.158-0.06,0.406c-0.02,0.104-0.039,0.188-0.053,0.245c-0.002,0.052-0.014,0.161-0.036,0.339
	c-0.034,0.18-0.065,0.313-0.081,0.373c-0.008,0.053-0.035,0.207-0.092,0.439c-0.031,0.115-0.064,0.221-0.088,0.291
	c-0.085,0.32-0.19,0.623-0.243,0.771c-0.058,0.16-0.14,0.361-0.208,0.515c-0.137,0.321-0.279,0.597-0.369,0.746
	c-0.006,0.013-0.031,0.062-0.084,0.155c0.002-0.006-0.021,0.043-0.088,0.168c-0.126,0.226-0.214,0.359-0.207,0.353
	c-0.066,0.081-0.096,0.212-0.219,0.595c-0.111,0.345-0.25,0.752-0.402,1.176c-0.068,0.189-0.146,0.413-0.232,0.641
	c-0.063,0.161-0.117,0.283-0.146,0.35c-0.01,0.031-0.029,0.094-0.063,0.189c-0.063,0.164-0.114,0.282-0.118,0.293
	c-0.324,0.749-0.651,1.284-0.92,1.783c-0.216,0.397-0.492,0.945-0.822,1.516c-0.152,0.261-0.342,0.568-0.518,0.83
	c-0.055,0.082-0.155,0.232-0.276,0.398c-0.095,0.128-0.285,0.373-0.485,0.596c-0.135,0.146-0.235,0.241-0.242,0.248
	c-0.01,0.008-0.046,0.053-0.189,0.206c-0.201,0.208-0.338,0.352-0.492,0.523c-0.038,0.042-0.076,0.091-0.17,0.208
	c-0.131,0.162-0.188,0.222-0.217,0.263c-0.027,0.036-0.055,0.073-0.094,0.126c-0.098,0.131-0.206,0.28-0.305,0.408
	c-0.322,0.418-0.773,1.098-1.338,1.796c-0.541,0.645-1.206,1.229-1.676,1.599c-0.389,0.297-0.699,0.605-1.119,1.098
	c-0.158,0.185-0.33,0.385-0.519,0.598c-0.063,0.1-0.13,0.201-0.198,0.305c-1.088,1.697-2.206,3.69-3.324,5.61
	c-0.828,1.004-1.686,1.979-2.598,2.955c-0.932,1.013-1.812,1.788-2.859,2.657c-0.373,0.303-0.846,0.639-1.465,1.12
	c-0.097,0.048-0.215,0.106-0.375,0.185c-0.277,0.138-0.855,0.389-1.547,0.738c-0.896,0.469-1.721,0.983-2.307,1.352
	c-0.854,0.56-1.514,1.044-2.241,1.508c-0.222,0.143-0.501,0.306-0.874,0.525c-2.482,1.455-5.116,2.949-7.922,4.611
	c-0.145,0.084-0.286,0.174-0.424,0.266c-1.767,1.057-3.122,1.738-4.998,2.45c-2.168,0.791-4.666,1.616-6.826,2.243
	c-1.688,0.259-3.236,0.492-4.869,0.673c-2.115,0.246-4.499,0.289-6.901,0.31c-2.831,0.018-5.252,0.033-7.87,0.05
	c-4.842,0.04-9.543-0.286-13.336-0.676c-3.068-0.327-6.057-0.743-8.69-1.368c-0.202-0.049-0.401-0.1-0.599-0.154
	c-0.545-0.24-0.967-0.456-1.313-0.717c-0.4-0.232-1.127-0.969-2.53-1.995c-0.939-0.641-1.637-1.003-1.849-1.146
	c-0.011-0.002-0.09-0.077-0.299-0.254c-0.059-0.025-0.122-0.052-0.187-0.079c-0.075-0.032-0.131-0.057-0.177-0.074
	c-0.093-0.038-0.139-0.052-0.221-0.076c-0.08-0.025-0.18-0.05-0.299-0.089c-0.072-0.021-0.126-0.04-0.166-0.053
	c-0.105-0.033-0.199-0.065-0.287-0.098c-0.09-0.033-0.174-0.065-0.25-0.092c-0.148-0.051-0.273-0.087-0.424-0.136
	c-0.147-0.05-0.224-0.085-0.284-0.097c-0.022-0.006-0.114-0.021-0.235-0.059c-0.213-0.072-0.354-0.14-0.457-0.176
	c-0.061-0.022-0.186-0.072-0.313-0.133c-0.066-0.032-0.115-0.059-0.152-0.074c-0.103-0.047-0.177-0.084-0.241-0.113
	c-0.058-0.027-0.179-0.077-0.317-0.158c-0.075-0.047-0.109-0.072-0.121-0.077c-0.074-0.04-0.172-0.091-0.275-0.156
	c-0.1-0.065-0.148-0.104-0.186-0.124c-0.097-0.059-0.183-0.113-0.27-0.163c-0.064-0.037-0.108-0.065-0.135-0.079
	c-0.023-0.014-0.084-0.05-0.141-0.088c-0.131-0.094-0.266-0.196-0.377-0.286c-0.044-0.04-0.182-0.129-0.339-0.295
	c-0.097-0.07-0.194-0.138-0.29-0.212c-0.077-0.063-0.109-0.094-0.116-0.102c-0.03-0.021-0.095-0.066-0.155-0.119
	c-0.094-0.093-0.17-0.184-0.222-0.242c-0.042-0.016-0.081-0.031-0.112-0.049c-0.14-0.088-0.255-0.17-0.326-0.219
	c-0.012-0.01-0.096-0.062-0.195-0.144c-0.045-0.04-0.107-0.126-0.169-0.232c-0.055-0.06-0.128-0.134-0.202-0.218
	c-0.098-0.106-0.162-0.15-0.25-0.225c-0.112-0.094-0.141-0.117-0.164-0.137c-0.053-0.046-0.203-0.154-0.359-0.311
	c0.007,0.006-0.028-0.025-0.088-0.08c-0.063-0.058-0.081-0.079-0.084-0.079c-0.018-0.015-0.078-0.05-0.175-0.125
	c-0.093-0.075-0.178-0.147-0.251-0.209c-0.117-0.101-0.271-0.236-0.402-0.393c-0.039-0.017-0.076-0.035-0.105-0.051
	c-0.139-0.081-0.244-0.146-0.324-0.19c-0.051-0.029-0.094-0.053-0.133-0.075c-0.131-0.075-0.307-0.167-0.465-0.276
	c-0.074-0.053-0.112-0.085-0.125-0.096c-0.053-0.031-0.129-0.075-0.215-0.132c-0.06-0.04-0.151-0.103-0.236-0.17
	c-0.057-0.046-0.105-0.089-0.139-0.118c-0.086-0.075-0.139-0.129-0.174-0.153c-0.012-0.001-0.086-0.052-0.148-0.104
	c-0.034-0.034-0.092-0.119-0.146-0.223c0.047,0.098,0.078,0.141,0.084,0.146c-0.092-0.078-0.161-0.147-0.201-0.186
	c-0.089-0.035-0.15-0.072-0.197-0.105c-0.115-0.088-0.24-0.174-0.362-0.271c-0.036-0.03-0.069-0.061-0.104-0.089
	c-0.078-0.067-0.119-0.108-0.143-0.124c-0.061-0.045-0.184-0.15-0.281-0.26c-0.063-0.072-0.092-0.11-0.102-0.123
	c-0.028-0.022-0.098-0.078-0.163-0.139c-0.087-0.082-0.194-0.186-0.29-0.279c-0.076-0.074-0.181-0.169-0.293-0.293
	c-0.063-0.07-0.109-0.121-0.155-0.168c-0.079-0.069-0.11-0.104-0.106-0.096c-0.088-0.063-0.167-0.131-0.216-0.174
	c-0.091-0.08-0.222-0.199-0.335-0.344c-0.092-0.102-0.15-0.167-0.207-0.224c-0.085-0.086-0.207-0.202-0.324-0.37
	c0.026,0.028-0.018-0.018-0.087-0.133c-0.058-0.068-0.135-0.16-0.205-0.262c-0.025-0.038-0.045-0.07-0.06-0.095
	c-0.133-0.116-0.227-0.213-0.293-0.302c-0.028-0.043-0.063-0.119-0.094-0.209c-0.053-0.078-0.122-0.174-0.188-0.284
	c-0.077-0.09-0.11-0.132-0.134-0.162c-0.098-0.076-0.142-0.124-0.165-0.153c-0.05-0.063-0.11-0.136-0.169-0.211
	c-0.082-0.104-0.199-0.248-0.295-0.41c-0.037-0.052-0.064-0.088-0.109-0.139c-0.038-0.039-0.072-0.081-0.125-0.156
	c-0.063-0.104-0.096-0.164-0.111-0.186c-0.01-0.014-0.045-0.057-0.095-0.133c-0.022-0.035-0.048-0.075-0.073-0.115
	c-0.076-0.119-0.09-0.14-0.104-0.16c-0.076-0.105-0.095-0.145-0.091-0.134c-0.053-0.06-0.133-0.171-0.207-0.308
	c-1.129-1.361-2.247-3.16-3.494-5.157c-1.571-2.351-2.736-3.63-3.531-5.077c-0.866-1.441-1.624-3.617-2.469-6.184
	c-1.014-3.129-1.869-5.167-2.471-7.102c-0.11-0.32-0.213-0.646-0.309-0.986c-0.168-0.482-0.322-0.965-0.467-1.427
	c-0.059-0.188-0.077-0.267-0.078-0.261c-0.02-0.055-0.053-0.131-0.115-0.303c-0.008-0.032-0.24-0.645-0.34-1.446
	c0-0.081-0.001-0.147,0-0.198c-0.023-0.105-0.047-0.212-0.074-0.318c0.002,0.002-0.052-0.195-0.1-0.462
	c-0.037-0.237-0.063-0.478-0.079-0.634c-0.015-0.132-0.03-0.306-0.04-0.455c-0.022-0.4-0.02-0.777-0.02-1.057
	c0-0.07,0-0.142,0-0.213c-0.173-0.598-0.206-0.932-0.207-0.903c-0.055-0.39-0.098-0.86-0.127-1.237
	c-0.014-0.162-0.032-0.422-0.037-0.691c-0.004-0.279-0.001-0.558-0.001-0.797c0-0.342-0.002-0.691,0-1.013
	c0.001-0.172-0.001-0.351,0-0.567c-0.001-0.085-0.003-0.116-0.007-0.159c-0.004-0.09-0.039-0.353-0.052-0.724
	c-0.004-0.249,0.003-0.398,0-0.443c-0.003-0.154-0.01-0.328-0.015-0.532c-0.008-0.382-0.02-0.714-0.047-1.003
	c-0.005-0.052-0.021-0.185-0.035-0.369c-0.012-0.178-0.018-0.308-0.029-0.445c-0.002-0.039-0.008-0.107-0.016-0.195
	c-0.029-0.188-0.076-0.375-0.123-0.639c-0.023-0.186-0.033-0.295-0.033-0.334c-0.008-0.031-0.016-0.067-0.023-0.108
	c-0.012-0.061-0.027-0.147-0.04-0.231c-0.027-0.172-0.028-0.201-0.03-0.2c-0.002-0.013-0.055-0.233-0.1-0.522
	c-0.026-0.203-0.044-0.396-0.057-0.527c-0.018-0.178-0.031-0.34-0.044-0.467c-0.015-0.161-0.039-0.447-0.044-0.74
	c-0.002-0.197-0.001-0.397-0.001-0.568c0-0.309,0-0.617,0-0.889c0-0.178,0-0.34,0-0.515c0.001-0.138,0.003-0.2,0.001-0.208
	c-0.002-0.098-0.008-0.341,0.004-0.6c0.008-0.144,0.014-0.221,0.014-0.244c0.005-0.127,0.009-0.269,0.016-0.434
	c0.006-0.156,0.012-0.258,0.012-0.369c0.002-0.318-0.001-0.705,0-1.14c0-0.505-0.006-1.13,0.037-1.712
	c0.063-0.649,0.195-1.22,0.267-1.55c0.132-0.601,0.247-1.287,0.46-2.247c0.082-0.361,0.172-0.707,0.238-0.975
	c0.124-0.497,0.261-0.992,0.402-1.424c0.211-0.637,0.409-1.157,0.607-1.834c0.297-0.992,0.721-2.102,1.077-2.889
	c0.226-0.494,0.378-0.828,0.573-1.325c0.123-0.308,0.234-0.618,0.354-0.965c0.264-0.769,0.59-1.636,0.941-2.36
	c0.056-0.111,0.229-0.473,0.473-0.856c0.039-0.06,0.072-0.11,0.113-0.173c0.061-0.092,0.043-0.063,0.088-0.156
	c0.027-0.054,0.078-0.178,0.174-0.382c0.137-0.293,0.266-0.582,0.41-0.925c0.301-0.711,0.734-1.671,1.235-2.463
	c0.357-0.543,0.633-0.883,0.776-1.114c0.334-0.515,0.646-1.068,1.041-1.827c0.476-0.916,1.075-1.955,1.723-2.804
	c0.628-0.81,1.189-1.481,1.635-2.183c0.307-0.473,0.699-1.157,1.183-1.805c0.153-0.202,0.431-0.558,0.761-0.9
	c0.012-0.015,0.075-0.086,0.172-0.189c0.145-0.162,0.199-0.238,0.316-0.395c0.063-0.081,0.164-0.225,0.305-0.404
	c0.242-0.307,0.477-0.588,0.689-0.854c0.482-0.604,1.063-1.31,1.624-1.917c0.184-0.195,0.295-0.301,0.354-0.369
	c0.13-0.159,0.232-0.271,0.344-0.376c0.258-0.238,0.422-0.364,0.419-0.367c0.092-0.084,0.188-0.173,0.288-0.263
	c0.182-0.163,0.326-0.301,0.518-0.491c0.426-0.424,0.833-0.839,1.315-1.36c0.427-0.46,0.992-1.09,1.558-1.636
	c0.588-0.56,1.155-0.996,1.566-1.319c0.74-0.58,1.326-1.105,2.208-1.91c0.431-0.393,0.935-0.883,1.386-1.302
	c0.307-0.284,0.627-0.573,0.929-0.822c0.565-0.464,1.067-0.829,1.554-1.181c0.111-0.078,0.18-0.124,0.201-0.138
	c0.125-0.094,0.268-0.198,0.41-0.298c0.072-0.05,0.111-0.074,0.127-0.084c0.08-0.063,0.152-0.117,0.215-0.166
	c0.176-0.133,0.316-0.228,0.388-0.277c0.099-0.068,0.137-0.094,0.126-0.087c0.072-0.052,0.133-0.105,0.303-0.236
	c0.037-0.028,0.096-0.075,0.178-0.14c0.039-0.04,0.137-0.131,0.273-0.25c0.058-0.064,0.137-0.15,0.223-0.238
	c0.141-0.129,0.236-0.211,0.279-0.246c0.068-0.065,0.175-0.166,0.292-0.272c0.157-0.141,0.29-0.251,0.353-0.303
	c0.072-0.062,0.15-0.125,0.219-0.181c0.078-0.064,0.164-0.133,0.242-0.195c0.063-0.049,0.172-0.135,0.285-0.221
	c0.182-0.112,0.275-0.168,0.292-0.168c0.189-0.148,0.366-0.268,0.497-0.338c0.123-0.057,0.189-0.086,0.203-0.09
	c0.177-0.09,0.412-0.193,0.57-0.252c0.13-0.045,0.182-0.061,0.176-0.057c0.252-0.099,0.377-0.137,0.434-0.158
	c0.011-0.002,0.143-0.053,0.335-0.113c0.21-0.063,0.28-0.083,0.362-0.111c0.143-0.049,0.326-0.107,0.494-0.157
	c0.039-0.011,0.074-0.021,0.108-0.028c0.155-0.1,0.312-0.196,0.47-0.291c0.832-0.5,1.531-0.854,2.578-1.32
	c1.707-0.784,3.697-1.424,5.803-2.053c1.588-0.479,2.818-0.801,4.246-1.113c0.891-0.193,1.686-0.346,2.706-0.516
	c1.425-0.259,3.109-0.475,4.915-0.707c1.814-0.242,3.398-0.383,5.211-0.501c3.001-0.19,5.832-0.288,8.259,0.008
	c2.259,0.192,3.685,0.682,6.188,1.401c4.229,1.281,7.893,2.16,10.324,3.547c2.959,1.5,6.211,4.018,9.839,6.62
	c3.22,2.288,6.031,4.228,8.776,6.045c2.694,1.835,5.109,3.288,6.883,5.169c2.578,2.553,4.655,5.572,7.334,8.628
	c0.208,0.233,0.412,0.466,0.628,0.736c0.616,1.35,1.387,4.074,2.534,7.056c0.824,2.043,1.75,3.883,2.439,5.293
	c0.422,0.896,0.646,1.291,0.795,1.712c0.039,0.099,0.074,0.192,0.108,0.288c0.091,0.143,0.195,0.322,0.265,0.456
	c0.097,0.196,0.166,0.357,0.211,0.463c0.044,0.06,0.119,0.163,0.213,0.306c0.113,0.178,0.25,0.421,0.337,0.591
	c0.146,0.321,0.241,0.597,0.277,0.706c0.007,0.018,0.022,0.057,0.049,0.125c0.063,0.173,0.13,0.365,0.177,0.512
	c0.029,0.096,0.055,0.188,0.075,0.262c0.013,0.037,0.044,0.117,0.085,0.236c0.043,0.127,0.072,0.225,0.09,0.283
	c0.013,0.027,0.029,0.064,0.051,0.113c0.035,0.082,0.095,0.226,0.146,0.363c0.008,0.022,0.071,0.196,0.174,0.716
	c-0.049-0.282-0.045-0.298,0.039-0.013c0.014,0.053,0.023,0.095,0.031,0.127c0.203,0.392,0.293,0.63,0.293,0.631
	c0.062,0.166,0.107,0.334,0.138,0.502c0.011,0.064,0.021,0.122,0.026,0.18c0.066,0.162,0.054,0.133-0.005-0.148
	c0.031,0.09,0.069,0.203,0.106,0.317c0.07,0.234,0.123,0.464,0.143,0.55c0.03,0.141,0.061,0.304,0.082,0.424
	c0.027,0.162,0.049,0.315,0.063,0.41c0.003,0.015,0.017,0.075,0.042,0.208c0.039,0.233,0.063,0.43,0.075,0.524
	c0.003,0.012,0.023,0.119,0.053,0.316c0.025,0.204,0.039,0.391,0.046,0.48c0.009,0.105,0.018,0.215,0.026,0.327
	c0.005,0.062,0.007,0.107,0.009,0.141c0.002,0.013,0.021,0.064,0.072,0.225c-0.031-0.093,0.025,0.073,0.094,0.343
	c0.041,0.193,0.079,0.444,0.102,0.633c0.014,0.08,0.027,0.129,0.046,0.191c0.005,0.016,0.048,0.154,0.104,0.383
	c0.033,0.152,0.063,0.324,0.08,0.428c-0.008-0.027,0.011,0.042,0.047,0.238c0.037,0.242,0.051,0.414,0.053,0.424
	c-0.002,0,0.004,0.02,0.027,0.169c0.036,0.261,0.051,0.41,0.055,0.45c0.007,0.015,0.055,0.201,0.113,0.527
	c0.051,0.31,0.074,0.571,0.09,0.691c0.006,0.051,0.01,0.078,0.023,0.157c0.012,0.083,0.035,0.187,0.072,0.362
	c0.021,0.099,0.038,0.193,0.053,0.273c0,0.002,0.01,0.043,0.035,0.157c0.025,0.142,0.046,0.315,0.059,0.486
	c0.006,0.003,0.016,0.068,0.035,0.206c0.012,0.105,0.036,0.293,0.057,0.502c0.019,0.215,0.026,0.44,0.028,0.558
	c0.001,0.123-0.001,0.204-0.003,0.253c0.006,0.054,0.012,0.102,0.016,0.142c0.046,0.261,0.075,0.581,0.08,0.706
	c0.002,0.064,0.014,0.259,0.016,0.501C234.952,85.156,234.952,85.202,234.952,85.221z"/>
</svg>
