<?xml version="1.0" encoding="utf-8"?>
<!-- Generator: Adobe Illustrator 16.0.0, SVG Export Plug-In . SVG Version: 6.00 Build 0)  -->
<!DOCTYPE svg PUBLIC "-//W3C//DTD SVG 1.1//EN" "http://www.w3.org/Graphics/SVG/1.1/DTD/svg11.dtd">
<svg version="1.1" id="Ebene_1" xmlns="http://www.w3.org/2000/svg" xmlns:xlink="http://www.w3.org/1999/xlink" x="0px" y="0px"
	 width="196.969px" height="149px" viewBox="0 0 196.969 149" enable-background="new 0 0 196.969 149" xml:space="preserve">
<g>
	<path d="M6.034,96.212c-0.043,0.021-0.086,0.045-0.134,0.093c-0.026,0.037-0.055,0.123-0.101,0.236
		c-0.011,0.053-0.012,0.092-0.017,0.132c0.115-0.071,0.218-0.146,0.247-0.19c0.04-0.107,0.064-0.222,0.034-0.252
		C6.055,96.22,6.05,96.203,6.034,96.212z"/>
	<path d="M196.852,77.164c0.014-1.043-0.025-2.343-0.219-3.382c-0.322-1.665-0.959-2.889-1.678-4.134
		c-0.129-0.226-0.414-0.734-0.852-1.192c-0.213-0.196-0.371-0.311-0.444-0.381c-0.229-0.204-0.411-0.352-0.521-0.47
		c-0.359-0.367-0.674-0.813-1.119-1.318c-0.179-0.206-0.36-0.406-0.617-0.678c-0.201-0.204-0.448-0.459-0.699-0.709
		c-0.368-0.371-0.746-0.747-1.055-1.062c-0.231-0.233-0.396-0.389-0.549-0.554c-0.149-0.16-0.383-0.439-0.674-0.716
		c-0.352-0.324-0.658-0.563-0.845-0.716c-0.438-0.37-0.692-0.607-1.049-0.988c-0.451-0.488-0.998-1.104-1.511-1.651
		c-0.508-0.543-0.896-0.964-1.281-1.525c-0.68-0.968-1.547-2.099-2.506-2.984c-1.256-1.148-2.207-1.97-3.211-2.939
		c-0.711-0.674-1.342-1.206-1.883-1.859c-1.305-1.581-2.824-3.249-4.545-4.854c-0.313-0.288-0.638-0.589-0.92-0.854
		c-0.498-0.459-0.861-0.793-1.283-1.206c-0.944-0.938-1.892-1.819-2.875-2.974c-1.762-2.085-3.908-3.968-5.184-5.219
		c-1.395-1.341-2.771-2.592-4.15-3.951c-0.84-0.833-1.813-1.861-2.584-2.684c-0.367-0.392-0.766-0.837-1.258-1.273
		c-0.303-0.26-0.589-0.484-0.863-0.695c-0.137-0.198-0.271-0.393-0.428-0.608c-0.619-0.837-1.33-1.626-1.97-2.3
		c-0.688-0.719-1.413-1.229-1.967-1.721c-0.705-0.619-1.325-1.459-2.069-2.328c-0.396-0.454-0.792-0.983-1.261-1.497
		c-0.843-0.906-1.826-1.525-2.554-2.071c-0.604-0.443-1.146-0.887-1.692-1.369c-0.921-0.795-1.752-1.85-2.743-2.806
		c-0.785-0.747-1.631-1.297-2.32-1.751c-0.959-1.022-1.918-1.904-2.646-2.531c-0.465-0.387-1.012-0.862-1.537-1.321
		c-0.178-0.152-0.486-0.409-0.836-0.624c-0.381-0.224-0.674-0.352-0.823-0.451c-0.146-0.09-0.315-0.218-0.557-0.375
		c-0.521-0.339-0.986-0.696-1.558-1.147c-0.254-0.196-0.461-0.336-0.576-0.436c-0.166-0.14-0.258-0.215-0.348-0.305
		c-0.175-0.171-0.637-0.61-1.227-0.907c-0.896-0.358-1.688-0.444-1.995-0.612c-0.333-0.157-0.677-0.308-1.026-0.488
		c-0.259-0.117-0.736-0.358-1.271-0.487c-0.688-0.12-1.402-0.043-1.813,0.045c-0.576,0.149-1.297,0.492-1.732,0.918
		c-0.184,0.164-0.293,0.371-0.367,0.589c-0.168,0.341-0.285,0.72-0.327,1.079c-0.065,0.104-0.146,0.21-0.192,0.308
		c-0.271,0.669-0.414,1.539-0.428,2.216c-0.015,1.467-0.047,2.935-0.107,4.341c-0.057,1.182-0.137,2.804-0.125,4.559
		c0.016,1.756-0.074,3.354-0.104,5.355c-0.011,1.593,0.038,2.781,0.161,3.966c0.035,0.431,0.054,0.96,0.062,1.543
		c-0.137,0.864-0.266,1.803-0.357,2.638c-0.115,1.098-0.238,1.942-0.344,2.935c-0.111,1.092-0.219,2.486-0.319,3.663
		c-0.095,1.163-0.162,2.085-0.212,3.106c-0.051,0.899-0.102,1.996-0.15,2.979c-0.104,1.044-0.181,1.983-0.236,2.758
		c-0.027,0.333-0.047,0.668-0.064,1.024c-0.313,0.481-0.422,0.646-0.969,1.094c-0.702,0.59-1.709,1.164-2.389,1.375
		c-0.233,0.087-0.504,0.142-0.935,0.24c-0.194,0.056-0.385,0.104-0.578,0.157c-0.432-0.038-0.877-0.079-1.344-0.125
		c-0.761-0.085-1.567-0.185-2.451-0.269c-2.376-0.208-5.198-0.425-8.249-0.665c-3.043-0.253-6.321-0.485-9.666-0.783
		c-0.75-0.053-1.474-0.103-2.177-0.145c-2.654-0.16-5.317-0.31-8.007-0.428c-0.802-0.034-1.563-0.071-2.293-0.098
		c-0.602-0.022-1.179-0.039-1.752-0.061c-2.71-0.118-5.463-0.239-8.227-0.32c-0.834-0.022-1.622-0.043-2.371-0.059
		c-0.608-0.014-1.196-0.026-1.78-0.039c-1.367-0.036-2.767-0.071-4.162-0.11c-1.307-0.038-2.609-0.083-3.912-0.109
		c-0.805-0.019-1.553-0.031-2.256-0.056c-0.559-0.012-1.137-0.025-1.727-0.034c-1.276-0.022-2.541-0.034-3.789-0.047
		c-0.728-0.006-1.424-0.012-2.091-0.012c-0.535,0-1.052,0.003-1.563,0.006c-0.677,0.001-1.33,0.003-1.963,0.006
		c-2.332,0.005-4.542,0.014-6.63,0.013c-1.168,0.001-2.23,0.012-3.216,0.016c-0.421,0.003-0.833,0.004-1.242,0.012
		c-1.478,0.009-2.89,0.021-4.191,0.034c-1.223,0.013-2.33,0.031-3.356,0.039c-1.088,0.025-2.09,0.048-2.984,0.065
		c-1.741,0.029-3.124,0.042-4.231,0.073c-0.925,0.034-1.646,0.071-2.201,0.127c-0.055,0.008-0.086,0.016-0.138,0.025
		c-0.009-0.002-0.015-0.009-0.023-0.011c-0.135-0.056-0.295-0.097-0.456-0.128c-0.127-0.046-0.263-0.072-0.407-0.058
		c-0.278,0.006-0.626,0.06-0.902,0.137c-0.086,0.029-0.215,0.09-0.352,0.167c-0.729,0.006-1.471,0.039-2.212,0.149
		c-0.704,0.104-1.386,0.294-1.894,0.431c-0.963,0.311-2.05,1.266-2.448,2.229c-0.426,1.302-0.412,2.757-0.544,3.814
		c-0.243,2.085-0.73,4.083-0.784,6.205c-0.027,1.133-0.151,2.896-0.167,4.331c0.004,0.678-0.005,1.274-0.008,1.958
		c-0.002,0.682-0.032,1.356-0.072,2.03c-0.069,0.569-0.132,1.138-0.192,1.66C0.986,68.001,0.84,68.76,0.71,69.676
		c-0.153,1.02-0.292,2.351-0.392,3.621C0.226,74.48,0.099,75.52,0.04,76.73c-0.058,1.166-0.023,2.558-0.016,3.705
		c0.006,0.918,0.003,1.64,0.004,2.366c-0.001,1.114-0.001,2.476-0.001,3.729c0,0.813,0,1.548,0,2.264
		c-0.008,1.242-0.015,2.848-0.022,4.153c-0.006,1.963-0.013,3.308,0.147,5.034c0.108,1.139,0.018,2.076,0.103,3.242
		c0.075,0.832,0.324,1.688,0.538,2.387c0.118,0.384,0.281,0.76,0.389,1.012c0.051,0.111,0.107,0.311,0.252,0.59
		c0.036,0.063,0.16,0.303,0.362,0.543c0.521,0.43,1.042,0.546,1.222,0.612c0.173,0.028,0.367,0.127,0.643,0.253
		c0.208,0.095,0.497,0.255,0.848,0.363c0.588,0.129,1.104,0.031,1.36,0.014c0.113-0.014,0.232-0.02,0.361-0.021
		c0.058,0.068,0.122,0.135,0.179,0.188c0.219,0.09,0.451,0.054,0.64-0.062c0.146,0.021,0.312,0.045,0.519,0.078
		c0.306,0.047,0.681,0.105,1.115,0.153c0.425,0.048,0.919,0.081,1.493,0.104c0.7,0.027,1.583,0.052,2.761,0.027
		c0.99-0.019,2.173-0.064,3.475-0.137c1.295-0.07,2.706-0.189,4.22-0.291c1.507-0.092,3.127-0.167,4.866-0.229
		c0.906-0.033,1.841-0.06,2.798-0.08c0.401-0.006,0.801-0.018,1.21-0.021c2.359-0.045,4.869-0.044,7.435-0.034
		c0.433,0.005,0.871,0.009,1.329,0.013c0.555,0.004,1.145,0.006,1.781,0.011c1.55,0.011,3.124,0.016,4.734,0.024
		c2.164,0.008,4.358-0.004,6.599,0.03c0.605,0.011,1.229,0.028,1.885,0.048c0.525,0.012,1.02,0.018,1.473,0.026
		c1.142,0.034,2.295,0.041,3.462,0.058c0.63,0.01,1.288,0.018,1.979,0.025c0.512,0,1.033,0.003,1.576,0.005
		c1.944,0.001,4.001-0.011,6.098-0.021c0.608-0.006,1.225-0.019,1.863-0.024c0.839-0.006,1.695-0.013,2.55-0.017
		c2.256-0.013,4.591-0.016,6.958-0.029c1.643-0.028,3.29-0.069,4.926-0.111c0.686,0.041,1.389,0.083,2.071,0.107
		c2.393,0.104,5.533,0.404,8.145,0.557c1.151,0.063,2.488,0.207,3.863,0.309c1.883,0.119,3.562,0.266,5.447,0.369
		c1.678,0.1,3.534,0.211,5.225,0.209c0.371-0.006,0.908,0.027,1.518,0.047c0.594,0.441,1.082,1.069,1.783,2
		c0.449,0.342,0.396,1.629,0.638,3.75c0.025,0.168,0.031,0.342,0.054,0.51c-0.02,0.41-0.037,0.794-0.072,1.195
		c-0.065,0.769-0.07,1.688-0.09,2.532c-0.043,1.737-0.187,2.972-0.316,4.298c-0.176,1.82-0.26,3.709-0.396,5.191
		c-0.104,1.22-0.082,2.492-0.086,3.816c-0.006,1.183,0.004,2.051-0.021,2.929c-0.013,1.063,0.01,2.143,0.044,3.179
		c0.078,0.932,0.169,1.85,0.253,2.743c0.085,0.971,0.159,1.872,0.323,2.885c0.127,0.632,0.191,1.271,0.299,2.007
		c0.039,0.54,0.184,1.344,0.557,1.988c0.021,0.03,0.063,0.063,0.084,0.094c0.088,0.237,0.188,0.475,0.325,0.688
		c0.63,0.563,1.505,0.834,1.853,0.858c0.33,0.017,0.623-0.002,0.771,0.002c1.802-0.106,3.315-0.646,4.667-1.074
		c1.131-0.342,2.188-0.769,3.029-1.149c0.479-0.229,0.938-0.485,1.32-0.708c0.789-0.465,1.437-0.975,1.979-1.343
		c0.239-0.173,0.556-0.353,0.926-0.604c0.325-0.229,0.526-0.421,0.677-0.537c0.474-0.406,1.217-0.99,1.783-1.481
		c0.403-0.338,0.672-0.588,0.977-0.876c0.212-0.196,0.469-0.438,0.779-0.739c0.287-0.276,0.601-0.585,0.881-0.854
		c0.472-0.457,0.81-0.754,1.125-1.058c0.195-0.188,0.324-0.331,0.429-0.425c0.134-0.127,0.339-0.283,0.616-0.501
		c0.466-0.376,0.861-0.649,1.341-1.026c0.271-0.227,0.555-0.479,0.807-0.699c0.529-0.463,1.157-0.993,1.729-1.531
		c0.298-0.27,0.588-0.551,0.836-0.803c0.146-0.146,0.312-0.311,0.475-0.481c0.202-0.224,0.4-0.459,0.571-0.656
		c0.722-0.847,1.323-1.538,2.06-2.272c0.93-0.928,1.639-1.502,2.354-1.979c0.271-0.183,0.522-0.349,0.799-0.54
		c0.678-0.47,1.462-1.029,2.125-1.609c0.354-0.303,0.638-0.577,0.944-0.854c0.107-0.107,0.326-0.288,0.58-0.535
		c0.244-0.246,0.438-0.486,0.576-0.662c0.551-0.505,1.08-1.021,1.519-1.418c0.198-0.177,0.452-0.379,0.764-0.654
		c0.492-0.438,0.99-0.896,1.521-1.329c0.31-0.257,0.562-0.466,0.895-0.666c0.305-0.185,0.585-0.341,0.896-0.495
		c0.23-0.114,0.535-0.248,0.861-0.423c0.291-0.155,0.617-0.351,0.922-0.562c0.42-0.291,0.894-0.65,1.289-0.96
		c0.813-0.64,1.555-1.267,2.205-1.89c0.59-0.561,1.161-1.172,1.76-1.813c0.888-0.949,1.939-1.938,2.896-2.668
		c0.518-0.396,1.055-0.771,1.594-1.182c1.09-0.852,2.141-1.855,3.036-2.809c1.423-1.496,3.265-3.742,4.968-5.148
		c1.315-1.111,2.635-2.348,3.893-4.041c1.313-1.768,2.65-3.583,3.849-4.664c0.981-0.945,2.046-1.504,3.365-2.732
		c0.229-0.228,0.438-0.451,0.627-0.638c0.362-0.362,0.702-0.719,0.989-1.016c0.338-0.337,0.642-0.632,0.961-0.968
		c0.632-0.662,1.197-1.344,1.807-1.959c0.969-0.994,2.159-1.896,2.988-2.594c0.27-0.253,0.466-0.473,0.71-0.703
		c0.29-0.297,0.685-0.721,0.987-1.144c0.104-0.174,0.515-0.698,0.707-1.536c-0.015-0.294,0.188-1.045,0.06-1.347
		C197.064,77.991,196.824,77.654,196.852,77.164z M12.009,101.866c-0.068,0.067-0.139,0.131-0.208,0.198
		c-0.079,0.146-0.197,0.271-0.363,0.345c-0.096,0.065-0.194,0.126-0.292,0.19c-0.091,0.088-0.198,0.164-0.327,0.211
		c-0.108,0.041-0.222,0.086-0.328,0.125c-0.312,0.144-0.639,0.271-0.936,0.383c-0.103,0.021-0.212,0.048-0.313,0.064
		c-0.199,0.047-0.413,0.084-0.602,0.112c-0.191,0.026-0.397,0.051-0.577,0.063c-0.181,0.008-0.381,0.006-0.551-0.004
		c-0.17-0.01-0.365-0.031-0.524-0.059c-0.159-0.028-0.352-0.076-0.5-0.123c-0.225-0.078-0.51-0.223-0.703-0.355
		c-0.406-0.324-0.695-0.771-0.842-1.051c-0.308-0.59-0.497-1.251-0.603-1.762c-0.123-0.694-0.128-1.444-0.083-2.223
		C4.284,97.4,4.325,96.79,4.378,96.3c-0.003-0.015-0.007-0.118-0.001-0.251c0.008-0.109,0.019-0.184,0.019-0.189
		c0,0,0,0.072,0.004,0.134c0.01,0.058,0.088,0.229,0.187,0.399c0.016-0.054,0.028-0.127,0.042-0.168
		c-0.011-0.084-0.007-0.17,0.016-0.254c-0.01-0.093-0.01-0.205-0.013-0.293c0.005-0.045,0.021-0.111,0.032-0.158
		c-0.01-0.068,0.032-0.211,0.091-0.338c0.05-0.076,0.261-0.228,0.449-0.311c0.231-0.042,0.733,0.085,0.924,0.207
		C6.31,95.3,6.442,95.636,6.46,95.754c0.009,0.1,0.007,0.219,0.003,0.271c-0.008,0.098-0.017,0.146-0.015,0.142
		c-0.004,0.033,0.005,0.128-0.004,0.319c-0.045,0.447-0.08,1.018-0.104,1.593c-0.02,0.716-0.001,1.203,0.117,1.705
		c0.084,0.438,0.173,0.806,0.377,1.184c0.126,0.24,0.125,0.285,0.219,0.329c0.031,0.028,0.018,0.021,0.109,0.048
		c0.064,0.023,0.102,0.032,0.191,0.046c0.09,0.02,0.161,0.025,0.274,0.03c0.114,0.006,0.213,0.009,0.346,0.001
		c0.135,0,0.257-0.006,0.408-0.02c0.152-0.014,0.294-0.03,0.46-0.061c0.083-0.016,0.16-0.029,0.246-0.052
		c0.269-0.021,0.531-0.056,0.827-0.108c0.096-0.025,0.188-0.056,0.286-0.084c0.119-0.043,0.241-0.062,0.36-0.056
		c0.093-0.015,0.183-0.021,0.28-0.041c0.15-0.063,0.305-0.063,0.453-0.028c0.09-0.008,0.176-0.009,0.269-0.019
		c0.251-0.123,0.554-0.021,0.677,0.229C12.364,101.441,12.26,101.743,12.009,101.866z M91.753,50.145
		c-2.132-0.258-3.821-0.149-5.71-0.076c-0.545,0.014-1.1,0.03-1.596,0.043c-0.367-0.004-0.707-0.008-1.041-0.02
		c-0.513-0.009-0.997-0.033-1.487-0.043c-0.917-0.042-1.821-0.064-2.566-0.103c-0.521-0.025-1.015-0.057-1.557-0.104
		c-0.765-0.073-1.559-0.151-2.103-0.198c-0.225-0.025-0.4-0.046-0.576-0.062c-0.191-0.021-0.378-0.038-0.564-0.053
		c-0.186,0.019-0.371,0.038-0.546,0.053c-0.397-0.006-0.713-0.333-0.707-0.73c0.007-0.396,0.333-0.714,0.73-0.707
		c0.159,0.021,0.328,0.038,0.514,0.055c0.185-0.019,0.384-0.038,0.588-0.055c0.205-0.011,0.417-0.014,0.652-0.012
		c0.563,0.019,1.368,0.068,2.132,0.112c0.527,0.034,0.99,0.055,1.497,0.067c0.723,0.016,1.625,0.016,2.562,0.035
		c0.509,0.021,0.989,0.053,1.48,0.071c0.313,0.006,0.636,0.006,1.006,0.009c0.495,0.022,1.05,0.047,1.598,0.072
		c1.875,0.112,3.667,0.196,5.858,0.649c0.275,0.045,0.462,0.305,0.417,0.58C92.29,50.004,92.029,50.191,91.753,50.145z
		 M123.156,7.273c0.051-0.001,0.115-0.006,0.168-0.003c0.177-0.071,0.379-0.115,0.576-0.146c0.098-0.035,0.199-0.05,0.308-0.042
		c0.401,0.038,0.854,0.187,1.188,0.406c0.199,0.14,0.396,0.334,0.553,0.501c0.145,0.171,0.277,0.347,0.406,0.501
		c0.068,0.076,0.119,0.162,0.147,0.254c0.081,0.138,0.159,0.258,0.251,0.341c0.258,0.115,0.368,0.414,0.253,0.669
		c-0.112,0.255-0.411,0.367-0.669,0.252c-0.271-0.075-0.525-0.224-0.763-0.379c-0.099-0.038-0.188-0.092-0.263-0.172
		c-0.168-0.162-0.314-0.322-0.455-0.454c-0.129-0.136-0.211-0.213-0.295-0.265c-0.162-0.109-0.219-0.117-0.467-0.125
		c-0.15-0.045-0.26-0.073-0.4-0.062c-0.018,0.023-0.02,0.042-0.03,0.065c-0.37,0.144-0.786-0.043-0.931-0.414
		C122.598,7.831,122.784,7.415,123.156,7.273z M136.927,126.951c-0.161,0.281-0.317,0.556-0.473,0.818
		c-0.358,0.482-0.708,0.94-1.041,1.36c-0.354,0.401-0.708,0.779-1.046,1.12c-0.614,0.624-1.16,1.197-1.684,1.782
		c-0.72,0.771-1.42,1.585-2.072,2.225c-0.604,0.576-1.104,0.985-1.514,1.349c-0.439,0.384-0.845,0.746-1.256,1.1
		c-0.343,0.294-0.658,0.549-0.923,0.811c-0.417,0.404-0.776,0.815-1.123,1.159c-0.215,0.214-0.414,0.401-0.582,0.556
		c-0.299,0.276-0.571,0.498-0.812,0.664c-0.541,0.379-0.934,0.619-1.482,1.019c-0.271,0.202-0.622,0.493-0.986,0.688
		c-0.283,0.137-0.509,0.197-0.658,0.28c-0.072,0.033-0.252,0.132-0.485,0.199c-0.153,0.036-0.337,0.06-0.464,0.063
		c-0.217,0.002-0.454-0.019-0.616-0.043c-0.286-0.054-0.464-0.146-0.498-0.164c-0.047-0.021-0.354-0.127-0.635-0.377
		c-0.181-0.217-0.384-0.623-0.431-0.98c-0.016-0.182-0.006-0.321-0.008-0.387c0-0.137-0.007-0.282,0-0.436
		c0.024-0.363,0.065-0.775,0.131-1.144c0.121-0.632,0.279-1.222,0.317-1.814c-0.021-0.032-0.047-0.061-0.069-0.092
		c-0.012-0.396,0.305-0.726,0.699-0.735c0.395-0.009,0.729,0.305,0.736,0.701c-0.021,0.042-0.049,0.088-0.07,0.126
		c0.039,0.724-0.048,1.413-0.074,2.002c-0.021,0.319-0.021,0.653-0.012,0.99c-0.001,0.125,0,0.246,0,0.384
		c0,0.084-0.003,0.143-0.006,0.187c0.084,0.022,0.104,0.03,0.09,0.011c0.122,0.005,0.229,0.005,0.336-0.014
		c0.072-0.006,0.08-0.006,0.123-0.021c-0.008,0.013,0.021-0.014,0.162-0.081c0.309-0.135,0.534-0.189,0.654-0.249
		c0.175-0.067,0.434-0.274,0.752-0.497c0.595-0.429,1.003-0.68,1.51-1.031c0.186-0.127,0.359-0.271,0.624-0.514
		c0.153-0.146,0.315-0.306,0.515-0.507c0.293-0.307,0.658-0.744,1.113-1.205c0.326-0.321,0.688-0.616,1.014-0.897
		c0.396-0.34,0.791-0.698,1.237-1.092c0.438-0.384,0.897-0.757,1.455-1.287c0.606-0.569,1.298-1.342,2.048-2.125
		c0.567-0.576,1.168-1.147,1.817-1.752c0.329-0.312,0.663-0.645,1.019-1.02c0.379-0.355,0.768-0.742,1.178-1.168
		c0.229-0.189,0.465-0.393,0.707-0.604c0.176-0.215,0.496-0.248,0.713-0.068C137.074,126.417,137.105,126.734,136.927,126.951z
		 M191.691,72.36c-0.118,0.253-0.418,0.362-0.672,0.246c-0.367-0.075-0.818-0.135-1.321-0.352c-0.115-0.028-0.228-0.075-0.325-0.154
		c-0.092-0.045-0.202-0.119-0.305-0.178c-0.129-0.044-0.254-0.11-0.359-0.211c-0.193-0.19-0.416-0.428-0.618-0.677
		c-0.327-0.406-0.624-0.801-0.944-1.134c-0.447-0.465-0.873-0.875-1.311-1.214c-0.32-0.258-0.675-0.495-1.01-0.77
		c-0.286-0.24-0.57-0.481-0.821-0.729c-0.335-0.322-0.616-0.638-0.856-0.893c-0.354-0.401-0.644-0.731-0.887-1
		c-0.576-0.63-0.812-0.901-0.986-1.019c-0.021,0.017-0.028,0.039-0.047,0.061c-0.375-0.135-0.566-0.546-0.436-0.919
		c0.137-0.374,0.547-0.568,0.92-0.434c0.023,0.036,0.057,0.075,0.078,0.112c0.425,0.14,0.904,0.479,1.576,1.063
		c0.297,0.256,0.63,0.571,1.02,0.938c0.264,0.266,0.523,0.542,0.822,0.815c0.21,0.187,0.451,0.369,0.745,0.594
		c0.271,0.206,0.623,0.426,1.012,0.716c0.519,0.397,1.039,0.889,1.519,1.373c0.402,0.404,0.76,0.85,1.074,1.22
		c0.168,0.196,0.318,0.349,0.485,0.501c0.127,0.19,0.239,0.35,0.358,0.509c0.279,0.375,0.584,0.54,1.041,0.867
		C191.698,71.806,191.809,72.106,191.691,72.36z"/>
</g>
</svg>
