<?xml version="1.0" encoding="utf-8"?>
<!-- Generator: Adobe Illustrator 16.0.0, SVG Export Plug-In . SVG Version: 6.00 Build 0)  -->
<!DOCTYPE svg PUBLIC "-//W3C//DTD SVG 1.1//EN" "http://www.w3.org/Graphics/SVG/1.1/DTD/svg11.dtd">
<svg version="1.1" id="Ebene_1" xmlns="http://www.w3.org/2000/svg" xmlns:xlink="http://www.w3.org/1999/xlink" x="0px" y="0px"
	 width="195.484px" height="147.953px" viewBox="0 0 195.484 147.953" enable-background="new 0 0 195.484 147.953"
	 xml:space="preserve" fill="#FFA50A"> 
<g>
	<path d="M10.074,54.28c0,0.001,0,0.001,0,0.002C10.072,54.291,10.072,54.291,10.074,54.28z"/>
	<path d="M195.258,73.268c-0.316-1.654-0.948-2.868-1.665-4.107c-0.126-0.222-0.408-0.728-0.845-1.182
		c-0.212-0.195-0.366-0.31-0.438-0.378c-0.23-0.203-0.409-0.349-0.521-0.467c-0.354-0.365-0.667-0.809-1.112-1.31
		c-0.174-0.203-0.354-0.403-0.61-0.673c-0.198-0.204-0.443-0.456-0.693-0.705c-0.367-0.37-0.742-0.743-1.047-1.055
		c-0.229-0.231-0.394-0.386-0.547-0.548c-0.148-0.16-0.376-0.438-0.665-0.713c-0.35-0.321-0.657-0.558-0.838-0.71
		c-0.438-0.367-0.691-0.601-1.043-0.98c-0.448-0.485-0.988-1.097-1.498-1.64c-0.505-0.539-0.889-0.958-1.273-1.513
		c-0.672-0.961-1.532-2.085-2.484-2.964c-1.246-1.14-2.19-1.957-3.188-2.92c-0.704-0.667-1.331-1.197-1.868-1.846
		c-1.297-1.57-2.806-3.226-4.515-4.819c-0.308-0.286-0.63-0.587-0.913-0.849c-0.493-0.456-0.854-0.788-1.271-1.197
		c-0.94-0.932-1.878-1.805-2.854-2.952c-1.75-2.071-3.883-3.94-5.146-5.183c-1.386-1.332-2.755-2.574-4.122-3.924
		c-0.831-0.825-1.802-1.848-2.563-2.664c-0.363-0.39-0.76-0.832-1.249-1.263c-0.299-0.259-0.584-0.482-0.858-0.693
		c-0.136-0.197-0.268-0.39-0.424-0.603c-0.613-0.832-1.318-1.615-1.956-2.285c-0.684-0.715-1.4-1.22-1.949-1.71
		c-0.701-0.613-1.317-1.447-2.059-2.311c-0.391-0.452-0.785-0.977-1.251-1.487c-0.837-0.899-1.813-1.513-2.536-2.055
		c-0.599-0.442-1.139-0.881-1.682-1.361c-0.915-0.791-1.739-1.837-2.726-2.787c-0.776-0.739-1.614-1.283-2.303-1.734
		c-0.954-1.017-1.905-1.894-2.634-2.517c-0.462-0.385-1.003-0.856-1.523-1.312c-0.18-0.151-0.483-0.406-0.829-0.62
		c-0.383-0.222-0.672-0.347-0.818-0.448c-0.146-0.089-0.315-0.214-0.553-0.371c-0.518-0.336-0.979-0.692-1.545-1.14
		c-0.251-0.194-0.459-0.333-0.572-0.432c-0.164-0.139-0.255-0.214-0.346-0.302c-0.175-0.17-0.634-0.606-1.22-0.901
		c-0.888-0.355-1.676-0.439-1.979-0.607c-0.33-0.156-0.674-0.307-1.021-0.486c-0.257-0.115-0.729-0.355-1.268-0.483
		c-0.684-0.12-1.396-0.043-1.802,0.043c-0.571,0.149-1.284,0.49-1.723,0.914c-0.184,0.163-0.292,0.369-0.363,0.586
		c-0.177,0.355-0.295,0.751-0.328,1.122c-0.058,0.088-0.126,0.179-0.165,0.263c-0.272,0.663-0.412,1.528-0.428,2.2
		c-0.015,1.458-0.046,2.914-0.105,4.313c-0.055,1.174-0.135,2.783-0.123,4.526c0.014,1.744-0.076,3.33-0.104,5.319
		c-0.014,1.581,0.036,2.761,0.158,3.938c0.03,0.358,0.052,0.776,0.063,1.242c-0.151,0.926-0.294,1.975-0.399,2.889
		c-0.112,1.091-0.233,1.928-0.34,2.915c-0.11,1.084-0.215,2.469-0.318,3.636c-0.094,1.154-0.161,2.071-0.21,3.083
		c-0.064,1.182-0.13,2.711-0.201,3.861c-0.011,0.136-0.02,0.268-0.023,0.396c-0.045,0.532-0.084,1.02-0.116,1.461
		c-0.023,0.319-0.045,0.637-0.063,0.972c-0.001,0.001-0.001,0.003-0.002,0.004c-0.325,0.505-0.428,0.662-0.983,1.119
		c-0.698,0.586-1.695,1.156-2.371,1.366c-0.231,0.086-0.501,0.141-0.927,0.237c-0.193,0.055-0.38,0.103-0.571,0.156
		c-0.43-0.038-0.871-0.078-1.338-0.124c-0.753-0.084-1.554-0.185-2.432-0.267c-2.36-0.208-5.164-0.421-8.192-0.66
		c-3.021-0.251-6.275-0.481-9.598-0.775c-0.745-0.053-1.463-0.103-2.16-0.145c-2.636-0.16-5.28-0.308-7.953-0.424
		c-0.796-0.034-1.552-0.072-2.277-0.098c-0.597-0.021-1.171-0.038-1.738-0.061c-2.69-0.117-5.425-0.239-8.168-0.317
		c-0.828-0.021-1.609-0.043-2.354-0.06c-0.604-0.013-1.188-0.025-1.768-0.038c-1.358-0.034-2.749-0.071-4.134-0.109
		c-1.3-0.037-2.592-0.082-3.887-0.109c-0.798-0.019-1.541-0.032-2.239-0.055c-0.556-0.013-1.13-0.026-1.716-0.036
		c-1.267-0.021-2.521-0.032-3.763-0.045c-0.722-0.007-1.415-0.014-2.077-0.013c-0.531,0-1.044,0.004-1.551,0.006
		c-0.672,0.003-1.321,0.005-1.95,0.007c-2.313,0.004-4.511,0.013-6.583,0.012c-1.16,0.002-2.215,0.012-3.192,0.017
		c-0.42,0.003-0.827,0.003-1.232,0.011c-1.468,0.01-2.87,0.021-4.161,0.036c-1.214,0.012-2.313,0.03-3.333,0.039
		c-1.082,0.024-2.075,0.047-2.963,0.064c-1.729,0.03-3.104,0.042-4.202,0.073c-0.917,0.033-1.634,0.069-2.186,0.127
		c-0.056,0.007-0.088,0.016-0.14,0.024c-0.009-0.002-0.015-0.008-0.021-0.011c-0.135-0.055-0.291-0.095-0.45-0.127
		c-0.127-0.046-0.262-0.073-0.406-0.058c-0.274,0.008-0.622,0.06-0.896,0.137c-0.086,0.029-0.217,0.09-0.354,0.167
		c-0.725,0.006-1.458,0.036-2.194,0.146C6.479,44.06,5.8,44.248,5.296,44.384c-0.956,0.309-2.036,1.258-2.431,2.213
		c-0.422,1.294-0.409,2.738-0.541,3.788c-0.241,2.071-0.726,4.054-0.779,6.163c-0.023,1.124-0.147,2.876-0.165,4.3
		c0.004,0.674-0.006,1.265-0.009,1.943c-0.002,0.678-0.031,1.347-0.072,2.017c-0.064,0.564-0.13,1.13-0.188,1.648
		c-0.13,1.074-0.274,1.827-0.404,2.738c-0.148,1.011-0.29,2.334-0.39,3.597c-0.088,1.172-0.214,2.205-0.274,3.406
		c-0.057,1.158-0.021,2.539-0.015,3.681c0.006,0.913,0.002,1.627,0.004,2.353c0,1.107-0.001,2.457-0.002,3.701
		c0,0.81,0,1.537,0,2.248c-0.007,1.232-0.015,2.826-0.022,4.123c-0.005,1.95-0.012,3.286,0.147,5
		c0.104,1.133,0.018,2.063,0.102,3.221c0.075,0.822,0.321,1.677,0.534,2.371c0.117,0.379,0.279,0.752,0.387,1.004
		c0.052,0.109,0.106,0.309,0.25,0.586c0.035,0.063,0.158,0.302,0.36,0.539c0.521,0.428,1.036,0.541,1.213,0.605
		c0.172,0.03,0.365,0.126,0.64,0.252c0.207,0.094,0.492,0.254,0.843,0.361c0.584,0.127,1.096,0.031,1.351,0.013
		c0.112-0.013,0.23-0.019,0.358-0.022c0.058,0.069,0.122,0.137,0.178,0.188c0.217,0.09,0.447,0.056,0.635-0.062
		c0.146,0.021,0.313,0.048,0.519,0.078c0.305,0.047,0.678,0.104,1.105,0.154c0.422,0.047,0.912,0.081,1.481,0.104
		c0.695,0.029,1.573,0.053,2.741,0.027c0.981-0.019,2.155-0.063,3.449-0.137c1.286-0.068,2.688-0.188,4.191-0.288
		c1.497-0.092,3.104-0.165,4.832-0.226c0.899-0.033,1.827-0.059,2.778-0.078c0.396-0.008,0.795-0.018,1.198-0.024
		c2.346-0.044,4.834-0.042,7.386-0.032c0.43,0.002,0.861,0.006,1.316,0.014c0.555,0.003,1.14,0.004,1.771,0.008
		c1.539,0.012,3.102,0.018,4.7,0.025c2.146,0.009,4.325-0.004,6.554,0.029c0.6,0.01,1.221,0.028,1.871,0.049
		c0.521,0.013,1.014,0.02,1.463,0.025c1.133,0.036,2.279,0.041,3.437,0.057c0.626,0.008,1.279,0.021,1.967,0.025
		c0.509,0,1.023,0.003,1.563,0.005c1.931,0.001,3.974-0.009,6.056-0.022c0.604-0.006,1.219-0.017,1.853-0.022
		c0.834-0.006,1.684-0.01,2.533-0.019c2.237-0.01,4.559-0.014,6.906-0.026c1.618-0.026,3.241-0.065,4.854-0.106
		c0.688,0.041,1.394,0.082,2.08,0.106c2.376,0.104,5.495,0.399,8.087,0.551c1.144,0.063,2.473,0.206,3.837,0.308
		c1.871,0.121,3.537,0.264,5.408,0.369c1.667,0.098,3.512,0.207,5.188,0.207c0.38-0.008,0.901,0.041,1.534,0.059
		c0.58,0.438,1.063,1.057,1.753,1.971c0.448,0.34,0.396,1.618,0.633,3.725c0.033,0.221,0.043,0.443,0.068,0.664
		c-0.017,0.354-0.035,0.689-0.066,1.039c-0.063,0.763-0.067,1.674-0.088,2.518c-0.045,1.724-0.185,2.947-0.313,4.268
		c-0.174,1.811-0.257,3.686-0.396,5.154c-0.104,1.212-0.082,2.477-0.086,3.792c-0.004,1.173,0.006,2.038-0.018,2.906
		c-0.012,1.058,0.009,2.128,0.042,3.153c0.079,0.924,0.167,1.836,0.25,2.728c0.087,0.964,0.159,1.856,0.324,2.862
		c0.124,0.63,0.188,1.266,0.295,1.994c0.037,0.537,0.183,1.332,0.553,1.977c0.013,0.02,0.037,0.039,0.054,0.061
		c0.087,0.244,0.189,0.487,0.33,0.707c0.628,0.563,1.494,0.826,1.84,0.854c0.327,0.015,0.619-0.003,0.766,0.002
		c1.789-0.107,3.296-0.645,4.634-1.066c1.123-0.341,2.171-0.762,3.01-1.143c0.479-0.229,0.932-0.483,1.313-0.702
		c0.779-0.461,1.426-0.966,1.965-1.334c0.238-0.173,0.553-0.351,0.921-0.603c0.321-0.229,0.521-0.418,0.67-0.535
		c0.469-0.399,1.209-0.981,1.771-1.471c0.4-0.336,0.67-0.584,0.97-0.871c0.211-0.193,0.465-0.436,0.772-0.732
		c0.285-0.273,0.599-0.58,0.877-0.85c0.467-0.453,0.803-0.748,1.114-1.049c0.195-0.188,0.326-0.33,0.425-0.422
		c0.134-0.128,0.337-0.281,0.613-0.499c0.462-0.373,0.857-0.646,1.331-1.019c0.271-0.225,0.551-0.479,0.8-0.694
		c0.526-0.458,1.149-0.985,1.717-1.521c0.296-0.269,0.582-0.545,0.829-0.795c0.146-0.146,0.311-0.311,0.472-0.48
		c0.199-0.221,0.396-0.456,0.565-0.65c0.717-0.841,1.314-1.528,2.047-2.26c0.92-0.92,1.626-1.492,2.333-1.965
		c0.271-0.182,0.522-0.348,0.796-0.537c0.672-0.466,1.45-1.023,2.108-1.6c0.35-0.301,0.635-0.572,0.938-0.848
		c0.108-0.105,0.323-0.285,0.577-0.531c0.24-0.242,0.433-0.479,0.571-0.652c0.543-0.502,1.073-1.016,1.506-1.413
		c0.197-0.174,0.451-0.375,0.759-0.649c0.489-0.436,0.984-0.889,1.515-1.317c0.307-0.256,0.556-0.46,0.886-0.66
		c0.304-0.188,0.582-0.338,0.893-0.494c0.229-0.114,0.532-0.247,0.856-0.42c0.288-0.153,0.612-0.351,0.917-0.56
		c0.415-0.288,0.884-0.646,1.277-0.951c0.808-0.637,1.544-1.258,2.188-1.875c0.586-0.559,1.154-1.166,1.747-1.803
		c0.881-0.939,1.93-1.926,2.876-2.646c0.512-0.393,1.046-0.768,1.583-1.172c1.081-0.85,2.126-1.846,3.014-2.788
		c1.412-1.485,3.241-3.719,4.936-5.114c1.309-1.104,2.614-2.33,3.864-4.013c1.302-1.753,2.633-3.56,3.818-4.63
		c0.979-0.939,2.033-1.495,3.345-2.717c0.229-0.227,0.438-0.446,0.619-0.633c0.36-0.357,0.701-0.713,0.984-1.008
		c0.336-0.335,0.636-0.628,0.954-0.96c0.629-0.657,1.188-1.335,1.792-1.946c0.963-0.985,2.146-1.883,2.97-2.573
		c0.266-0.255,0.461-0.47,0.703-0.698c0.289-0.295,0.682-0.714,0.981-1.136c0.102-0.175,0.51-0.693,0.7-1.524
		c-0.015-0.291-0.115-0.682-0.251-0.979c0.19-0.627,0.261-1.313,0.284-1.807C195.49,75.591,195.451,74.3,195.258,73.268z
		 M179.573,77.693c-0.29,0.463-0.565,0.898-0.835,1.236c-0.136,0.163-0.246,0.297-0.38,0.44c-0.322,0.356-0.665,0.694-1.085,1.077
		c-0.913,0.82-2.016,1.959-2.873,3.228c-1.037,1.617-2.947,2.813-4.741,4.97c-0.946,1.187-1.746,2.467-2.453,3.338
		c-0.686,0.896-1.708,1.658-2.919,3.021c-1.032,1.16-1.912,2.345-2.776,3.243c-0.884,0.958-2.327,1.813-3.9,3.354
		c-1.274,1.271-2.231,2.539-3.145,3.334c-0.818,0.773-2.188,1.5-3.61,2.871c-0.757,0.76-1.4,1.565-1.949,2.168
		c-0.967,1.071-1.882,1.748-3.062,2.404c-1.634,0.917-2.943,2.121-4.213,3.375c-1.17,1.178-2.614,2.243-3.896,3.129
		c-1.354,0.965-2.465,2.016-3.687,3.096c-1.407,1.263-2.809,2.354-3.938,3.092c-1.251,0.844-3.155,1.848-4.776,3.203
		c-1.082,0.965-1.771,1.892-2.544,2.724c-0.143,0.146-0.328,0.306-0.5,0.459c-0.12-0.019-0.245-0.036-0.332-0.058
		c-0.021,0.004,0.029,0.033-0.072-0.019c-0.313-0.127-0.259,0.013-0.283-0.205c-0.223-0.575-0.394-1.34-0.611-2.177
		c-0.053-1.215-0.047-2.234-0.054-3.68c0.004-0.235,0.009-0.493,0.013-0.767c0.202-1.077,0.421-2.176,0.497-3.179
		c0.054-0.985,0.006-2.034,0.001-3.365c-0.012-1.015-0.034-2.183-0.093-3.148c-0.056-0.817-0.101-1.59-0.128-2.523
		c-0.031-0.085-0.06-0.15-0.075-0.197c-0.057-0.156-0.313-0.859-0.404-1.693c-0.008-0.18-0.01-0.379-0.004-0.709
		c0.001-0.063,0.006-0.127,0.012-0.188c0.015-0.171,0.026-0.271,0.04-0.322c-0.103-0.238-0.389-0.793-0.636-1.608
		c-0.206-0.819-0.269-1.339-0.395-1.72c-0.063-0.197-0.082-0.272-0.102-0.309c0.001-0.005-0.038-0.068-0.148-0.313
		c-0.065-0.146-0.093-0.205-0.103-0.215c-0.134-0.295-0.157-0.28-0.5-0.646c-0.186-0.199-0.409-0.418-0.764-0.801
		c-0.11-0.118-0.137-0.152-0.146-0.155c-0.081-0.079-0.146-0.146-0.221-0.208c0.029,0.021-0.158-0.134-0.433-0.422
		c-0.125-0.146-0.188-0.227-0.206-0.25c-0.048-0.045-0.216-0.203-0.45-0.46c-0.175-0.134-0.301-0.199-0.47-0.3
		c-0.282-0.104-0.334-0.117-0.396-0.129c-0.034-0.01-0.122-0.018-0.338-0.053c-0.208-0.035-0.396-0.07-0.576-0.099
		c-0.066-0.011-0.131-0.021-0.193-0.03c0,0,0,0,0-0.001c-0.164-0.026-0.319-0.05-0.48-0.071c-0.415-0.059-0.611-0.092-0.823-0.086
		c-0.352,0-0.704,0-1.057,0.002c0,0.004,0,0.008,0,0.014c-0.479,0.012-0.974,0.035-1.509,0.093c0.041-0.036,0.083-0.067,0.123-0.104
		c-1.645-0.017-3.584,0.078-5.482-0.145c-0.103-0.016-0.202-0.025-0.283-0.04c-0.186,0.062-0.396,0.082-0.614,0.104
		c-0.437-0.023-0.863-0.045-1.307-0.071c-0.48-0.029-0.958-0.063-1.43-0.097c-0.05-0.008-0.089-0.019-0.142-0.023
		c-0.037,0-0.07,0.004-0.108,0.005c-1.181-0.088-2.361-0.187-3.676-0.278c-1.263-0.074-2.642-0.205-3.956-0.261
		c-2.459-0.092-5.618-0.345-8.183-0.405c-1.487-0.043-3.337-0.191-4.844-0.209c-1.579-0.004-3.618-0.127-5.476-0.166
		c-1.602-0.039-3.161-0.088-5.126-0.244c-2.436-0.174-5.317-0.088-7.896-0.151c-1.706-0.052-3.879-0.054-5.774-0.046
		c-1.563,0.02-3.095,0.039-4.721,0.058c-2.308,0.015-4.092,0.024-6.266,0.036c-0.604,0.004-1.083,0.012-1.702,0.018
		c-0.071-0.006-0.142-0.01-0.214-0.01c-0.229,0.004-0.501,0.006-0.735,0.01c-0.261,0.004-0.503,0.004-0.775,0.014
		c-0.221,0.007-0.438,0.018-0.64,0.027c-0.464,0.018-0.9,0.035-1.36,0.039c-0.965,0.008-1.91-0.05-3.199,0.045
		c-0.275,0.016-0.5,0.032-0.677,0.037c-0.188,0.01-0.371,0.016-0.575,0.021c-0.297,0.019-0.574,0.024-0.869,0.045
		c-0.204,0.011-0.37,0.021-0.526,0.026c-0.298,0.018-0.637,0.023-1.021,0.039c-0.708,0.026-1.418,0.037-2.126,0.056
		c-1.542,0.019-2.904,0.104-4.485,0.14c-1.188,0.02-2.313,0.161-3.014,0.161c-0.088,0.002-0.27-0.008-0.55-0.004
		c-0.189,0.004-0.412,0.011-0.611,0.021c-0.598,0.019-1.12,0.063-1.633,0.1c-1.089,0.078-1.966,0.027-3.027,0.01
		c-1.933-0.009-3.74,0.08-5.338-0.154c-0.566-0.08-1.15-0.153-1.753-0.226c-0.378-0.261-0.653-0.491-1.042-0.901
		C9.616,98.73,9.5,98.636,9.44,98.552c-0.079-0.093-0.243-0.376-0.537-0.735c-0.396-0.469-0.586-0.625-0.624-0.748
		c-0.249-0.313-0.188-0.951-0.274-2.154c-0.174-1.749-0.139-3.697-0.398-5.514c-0.188-1.148-0.17-2.18-0.354-4.33
		c-0.022-0.256-0.053-0.479-0.073-0.68c0-0.209,0.001-0.418,0.011-0.627c0.073-1.469,0.042-2.976-0.06-4.47
		c0.098-0.521,0.211-1.03,0.361-1.501c0.006-0.773,0.031-1.493,0.021-2.158c-0.011-0.759,0.034-1.473,0.057-2.063
		c0.036-0.967,0.104-2.025,0.22-2.911c0.029-0.219,0.046-0.305,0.05-0.354c0.055-0.447,0.079-1.037,0.128-1.67
		c0.029-0.361,0.063-0.698,0.082-0.975c0.018-0.195,0.027-0.411,0.047-0.63c0.011-0.13,0.025-0.298,0.045-0.42
		c0.057-0.414,0.11-0.669,0.139-0.876c0.016-0.104,0.028-0.333,0.052-0.642c0.021-0.244,0.045-0.554,0.087-0.876
		c0.024-0.177,0.048-0.309,0.059-0.361c0.013-0.07,0.021-0.128,0.028-0.176c0.03-0.436,0.084-0.73,0.088-0.767
		c0.049-0.302,0.105-0.646,0.163-0.944c0.035-0.175,0.066-0.307,0.083-0.388c0.051-0.225,0.102-0.442,0.128-0.596
		c0.067-0.438,0.107-0.706,0.143-0.987c0.017-0.144,0.033-0.268,0.043-0.353c0.007-0.061,0.012-0.104,0.019-0.18
		c0.014-0.112,0.023-0.287,0.045-0.505c0.03-0.276,0.075-0.541,0.103-0.683c0.035-0.199,0.085-0.507,0.166-0.85
		c0.063-0.253,0.118-0.412,0.124-0.442c0.086-0.403,0.12-0.677,0.173-1.113c0.019-0.151,0.051-0.456,0.113-0.81
		c0.05-0.248,0.104-0.455,0.122-0.526c0.011-0.041,0.023-0.116,0.057-0.255c0.005-0.026,0.026-0.129,0.067-0.294
		c0.088-0.325,0.261-0.845,0.442-1.256c0.083-0.162,0.195-0.338,0.302-0.499c0.149-0.222,0.296-0.417,0.359-0.489
		c0.035-0.039,0.119-0.128,0.211-0.221c0.022-0.023,0.049-0.048,0.074-0.073c0.117-0.114,0.252-0.244,0.406-0.373
		c0.346-0.251,1.245-0.664,1.792-0.775c0.149-0.017,0.311-0.025,0.468-0.029c0.055-0.002,0.105,0,0.161,0
		c0.103-0.001,0.204,0,0.298,0.003c0.213,0.006,0.404,0.021,0.53,0.038c0.138,0.022,0.313,0.062,0.607,0.132
		c0.33-0.045,0.621-0.073,0.913-0.057c1.011,0.018,2.01,0.104,3.167,0.126c1.007-0.002,2.128,0.032,3.111,0.079
		c0.265,0.012,0.514,0.025,0.748,0.041c0.229,0.018,0.542,0.049,0.956,0.058c0.229,0.004,0.498,0.004,0.725,0.006
		c0.288,0,0.527,0,0.784-0.001c0.234,0,0.465-0.001,0.688,0c0.453,0.001,0.892,0.006,1.296,0.016
		c0.854,0.024,1.709,0.045,2.596,0.081c1.678,0.05,3.642,0.161,5.428,0.158c1.73-0.003,3.905-0.048,5.958-0.063
		c2.801,0.001,6.023,0.019,9.073,0.006c1.945,0,3.623,0.036,5.266,0.072c1.418,0.028,3.187,0.042,4.479,0.037
		c1.195,0.001,2.537,0.055,4.063,0.075c2.14,0.03,3.749,0.051,5.817,0.054c2.132-0.014,3.729,0.036,5.618,0.07
		c0.122,0.002,0.237-0.004,0.354-0.018c1.479,0.029,3.049,0.05,4.313,0.064c1.755,0.023,3.875,0.167,5.757,0.307
		c2.93,0.212,5.955,0.495,8.889,0.691c1.567,0.09,3.002,0.25,4.124,0.28c1.156,0.043,2.563,0.028,4.116,0.073
		c0.479,0.014,0.913,0.034,1.329,0.06c0.026-0.006,0.048-0.009,0.074-0.015c0.245-0.055,0.469-0.094,0.635-0.115
		c0.86-0.094,1.819-0.147,2.75-0.138c0.68,0.007,1.292,0.018,1.885,0.021c0.079,0,0.158-0.001,0.239-0.001
		c0.212,0.001,0.424,0.002,0.634,0c0.112-0.001,0.224-0.005,0.333-0.006c0.172-0.003,0.343-0.005,0.521-0.01c0,0,0,0,0-0.001
		c0.016,0,0.03,0,0.049,0c0.132,0.002,0.326-0.022,0.55-0.052c0.145-0.019,0.33-0.042,0.511-0.063
		c0.082-0.009,0.163-0.02,0.253-0.028c0.268-0.026,0.557-0.05,0.884-0.059c0.591-0.001,0.892,0.025,1.104-0.018
		c0.398-0.051,0.271-0.006,0.37-0.075c0.048-0.024,0.099-0.05,0.149-0.079c0-0.002,0-0.003,0-0.006
		c0.26-0.137,0.56-0.316,0.897-0.533c0.209-0.131,0.238-0.141,0.202-0.123c0.23-0.218,0.352-0.327,0.46-0.473
		c0.01-0.01,0.014-0.026,0.098-0.191c0.168-0.311,0.313-0.53,0.352-0.588c0.082-0.129,0.18-0.283,0.266-0.416
		c0.17-0.249,0.354-0.473,0.444-0.582c0.157-0.359,0.258-0.54,0.31-0.631c0.272-0.596,0.511-0.989,0.591-1.138
		c0.046-0.083,0.069-0.131,0.122-0.234c0.093-0.177,0.137-0.272,0.202-0.453c0.051-0.163,0.063-0.253,0.091-0.401
		c0.06-0.265,0.13-0.534,0.168-0.666c0.062-0.188,0.104-0.317,0.129-0.404c0.025-0.075,0.061-0.218,0.118-0.46
		c0.149-0.598,0.208-0.949,0.287-1.529c0.062-0.441,0.112-1.072,0.166-1.645c0.024-0.222,0.042-0.314,0.038-0.289
		c0.006-0.051,0.01-0.108,0.016-0.17c-0.006-0.103-0.003-0.207,0.001-0.311c0.008-0.11,0.02-0.218,0.034-0.325
		c0.012-0.207,0.025-0.469,0.064-0.765c0.089-0.59,0.221-1.134,0.301-1.558c0.028-1.25,0.169-2.199,0.288-3.665
		c0.104-1.255,0.197-2.729,0.328-3.76c0.104-0.958,0.264-1.877,0.37-3.217c0.101-1.363,0.235-2.923,0.365-3.889
		c0.136-0.955,0.269-1.633,0.497-2.765c0.034-0.149,0.104-0.434,0.155-0.762c0.039-0.259,0.064-0.478,0.089-0.621
		c0.026-0.181,0.039-0.283,0.057-0.351c0.021-0.127,0.063-0.316,0.107-0.577c0.065-0.383,0.125-0.79,0.177-1.119
		c0.104-0.798,0.131-1.4,0.208-1.982c0.012-0.07,0.023-0.161,0.04-0.265c0.051-0.033,0.085-0.053,0.14-0.092
		c0.495-0.404,0.585-0.624,0.684-0.59c0.154-0.058,0.321-0.081,0.587-0.076c0.421,0.018,0.708,0.082,1.021,0.209
		c0.155,0.037,0.313,0.081,0.473,0.122c0.069,0.07,0.132,0.134,0.207,0.206c0.273,0.252,0.539,0.499,0.761,0.722
		c0.071,0.089,0.314,0.416,0.651,0.765c0.284,0.269,0.499,0.438,0.57,0.503c0.122,0.107,0.181,0.152,0.229,0.202
		c0.053,0.05,0.17,0.185,0.358,0.376c0.318,0.319,0.697,0.642,1.021,0.895c0.646,0.516,1.208,0.871,1.912,1.387
		c0.152,0.115,0.216,0.166,0.317,0.263c0.149,0.134,0.354,0.334,0.59,0.551c0.146,0.135,0.164,0.144,0.14,0.126
		c0.103,0.107,0.248,0.319,0.543,0.667c0.144,0.167,0.284,0.333,0.406,0.479c0.519,0.615,0.957,1.129,1.407,1.665
		c0.192,0.232,0.502,0.587,0.865,0.94c0.722,0.67,1.471,1.183,1.979,1.607c0.377,0.322,0.71,0.693,1.146,1.21
		c0.919,1.057,1.858,2.137,2.771,3.115c1.427,1.48,2.699,2.155,3.443,3.2c0.844,1.093,1.676,2.31,2.563,3.364
		c1.137,1.316,2.231,2.131,3.101,3.118c0.991,1.114,1.938,2.367,2.805,3.446c1.172,1.406,2.223,2.113,3.18,3.229
		c0.981,1.132,2.032,2.595,3.159,3.784c1.161,1.18,2.014,1.814,2.836,2.905c1.14,1.453,2.229,2.847,3.307,4.045
		c1.131,1.258,2.277,2.916,3.47,4.518c0.94,1.226,1.777,2,2.396,2.719c0.633,0.743,1.226,1.804,2.216,3.012
		c0.224,0.267,0.525,0.607,0.82,0.902c0.228,0.233,0.437,0.433,0.591,0.591c0.22,0.216,0.424,0.42,0.615,0.606
		c0.161,0.157,0.305,0.296,0.462,0.451c0.179,0.17,0.355,0.338,0.533,0.504c0.01,0.065-0.006,0.129,0.013,0.194
		c0.313,1.467,0.842,2.809,0.896,4.097C179.589,75.967,179.628,76.813,179.573,77.693z"/>
	<path d="M21.888,94.979c-0.71-0.234-1.521-0.424-2.31-0.582c-0.679-0.08-1.356-0.143-1.972-0.196
		c-0.613-0.042-1.16-0.081-1.591-0.13c-0.746-0.057-1.123-0.117-1.601-0.241c-0.2-0.044-0.41-0.119-0.637-0.201
		c-0.021-0.007-0.015-0.001-0.014,0.001c-0.173-0.121-0.335-0.25-0.453-0.374c-0.06-0.063-0.056-0.085-0.123-0.211
		c-0.068-0.106-0.131-0.233-0.213-0.396c-0.155-0.273-0.266-0.459-0.327-0.707c-0.165-0.569-0.19-1.092-0.166-1.746
		c-0.004-0.932,0.133-1.879,0.089-2.877c0.031-0.045,0.063-0.096,0.09-0.143c0.005-0.394-0.31-0.719-0.704-0.723
		c-0.394-0.005-0.717,0.309-0.723,0.703c0.029,0.042,0.056,0.08,0.084,0.121c-0.104,0.854-0.396,1.744-0.563,2.771
		c-0.092,0.724-0.117,1.525,0.019,2.308c0.088,0.445,0.259,0.871,0.399,1.189c0.068,0.146,0.157,0.335,0.266,0.521
		c0.067,0.106,0.203,0.316,0.382,0.519c0.204,0.237,0.489,0.495,0.708,0.674c0.174,0.132,0.411,0.248,0.542,0.3
		c0.242,0.088,0.571,0.203,0.891,0.275c0.576,0.112,1.146,0.166,1.94,0.193c0.463,0.005,1.029-0.002,1.639-0.004
		c0.61-0.015,1.268-0.022,1.925-0.015c0.774-0.05,1.535-0.073,2.232-0.048c0.272,0.053,0.535-0.129,0.585-0.4
		C22.34,95.291,22.16,95.029,21.888,94.979z"/>
	<path d="M89.036,56.683c-0.052-0.024-0.098-0.047-0.146-0.071c-0.116-0.112-0.265-0.194-0.438-0.209
		c-0.195-0.025-0.383-0.049-0.571-0.075c-0.373-0.054-0.729-0.109-1.091-0.168c-0.159-0.046-0.325-0.094-0.5-0.143
		c-0.357-0.036-0.748-0.079-1.158-0.125c-0.655-0.075-1.344-0.141-2.004-0.229c-0.8-0.102-1.647-0.192-2.467-0.257
		c-1.125-0.1-2.098-0.123-2.802-0.134c-0.702,0.009-1.193,0.037-1.427,0.085c-0.024,0.006-0.076,0.019-0.117,0.031
		c-0.062,0.02-0.323,0.179-0.535,0.57c0.097,0.501,0.401,0.764,0.47,0.787c0.048,0.011,0.104,0.02,0.126,0.02
		c0.072-0.006,0.17-0.013,0.255-0.027c0.021,0,0.056-0.001,0.075-0.002c-0.018,0.011-0.056,0.042-0.063,0.045
		c-0.03,0.011-0.067,0.02-0.07,0.024c0.136,0.013,0.561,0.04,1.245,0.084c0.698,0.026,1.61,0.062,2.685,0.173
		c0.791,0.09,1.601,0.202,2.376,0.328c0.689,0.107,1.394,0.19,2.033,0.278c0.411,0.055,0.809,0.108,1.173,0.154
		c0.188-0.008,0.369-0.021,0.539-0.031c0.374,0.016,0.748,0.027,1.127,0.039c0.19,0.009,0.381,0.017,0.576,0.025
		c0.173,0.016,0.332-0.04,0.465-0.13c0.056-0.015,0.104-0.03,0.154-0.043c0.277,0.024,0.521-0.18,0.545-0.456
		C89.516,56.951,89.312,56.707,89.036,56.683z M76.678,55.479c-0.058-0.018-0.075-0.036-0.066-0.052
		c0.008-0.003,0.051,0.003,0.091,0.012c0.011,0.003,0.037,0.024,0.063,0.044C76.736,55.482,76.697,55.482,76.678,55.479z"/>
	<path d="M128.489,22.764c-0.07-0.009,0.039,0.048,0.337,0.195c0.126,0.06,0.249,0.121,0.389,0.202
		c0.146,0.079,0.283,0.161,0.444,0.272c0.104,0.081,0.202,0.162,0.315,0.261c0.108,0.1,0.216,0.2,0.337,0.321
		c0.203,0.158,0.401,0.328,0.628,0.547c0.073,0.076,0.143,0.151,0.217,0.234c0.168,0.151,0.334,0.312,0.511,0.498
		c0.106,0.141,0.259,0.224,0.421,0.253c0.169,0.18,0.438,0.232,0.646,0.084c0.211-0.15,0.254-0.431,0.129-0.652
		c0.022-0.168-0.017-0.344-0.126-0.49c-0.138-0.231-0.28-0.453-0.415-0.655c-0.004-0.006-0.006-0.014-0.011-0.02
		c-0.001-0.001-0.003-0.002-0.004-0.004c-0.075-0.094-0.156-0.19-0.232-0.277c-0.221-0.275-0.45-0.53-0.657-0.745
		c-0.152-0.126-0.313-0.249-0.462-0.351c-0.146-0.103-0.299-0.202-0.435-0.284c-0.201-0.132-0.405-0.252-0.582-0.345
		c-0.179-0.091-0.355-0.171-0.507-0.233c-0.37-0.147-0.787-0.257-1.143-0.226c-0.391,0.055-0.662,0.416-0.605,0.805
		C127.74,22.546,128.099,22.817,128.489,22.764z"/>
	<path d="M170.003,66.818c-0.193-0.246-0.425-0.535-0.667-0.873c-0.3-0.391-0.597-0.786-0.896-1.171c0-0.001,0-0.002-0.001-0.003
		c0-0.001-0.002-0.001-0.002-0.001c-0.545-0.716-1.065-1.44-1.644-2.181c-0.119-0.171-0.224-0.321-0.315-0.471
		c-0.773-0.952-1.613-2.058-2.437-3.025c-0.462-0.529-0.874-0.955-1.193-1.386c-0.475-0.627-0.897-1.329-1.394-1.954
		c-0.571-0.702-1.123-1.332-1.606-1.772c-0.283-0.246-0.507-0.394-0.623-0.497c-0.229-0.197-0.372-0.317-0.496-0.444
		c-0.119-0.122-0.206-0.192-0.254-0.24c-0.084-0.108-0.16-0.182-0.19-0.206c-0.078-0.089-0.158-0.164-0.193-0.191
		c-0.016-0.014-0.01,0.001,0.008,0.022c0.004,0.009,0.024,0.053,0.048,0.09c-0.089-0.175-0.238-0.319-0.438-0.389
		c-0.405-0.142-0.851,0.071-0.992,0.476c-0.062,0.178-0.046,0.36,0.017,0.525c-0.003,0.024,0,0.046,0.005,0.062
		c0.031,0.066,0.077,0.145,0.097,0.174c0.035,0.05,0.074,0.102,0.097,0.128c0.042,0.053,0.058,0.075,0.048,0.077
		c0.042,0.07,0.046,0.087,0.046,0.101c-0.016,0.007-0.018,0.039-0.03,0.037c0.045,0.153,0.146,0.27,0.264,0.358
		c0.019,0.028,0.044,0.071,0.059,0.095c0.152,0.226,0.352,0.458,0.563,0.697c0.205,0.218,0.41,0.39,0.604,0.589
		c0.372,0.367,0.809,0.909,1.339,1.603c0.403,0.514,0.81,1.205,1.338,1.922c0.398,0.536,0.854,1.022,1.282,1.518
		c0.799,0.902,1.646,1.977,2.465,2.942c0.162,0.157,0.322,0.296,0.464,0.42c0.645,0.643,1.249,1.288,1.896,1.944
		c0.333,0.341,0.671,0.699,1.02,1.06c0.32,0.317,0.64,0.593,0.896,0.796c0.278,0.24,0.557,0.466,0.817,0.645
		c0.215,0.175,0.531,0.142,0.706-0.074c0.176-0.214,0.146-0.531-0.071-0.706C170.439,67.327,170.24,67.094,170.003,66.818z
		 M158.168,52.562c0.003,0.011,0.006,0.049,0.009,0.068c-0.009-0.032-0.011-0.067-0.022-0.099
		C158.158,52.544,158.163,52.549,158.168,52.562z M158.181,53.122c-0.001-0.001,0-0.002,0-0.003
		c-0.029-0.005-0.051-0.008-0.075-0.013c-0.002,0-0.002-0.001-0.002-0.001c-0.032-0.116-0.066-0.229-0.066-0.288
		c0.06,0.025,0.117,0.17,0.146,0.302C158.181,53.12,158.181,53.122,158.181,53.122z"/>
	<path d="M137.492,112.709c-0.438,0.307-0.874,0.669-1.248,1.061c-0.217,0.211-0.405,0.41-0.588,0.578
		c-0.157,0.146-0.339,0.301-0.513,0.486c-0.823,0.846-1.793,1.402-2.755,1.891c-0.911,0.451-1.784,0.791-2.604,1.271
		c-0.447,0.349-0.861,0.706-1.239,1.022c-0.398,0.332-0.802,0.662-1.151,0.979c-0.541,0.495-0.97,0.926-1.289,1.251
		c-0.248,0.262-0.441,0.479-0.604,0.668c-0.384,0.458-0.65,0.852-0.852,1.242c-0.231,0.316-0.159,0.765,0.16,0.994
		c0.316,0.23,0.766,0.158,0.996-0.159c0.25-0.231,0.514-0.409,0.963-0.735c0.188-0.143,0.4-0.301,0.678-0.509
		c0.373-0.297,0.811-0.663,1.354-1.09c0.342-0.271,0.724-0.56,1.136-0.864c0.42-0.309,0.817-0.609,1.235-0.896
		c0.563-0.524,1.276-0.986,2.156-1.637c0.91-0.66,1.969-1.506,2.788-2.599c0.111-0.153,0.25-0.308,0.406-0.493
		c0.185-0.22,0.352-0.45,0.522-0.669c0.313-0.365,0.649-0.681,1.038-0.981c0.226-0.164,0.271-0.479,0.106-0.701
		C138.03,112.593,137.716,112.545,137.492,112.709z"/>
</g>
</svg>
