<?xml version="1.0" encoding="utf-8"?>
<!-- Generator: Adobe Illustrator 16.0.0, SVG Export Plug-In . SVG Version: 6.00 Build 0)  -->
<!DOCTYPE svg PUBLIC "-//W3C//DTD SVG 1.1//EN" "http://www.w3.org/Graphics/SVG/1.1/DTD/svg11.dtd">
<svg version="1.1" id="Ebene_1" xmlns="http://www.w3.org/2000/svg" xmlns:xlink="http://www.w3.org/1999/xlink" x="0px" y="0px"
	 width="142.193px" height="142.266px" viewBox="0 0 142.193 142.266" enable-background="new 0 0 142.193 142.266"
	 xml:space="preserve">
<g>
	<path fill="#FFFFFF" d="M142.112,65.712c-0.104-1.479-0.338-2.863-0.565-4.063c-0.054-0.25-0.122-0.563-0.191-0.843
		c-0.101-0.396-0.185-0.66-0.248-0.911c-0.051-0.189-0.135-0.568-0.255-0.982c-0.1-0.325-0.159-0.511-0.198-0.662
		c-0.049-0.19-0.085-0.34-0.123-0.527c-0.086-0.407-0.17-0.908-0.273-1.438c-0.2-1.045-0.426-2.086-0.758-3.115
		c-0.438-1.352-0.809-2.695-1.149-4.36c-0.224-1.021-0.468-2.217-0.834-3.304c-0.543-1.528-1.04-2.589-1.382-3.747
		c-0.225-0.731-0.521-1.692-0.903-2.64c-0.582-1.531-1.563-3.177-2.519-4.353c-0.311-0.375-0.528-0.621-0.712-0.878
		c-0.439-0.637-0.925-1.409-1.464-2.295c-1.092-1.706-2.63-4.021-4.728-5.718c-1.212-0.927-2.118-1.574-2.889-2.502
		c-1.166-1.336-2.522-3.12-4.18-4.53c-1.701-1.404-3.158-2.152-4.047-2.955c-1.332-1.138-2.781-2.418-4.562-3.658
		c-2.711-1.882-5.342-3.172-8.215-4.123c-1.683-0.568-3.198-1.171-4.364-1.797c-1.684-0.875-3.623-1.585-5.429-2.39
		c-1.804-0.797-3.547-1.627-5.687-2.161c-1.954-0.464-4.214-0.769-5.815-1.095C79.125,0.37,77.371,0.031,75.35,0.01
		c-2.183-0.021-4.017-0.014-5.813,0.021c-1.788,0.058-3.962,0.347-5.671,0.59c-1.162,0.16-2.236,0.208-3.729,0.395
		c-1.408,0.171-3.038,0.447-4.312,0.69c-1.17,0.222-2.168,0.394-3.361,0.611c-1.592,0.308-3.432,0.692-4.942,1.03
		c-1.771,0.397-3.813,0.99-5.959,1.77c-2.002,0.754-3.478,1.595-5.175,2.317c-1.657,0.67-3.743,1.439-5.469,2.279
		c-1.569,0.757-3.01,1.625-4.573,2.609c-2.032,1.299-3.842,2.783-5.122,3.765c-1.273,1.007-2.741,2.134-4.331,3.935
		c-1.414,1.625-2.684,3.551-3.582,4.833c-0.812,1.156-1.646,2.24-2.521,3.795c-0.833,1.566-1.387,3.155-1.969,4.278
		c-0.589,1.15-1.523,2.319-2.378,4.065c-0.711,1.555-1.321,3.398-1.763,4.882c-0.458,1.472-0.894,2.821-1.311,4.438
		c-0.464,1.697-0.896,3.502-1.325,4.811c-0.131,0.313-0.264,0.638-0.395,0.96c-0.321,1.08-0.652,2.325-0.887,3.714
		c-0.313,1.899-0.532,3.787-0.668,5.124c-0.107,1.131-0.107,2.307-0.096,3.511c0.04,1.511,0.006,3.258,0.136,4.716
		C0.23,70.66,0.5,71.761,0.572,73.105c0.077,1.127,0.083,2.526,0.229,3.86c0.225,1.662,0.606,2.938,0.925,4.514
		c0.301,1.488,0.609,3.271,0.948,4.729c0.326,1.313,0.675,2.425,1.006,3.79c0.315,1.383,0.613,3.188,1.14,4.674
		c0.539,1.359,1.125,2.359,1.489,3.162c0.247,0.563,0.518,1.207,0.819,1.854c0.573,1.211,1.163,2.404,1.834,3.658
		c0.104,0.195,0.199,0.377,0.278,0.531c0.133,0.254,0.261,0.494,0.392,0.729c0.113,0.207,0.22,0.394,0.313,0.563
		s0.205,0.371,0.313,0.563c0.167,0.295,0.321,0.56,0.465,0.806c0.113,0.209,0.233,0.424,0.356,0.643
		c0.292,0.533,0.575,1.021,0.835,1.527c0.602,1.115,1.381,2.576,2.353,3.756c1.213,1.367,2.663,2.611,3.872,3.842
		c1.551,1.574,3.463,3.465,5.737,4.805c2.043,1.16,3.964,2.3,5.456,3.58c1.521,1.343,3.646,3.445,6.146,4.98
		c1.162,0.666,2.221,1.744,4.09,3.029c1.454,0.975,3.076,1.75,4.238,2.45c1.271,0.763,2.64,1.595,4.336,2.275
		c1.649,0.633,3.534,1.154,5.059,1.648c0.961,0.336,1.941,0.698,3.076,1.057c1.692,0.521,3.646,0.965,5.229,1.248
		c1.319,0.213,2.539,0.42,3.914,0.6c1.455,0.183,3.113,0.271,4.447,0.271c1.527-0.012,2.943-0.066,4.617-0.188
		c1.951-0.104,4.248-0.334,6.212-0.807c1.323-0.389,2.445-0.814,3.593-1.012c0.924-0.164,1.97-0.334,3.029-0.605
		c1.604-0.396,3.331-0.959,5.089-1.533c1.894-0.586,3.745-1.344,5.313-2.164c0.229-0.123,0.474-0.256,0.715-0.387
		c0.056,0.029,0.105,0.063,0.167,0.09c0.055,0.017,0.106,0.027,0.164,0.043c0.12,0.031,0.24,0.063,0.37,0.09
		c0.053-0.012,0.104-0.021,0.157-0.032c0.056-0.017,0.106-0.027,0.16-0.041c0.063-0.011,0.125-0.017,0.188-0.021
		c0.053-0.024,0.104-0.055,0.159-0.08c0.057-0.024,0.109-0.057,0.17-0.084c0.06-0.021,0.12-0.047,0.183-0.067
		c0.061-0.025,0.125-0.054,0.188-0.074c0.062-0.033,0.122-0.066,0.185-0.101c0.062-0.03,0.126-0.063,0.188-0.1
		c0.063-0.033,0.132-0.068,0.191-0.104c0.065-0.034,0.132-0.069,0.197-0.106c0.063-0.035,0.133-0.074,0.198-0.111
		c0.064-0.037,0.138-0.076,0.201-0.11c0.14-0.072,0.283-0.15,0.427-0.228c0.064-0.041,0.139-0.084,0.208-0.127
		c0.067-0.041,0.144-0.084,0.215-0.127c0.138-0.084,0.286-0.178,0.428-0.268c0.144-0.082,0.299-0.177,0.444-0.263
		c0.141-0.094,0.291-0.194,0.432-0.295c0.146-0.09,0.304-0.188,0.449-0.278c1.51-1.136,2.562-2.166,3.946-2.854
		c1.849-0.904,3.845-2.211,5.433-4.076c1.355-1.651,2.684-3.438,3.991-4.578c0.627-0.563,1.313-1.213,1.991-1.955
		c0.412-0.422,0.813-0.854,1.176-1.297c1.305-1.672,2.291-3.301,3.407-4.604c0.919-1.084,2.327-2.197,3.569-3.871
		c1.048-1.461,1.841-3.021,2.469-4.125c0.705-1.242,1.438-2.31,2.211-3.859c0.28-0.569,0.575-1.225,0.844-1.832
		c0.521-1.199,0.949-2.289,1.373-3.125c0.397-0.815,0.846-1.582,1.281-2.506c0.525-0.984,1.015-2.012,1.472-3.074
		c0.589-1.453,1.041-2.846,1.424-3.895c0.224-0.604,0.511-1.285,0.759-2.063c0.287-0.926,0.529-1.975,0.705-2.896
		c0.205-1.08,0.412-2.072,0.59-2.928c0.291-1.568,0.453-3.261,0.656-5.095c0.449-2.564,0.521-4.609,0.651-6.521
		C142.093,67.392,142.14,66.562,142.112,65.712z M135.906,70.638c-0.056,0.846-0.184,1.896-0.358,3.274
		c-0.177,1.604-0.363,2.952-0.575,4.271c-0.148,1.174-0.39,2.707-0.652,4.224c-0.105,0.651-0.211,1.186-0.33,1.678
		c-0.153,0.424-0.344,0.875-0.557,1.43c-0.451,1.152-0.896,2.432-1.438,3.689c-0.659,1.635-1.22,2.873-1.979,4.121
		c-0.813,1.264-1.78,2.866-2.721,4.469c-0.873,1.494-1.606,2.512-2.516,3.635c-1.119,1.42-2.142,3.205-3.163,4.832
		c-0.71,1.186-1.53,2.115-2.407,3.295c-1.26,1.713-2.209,3.658-3.13,5.125c-0.521,0.873-1.104,1.463-1.89,2.189
		c-0.673,0.522-1.462,1.082-2.294,1.791c-1.405,1.196-2.6,2.543-3.743,3.621c-1.063,1.024-2.355,1.758-3.799,2.545
		c-1.857,1.02-3.435,2.18-5.188,3.254c-1.392,0.86-2.884,1.627-4.331,2.371c-1.293,0.686-2.608,1.227-4.248,1.727
		c-1.772,0.514-3.303,0.955-4.677,1.232c-0.77,0.143-1.56,0.205-2.541,0.311c-1.722,0.209-3.247,0.646-4.375,0.887
		c-1.437,0.4-3.129,0.597-4.929,0.729c-1.564,0.082-2.738,0.096-4.176,0.074c-1.123-0.011-2.375-0.088-3.58-0.254
		c-1.249-0.162-2.356-0.353-3.7-0.566c-1.409-0.201-2.981-0.51-4.427-0.914c-0.99-0.27-1.875-0.561-2.906-0.881
		c-1.67-0.562-3.394-1.047-4.697-1.574c-1.203-0.453-2.063-0.996-3.387-1.771c-1.465-0.855-2.94-1.535-3.938-2.211
		c-1.43-0.943-2.625-2.113-4.444-3.207c-1.844-1.025-3.563-2.724-5.302-4.189c-1.92-1.652-4.309-3.123-6.399-4.344
		c-1.532-0.854-2.783-2.172-4.32-3.75c-1.396-1.433-2.73-2.578-3.595-3.586c-0.521-0.525-1.025-1.445-1.688-2.582
		c-0.36-0.609-0.716-1.146-1.002-1.59c-0.119-0.195-0.232-0.39-0.354-0.593c-0.161-0.272-0.313-0.524-0.461-0.78
		c-0.1-0.164-0.196-0.336-0.295-0.513c-0.122-0.213-0.222-0.375-0.3-0.514c-0.111-0.203-0.202-0.375-0.322-0.602
		c-0.104-0.195-0.207-0.388-0.292-0.546c-0.605-1.176-1.104-2.229-1.636-3.399c-0.237-0.529-0.461-1.084-0.711-1.686
		c-0.462-1.146-0.915-1.99-1.222-2.933c-0.31-0.781-0.539-2.271-0.903-3.877c-0.334-1.547-0.646-2.688-0.892-3.834
		c-0.288-1.252-0.575-2.953-0.887-4.535c-0.364-1.838-0.689-2.895-0.816-4.039C7.276,75.21,7.249,73.94,7.13,72.587
		c-0.183-1.84-0.515-2.983-0.588-3.877c-0.045-1.063,0.058-2.637,0.084-4.296c0.005-1.184,0.017-1.994,0.113-2.776
		c0.146-1.29,0.355-2.976,0.659-4.713c0.185-1.087,0.415-1.895,0.72-2.891c0.063-0.316,0.127-0.639,0.199-0.979
		c0.461-1.58,0.882-3.513,1.278-5.121c0.38-1.441,0.77-2.621,1.243-4.115c0.465-1.389,0.973-2.813,1.561-3.974
		c0.505-1.095,1.374-2.146,2.275-3.818c0.83-1.547,1.396-3.063,2.013-4.104c0.638-1.172,1.243-1.935,2.139-3.226
		c0.958-1.388,2.012-3.022,3.108-4.271c1.185-1.376,2.098-2.025,3.438-3.086c1.351-1.101,2.87-2.434,4.536-3.544
		c1.5-1.014,2.582-1.741,3.854-2.409c1.372-0.712,3.264-1.433,5.016-2.174c2.015-0.814,3.369-1.549,4.945-2.082
		c1.963-0.702,3.614-1.169,5.182-1.507c1.477-0.323,3.229-0.688,4.762-0.978c1.158-0.226,2.172-0.412,3.39-0.654
		c1.188-0.237,2.617-0.488,3.863-0.646c1.27-0.155,2.36-0.197,3.784-0.378c1.694-0.207,3.559-0.428,4.961-0.432
		c1.754-0.038,3.492-0.052,5.631-0.034c1.439,0.008,2.521,0.261,4.029,0.576c1.839,0.373,3.988,0.663,5.58,1.054
		c1.504,0.345,2.67,0.939,4.58,1.782c2.014,0.88,3.807,1.513,5.058,2.168c1.527,0.777,3.496,1.541,5.339,2.146
		c2.482,0.834,4.177,1.684,6.504,3.346c1.463,1.037,2.616,2.108,3.979,3.311c1.521,1.292,2.975,2.041,4.125,3.032
		c1.051,0.856,2.078,2.278,3.387,3.813c1.273,1.44,2.734,2.541,3.912,3.435c1.279,0.876,2.202,2.313,3.351,4.001
		c0.634,0.891,1.299,1.792,1.903,2.523c0.381,0.479,0.74,0.853,0.979,1.113c0.021,0.023,0.04,0.048,0.062,0.072
		c0.265,0.529,0.536,1.107,0.815,1.797c0.441,1.077,1.042,2.641,1.748,4.078c0.028,0.058,0.059,0.105,0.089,0.164
		c0.312,0.91,0.634,1.745,0.915,2.604c0.227,0.655,0.381,1.508,0.6,2.578c0.396,1.845,0.865,3.524,1.354,5.006
		c0.236,0.715,0.371,1.37,0.564,2.374c0.087,0.442,0.179,0.982,0.288,1.522c0.061,0.271,0.127,0.563,0.19,0.81
		c0.093,0.354,0.186,0.637,0.254,0.87c0.057,0.184,0.117,0.47,0.206,0.811c0.104,0.396,0.172,0.596,0.214,0.778
		c0.038,0.174,0.071,0.362,0.11,0.584c0.229,1.144,0.418,2.143,0.506,3.314c0.061,0.443,0.08,0.926,0.1,1.438
		C136.012,68.742,135.962,69.545,135.906,70.638z"/>
	<path fill="#FFFFFF" d="M104.368,65.361c-0.001-0.016,0.005-0.028,0.003-0.048c0,0,0,0,0-0.001
		c-0.001-0.005-0.004-0.008-0.005-0.013s-0.006-0.016-0.007-0.022c-0.018-0.09-0.047-0.173-0.091-0.257
		c-0.012-0.015-0.018-0.027-0.024-0.044c-0.021-0.036-0.031-0.077-0.06-0.108c-0.001-0.001-0.002-0.005-0.003-0.005
		c0.011-0.278-0.001-0.563-0.057-0.812c-0.479-1.118-1.383-1.743-1.662-1.971c-0.542-0.438-0.996-0.705-1.278-0.948
		c-0.531-0.354-1.283-1.22-2.327-2.259c-0.146-0.146-0.242-0.237-0.313-0.313c-0.144-0.14-0.292-0.336-0.614-0.681
		c-0.238-0.255-0.539-0.553-0.765-0.775c-0.187-0.188-0.351-0.351-0.529-0.513c-0.132-0.114-0.265-0.225-0.373-0.322
		c-0.31-0.272-0.757-0.65-1.242-0.932c-0.701-0.396-1.271-0.638-1.804-1.007c-0.801-0.53-1.854-1.498-3.012-2.367
		c-0.578-0.437-1.174-0.817-1.711-1.211c-0.797-0.571-1.402-1.021-2.027-1.585c-0.274-0.251-0.647-0.625-1.069-0.967
		c-0.869-0.684-1.516-1.001-2.108-1.387c-0.16-0.1-0.313-0.19-0.45-0.279c-0.333-0.218-0.569-0.372-0.821-0.563
		c-0.494-0.378-0.958-0.795-1.611-1.329c-0.302-0.256-0.537-0.444-0.668-0.588c-0.129-0.121-0.251-0.251-0.41-0.412
		c-0.25-0.251-0.467-0.479-0.73-0.757c-0.643-0.667-1.438-1.394-2.206-1.961c-0.406-0.293-0.703-0.482-1.088-0.776
		c-0.214-0.158-0.429-0.332-0.619-0.491c-0.108-0.095-0.216-0.185-0.316-0.271c-0.236-0.199-0.477-0.379-0.682-0.53
		c-0.333-0.23-0.691-0.587-1.202-1.071c-0.569-0.558-1.12-1.029-1.364-1.329c-0.113-0.127-0.287-0.329-0.49-0.529
		c-0.505-0.461-1.104-0.82-1.588-1.104c-1.225-0.719-2.05-0.875-2.66-1.392c-0.145-0.104-0.298-0.239-0.475-0.396
		c-0.129-0.111-0.285-0.277-0.549-0.5c-0.239-0.193-0.402-0.307-0.478-0.389c-0.269-0.268-0.587-0.751-1.092-1.248
		c-0.307-0.282-0.528-0.451-0.867-0.75c-0.188-0.165-0.37-0.317-0.524-0.468c-0.313-0.282-0.729-0.688-1.22-1.005
		c-0.67-0.392-1.024-0.445-1.15-0.556c-0.227-0.14-0.464-0.353-0.78-0.59c-0.668-0.479-1.061-0.564-1.178-0.73
		c-0.197-0.146-0.635-0.622-1.261-0.916c-0.112,0.008-0.53-0.171-1.29-0.138c-0.106,0.057-0.286,0.201-0.441,0.356
		c-0.012,0.005-0.025,0.011-0.037,0.016c-0.063-0.195-0.241-0.339-0.458-0.339c-0.269,0-0.485,0.218-0.485,0.484
		c-0.021,0.023-0.042,0.059-0.063,0.1c-0.041,0.081-0.083,0.192-0.125,0.316c-0.059,1.045-0.116,2.323-0.221,3.475
		c-0.066,1.154-0.097,2.781-0.123,4.098c-0.055,1.757-0.075,3.282-0.117,5.328c-0.008,1.528-0.022,2.783,0.003,4.054
		c0.027,1.116,0.021,2.654,0.086,4.136c0.071,1.417,0.146,2.226,0.173,3.479c0.006,1.039-0.008,2.369-0.074,3.565
		c-0.057,1.087-0.133,1.94-0.146,3.141c-0.013,1.217,0.003,2.827-0.02,4.127c-0.019,0.961-0.056,1.684-0.091,2.554
		c-0.037,1.159-0.034,2.623-0.051,3.876c-0.029,0.945-0.059,1.688-0.102,2.462c-0.051,1.129-0.175,2.875-0.209,4.411
		c-0.025,1.465-0.003,2.357-0.009,3.568c0.002,1.192-0.016,2.807-0.017,4.11c0.011,1.238-0.009,2.074-0.04,3.287
		c-0.069,1.728-0.111,3.73-0.117,5.086c-0.004,1.476-0.048,3.381-0.045,5.201c0,2.273-0.004,3.701-0.006,5.709
		c0,0.924-0.006,1.736,0.021,2.613c0.016,0.455,0.049,0.873,0.069,1.283c0.008,0.141,0.015,0.299,0.021,0.471
		c0.004,0.068,0.006,0.139,0.01,0.205c0.004,0.067,0.009,0.135,0.014,0.195c0.004,0.063,0.011,0.129,0.017,0.182
		c0.018,0.055,0.042,0.146,0.067,0.229c0.076,0.05,0.209,0.228,0.404,0.402c0.038,0.027,0.126,0.082,0.229,0.137
		c0.09,0.3,0.262,0.572,0.537,0.761c0.345,0.227,0.745,0.271,1.115,0.174c0.027,0.004,0.055,0,0.071-0.004
		c0.098-0.033,0.206-0.08,0.246-0.104c0.045-0.022,0.082-0.047,0.122-0.072c0.063-0.032,0.14-0.075,0.225-0.12
		c0.011-0.011,0.19-0.082,0.422-0.229c0.114-0.076,0.212-0.145,0.304-0.205c0.062-0.043,0.123-0.09,0.187-0.137
		c0.616-0.394,1.272-0.844,2.008-1.299c1.086-0.67,2.807-1.685,4.127-2.826c0.206-0.185,0.393-0.354,0.577-0.527
		c0.611-0.496,1.229-1.018,1.839-1.602c1.039-1,2.416-1.664,3.709-2.527c1.065-0.688,2.063-1.617,2.896-2.443
		c1.452-1.483,3.368-3.118,4.781-4.086c1.358-0.961,2.745-2.26,4.359-3.821c1.293-1.271,3.06-2.509,4.229-3.556
		c0.846-0.768,1.674-1.547,2.747-2.53c1.005-0.908,1.95-1.834,2.646-2.563c0.618-0.662,1.232-1.068,2.388-2.125
		c0.508-0.471,0.967-0.961,1.368-1.367c0.48-0.471,0.946-0.961,1.399-1.438c1.117-1.199,1.832-2.104,2.496-2.771
		c0.578-0.592,1.391-1.333,2.051-1.933c0.421-0.378,0.902-0.819,1.404-1.381c0.118-0.142,0.258-0.306,0.392-0.473
		c0.175-0.064,0.327-0.141,0.438-0.198c0.339-0.239,0.576-0.55,0.742-0.742c0.186-0.232,0.468-0.599,0.646-0.998
		c0.149-0.334,0.307-0.858,0.265-1.335c-0.002-0.01-0.007-0.024-0.009-0.034C104.377,65.484,104.372,65.423,104.368,65.361z
		 M58.069,83.285c-0.003,0.133-0.008,0.258-0.012,0.36c-0.026,0.41-0.055,0.838-0.078,1.312c-0.008,0.182-0.018,0.369-0.021,0.559
		c-0.033,0.652-0.063,1.318-0.08,1.951c-0.009,0.379-0.02,0.779-0.022,1.213c-0.002,0.164-0.007,0.322-0.013,0.469
		c-0.018,0.328-0.024,0.658-0.037,1.004c-0.008,0.188-0.014,0.386-0.018,0.595c-0.014,0.524-0.021,1.061-0.04,1.61
		c-0.003,0.17-0.001,0.345-0.003,0.521c-0.018,0.207-0.048,0.428-0.077,0.658c-0.01,0.176-0.159,0.309-0.335,0.299
		c-0.174-0.01-0.309-0.158-0.299-0.334c-0.003-0.236-0.006-0.439-0.021-0.625c-0.001-0.172-0.007-0.347-0.006-0.523
		c-0.009-0.547-0.023-1.078-0.036-1.604c-0.009-0.211-0.013-0.406-0.019-0.59c-0.016-0.345-0.032-0.683-0.041-1.021
		c0.002-0.154,0.007-0.309,0.008-0.465c0.002-0.438,0.01-0.84,0.013-1.217c0.002-0.646,0.021-1.324,0.044-1.979
		c0.009-0.188,0.019-0.381,0.026-0.565c0.021-0.474,0.042-0.902,0.063-1.314c0.008-0.104,0.016-0.217,0.021-0.34
		c0.021-0.422,0.033-0.873,0.042-1.283c0.015-0.483,0.018-0.854,0.021-1.184c0.014-0.439,0.032-0.797,0.033-1.104
		c0-0.254-0.014-0.486-0.004-0.688c-0.011-0.084-0.017-0.14-0.021-0.199c-0.03-0.063-0.051-0.127-0.051-0.201
		c0-0.129,0.002-0.213,0-0.297c-0.008-0.25,0.187-0.457,0.436-0.467c0.249-0.008,0.457,0.188,0.466,0.438
		c0.006,0.107,0.004,0.209,0.003,0.332c0,0.072-0.021,0.142-0.056,0.199c-0.006,0.059-0.014,0.109-0.019,0.182
		c0.014,0.168,0.045,0.396,0.064,0.668c0.026,0.328,0.036,0.701,0.053,1.138c0.007,0.321,0.019,0.696,0.021,1.188
		C58.083,82.393,58.079,82.855,58.069,83.285z M74.788,47.742c-0.113,0.134-0.313,0.147-0.447,0.033
		c-0.228-0.148-0.465-0.32-0.722-0.487c-0.138-0.07-0.271-0.137-0.421-0.196c-0.273-0.187-0.571-0.426-0.845-0.683
		c-0.157-0.146-0.305-0.286-0.44-0.413c-0.558-0.483-0.999-0.938-1.521-1.198c-0.344-0.205-0.65-0.448-0.934-0.665
		c-0.111-0.087-0.295-0.214-0.462-0.384c-0.146-0.151-0.296-0.296-0.438-0.44c-0.111-0.121-0.213-0.229-0.319-0.336
		c-0.143-0.143-0.261-0.258-0.388-0.361c-0.386-0.31-0.867-0.59-1.313-0.992c-0.649-0.604-1.285-1.313-1.896-1.865
		c-0.457-0.438-0.959-0.817-1.355-1.263c-0.459-0.519-0.769-0.99-1.059-1.333c-0.188-0.236-0.356-0.444-0.521-0.635
		c-0.373-0.396-0.673-0.646-0.889-0.879c-0.218-0.237-0.338-0.439-0.402-0.621c-0.043-0.049-0.079-0.104-0.094-0.173
		c-0.021-0.019-0.045-0.048-0.063-0.064c-0.031-0.247,0.144-0.476,0.39-0.508c0.247-0.029,0.473,0.146,0.505,0.393
		c-0.017,0.006-0.035,0.004-0.052,0.011c0.003,0.014-0.001,0.028,0.001,0.042c0.042,0.044,0.124,0.108,0.335,0.283
		c0.192,0.164,0.539,0.405,0.975,0.811c0.2,0.175,0.42,0.376,0.646,0.601c0.357,0.384,0.678,0.82,1.104,1.258
		c0.325,0.33,0.817,0.657,1.354,1.112c0.67,0.6,1.31,1.307,1.919,1.854c0.33,0.3,0.78,0.545,1.256,0.908
		c0.179,0.139,0.354,0.299,0.508,0.446c0.128,0.124,0.252,0.252,0.365,0.37c0.133,0.148,0.271,0.309,0.421,0.476
		c0.06,0.074,0.154,0.138,0.296,0.251c0.283,0.224,0.526,0.423,0.793,0.584c0.64,0.442,1.121,1.045,1.588,1.552
		c0.141,0.144,0.279,0.286,0.422,0.433c0.239,0.234,0.469,0.433,0.703,0.602c0.063,0.043,0.109,0.099,0.146,0.16
		c0.068,0.078,0.146,0.155,0.209,0.229h0.001c0.002,0.001,0.002,0.004,0.004,0.005c0.229,0.229,0.433,0.452,0.605,0.646
		C74.886,47.408,74.901,47.609,74.788,47.742z M98.816,65.311c-0.093,0.148-0.289,0.193-0.438,0.102
		c-0.771-0.42-1.563-1.021-2.203-1.545c-0.186-0.178-0.357-0.35-0.517-0.506c-0.193-0.194-0.364-0.375-0.498-0.519
		c-0.052-0.059-0.077-0.095-0.092-0.11c-0.097-0.101-0.152-0.151-0.213-0.227c-0.014-0.027-0.043-0.084-0.063-0.136
		c-0.108-0.203-0.036-0.458,0.166-0.569c0.021-0.01,0.037-0.01,0.058-0.017c0.063-0.042,0.129-0.074,0.157-0.091
		c0.157-0.002,0.29,0.082,0.372,0.203c0.034,0.021,0.085,0.058,0.168,0.123c0.07,0.063,0.123,0.122,0.155,0.151
		c0.132,0.139,0.295,0.308,0.484,0.497c0.148,0.15,0.313,0.313,0.495,0.479c0.544,0.598,1.198,1.236,1.864,1.725
		C98.865,64.966,98.91,65.162,98.816,65.311z"/>
</g>
</svg>
