<?xml version="1.0" encoding="utf-8"?>
<!-- Generator: Adobe Illustrator 16.0.0, SVG Export Plug-In . SVG Version: 6.00 Build 0)  -->
<!DOCTYPE svg PUBLIC "-//W3C//DTD SVG 1.1//EN" "http://www.w3.org/Graphics/SVG/1.1/DTD/svg11.dtd">
<svg version="1.1" id="Ebene_1" xmlns="http://www.w3.org/2000/svg" xmlns:xlink="http://www.w3.org/1999/xlink" x="0px" y="0px"
	 width="232.007px" height="332.438px" viewBox="0 0 232.007 332.438" enable-background="new 0 0 232.007 332.438"
	 xml:space="preserve">
<g>
	<path fill="#FFFFFF" d="M38.88,286.158c0,0,0.001,0.002,0.001,0.002c0,0.001,0,0.001,0,0.001c0.001,0.002,0.001,0.001-0.004-0.011
		C38.859,286.139,38.867,286.146,38.88,286.158z"/>
	<path fill="#FFFFFF" d="M232.001,215.849c-0.086-1.222-0.316-2.118-0.346-2.312c-0.055-0.164-0.059-0.568-0.107-1.38
		c-0.014-0.14-0.008-0.616-0.063-1.313c-0.26-1.644-0.715-2.701-0.695-2.701c-0.041-0.145-0.072-0.248-0.088-0.303
		c-0.006-0.021-0.016-0.041-0.021-0.062c-0.148-0.826-0.469-1.581-0.926-2.229c-0.027-0.07-0.035-0.143-0.064-0.213
		c0.023-0.225,0.211-0.033,0.336-0.019c0,0.038-0.055-0.505-0.221-1.383c-0.115-0.565-0.258-1.18-0.391-1.704
		c-0.117-0.454-0.248-0.969-0.389-1.459c-0.172-0.606-0.266-0.897-0.355-1.309c-0.063-0.229-0.111-0.729-0.225-1.498
		c-0.195-1.283-0.35-2.457-0.537-3.672c-0.023-0.124-0.059-0.545-0.166-1.178c-0.336-1.367-0.799-2.311-0.791-2.334
		c-0.023-0.055-0.039-0.091-0.061-0.139c-0.014-0.283-0.045-0.676-0.098-1.191c-0.125-0.369-0.336-0.793-0.578-1.215
		c0-0.146,0-0.459-0.035-0.979c-0.078-0.747-0.186-1.284-0.225-1.517c0.002-0.058,0.002-0.165-0.008-0.38
		c-0.025-0.553-0.07-1.203-0.119-1.755c-0.104-0.804-0.248-1.41-0.301-1.634c-0.025-0.039,0.006-0.307-0.033-1.111
		c-0.09-0.797-0.234-1.398-0.283-1.549c-0.016,0.07-0.029-0.563-0.26-1.686c-0.385-1.301-0.963-2.388-1.146-2.74
		c-0.135-0.243-0.451-0.797-0.83-1.332c0.068,0.122-0.268-0.438-0.934-1.219c-0.27-0.238-0.514-0.437-0.738-0.614
		c-0.037-0.077-0.076-0.155-0.109-0.211c-0.355-0.468-0.875-1.008-1.104-1.21c-0.043-0.087-0.094-0.185-0.16-0.306
		c-0.004-0.021-0.018-0.066-0.063-0.192c-0.023-0.049-0.029-0.088-0.107-0.357c-0.117-0.414-0.254-0.899-0.395-1.379
		c-0.127-0.416-0.314-1.131-0.6-1.929c-0.434-1.09-0.863-1.8-0.969-2.016c-0.016-0.065-0.092-0.298-0.271-0.753
		c-0.354-0.862-0.848-1.889-1.268-2.716c-0.396-0.803-0.871-1.62-1.219-2.188c0.043,0.085-0.018-0.036-0.256-0.421
		c-0.496-0.717-0.934-1.197-0.975-1.244c-0.092-0.106-0.027-0.014-0.131-0.185c0.002,0.122-0.152-0.228-0.551-0.956
		c-0.469-0.797-1.135-1.647-1.6-2.148c-0.213-0.252-0.451-0.541-0.703-0.844c-0.168-0.201-0.299-0.358-0.41-0.49
		c-0.115-0.258-0.25-0.579-0.414-0.961c-0.328-0.722-0.688-1.319-0.834-1.571c-0.252-0.429-0.453-0.749-0.598-1.021
		c0.021,0.121-0.033-0.213-0.393-1.107c-0.766-1.482-1.648-2.473-1.973-2.848c0.002-0.021-0.088-0.191-0.336-0.583
		c-0.465-0.636-0.789-0.995-0.893-1.111c-0.018-0.035-0.121-0.204-0.365-0.556c-0.236-0.316-0.777-0.922-1.238-1.329
		c-0.076-0.056-0.176-0.118-0.295-0.183c-0.018-0.017-0.043-0.037-0.061-0.054c-0.092-0.106-0.18-0.206-0.232-0.265
		c-0.141-0.156-0.172-0.185-0.086-0.088c-0.537-0.664-1.031-1.137-1.137-1.252c-0.42-0.42-0.77-0.727-0.961-0.91
		c-0.479-0.463-0.938-1.062-1.625-1.828c-0.236-0.249-0.586-0.637-1.023-1.063c-0.447-0.427-0.83-0.74-1.031-0.92
		c-0.164-0.145-0.295-0.267-0.426-0.397c-0.047-0.064-0.111-0.156-0.205-0.285c-0.365-0.465-0.727-0.862-0.945-1.107
		c-0.484-0.538-0.951-1.008-1.258-1.353c-0.074-0.062-0.225-0.309-0.678-0.885c-0.396-0.493-0.877-1.045-1.271-1.466
		c-0.547-0.557-1.066-0.978-1.314-1.184c-0.387-0.321-0.818-0.686-1.158-0.975c-0.189-0.161-0.178-0.146,0.338,0.404
		c-1.061-1.117-2.045-1.723-1.701-1.518c-0.221-0.165-0.623-0.471-1.1-0.791c-0.391-0.26-0.818-0.522-1.133-0.711
		c-0.367-0.221-0.709-0.409-0.928-0.533c-0.287-0.16-0.525-0.293-0.74-0.416c-0.328-0.186-0.475-0.259-0.555-0.311
		c0.055,0.066-0.119-0.102-0.701-0.527c-0.564-0.388-1.006-0.627-1.035-0.648c-0.264-0.152-0.387-0.225-0.572-0.343
		c-0.281-0.185-0.289-0.175-0.402-0.274c0.014,0.023-0.098-0.104-0.439-0.426c-0.605-0.537-1.084-0.863-1.047-0.844
		c-0.248-0.195-0.369-0.288-0.535-0.434c-0.053-0.037-0.213-0.207-0.541-0.523c-0.389-0.365-0.801-0.715-1.111-0.971
		c-0.355-0.291-0.807-0.647-1.227-0.955c-0.492-0.357-0.84-0.564-0.906-0.617c-0.057-0.016-0.291-0.248-0.91-0.741
		c-0.512-0.396-1.123-0.845-1.596-1.175c-0.453-0.316-0.84-0.552-1.037-0.678c-0.127-0.076-0.375-0.275-0.82-0.587
		c-0.656-0.442-1.277-0.79-1.635-0.989c-0.428-0.234-0.879-0.461-1.254-0.644c-0.277-0.135-0.578-0.28-0.881-0.421
		c-0.428-0.201-0.883-0.402-1.301-0.586c-0.383-0.156-0.928-0.404-1.52-0.643c-0.59-0.238-1.072-0.385-1.238-0.441
		c-0.23-0.078-0.533-0.189-0.928-0.325c-0.453-0.155-0.992-0.349-1.523-0.523c-0.408-0.122-0.955-0.286-1.51-0.415
		c-1.064-0.242-2.041-0.352-2.615-0.445c-0.205-0.024-0.508-0.121-1.186-0.281c-0.711-0.168-1.525-0.34-2.328-0.492
		c-0.369-0.068-0.844-0.166-1.336-0.252c-1.053-0.164-1.652-0.168-1.805-0.209c-0.584-0.063-1.701-0.483-3.135-0.865
		c-0.752-0.19-1.361-0.296-1.777-0.388c-0.973-0.207-2.225-0.571-3.633-0.882c-0.76-0.165-1.445-0.274-1.961-0.373
		c-0.357-0.061-0.844-0.2-1.553-0.355c-0.725-0.156-1.426-0.266-1.971-0.357c-0.828-0.146-1.629-0.295-2.393-0.449
		c-0.355-0.066-0.752-0.16-1.25-0.265c-0.338-0.067-0.635-0.12-0.875-0.163c-0.457-0.085-0.934-0.161-1.301-0.221
		c-0.389-0.063-0.742-0.11-1.088-0.154c0.027-0.052,0.057-0.109,0.084-0.145c0.031-0.161,0.066-0.238,0.105-0.254
		c0.008,0.348,0.006,0.51,0.008,0.309c0.004-0.059,0.01-0.119,0.014-0.172c0.08-0.611,0.137-0.98,0.225-1.082
		c0.039-0.084,0.082-0.184,0.125-0.353c0.018-0.122,0.035-0.233,0.053-0.319c0.016-0.084,0.033-0.17,0.051-0.277
		c0.016-0.062,0.031-0.125,0.047-0.186c0.018-0.111,0.037-0.204,0.055-0.25c0.107-0.291,0.213-0.56,0.32-0.873
		c0.113-0.782,0.197-1.171,0.34-1.356c0.02,0.103,0.035,0.271,0.082,0.176c-0.018-0.026-0.037-0.049-0.051-0.091
		c0.02-0.062,0.047-0.154,0.074-0.264c0.158-0.854,0.26-1.832,0.311-2.412c0.018-0.146,0.033-0.314,0.049-0.467
		c-0.02-0.053-0.039-0.109-0.059-0.16c-0.006-0.512-0.016-1.094-0.027-1.641c-0.012-0.141-0.012-0.531-0.035-1.053
		c-0.049-0.842-0.123-1.381-0.146-1.551c0.006,0.021,0.012-0.063,0.01-0.336c-0.027-0.363-0.059-0.813-0.092-1.258
		c-0.025-0.071-0.053-0.152-0.078-0.227c-0.021-0.342-0.051-0.704-0.076-0.983c-0.016-0.133-0.033-0.266-0.049-0.388
		c-0.131-0.238-0.262-0.459-0.391-0.668c-0.055-0.319-0.1-0.451-0.129-0.45c-0.047,0.007-0.092,0.061-0.139,0.048
		c-0.064-0.074-0.121-0.244-0.182-0.592c-0.045-0.236-0.092-0.482-0.139-0.727c0.021-0.082,0.041-0.161,0.063-0.242
		c-0.018-0.08-0.035-0.159-0.053-0.241c-0.004-0.065-0.008-0.122-0.014-0.186c0.117,0.001,0.246,0.001,0.359,0.001
		c0.408-0.015,0.783-0.041,1.104-0.06c0.691-0.028,1.422-0.031,2.148-0.052c0.707-0.012,1.357-0.04,1.902-0.062
		c0.4-0.05,0.77-0.101,1.115-0.151c0.313-0.026,0.615-0.054,0.91-0.08c0.01-0.001,0.018,0,0.027,0
		c0.021,0.003,0.063,0.004,0.121,0.004c0.08-0.006,0.154-0.027,0.23-0.04c0.816-0.076,1.553-0.149,2.148-0.208
		c0.145-0.012,0.277-0.021,0.402-0.029c0.01,0,0.012,0.002,0.023,0.002c0.068,0.018,0.184,0.035,0.332,0.047
		c0.445-0.02,0.789-0.071,0.975-0.082c-0.168,0.008-0.086,0.001,0.234-0.046c0.328-0.06,0.561-0.126,0.578-0.136
		c0.047-0.011,0.109-0.027,0.176-0.045c0.125-0.025,0.248-0.056,0.365-0.1c0.068-0.016,0.152-0.035,0.268-0.063
		c0.055-0.015,0.146-0.034,0.299-0.074c0.199-0.062,0.348-0.114,0.396-0.134c0.123-0.027,0.289-0.065,0.477-0.115
		c0.381-0.128,0.631-0.244,0.666-0.26c-0.189,0.044-0.176,0.038,0.129-0.064c0.256-0.107,0.447-0.197,0.566-0.254
		c-0.252,0.064-0.279,0.059,0.027-0.057c0.244-0.088,0.574-0.202,0.863-0.324c-0.15,0.038-0.111,0.029,0.182-0.069
		c0.141-0.073,0.283-0.162,0.42-0.261c0.035-0.003,0.121-0.025,0.262-0.063c0.172-0.068,0.322-0.136,0.408-0.177
		c-0.027,0.014-0.061,0.03-0.102,0.051c0.24-0.094,0.416-0.177,0.484-0.203c0.35-0.167,0.633-0.344,0.844-0.47
		c0.334-0.206,0.592-0.413,0.578-0.399c0.061-0.053,0.186-0.164,0.299-0.272c0.08-0.082,0.324-0.281,0.648-0.619
		c0.326-0.376,0.486-0.626,0.549-0.701c-0.148,0.098,0.043-0.078,0.418-0.531c0.105-0.196,0.195-0.37,0.271-0.521
		c0.279-0.28,0.424-0.47,0.477-0.538c0.027-0.018,0.063-0.043,0.111-0.076c0.391-0.288,0.559-0.453,0.443-0.327
		c-0.152,0.092-0.072,0.065,0.309-0.202c0.25-0.236,0.49-0.562,0.68-0.866c0.053,0.068,0.25-0.06,0.584-0.355
		c0.275-0.249,0.57-0.549,0.818-0.808c0.133-0.14,0.473-0.504,0.822-1.012c0.291-0.548,0.424-0.959,0.432-0.973
		c0.037-0.088,0.07-0.17,0.102-0.244c0.055-0.106,0.104-0.217,0.17-0.404c0.053-0.113,0.195-0.306,0.443-0.703
		c0.152-0.234,0.281-0.426,0.438-0.639c0.215-0.258,0.381-0.434,0.615-0.674c-0.004,0.045,0.064,0.023,0.244-0.128
		c0.391-0.399,0.883-1.01,1.219-1.546c0.227-0.394,0.441-0.833,0.6-1.174c0.137-0.283,0.336-0.654,0.541-1.088
		c0.258-0.546,0.449-1.025,0.592-1.332c0.145-0.337,0.316-0.652,0.533-1.111c0.063-0.159,0.199-0.444,0.355-0.829
		c0.203-0.553,0.305-1.018,0.344-1.178c0.094-0.374,0.25-0.852,0.412-1.419c0.125-0.439,0.234-0.861,0.336-1.229
		c0.088-0.327,0.188-0.65,0.295-1.017c0.07-0.291,0.172-0.662,0.271-1.099c0.09-0.4,0.158-0.82,0.207-1.147
		c0.084-0.598,0.195-1.393,0.258-2.179c0.07-0.84,0.061-1.624,0.066-2.156c0.018-0.261,0.051-0.567,0.076-0.972
		c0.021-0.557,0.025-1.165,0.029-1.777c-0.008-0.526-0.025-1.072-0.041-1.568c-0.004-0.297-0.006-0.591-0.01-0.889
		c0-0.168-0.002-0.335-0.002-0.497c-0.002-0.128-0.004-0.246-0.006-0.352c-0.004-0.824-0.07-1.661-0.145-2.499
		c-0.053-0.589-0.125-1.185-0.184-1.753c-0.059-0.626-0.152-1.267-0.234-1.729c-0.08-0.486-0.162-0.925-0.234-1.347
		c-0.092-0.458-0.17-0.841-0.232-1.283c-0.029-0.193-0.057-0.35-0.07-0.564c-0.002-0.955-0.211-1.786-0.25-1.951
		c-0.025-0.108-0.084-0.367-0.176-0.665c-0.035,0.001-0.07-0.184-0.203-0.655c-0.227-0.861-0.502-1.611-0.729-2.324
		c-0.115-0.319-0.229-0.668-0.352-1.042c-0.127-0.414-0.264-0.932-0.453-1.483c-0.107-0.303-0.268-0.732-0.453-1.135
		c-0.268-0.565-0.543-1.008-0.699-1.289c-0.199-0.338-0.367-0.647-0.549-1.016c-0.072-0.11-0.129-0.454-0.336-1.084
		c-0.021-0.052-0.064-0.192-0.141-0.407c-0.174-0.508-0.43-1.037-0.598-1.358c-0.313-0.547-0.729-1.187-1.141-1.69
		c-0.088-0.091-0.211-0.316-0.494-0.733c-0.252-0.354-0.523-0.795-0.867-1.315c-0.213-0.325-0.482-0.77-0.813-1.233
		c-0.336-0.459-0.77-0.96-1.137-1.331c-0.643-0.633-1.35-1.11-1.758-1.391c-0.355-0.242-0.684-0.457-0.986-0.667
		c-0.273-0.185-0.555-0.448-1.01-0.836c-0.418-0.357-0.885-0.76-1.383-1.168c-0.375-0.308-0.803-0.647-1.219-0.958
		c-0.502-0.351-1.02-0.656-1.406-0.881c-0.293-0.181-0.611-0.38-0.939-0.575c-0.074-0.053-0.152-0.103-0.232-0.15
		c-0.42-0.239-0.848-0.455-1.209-0.632c-0.646-0.32-1.348-0.644-2.068-0.964c-0.467-0.21-0.941-0.415-1.385-0.611
		c-0.443-0.197-0.855-0.378-1.252-0.564c-0.338-0.155-0.693-0.347-1.141-0.574c-0.479-0.242-1.104-0.584-1.871-0.916
		c-0.266-0.111-0.551-0.214-0.771-0.292c-0.244-0.085-0.504-0.197-0.822-0.322c-0.754-0.295-1.408-0.548-1.943-0.765
		c-0.604-0.235-1.199-0.385-1.586-0.488c-0.645-0.17-1.34-0.32-1.959-0.444c-0.609-0.115-1.229-0.228-1.816-0.328
		c-0.523-0.087-1.082-0.191-1.699-0.283c-0.471-0.076-0.975-0.146-1.457-0.208c-0.688-0.087-1.404-0.161-2.045-0.223
		c-0.434-0.041-0.879-0.087-1.332-0.124c-0.566-0.032-1.15-0.052-1.748-0.058c-0.641-0.019-1.346-0.021-2.064-0.016
		c-0.301,0.004-0.582,0.006-0.848,0.007c-0.322,0.001-0.66,0.004-1.002,0.009c-0.768,0.012-1.479,0.102-2.094,0.16
		c-0.525,0.046-1.09,0.091-1.691,0.136c-0.412,0.034-0.814,0.08-1.131,0.118c-0.654,0.067-1.311,0.129-2,0.21
		c-0.686,0.088-1.396,0.189-2.154,0.298c-0.348,0.05-0.691,0.098-1.008,0.145c-0.531,0.081-1.064,0.178-1.512,0.271
		c-0.412,0.088-0.852,0.172-1.324,0.274c-0.596,0.134-1.227,0.275-1.848,0.424c-0.469,0.119-0.949,0.246-1.395,0.37
		c-0.594,0.156-1.176,0.33-1.717,0.501c-0.684,0.211-1.408,0.448-2.168,0.713c-0.5,0.167-1.016,0.352-1.498,0.523
		c-0.611,0.209-1.213,0.416-1.809,0.624c-0.734,0.26-1.443,0.511-2.203,0.765c-0.451,0.145-0.941,0.285-1.451,0.441
		c-0.643,0.214-1.242,0.427-1.779,0.616c-0.566,0.202-1.02,0.382-1.43,0.518c-0.313,0.103-0.627,0.219-0.922,0.327
		c-0.715,0.303-1.559,0.691-2.283,1.108c-1.139,0.662-1.986,1.479-2.568,1.994c-0.418,0.365-0.844,0.688-1.338,1.046
		c-0.363,0.251-0.746,0.482-1.17,0.744c-0.779,0.459-1.596,0.919-2.4,1.5c-0.297,0.217-0.643,0.494-0.945,0.758
		c-0.568,0.498-1.092,1.062-1.531,1.511c-0.336,0.365-0.684,0.725-1.039,1.094c-0.223,0.229-0.471,0.46-0.752,0.732
		c-0.295,0.29-0.553,0.564-0.756,0.773c-0.25,0.262-0.566,0.573-0.906,0.954c-0.422,0.471-0.883,1.068-1.283,1.656
		c-0.311,0.482-0.549,0.944-0.727,1.255c-0.223,0.394-0.49,0.787-0.789,1.247c-0.178,0.275-0.363,0.537-0.568,0.836
		c-0.121,0.172-0.254,0.36-0.395,0.563c-0.076,0.092-0.148,0.189-0.215,0.292c-0.207,0.315-0.445,0.721-0.641,1.099
		c-0.223,0.415-0.441,0.894-0.613,1.295c-0.246,0.621-0.451,1.258-0.621,1.754c-0.105,0.331-0.211,0.631-0.324,0.951
		c-0.082,0.242-0.195,0.507-0.336,0.869c-0.174,0.447-0.369,0.976-0.549,1.533c-0.215,0.684-0.365,1.375-0.498,1.91
		c-0.168,0.67-0.357,1.327-0.535,1.969c-0.105,0.393-0.254,0.84-0.402,1.41c-0.148,0.631-0.262,1.318-0.348,1.909
		c-0.126,0.806-0.215,1.638-0.281,2.305c-0.027,0.487-0.048,0.938-0.063,1.388c-0.05,0.567-0.101,1.173-0.154,1.855
		c-0.027,0.432-0.063,0.898-0.093,1.355c-0.034,0.406-0.072,0.818-0.102,1.217c-0.036,0.545-0.042,1.045-0.047,1.452
		c-0.002,0.292-0.007,0.632-0.001,1.004c0.015,0.519,0.05,1.098,0.092,1.656c0.027,0.318,0.061,0.635,0.09,0.912
		c0.044,0.529,0.085,0.979,0.106,1.311c0.04,0.516,0.106,0.937,0.144,1.244c0.026,0.247,0.05,0.516,0.081,0.841
		c0.045,0.451,0.097,0.933,0.145,1.424c0.045,0.48,0.083,1.026,0.14,1.566c0.047,0.429,0.115,0.843,0.168,1.148
		c0.076,0.415,0.162,0.825,0.252,1.203c0.072,0.295,0.146,0.577,0.217,0.853c0.109,0.445,0.217,1.004,0.354,1.614
		c0.074,0.317,0.152,0.665,0.234,1.001c0.063,0.115,0.141,0.243,0.238,0.412c0.324,0.555,0.691,1.239,0.982,1.887
		c0.104,0.234,0.221,0.51,0.32,0.77c0.201,0.527,0.357,1.072,0.479,1.475c0.092,0.307,0.158,0.535,0.225,0.72
		c0.004,0.029,0.021,0.052,0.113,0.247c0.096,0.205,0.135,0.301,0.168,0.364c0.033,0.065,0.061,0.119,0.08,0.159
		c0.084,0.129,0.119,0.191,0.104,0.164c0.123,0.193,0.211,0.344,0.266,0.428c0.008,0.013,0.021,0.03,0.082,0.114
		c0.176,0.25,0.393,0.574,0.592,0.896c0.027,0.046,0.068,0.117,0.102,0.174c0.084,0.15,0.176,0.316,0.252,0.461
		c0.082,0.155,0.135,0.269,0.16,0.324c0.027,0.034,0.064,0.084,0.115,0.152c0.104,0.152,0.209,0.318,0.283,0.438
		c0.098,0.184,0.17,0.338,0.215,0.434c-0.008-0.021,0.023,0.028,0.107,0.186c0.053,0.103,0.031,0.065,0.064,0.119
		c-0.004-0.005,0.021,0.03,0.08,0.118c0.268,0.332,0.396,0.545,0.363,0.488c0.018,0.023,0.031,0.038,0.096,0.117
		c0.068,0.08,0.09,0.104,0.209,0.228c0.088,0.092,0.158,0.171,0.211,0.228c0.078,0.064,0.131,0.109,0.156,0.133
		c0.027,0.02,0.096,0.068,0.203,0.148c0.154,0.118,0.295,0.236,0.385,0.313c0.291,0.188,0.406,0.291,0.303,0.204
		c0.174,0.104,0.285,0.179,0.336,0.212c0.027,0.018,0.076,0.047,0.145,0.092c0.221,0.143,0.436,0.291,0.559,0.371
		c0.059,0.039,0.09,0.059,0.092,0.061c0.168,0.105,0.309,0.193,0.445,0.275c0.018,0.012,0.074,0.04,0.203,0.113
		c0.131,0.076,0.305,0.182,0.455,0.278c0.215,0.14,0.479,0.328,0.686,0.488c0.123,0.097,0.223,0.182,0.262,0.213
		c0.26,0.218,0.467,0.416,0.484,0.433c0.063,0.059,0.131,0.116,0.293,0.252c0.043,0.035,0.102,0.082,0.197,0.158
		c0.047,0.037,0.117,0.096,0.199,0.173c0.053,0.041,0.102,0.084,0.15,0.129c0.076,0.047,0.184,0.11,0.32,0.192
		c0.271,0.17,0.438,0.295,0.482,0.322c0.014,0.006,0.047,0.021,0.117,0.058c0.252,0.109,0.387,0.175,0.451,0.203
		c0.164,0.052,0.25,0.086,0.23,0.078c0.15,0.051,0.26,0.091,0.338,0.116c0.008,0.005,0.068,0.017,0.25,0.066
		c0.184,0.057,0.309,0.1,0.385,0.127c0.318,0.062,0.543,0.125,0.59,0.137c0.1,0.025,0.25,0.061,0.412,0.105
		c0.195,0.059,0.352,0.115,0.408,0.135c0.137,0.048,0.236,0.086,0.381,0.131c-0.082-0.023-0.289-0.073-0.424-0.097
		c0.146,0.032,0.275,0.063,0.379,0.091c0.254,0.043,0.48,0.098,0.619,0.135c0.281,0.074,0.523,0.15,0.652,0.186
		c0.121,0.025,0.18,0.032,0.291,0.048c0.156,0.023,0.279,0.048,0.314,0.055c0.031,0.007,0.137,0.021,0.303,0.051
		c0.148,0.029,0.35,0.08,0.512,0.128c0.014,0.002,0.053,0.011,0.121,0.027c0.123,0.032,0.223,0.058,0.307,0.078
		c0.123,0.032,0.231,0.063,0.327,0.092c0.089,0.025,0.157,0.047,0.198,0.059c0.009,0.002,0.023,0.006,0.033,0.008
		c0.006,0.003,0.018,0.006,0.023,0.008c0.002,0,0.002,0,0.004,0c0.166,0.047,0.38,0.099,0.67,0.188
		c0.166,0.053,0.391,0.13,0.584,0.203c0.201,0.082,0.354,0.152,0.443,0.194c0.148,0.044,0.242,0.077,0.275,0.088
		c0.445,0.06,0.646,0.105,0.713,0.122c0.035-0.001,0.123-0.005,0.297-0.005c0.256,0.002,0.467,0.015,0.602,0.02
		c0.014-0.001,0.053-0.001,0.123-0.001c0.291,0.005,0.496,0.025,0.471,0.021c0.057,0.004,0.168,0.006,0.326,0.014
		c0.17,0.01,0.313,0.026,0.354,0.03c0.021,0.003,0.064,0.007,0.148,0.014c0.002,0.003,0.068,0.001,0.264,0.011
		c0.283,0.022,0.459,0.051,0.461,0.049c0.09,0.012,0.193,0.014,0.404,0.02c0.074,0.004,0.188,0,0.396-0.001
		c0.271,0.001,0.545,0.013,0.732,0.021c0.178,0.012,0.295,0.024,0.34,0.029c0.066,0,0.287-0.01,0.656,0.009
		c-0.047,0.001-0.082,0.003-0.105,0.003c0.035,0.002,0.07,0.004,0.15,0.01c0.236,0.004,0.475,0.045,0.708,0.105
		c0.068,0.018,0.138,0.028,0.204,0.051c0.028-0.012,0.051-0.033,0.078-0.047c0.088-0.004,0.176-0.007,0.266-0.01
		c0.652-0.017,1.342-0.033,2.094-0.064c0.641-0.023,1.307-0.065,1.949-0.087c1.307-0.09,2.453-0.118,3.6-0.176
		c0.221-0.011,0.443-0.021,0.666-0.032c0.01,0.264,0.016,0.598,0.029,1.002c0.051,0.364,0.107,0.718,0.158,0.956
		c0.033,0.356,0.064,0.61,0.084,0.778c0.037,0.071,0.07,0.131,0.109,0.274c0.018,0.39,0.018,0.948,0.029,1.625
		c0.014,0.543,0.031,1.042,0.043,1.432c0.029,0.254,0.051,0.489,0.078,0.846c0.012,0.775,0.051,1.574,0.064,2.255
		c0.012,0.27,0.018,0.49,0.021,0.73c0.014,0.101-0.02,0.252-0.068,0.949c0.004,0.734,0.049,1.486,0.096,2.014
		c-0.02,0.228-0.049,0.645-0.055,1.146c-0.014-0.101-0.012,0.62,0.143,1.659c0.092,0.357,0.364,0.989,0.699,1.641
		c-0.082,0.016-0.169,0.031-0.25,0.045c-1.033,0.194-2.551,0.322-4.361,0.625c-0.967,0.174-1.867,0.37-2.662,0.527
		c-0.359,0.068-0.736,0.142-1.107,0.218c-0.596,0.123-1.184,0.267-1.631,0.375c-0.398,0.106-0.789,0.211-1.217,0.33
		c-0.92,0.251-2.004,0.563-3.029,0.868c-0.498,0.148-1.07,0.309-1.613,0.475c-0.777,0.246-1.457,0.492-1.975,0.678
		c-0.184,0.073-0.459,0.157-0.92,0.317c-0.719,0.244-1.406,0.522-1.873,0.692c-0.623,0.24-1.125,0.385-1.891,0.612
		c-0.613,0.188-1.336,0.399-2.164,0.674c-0.555,0.179-1.131,0.39-1.596,0.561c-0.898,0.333-1.668,0.645-2.453,0.972
		c-0.443,0.206-1.012,0.453-1.6,0.723c-0.363,0.164-0.771,0.344-1.24,0.563c-0.465,0.191-0.967,0.41-1.396,0.596
		c-0.777,0.35-1.404,0.654-1.92,0.896c-0.127,0.062-0.377,0.161-0.771,0.345c-0.643,0.307-1.262,0.655-1.699,0.891
		c-0.475,0.257-0.863,0.474-1.199,0.646c-0.332,0.176-0.709,0.339-1.324,0.643c-0.51,0.254-1.029,0.541-1.436,0.763
		c-0.575,0.316-1.075,0.621-1.469,0.85c-0.432,0.239-0.804,0.454-1.079,0.601c-0.243,0.146-0.425,0.223-0.919,0.478
		c-0.402,0.208-0.843,0.446-1.178,0.63c-0.296,0.164-0.612,0.351-0.882,0.516c-0.511,0.313-1.099,0.695-1.666,1.075
		c-0.493,0.331-0.981,0.665-1.368,0.925c-0.088,0.063-0.165,0.103-0.422,0.257c-0.493,0.298-0.845,0.529-1.19,0.709
		c-0.124,0.08-0.419,0.179-0.977,0.421c-0.523,0.232-0.996,0.482-1.299,0.644c-0.56,0.298-1.403,0.714-2.354,1.305
		c-0.469,0.307-0.9,0.628-1.181,0.833c-0.168,0.123-0.427,0.281-0.788,0.525c-0.479,0.333-0.809,0.606-1.002,0.756
		c-0.15,0.13-0.506,0.373-0.974,0.734c-0.523,0.396-1.073,0.881-1.533,1.312c-0.749,0.708-1.5,1.538-1.984,2.073
		c-0.475,0.534-0.771,0.908-0.957,1.123c0.058-0.049-0.034,0.022-0.354,0.346c-0.269,0.277-0.504,0.545-0.684,0.746
		c-0.342,0.388-0.685,0.801-0.939,1.102c-0.217,0.268-0.389,0.477-0.607,0.746c-0.173,0.217-0.361,0.445-0.664,0.795
		c-0.381,0.426-0.784,0.875-1.087,1.2c-0.028,0.029-0.043,0.044-0.062,0.063c-0.791,0.63-1.345,1.189-1.539,1.341
		c-0.93,0.847-1.525,1.538-1.892,1.951c-0.312,0.341-0.705,0.743-1.119,1.186c-0.07,0.076-0.285,0.271-0.6,0.6
		c-0.322,0.333-0.753,0.821-1.155,1.335c-0.271,0.374-0.531,0.765-0.722,1.055c-0.28,0.41-0.634,0.904-0.978,1.455
		c-0.256,0.41-0.472,0.813-0.62,1.09c-0.096,0.191-0.323,0.558-0.608,1.083c-0.183,0.329-0.375,0.689-0.542,1.007
		c-0.372,0.741-0.574,1.291-0.668,1.473c0.051-0.047-0.057,0.059-0.413,0.621c-0.254,0.408-0.505,0.842-0.71,1.195
		c-0.327,0.578-0.525,1.015-0.673,1.291c-0.212,0.414-0.575,0.98-0.99,1.674c-0.348,0.577-0.613,1.016-0.931,1.464
		c-0.22,0.323-0.533,0.679-0.906,1.146c-0.316,0.398-0.596,0.785-0.847,1.143c-0.265,0.377-0.535,0.783-0.778,1.143
		c-0.272,0.406-0.64,0.904-1.008,1.463c-0.4,0.632-0.67,1.19-0.83,1.502c-0.275,0.553-0.678,1.295-1.056,2.041
		c-0.252,0.506-0.449,0.938-0.645,1.349c-0.053,0.12-0.183,0.345-0.376,0.716c-0.656,1.264-1.125,2.504-1.471,3.299
		c-0.151,0.353-0.293,0.641-0.486,1.029c-0.143,0.321-0.333,0.688-0.57,1.179c-0.261,0.539-0.527,1.138-0.736,1.631
		c-0.21,0.499-0.473,1.12-0.718,1.817c-0.273,0.738-0.517,1.527-0.722,2.178c-0.231,0.743-0.473,1.503-0.694,2.248
		c-0.163,0.553-0.334,1.136-0.511,1.782c-0.134,0.552-0.279,1.158-0.41,1.727c-0.29,1.2-0.438,2.155-0.624,2.893
		c-0.142,0.548-0.275,0.957-0.516,1.574c-0.021,0.078-0.215,0.379-0.508,0.993c-0.348,0.828-0.555,1.677-0.635,2.031
		c-0.186,0.987-0.186,1.811-0.199,2.076c0.018,0.262-0.092,0.777-0.183,1.575c-0.061,0.606-0.054,0.987-0.063,1.052
		c-0.082,1.031-0.369,2.662-0.448,4.452c-0.023,0.572-0.021,1.089-0.027,1.526c0.003,0.496,0.001,1.051,0.001,1.58
		c0.003,0.602,0.019,1.012,0.009,1.385C0.067,205.48-0.008,206.924,0,208.33c0.01,0.829,0.071,1.597,0.103,2.094
		c0.042,0.588,0.085,0.952,0.1,1.244c0.005-0.014-0.003,0.08-0.004,0.369c0.051,1.575,0.341,2.935,0.58,4.026
		c0,0.004,0,0.006,0,0.01c0.002,0.218,0.038,0.626,0.263,1.354c0.001,0.01,0.002,0.021,0.003,0.031
		c-0.102-0.183-0.12-0.054-0.106,0.428c-0.007-0.106-0.008-0.548,0.006-0.777c-0.057,0.844-0.017,1.426-0.023,1.432
		c0,0.265-0.004,0.562,0.027,1.117c0.054,0.277-0.018,0.716-0.025,1.725c0.001,0.709,0.001,1.407,0.001,2.142
		c-0.008,1.706-0.017,3.52-0.024,5.255c-0.002,0.516-0.003,1.053-0.005,1.556c-0.008,0.565-0.015,1.075-0.022,1.656
		c-0.009,0.302-0.027,0.737-0.027,1.233c0.008,0.771,0.08,1.646,0.148,2.238c0.066,0.467,0.182,1.006,0.26,1.323
		c0.154,0.605,0.272,0.967,0.313,1.181c-0.018,0.063-0.043,0.448,0.006,1.233c0.228,1.933,0.76,3.529,0.961,4.436
		c0.079,0.306,0.137,0.942,0.344,1.891c0.238,0.921,0.58,1.749,0.717,2.075c0.143,0.341,0.3,0.736,0.501,1.208
		c0.17,0.39,0.378,0.97,0.662,1.658c0.133,0.317,0.31,0.731,0.494,1.12c0.242,0.496,0.489,0.937,0.693,1.293
		c0.036,0.198,0.078,0.428,0.145,0.732c0.175,0.703,0.394,1.283,0.476,1.524c0.185,0.317,0.398,0.823,0.699,1.417
		C7.521,257,7.82,257.5,8.117,257.95c0.226,0.349,0.485,0.757,0.739,1.126c0.173,0.25,0.335,0.5,0.527,0.809
		c0.187,0.313,0.406,0.69,0.646,1.072c0.066,0.082,0.152,0.186,0.224,0.274c0.248,0.582,0.377,0.811,0.364,0.83
		c-0.017-0.081,0.006,0.189,0.163,0.856c0.095,0.391,0.295,1.057,0.511,1.609c0.518,1.148,1.12,2.067,1.4,2.552
		c0.068,0.095,0.178,0.354,0.444,0.868c0.271,0.51,0.526,0.925,0.648,1.133c0.239,0.412,0.393,0.729,0.648,1.227
		c0.188,0.365,0.499,0.983,0.896,1.637c0.247,0.391,0.432,0.645,0.468,0.704c0.108,0.159,0.11,0.167,0.207,0.366
		c-0.014-0.065,0.054,0.172,0.303,0.773c0.306,0.682,0.626,1.236,0.737,1.438c0.362,0.645,0.639,1.051,0.788,1.313
		c0.145,0.248,0.237,0.399,0.302,0.522c-0.006-0.063-0.021,0.011,0.2,0.684c0.099,0.281,0.26,0.838,0.503,1.496
		c0.627,1.42,1.521,2.576,1.782,2.902c0.437,0.538,0.789,0.93,1.018,1.216c0.054,0.029,0.233,0.359,0.703,1.039
		c0.497,0.67,1.085,1.361,1.501,1.813c0.661,0.728,1.388,1.342,1.784,1.655c0.094,0.078,0.273,0.243,0.57,0.495
		c0.375,0.324,0.748,0.623,1.105,0.928c0.042,0.021,0.072,0.081,0.445,0.443c0.927,0.797,1.035,0.805,0.916,0.765
		c0.19,0.188,0.203,0.192,0.291,0.356c0.03,0.045,0.057,0.084,0.085,0.127c0.055,0.09,0.115,0.176,0.175,0.263
		c0.002,0.003,0.001,0.003,0.004,0.007c0.134,0.238,0.419,0.734,0.742,1.209c0.812,1.075,1.63,1.824,1.81,2.034
		c0.212,0.231,0.022,0.011,0.073,0.123c-0.063-0.126-0.063-0.091,0.125,0.286c0.007-0.006,0.304,0.646,0.777,1.391
		c0.636,0.922,1.308,1.657,1.563,1.979c0.13,0.135,0.172,0.249,0.522,0.763c0.464,0.654,1.053,1.389,1.588,1.986
		c0.377,0.416,0.662,0.697,0.829,0.882c-0.09-0.139,0.122,0.208,0.72,0.91c0.379,0.396,0.989,0.934,1.413,1.24
		c-0.034-0.038,0.417,0.329,1.403,0.886c0.216,0.087,0.693,0.362,1.357,0.704c0.184,0.09,0.393,0.222,0.771,0.443
		c0.288,0.169,0.53,0.311,0.79,0.466c0.903,0.546,1.795,1.024,2.417,1.448c0.277,0.115,0.473,0.227,0.857,0.485
		c0.188,0.131,0.34,0.252,0.691,0.539c0.524,0.439,0.985,0.761,1.156,0.886c0.199,0.144,0.448,0.361,0.92,0.732
		c-0.066-0.069,0.015,0.007,0.292,0.249c0.91,0.79,1.803,1.338,2.193,1.606c0.479,0.29,0.727,0.407,0.712,0.404
		c-0.008-0.007,0.066,0.055,0.333,0.237c0.642,0.424,1.061,0.655,1.302,0.824c0.149,0.091,0.516,0.396,1.132,0.829
		c0.591,0.39,1.317,0.808,1.909,1.109c0.604,0.315,1.245,0.597,1.661,0.772c0.682,0.288,1.246,0.49,1.742,0.687
		c0.244,0.094,0.488,0.194,0.773,0.316c0.422,0.179,0.902,0.505,1.689,0.962c0.742,0.445,1.461,0.85,2.066,1.176
		c0.344,0.166,0.637,0.295,0.855,0.396c0.148,0.073,0.391,0.215,0.773,0.418c0.449,0.221,0.832,0.391,1.066,0.504
		c0.047,0.008,0.219,0.129,0.773,0.425c1.037,0.509,2.094,0.853,2.686,1.061c1.064,0.397,1.982,0.716,2.916,1.053
		c0.338,0.114,0.771,0.283,1.33,0.479c0.482,0.166,0.996,0.335,1.498,0.494c0.398,0.123,0.797,0.234,1.104,0.32
		c0.73,0.215,1.436,0.398,2.021,0.55c0.373,0.108,0.709,0.208,1.029,0.311c0.453,0.132,0.758,0.223,1.07,0.331
		c0.293,0.088,0.67,0.236,1.207,0.425c0.514,0.188,1.035,0.35,1.455,0.477c0.717,0.201,1.539,0.394,2.162,0.532
		c0.576,0.121,0.961,0.176,1.217,0.23c0.016-0.011,0.281,0.08,0.863,0.228c0.828,0.198,1.609,0.321,2.139,0.411
		c0.547,0.1,1.176,0.219,1.834,0.322c0.818,0.134,1.703,0.27,2.559,0.396c0.447,0.067,0.838,0.117,1.141,0.163
		c0.604,0.07,0.977,0.148,1.553,0.282c0.328,0.068,0.803,0.22,1.582,0.427c0.756,0.203,1.604,0.384,2.217,0.512
		c0.229,0.037,0.527,0.094,0.889,0.15c0.688,0.107,1.385,0.172,1.811,0.203c0.471,0.053,0.889,0.088,1.412,0.129
		c0.545,0.035,0.965,0.039,1.209,0.059c3.785,0.257,8.018,0.888,12.301,1.206c2.379,0.17,4.664,0.099,6.588,0.122
		c0.959,0,2.033,0.004,3.055-0.002c0.352-0.002,0.891,0.02,1.568,0.002c0.979-0.045,1.883-0.184,2.359-0.252
		c0.23-0.035,0.625-0.07,1.221-0.158c0.766-0.122,1.42-0.27,1.936-0.361c0.412-0.072,0.723-0.134,1-0.176
		c0.404-0.068,1.029-0.109,1.844-0.214c0.627-0.11,1.486-0.278,2.299-0.509c0.85-0.225,1.783-0.555,2.492-0.829
		c0.5-0.198,0.961-0.401,1.303-0.546c0.469-0.23,0.877-0.416,1.34-0.615c0.5-0.197,1.035-0.352,1.748-0.577
		c0.152-0.054,0.381-0.124,0.711-0.233c1.016-0.338,2.039-0.746,2.91-1.027c0.42-0.17,0.947-0.324,1.65-0.548
		c0.838-0.229,1.688-0.506,2.391-0.745c0.377-0.121,0.752-0.248,1.072-0.355c0.396-0.13,0.85-0.276,1.316-0.439
		c0.486-0.188,0.83-0.346,0.99-0.41c0.037-0.024,0.229-0.073,0.666-0.221c0.203-0.066,0.611-0.191,1.102-0.381
		c0.24-0.09,0.641-0.244,1.068-0.432c0.414-0.213,0.727-0.397,0.949-0.533c0.035,0.013,0.23-0.038,0.623-0.176
		c0.656-0.289,1.109-0.538,1.359-0.675c0.035,0.01,0.205-0.017,0.574-0.107c0.193-0.065,0.627-0.163,1.213-0.331
		c1.043-0.348,1.777-0.748,1.83-0.768c0.516-0.256,1.332-0.557,2.258-0.963c0.336-0.154,0.725-0.322,1.18-0.541
		c0.463-0.227,1.061-0.539,1.586-0.847c0.834-0.495,1.646-1.081,2.201-1.493c0.188-0.14,0.527-0.365,0.953-0.685
		c0.52-0.404,0.994-0.829,1.346-1.144c0.186-0.159,0.418-0.348,0.684-0.572c0.199-0.176,0.227-0.191,0.383-0.307
		c0.209-0.152,0.621-0.459,1.027-0.805c0.318-0.295,0.689-0.662,0.979-0.967c0.373-0.389,0.586-0.655,0.611-0.678
		c-0.008-0.021,0.252-0.213,0.754-0.685c0.115-0.126,0.238-0.293,0.361-0.476c0.213-0.141,0.471-0.318,0.781-0.556
		c0.398-0.335,0.705-0.618,0.924-0.809c0.344-0.304,0.691-0.579,1.125-0.903c0.262-0.195,0.422-0.319,0.582-0.43
		c0.164-0.131,0.607-0.359,1.305-0.8c0.354-0.225,0.75-0.489,1.088-0.727c0.598-0.424,1.068-0.82,1.322-1.017
		c0.143-0.119,0.436-0.314,0.91-0.678c0.615-0.455,1.16-0.904,1.523-1.18c0.029-0.035,0.322-0.224,0.867-0.665
		c0.611-0.54,1.018-0.997,1.139-1.116c0.012-0.02,0.242-0.197,0.686-0.613c0.541-0.531,1.025-1.09,1.342-1.447
		c0.314-0.371,0.643-0.77,0.896-1.086c0.135-0.161,0.311-0.374,0.514-0.637c0.223-0.291,0.455-0.604,0.645-0.856
		c0.848-1.111,1.523-2.175,2.049-2.953c0.461-0.919,0.611-1.364,0.98-1.843c0.705-0.764,1.326-1.482,1.848-2
		c0.309-0.29,0.652-0.568,1.188-1.045c0.578-0.494,1.027-0.959,1.389-1.299c0.262-0.268,0.691-0.654,1.182-1.139
		c0.662-0.608,1.365-1.376,1.852-1.957c0.281-0.379,0.506-0.73,0.602-0.871c0.201-0.314,0.455-0.672,0.76-1.135
		c0.859-1.266,2.025-3.151,2.832-5.04c0.396-1.015,0.639-1.878,0.803-2.33c0.072-0.212,0.135-0.368,0.236-0.616
		c0.158-0.379,0.281-0.67,0.406-0.942c0.07-0.158,0.17-0.306,0.426-0.745c0.52-0.931,0.969-1.879,1.309-2.549
		c0.092-0.193,0.195-0.395,0.324-0.646c0.096-0.18,0.207-0.367,0.365-0.639c0.186-0.367,0.311-0.636,0.393-0.827
		c0.16-0.145,0.418-0.407,0.766-0.8c1.23-1.81,1.668-3.481,1.787-3.709c0.1-0.356,0.334-0.721,0.723-1.554
		c0.27-0.601,0.502-1.213,0.666-1.653c0.154-0.419,0.295-0.796,0.484-1.282c0.236-0.603,0.381-1.048,0.492-1.329
		c0.037-0.046,0.102-0.137,0.229-0.334c0.51-0.789,0.814-1.42,0.928-1.564c0.34-0.617,0.682-1.315,0.924-1.847
		c0.17-0.469,0.215-0.621,0.17-0.552c0.594-1.34,0.789-2.34,0.813-2.314c0.051-0.165,0.199-0.563,0.357-1.129
		c0.148-0.625,0.205-1.032,0.209-1.004c0.027-0.327,0.279-0.994,0.535-2.209c0.223-1.24,0.252-2.379,0.293-3.037
		c0.016-0.317,0.018-0.521,0.016-0.646c0-0.001,0-0.001,0-0.002c0.387-0.951,0.6-1.788,0.688-2.074
		c0.029-0.097,0.055-0.178,0.09-0.292c0.156-0.452,0.262-0.796,0.348-1.006c0.285-0.827,0.529-1.677,0.771-2.475
		c0.18-0.51,0.334-0.946,0.492-1.345c0.143-0.494,0.289-0.99,0.426-1.438c0.094-0.289,0.205-0.586,0.344-1.006
		c0.891-3.271,0.953-7.043,1.037-9.84c0.082-1.704,0.033-3.46,0.027-4.877c0.02-0.696,0.053-1.36,0.078-2.091
		C232.001,216.846,232.015,216.383,232.001,215.849z M130.593,89.682c-0.004-0.03-0.006-0.05-0.004-0.043
		C130.589,89.66,130.591,89.67,130.593,89.682z M226.657,190.125c0.002,0.006,0.002,0.009,0.002,0.015
		C226.649,190.116,226.647,190.109,226.657,190.125z M222.067,173.759c0.102,0.573,0.135,1.492,0.104,1.839
		c0.01-0.726-0.137-1.577-0.33-2.328C221.944,173.466,222.028,173.639,222.067,173.759z M219.981,170.791
		c0.006,0.006,0.014,0.013,0.02,0.019C219.974,170.793,219.962,170.784,219.981,170.791z M212.981,178.912
		c-0.033-0.024-0.068-0.051-0.109-0.082c-0.055-0.05-0.186-0.183-0.338-0.348C212.677,178.625,212.821,178.768,212.981,178.912z
		 M206.132,144.588c-0.043-0.051-0.07-0.087-0.064-0.092C206.097,144.541,206.11,144.558,206.132,144.588z M204.966,142.965
		c-0.033-0.037-0.041-0.045-0.018-0.025C204.96,142.957,204.96,142.956,204.966,142.965z M196.821,149.589
		c0.129,0.055,0.262,0.097,0.395,0.141c-0.139-0.04-0.26-0.078-0.338-0.108C196.86,149.613,196.839,149.598,196.821,149.589z
		 M198.091,149.945c0.162,0.025,0.324,0.061,0.488,0.072c-0.043-0.001-0.082-0.002-0.107-0.004
		C198.353,149.997,198.222,149.972,198.091,149.945z M199.69,149.986c-0.043,0.005-0.271,0.015-0.523,0.022
		c0.178-0.007,0.357,0,0.533-0.024C199.696,149.984,199.694,149.985,199.69,149.986z M194.616,141.219
		c-0.004,0.004-0.008,0.008-0.01,0.012c0.002-0.006,0.002-0.012,0.004-0.017C194.612,141.216,194.614,141.217,194.616,141.219z
		 M112.006,74.654c-0.017,0.002-0.032,0.004-0.048,0.006c0-0.001,0-0.001,0-0.001c0.012-0.002,0.037-0.005,0.051-0.006
		C112.009,74.653,112.007,74.654,112.006,74.654z M107.936,92.996c-0.036,0.004-0.073,0.008-0.108,0.012
		C107.7,92.973,107.796,92.98,107.936,92.996z M124.259,56.419c-0.011-0.009-0.021-0.017-0.033-0.026
		C124.279,56.384,124.298,56.39,124.259,56.419z M124.178,56.402c0.005-0.001,0.011-0.002,0.015-0.003
		C124.192,56.404,124.187,56.404,124.178,56.402z M140.228,76.869c0.119-0.044,0.264-0.089,0.35-0.113
		C140.474,76.787,140.354,76.825,140.228,76.869z M148.407,73.407c0-0.019,0.002-0.063,0.006-0.122
		C148.407,73.418,148.409,73.468,148.407,73.407z M145.786,81.076c0.025-0.002,0.09-0.01,0.176-0.021
		C145.876,81.068,145.804,81.076,145.786,81.076z M147.868,80.039c-0.404,0.258-0.709,0.437-0.898,0.549
		C147.804,80.099,148.003,79.861,147.868,80.039z M148.47,72.841c0.027-0.101,0.109-0.276,0.225-0.483
		C148.616,72.52,148.54,72.693,148.47,72.841z M151.681,76.375c-0.027,0.034-0.053,0.068-0.078,0.1
		C151.819,76.006,151.798,75.963,151.681,76.375z M93.243,78.228c-0.729,0.028-1.406,0.073-1.959,0.095
		c-0.705,0.023-1.34,0.033-1.992,0.043c-1.045,0.012-2.012,0.053-2.717,0.057c-0.363,0.006-0.85-0.008-1.486,0.044
		c-0.104-0.01-0.25-0.019-0.383-0.022c-0.215,0.008-0.338,0.016-0.434,0.014c-0.088,0.015-0.184,0.027-0.313,0.041
		c-0.09,0.011-0.166,0.021-0.23,0.032c-0.125,0.013-0.213,0.026-0.314,0.039c-0.068-0.008-0.141-0.015-0.215-0.022
		c-0.09,0.004-0.176,0.006-0.264,0.01c-0.027,0.045-0.232,0.079-0.525,0.135c-0.026,0.027-0.059,0.049-0.086,0.075
		c-0.043-0.001-0.088-0.004-0.129-0.005c-0.051-0.016-0.117-0.035-0.207-0.059c-0.256-0.081-0.561-0.177-0.879-0.27
		c-0.24-0.057-0.455-0.102-0.619-0.144c-0.055-0.014-0.125-0.039-0.283-0.082c-0.184-0.056-0.277-0.083-0.354-0.118
		c-0.045-0.018-0.104-0.042-0.201-0.076c-0.18-0.066-0.328-0.119-0.453-0.172c-0.328-0.112-0.672-0.243-1.025-0.379
		c-0.184-0.077-0.346-0.147-0.492-0.217c-0.162-0.07-0.301-0.139-0.482-0.222c0.023,0.001,0.006-0.019-0.104-0.074
		c-0.148-0.058-0.275-0.1-0.328-0.116c0.02-0.001-0.029-0.055-0.248-0.189c-0.168-0.073-0.207-0.072-0.162-0.033
		c-0.041-0.018-0.107-0.057-0.262-0.15c-0.271-0.225-0.479-0.379-0.564-0.467c-0.072-0.06-0.086-0.07-0.131-0.113
		c-0.068-0.067-0.131-0.132-0.23-0.234c-0.033-0.022-0.082-0.066-0.162-0.138c-0.139-0.136-0.248-0.229-0.273-0.256
		c-0.018-0.011-0.061-0.056-0.164-0.158c-0.113-0.116-0.193-0.204-0.254-0.272c-0.195-0.212-0.365-0.369-0.441-0.445
		c-0.127-0.135-0.25-0.267-0.402-0.426c-0.061-0.063-0.127-0.131-0.195-0.201c-0.139-0.139-0.303-0.291-0.426-0.398
		c-0.02-0.022-0.068-0.074-0.154-0.163c-0.172-0.169-0.346-0.333-0.586-0.563c-0.033-0.029-0.092-0.09-0.193-0.191
		c-0.145-0.136-0.289-0.259-0.342-0.299c-0.428-0.357-0.563-0.438-0.754-0.672c-0.09-0.075-0.195-0.215-0.393-0.491
		c-0.295-0.418-0.637-0.938-0.959-1.425c-0.439-0.751-0.803-1.332-1.182-1.95c-0.215-0.267-0.422-0.51-0.609-0.739
		c-0.133-0.185-0.236-0.322-0.357-0.516c-0.098-0.161-0.184-0.31-0.287-0.509c-0.143-0.282-0.293-0.635-0.469-1.046
		c-0.209-0.572-0.43-1.238-0.693-1.899c-0.182-0.382-0.377-0.728-0.568-1.059c-0.014-0.057-0.023-0.113-0.037-0.17
		c-0.066-0.31-0.125-0.572-0.174-0.81c-0.068-0.318-0.117-0.576-0.17-0.911c-0.049-0.295-0.088-0.528-0.115-0.794
		c-0.047-0.434-0.084-0.954-0.139-1.505c-0.047-0.515-0.098-1.005-0.139-1.439c-0.031-0.302-0.061-0.609-0.096-0.92
		c-0.045-0.428-0.088-0.706-0.102-0.979c-0.025-0.404-0.068-0.894-0.109-1.409c-0.018-0.287-0.035-0.559-0.045-0.822
		c-0.029-0.521-0.049-0.965-0.051-1.38c-0.006-0.285-0.002-0.551-0.002-0.866c0-0.411-0.002-0.734,0.021-1.123
		c0.018-0.338,0.045-0.72,0.074-1.15c0.037-0.436,0.08-0.906,0.117-1.364c0.047-0.668,0.088-1.252,0.131-1.813
		c0.055-0.415,0.113-0.8,0.182-1.258c0.066-0.648,0.139-1.315,0.246-1.969c0.098-0.553,0.178-0.978,0.289-1.37
		c0.092-0.368,0.227-0.765,0.377-1.31c0.17-0.625,0.371-1.359,0.557-2.123c0.154-0.633,0.256-1.137,0.381-1.514
		c0.139-0.426,0.273-0.777,0.436-1.187c0.107-0.273,0.26-0.625,0.408-1.038c0.119-0.333,0.252-0.708,0.381-1.099
		c0.172-0.552,0.314-1.044,0.471-1.462c0.119-0.349,0.199-0.587,0.301-0.818c0.066-0.139,0.121-0.242,0.184-0.349
		c0.049-0.064,0.096-0.131,0.141-0.2c0.133-0.208,0.289-0.427,0.492-0.72c0.186-0.266,0.422-0.595,0.664-0.962
		c0.275-0.418,0.639-0.956,0.973-1.536c0.25-0.435,0.406-0.745,0.541-0.94c0.291-0.459,0.498-0.75,0.764-1.064
		c0.195-0.23,0.436-0.467,0.754-0.808c0.232-0.253,0.42-0.469,0.619-0.672c0.229-0.236,0.523-0.527,0.832-0.857
		c0.352-0.375,0.736-0.785,1.109-1.201c0.449-0.527,0.779-0.947,1.078-1.245c0.195-0.192,0.338-0.322,0.531-0.479
		c0.52-0.431,1.094-0.79,1.902-1.319c0.398-0.25,0.887-0.549,1.371-0.882c0.555-0.364,1.184-0.797,1.758-1.249
		c0.777-0.602,1.207-1.008,1.736-1.223c0.508-0.232,1.053-0.415,1.699-0.618c0.301-0.113,0.525-0.2,0.732-0.27
		c0.559-0.187,1.057-0.382,1.529-0.548c0.547-0.194,1.094-0.391,1.68-0.586c0.453-0.166,0.977-0.345,1.508-0.544
		c0.797-0.291,1.547-0.581,2.275-0.861c0.574-0.225,1.15-0.448,1.748-0.677c0.482-0.178,0.949-0.351,1.396-0.507
		c0.709-0.238,1.342-0.434,1.986-0.624c0.504-0.145,0.953-0.267,1.459-0.384c0.418-0.091,0.84-0.177,1.283-0.262
		c0.58-0.121,1.178-0.235,1.783-0.354c0.41-0.083,0.846-0.163,1.318-0.259c0.379-0.08,0.756-0.149,1.199-0.217
		c0.285-0.044,0.615-0.092,0.971-0.145c0.758-0.112,1.43-0.212,2.072-0.298c0.617-0.089,1.23-0.163,1.91-0.25
		c0.307-0.035,0.6-0.067,0.916-0.09c0.615-0.05,1.215-0.101,1.766-0.153c0.717-0.063,1.189-0.126,1.604-0.12
		c0.33,0.001,0.635,0.004,0.938,0.009c0.285,0.004,0.598,0.006,0.912,0.007c0.693-0.002,1.297,0.001,1.854,0.021
		c0.525,0.03,0.957,0.068,1.455,0.123c0.381,0.031,0.783,0.075,1.244,0.12c0.625,0.06,1.254,0.124,1.865,0.202
		c0.449,0.057,0.854,0.114,1.258,0.181c0.508,0.09,1.002,0.199,1.576,0.313c0.559,0.109,1.127,0.226,1.713,0.35
		c0.58,0.116,1.098,0.226,1.598,0.36c0.461,0.122,0.705,0.172,0.881,0.253c0.584,0.236,1.266,0.499,2.006,0.789
		c0.229,0.089,0.59,0.242,1.008,0.392c0.213,0.075,0.33,0.116,0.43,0.159c0.504,0.21,0.934,0.452,1.516,0.746
		c0.379,0.191,0.824,0.431,1.326,0.664c0.455,0.209,0.918,0.41,1.355,0.602c0.475,0.208,0.936,0.403,1.359,0.59
		c0.68,0.306,1.27,0.582,1.848,0.87c0.256,0.127,0.463,0.232,0.662,0.342c0.066,0.045,0.135,0.089,0.205,0.129
		c0.299,0.174,0.615,0.379,1.004,0.623c0.395,0.26,0.693,0.456,0.959,0.673c0.342,0.25,0.658,0.5,0.996,0.776
		c0.443,0.36,0.867,0.723,1.301,1.09c0.379,0.321,0.873,0.763,1.457,1.179c0.357,0.252,0.701,0.486,1.02,0.707
		c0.488,0.336,0.717,0.458,0.85,0.624c0.221,0.233,0.352,0.392,0.523,0.648c0.191,0.264,0.393,0.603,0.666,1.025
		c0.244,0.381,0.506,0.819,0.803,1.271c0.027,0.025,0.055,0.052,0.082,0.079c0.066,0.048,0.164,0.119,0.273,0.206
		c0.176,0.145,0.334,0.291,0.418,0.368c0.148,0.141,0.248,0.244,0.309,0.302c0.162,0.16,0.328,0.331,0.465,0.468
		c0.016,0.016,0.092,0.091,0.178,0.184c0.086,0.096,0.125,0.141,0.125,0.14c0.057,0.06,0.199,0.21,0.354,0.397
		c0.082,0.104,0.131,0.17,0.145,0.19c0.037,0.045,0.096,0.114,0.182,0.221c0.1,0.127,0.15,0.2,0.168,0.224
		c0.121,0.148,0.254,0.331,0.322,0.432c0.066,0.102,0.109,0.168,0.141,0.215c0.01,0.011,0.029,0.04,0.066,0.09
		c0.07,0.1,0.131,0.186,0.186,0.258c0.113,0.139,0.113,0.144,0.115,0.143c0.041,0.041,0.104,0.108,0.135,0.143
		c0.01,0.016,0.26,0.296,0.563,0.831c0.15,0.21,0.434,0.679,0.613,1.124c0.166,0.542,0.205,0.849,0.193,0.76
		c0.031,0.121-0.006,0.01-0.047-0.115c-0.096-0.185,0.105,0.2,0.307,0.957c0.008,0.075,0.014,0.133,0.02,0.175
		c0.115,0.412,0.232,0.895,0.273,1.293c0.008,0.129,0.01,0.27,0.01,0.399c0.027,0.095,0.059,0.203,0.088,0.321
		c0.029,0.172,0.043,0.268,0.049,0.298c0.061,0.148,0.133,0.333,0.207,0.55c0.053,0.249,0.088,0.472,0.109,0.602
		c0.051,0.138,0.109,0.316,0.17,0.527c0.023,0.116,0.086,0.473,0.109,0.833c0.014,0.138,0.025,0.193,0.041,0.26
		c0.029,0.141,0.129,0.531,0.193,1.021c0.029,0.315,0.031,0.494,0.037,0.527c0,0.047,0.053,0.359,0.066,0.825
		c0.004,0.044,0.121,0.476,0.174,1.087c0.006,0.202,0.002,0.317,0,0.354c0.018,0.457,0.004,0.741,0.002,0.833
		c-0.094-0.318,0.021,0.037,0.105,0.839c0.023,0.125,0.049,0.232,0.076,0.35c0.027,0.194,0.07,0.543,0.082,0.882
		c0.004,0.183,0,0.288-0.002,0.322c0.006,0.177,0.049,0.529,0.059,1.014c0,0.134-0.002,0.225,0,0.275
		c0.002,0.271,0.006,0.594-0.002,0.916c-0.002,0.063-0.004,0.126-0.01,0.188c-0.006,0.172-0.012,0.328-0.016,0.47
		c-0.02,0.757-0.035,1.448-0.033,2.155c0.002,0.214-0.002,0.407,0,0.564c0,0.118,0.002,0.226,0,0.35
		c-0.002,0.131-0.01,0.364-0.029,0.593c-0.014,0.127-0.023,0.193-0.027,0.216c-0.002,0.117,0.006,0.317,0.002,0.606
		c-0.01,0.616-0.057,1.109-0.051,1.426c0,0.051,0.008,0.263-0.004,0.535c-0.008,0.131-0.027,0.546-0.109,1.009
		c-0.012,0.054-0.021,0.096-0.029,0.126c0.002,0.062,0.012,0.336-0.008,0.665c-0.023,0.235-0.021,0.166-0.01-0.131
		c-0.008-0.145,0.006,0.175-0.041,0.661c-0.016,0.078-0.027,0.134-0.035,0.171c-0.014,0.141-0.016,0.308-0.033,0.595
		c-0.01,0.159-0.031,0.522-0.094,0.914c-0.002-0.01-0.037,0.214-0.129,0.556c-0.018,0.109-0.057,0.511-0.172,1.007
		c-0.037,0.127-0.066,0.239-0.109,0.388c-0.014,0.04-0.039,0.105-0.072,0.184c-0.008,0.065-0.018,0.148-0.033,0.251
		c-0.023,0.112-0.035,0.169-0.039,0.178c-0.045,0.233-0.074,0.337-0.076,0.338c-0.021,0.151-0.082,0.575-0.248,1.138
		c-0.086,0.183-0.127,0.264-0.123,0.23c-0.027,0.08-0.049,0.136-0.063,0.172c-0.008,0.045-0.018,0.099-0.029,0.158
		c-0.029,0.141-0.064,0.291-0.088,0.403c-0.01,0.042-0.021,0.081-0.031,0.117c0,0.089-0.004,0.165-0.012,0.229
		c0-0.009-0.027,0.189-0.086,0.447c-0.082,0.294-0.16,0.502-0.168,0.528c-0.084,0.23-0.139,0.36-0.15,0.385
		c-0.012,0.05-0.039,0.145-0.066,0.238c-0.006,0.018-0.014,0.041-0.035,0.116c-0.109,0.356-0.279,0.676-0.496,0.954
		c-0.041,0.106-0.08,0.19-0.115,0.252c-0.021,0.051-0.037,0.092-0.047,0.115c-0.047,0.117-0.066,0.172-0.092,0.24
		c-0.123,0.346-0.293,0.749-0.418,0.965c0.008-0.015-0.063,0.099-0.242,0.344v-0.001c0,0.001,0,0.001,0,0.002
		c-0.07,0.12-0.148,0.233-0.234,0.343c-0.021,0.029-0.045,0.058-0.111,0.158c-0.078,0.107-0.127,0.17-0.143,0.19
		c-0.104,0.151-0.264,0.372-0.418,0.554c-0.031,0.035-0.277,0.256-0.721,0.527c-0.102,0.206-0.191,0.363-0.223,0.415
		c-0.127,0.202-0.025,0.021,0.141-0.335c-0.039,0.055-0.219,0.476-0.58,1.049c-0.232,0.254-0.5,0.486-0.674,0.615
		c-0.059,0.072-0.123,0.15-0.193,0.232c-0.063,0.119-0.123,0.226-0.184,0.313c-0.143,0.146-0.34,0.303-0.551,0.45
		c-0.066,0.08-0.127,0.146-0.172,0.193c0.074-0.075,0.02-0.012-0.131,0.145c-0.023,0.022-0.059,0.051-0.105,0.082
		c-0.082,0.1-0.184,0.216-0.285,0.318c-0.025,0.023-0.059,0.051-0.1,0.084c-0.047,0.062-0.109,0.145-0.191,0.246
		c-0.08,0.082-0.135,0.139-0.17,0.172c-0.018,0.031-0.037,0.063-0.059,0.094c0.148-0.06-0.145,0.176-0.568,0.85
		c-0.078,0.054-0.168,0.118-0.266,0.193c-0.078,0.113-0.152,0.213-0.213,0.292c-0.031,0.06-0.061,0.108-0.088,0.147
		c-0.197,0.225-0.531,0.522-0.682,0.631c-0.094,0.057-0.211,0.12-0.334,0.182c-0.178,0.158-0.467,0.442-0.795,0.867
		c-0.125,0.096-0.346,0.284-0.633,0.594c-0.146,0.193-0.217,0.299-0.238,0.335c-0.039,0.032-0.141,0.116-0.318,0.276
		c-0.033,0.02-0.066,0.041-0.102,0.063c-0.123,0.085-0.16,0.115-0.154,0.119c-0.098,0.048-0.127,0.066-0.121,0.064
		c-0.443,0.219-0.328,0.171-0.146,0.092c0.287-0.068,0.049-0.012-0.506,0.291c-0.008-0.001-0.014-0.002-0.023-0.004
		c-0.078,0.006-0.143,0.011-0.197,0.016c-0.094,0.055-0.203,0.114-0.32,0.174c-0.125,0.064-0.258,0.129-0.393,0.188
		c-0.199,0.077-0.381,0.139-0.473,0.171c-0.27,0.095-0.4,0.128-0.354,0.114c-0.498,0.147-1.016,0.229-1.471,0.268
		c-0.074,0.025-0.213,0.068-0.383,0.123c-0.08,0.019-0.205,0.051-0.363,0.097c-0.176,0.034-0.166,0.03-0.068,0.003
		c0.064-0.012-0.092-0.018-0.469,0.027c-0.33,0.079-0.365,0.117-0.326,0.125c-0.063,0.027-0.166,0.053-0.307,0.083
		c0.051,0.015-0.199,0.036-0.574,0.104c-0.318,0.105-0.576,0.217-0.775,0.303c-0.24,0.068-0.346,0.115-0.4,0.135
		c-0.016,0-0.076-0.009-0.377,0.028c-0.199-0.014-0.391,0.005-0.578,0.033c-0.35,0.008-0.709,0.016-1.082,0.023
		c-0.34-0.014-0.686-0.028-1.072-0.042c-0.557,0.027-1.133,0.058-1.764,0.073c-0.656,0.008-1.426,0-2.223,0.021
		c-0.381,0.006-0.705,0.016-1.01,0.013c-0.23,0.009-0.494,0.019-0.756,0.029c-0.014-0.193-0.023-0.3-0.029-0.362
		c-0.006,0.046-0.004-0.011-0.006-0.298c-0.006-0.647-0.027-1.401-0.053-2.042c-0.01-0.324-0.027-0.617-0.037-0.801
		c-0.008-0.356-0.008-0.621-0.008-0.932c0.012-0.169,0.025-0.297,0.039-0.434c0.033-0.203,0.074-0.467,0.113-0.834
		c0.012-0.338,0.02-0.664,0.027-0.973c0.355-0.053,0.619-0.109,0.676-0.133c0.299-0.064,0.504-0.121,0.469-0.116
		c-0.367,0.06-0.252,0.046,0.311-0.073c0.365-0.103,0.873-0.319,1.391-0.593c0.441-0.191,0.848-0.461,1.225-0.778
		c0.051-0.038,0.105-0.074,0.154-0.113c0.043-0.023,0.078-0.049,0.102-0.07c0.172-0.165,0.398-0.413,0.459-0.482
		c0.107-0.123,0.217-0.26,0.266-0.315c0.1-0.117,0.131-0.144,0.096-0.075c-0.176,0.209-0.219,0.265-0.018,0.049
		c0.43-0.541,0.67-0.926,0.578-0.764c-0.1,0.146,0.055-0.068,0.311-0.496c0.189-0.371,0.293-0.613,0.264-0.537
		c-0.014,0.046,0.109-0.205,0.238-0.528c0.012-0.019,0.082-0.193,0.164-0.429c0.172-0.599,0.295-1.232,0.352-1.584
		c0.043-0.246,0.074-0.445,0.1-0.59c0.021-0.127,0.031-0.189,0.037-0.227c0.008-0.029,0.02-0.074,0.033-0.136
		c0.002-0.006,0.014-0.049,0.037-0.142c0.16-0.868,0.176-1.621,0.178-1.604c0-0.032,0-0.111,0-0.181
		c0.006-0.066,0.016-0.203,0.021-0.393c0.002-0.109,0.006-0.228,0.008-0.385c-0.006-0.205-0.012-0.417-0.016-0.641
		c-0.004-0.098-0.006-0.214-0.008-0.344c-0.004-0.03-0.004-0.176-0.012-0.393c0,0.046,0,0.007-0.002-0.146
		c-0.008-0.252-0.041-0.604-0.09-0.94c0.002-0.017,0.002-0.061,0-0.172c-0.029-0.517-0.074-0.832-0.074-0.854
		c-0.014,0.327-0.027,0.343-0.047-0.067c-0.051-0.591-0.166-1.17-0.207-1.284c-0.018-0.053-0.039-0.124-0.059-0.191
		c-0.002-0.02-0.002-0.031-0.004-0.053c-0.012-0.067-0.021-0.116-0.033-0.174c0.008,0.043,0.012,0.083,0.018,0.119
		c-0.07-0.407-0.129-0.697-0.17-0.87c-0.002,0.079-0.023,0-0.086-0.296c-0.068-0.35-0.135-0.605-0.139-0.616
		c-0.037-0.174-0.086-0.397-0.146-0.649c-0.029-0.112-0.063-0.236-0.092-0.344c-0.027-0.115-0.055-0.233-0.078-0.327
		c-0.01-0.04-0.039-0.152-0.084-0.303c-0.029-0.104-0.154-0.5-0.307-0.875c-0.246-0.525-0.453-0.869-0.416-0.811
		c0.063,0.131,0.164,0.354,0.17,0.378c-0.291-0.602-0.746-1.281-0.953-1.536c-0.555-0.593-1.082-1.01-1.012-0.962
		c0.389,0.337,0.443,0.372,0.012-0.035c0.105,0.094-0.268-0.229-0.818-0.599c-0.162-0.094-0.668-0.351-1.115-0.526
		c-0.814-0.206-1.418-0.277-1.57-0.293c0.078,0.016,0.104,0.022-0.096-0.005c0.166,0.046,0.082,0.033-0.271-0.025
		c-0.945-0.118-1.662-0.083-1.779-0.083c-0.084,0.002-0.336-0.006-0.732-0.002c-0.4,0.004-0.873,0.023-1.277,0.044
		c-0.463,0.028-0.902,0.068-1.225,0.095c-0.248,0.022-0.52,0.036-0.829,0.055c-0.454-0.119-0.837-0.206-1.083-0.26
		c-0.221-0.037-0.637-0.131-1.158-0.223c-0.551-0.078-1.178-0.127-1.521-0.133c-0.314-0.007-0.695-0.015-1.063-0.018
		c-0.107,0-0.262-0.005-0.453-0.01c-0.191-0.002-0.434-0.007-0.68-0.009c-0.359-0.007-0.557,0-0.498,0
		c-0.035,0.024-0.26,0.018-0.734,0.013c-0.713,0.011-1.393,0.017-2.139,0.045c-0.418,0.034-0.824,0.079-1.174,0.121
		c-0.211,0.011-0.502,0.018-0.857,0.031c-0.293,0.005-0.607,0.016-0.855,0.026c-0.656,0.042-1.178,0.087-1.701,0.131
		c-0.254,0.029-0.551,0.055-0.895,0.084c-0.383,0.011-0.775,0.029-1.127,0.046c-0.299,0.007-0.563,0.012-0.814,0.013
		c-0.273,0.013-0.584,0.009-1.02,0.015c-0.273,0.005-0.512,0.016-0.631,0.021c-0.352,0.014-0.729,0.035-1.041,0.058
		c-0.156,0.011-0.293,0.022-0.404,0.031c-0.801,0.112-1.539,0.24-2.135,0.333c-0.602,0.04-1.168,0.097-1.58,0.136
		c-0.174,0.019-0.465,0.039-0.871,0.082c-0.242,0.024-0.482,0.055-0.635,0.074c-0.074,0.011-0.232,0.029-0.463,0.063
		c-0.162,0.027-0.287,0.051-0.365,0.066c-0.039,0.001-0.101,0.006-0.223,0.017c0,0.009-0.125,0.024-0.352,0.053
		c-0.326,0.038-0.592,0.081-0.727,0.104c-0.484,0.077-1.188,0.242-1.654,0.41c0.461-0.156,0.273-0.12-0.395,0.118
		c-0.07,0.029-0.242,0.111-0.467,0.229c-0.051,0.017-0.172,0.068-0.391,0.162c-0.521,0.281-1.133,0.703-1.305,0.838
		c-0.193,0.158-0.514,0.436-0.742,0.654c-0.389,0.402-0.795,0.919-0.893,1.058c-0.052,0.073-0.145,0.205-0.284,0.411h-0.001
		c0.036-0.052,0.029-0.042-0.002,0.002c-0.004,0.005-0.006,0.008-0.01,0.014c-0.004,0.005-0.006,0.009-0.008,0.015
		c-0.049,0.074-0.133,0.203-0.244,0.384c0.057-0.08,0.105-0.148,0.152-0.214c-0.679,1.26-0.895,1.976-0.756,1.508
		c0.17-0.397,0.43-0.884,0.436-0.894c-0.455,0.834-0.629,1.294-0.541,1.065c0.135-0.282,0.18-0.371,0.051-0.125
		c-0.195,0.409-0.342,0.784-0.352,0.802c-0.021,0.053-0.103,0.247-0.205,0.524c-0.08,0.252-0.127,0.422-0.146,0.489
		c0.02-0.048,0.035-0.089,0.055-0.135c-0.178,0.531-0.242,0.813-0.205,0.637c-0.026,0.115-0.053,0.253-0.077,0.392
		c-0.008,0.029-0.015,0.052-0.024,0.089c-0.074,0.396-0.123,0.794-0.133,0.95c-0.07,0.544-0.107,1.013-0.148,1.328
		c-0.012,0.164-0.004,0.197-0.008,0.268c0.098-0.183,0.152-0.22,0.121,0.077c-0.029,0.313-0.063,0.706-0.059,0.966
		c-0.023,0.596,0.012,1.263,0.084,1.481c0.029,0.129,0.061,0.26,0.094,0.343c0.023,0.053,0.045,0.176,0.068,0.36
		c0.012,0.218,0.027,0.46,0.045,0.638c0.002,0.027,0.004,0.044,0.006,0.07c-0.001-0.074,0-0.074,0.001,0.02
		c0.049,0.604,0.083,0.85,0.013,0.558c-0.007-0.186-0.01-0.333-0.012-0.441c-0.004,0.167-0.004,0.27-0.008,0.307
		c-0.014,0.181-0.025,0.336-0.039,0.456c-0.01,0.089-0.02,0.181-0.029,0.27c-0.002,0.062-0.006,0.196-0.006,0.374
		c0.004-0.109-0.004,0.092,0.008,0.502c0.053,0.572,0.139,1.018,0.135,0.996c0.029,0.119,0.188,0.736,0.418,1.328
		c0.1,0.215,0.211,0.434,0.256,0.516c0.41,0.67,1.068,1.42,1.277,1.611c0.398,0.332,1.006,0.728,1.258,0.863
		c0.125,0.066,0.557,0.271,0.916,0.41c0.146,0.053,0.271,0.094,0.297,0.102c-0.055-0.021,0.326,0.117,0.818,0.246
		c0.119,0.025,0.221,0.044,0.311,0.061c0.046,0.014,0.105,0.032,0.195,0.059c0.242,0.085,0.385,0.138,0.346,0.151
		c-0.004,0.007,0.469,0.151,1.121,0.271c0.686,0.088,1.377,0.111,1.809,0.125c0.016,0,0.037,0,0.053,0
		c-0.008,0.171-0.016,0.344-0.023,0.514c0,0.271-0.004,0.619,0.002,0.991c-0.004,0.388,0.002,0.762,0.004,1.05
		c-0.012,0.158-0.021,0.382-0.027,0.658c-0.006,0.525-0.004,1.18,0,1.865c0.02,0.107,0.039,0.299,0.066,0.567
		c0.057,0.555,0.131,1.038,0.2,1.448c-0.009,0-0.02,0-0.028,0C95.909,78.277,94.687,78.22,93.243,78.228z M136.185,57.681
		c0.002,0.036,0.006,0.074,0.008,0.101c-0.023-0.152-0.047-0.298-0.074-0.427C136.157,57.558,136.179,57.678,136.185,57.681z
		 M28.886,290.713c-0.001-0.002-0.001-0.005-0.002-0.007c0.017,0.031,0.034,0.061,0.051,0.091
		C28.918,290.769,28.901,290.739,28.886,290.713z M29.147,291.145c-0.005-0.008-0.019-0.028-0.034-0.052
		c0.039,0.057,0.064,0.093,0.083,0.12c0.003,0.006,0.004,0.008,0.008,0.014C29.192,291.209,29.172,291.181,29.147,291.145z
		 M45.878,295.176c0.021,0.014,0.066,0.051,0.117,0.092c-0.001-0.001-0.003-0.002-0.004-0.003
		C45.955,295.236,45.935,295.219,45.878,295.176z M210.792,261.138c0.004-0.007,0.006-0.012,0.01-0.019
		C210.862,261.072,210.853,261.08,210.792,261.138z M216.026,247.798c0.006-0.022,0.01-0.037,0.016-0.066
		C216.042,247.74,216.036,247.763,216.026,247.798z M220.802,223.604c-0.182,2.966-0.225,5.486-0.811,6.994
		c-0.08,0.289-0.193,0.656-0.328,1.135c-0.139,0.475-0.301,1.039-0.451,1.578c-0.123,0.589-0.217,1.141-0.293,1.594
		c-0.207,0.884-0.34,1.544-0.48,2.08c-0.129,0.481-0.205,0.846-0.25,1.039c-0.027,0.084-0.057,0.175-0.098,0.304
		c-0.205,0.665-0.258,0.949-0.283,0.938c-0.043,0.078-0.529,1.015-0.871,2.379c-0.141,0.938-0.152,1.675-0.178,1.929
		c-0.057,0.942-0.039,1.389-0.1,1.546c-0.059,0.351-0.363,1.152-0.621,2.448c-0.033,0.206-0.043,0.306-0.041,0.328
		c-0.039,0.12-0.098,0.304-0.178,0.576c-0.152,0.571-0.191,0.842-0.158,0.862c-0.416,0.882-0.523,1.302-0.41,0.927
		c-0.141,0.382-0.258,0.688-0.439,1.067c-0.289,0.625-0.336,0.852-0.344,0.878c-0.074,0.126-0.537,0.798-0.975,1.724
		c-0.326,0.775-0.525,1.398-0.639,1.666c-0.227,0.557-0.412,1.031-0.578,1.458c-0.17,0.433-0.27,0.696-0.4,0.962
		c-0.166,0.373-0.672,1.294-1.125,2.529c-0.135,0.434-0.197,0.706-0.211,0.847c-0.283,0.296-0.74,0.811-1.287,1.578
		c-0.336,0.638-0.512,1.055-0.566,1.208c-0.133,0.232-0.293,0.508-0.453,0.805c-0.131,0.227-0.295,0.517-0.459,0.82
		c-0.428,0.82-0.787,1.567-1.119,2.133c-0.199,0.355-0.523,0.921-0.828,1.571c-0.195,0.427-0.395,0.893-0.564,1.3
		c-0.127,0.301-0.301,0.73-0.453,1.152c-0.297,0.848-0.465,1.481-0.654,1.926c-0.377,1.065-1.004,2.105-1.725,3.253
		c-0.199,0.306-0.473,0.692-0.791,1.182c-0.152,0.242-0.174,0.291-0.182,0.297c-0.23,0.378-0.385,0.626-0.672,0.958
		c-0.311,0.312-0.768,0.724-1.248,1.205c-0.486,0.516-0.691,0.775-0.756,0.84c-0.373,0.312-0.783,0.621-1.334,1.096
		c-0.902,0.752-1.768,1.592-2.43,2.187c-1.191,1.07-2.234,2.374-2.961,3.321c-0.561,0.93-0.969,1.67-1.48,2.391
		c-0.189,0.256-0.369,0.498-0.533,0.712c-0.078,0.104-0.111,0.142-0.27,0.335c-0.227,0.266-0.48,0.557-0.75,0.857
		c-0.355,0.417-0.539,0.649-0.689,0.791c-0.084,0.096-0.398,0.361-0.867,0.833c-0.209,0.218-0.313,0.334-0.352,0.38
		c-0.078,0.063-0.309,0.218-0.764,0.58c-0.486,0.422-0.881,0.793-1.201,1.059c-0.193,0.152-0.543,0.387-1.033,0.769
		c-0.432,0.347-0.645,0.542-0.805,0.649c-0.229,0.16-0.418,0.285-0.672,0.446c-0.299,0.192-0.932,0.524-1.699,1.041
		c-0.352,0.247-0.664,0.483-0.877,0.642c-0.561,0.42-1.229,0.952-1.785,1.438c-0.264,0.232-0.439,0.391-0.598,0.527
		c-0.07,0.038-0.219,0.127-0.455,0.279c-0.268,0.182-0.861,0.646-1.32,1.103c-0.105,0.124-0.236,0.322-0.375,0.561
		c-0.268,0.244-0.637,0.59-1.043,1.03c-0.107,0.124-0.164,0.193-0.193,0.23c-0.174,0.157-0.291,0.254-0.441,0.368
		c-0.08,0.079-0.119,0.103-0.338,0.269c-0.217,0.16-0.643,0.488-1.07,0.86c-0.189,0.174-0.471,0.42-0.771,0.696
		c-0.375,0.337-0.525,0.48-0.691,0.602c-0.141,0.115-0.408,0.295-0.805,0.588c-0.527,0.388-0.859,0.637-1.199,0.822
		c-0.273,0.155-0.504,0.266-0.844,0.424c-0.234,0.111-0.521,0.23-0.965,0.429c-0.607,0.286-1.594,0.677-2.6,1.18
		c-0.063,0.032-0.113,0.059-0.156,0.081c-0.205,0.041-0.496,0.099-0.873,0.189c-0.281,0.091-1.291,0.331-2.467,0.874
		c-0.752,0.417-0.916,0.58-0.758,0.487c0.168-0.02-0.564,0.209-1.678,0.816c-0.287,0.186-0.432,0.289-0.469,0.325
		c-0.094,0.041-0.207,0.089-0.357,0.153c-0.033,0.023-0.17,0.063-0.545,0.193c-0.193,0.068-0.689,0.219-1.279,0.453
		c-0.402,0.168-0.588,0.26-0.67,0.287c-0.34,0.139-0.695,0.272-1.113,0.432c-0.309,0.115-0.582,0.217-0.867,0.316
		c-0.652,0.211-1.191,0.379-1.773,0.524c-0.533,0.103-1.248,0.228-2.051,0.425c-1.23,0.348-2.328,0.732-3.006,0.913
		c-0.178,0.046-0.363,0.087-0.656,0.167c-0.584,0.161-1.43,0.381-2.344,0.691c-0.563,0.17-1.266,0.404-1.947,0.656
		c-0.426,0.177-0.754,0.32-1.029,0.426c-0.574,0.223-0.889,0.341-1.205,0.414c-0.324,0.061-0.496,0.051-1.012,0.09
		c-0.473,0.064-1.238,0.123-2.131,0.258c-0.486,0.079-0.922,0.165-1.242,0.223c-0.764,0.139-1.303,0.264-1.65,0.313
		c-0.225,0.037-0.559,0.063-1.117,0.141c-0.613,0.089-0.898,0.15-1.129,0.146c-0.254,0.015-0.643-0.001-1.254,0.003
		c-0.955,0.006-1.992,0-2.977-0.002c-2.172,0.02-4.088,0.128-5.852,0.021c-3.863-0.224-8.127-0.799-12.369-1.035
		c-0.572-0.03-0.979-0.028-1.125-0.04c-0.51-0.031-0.697-0.04-1.016-0.071c-0.414-0.057-0.707-0.098-1.006-0.17
		c-0.117-0.029-0.264-0.073-0.576-0.148c-0.59-0.123-1.139-0.239-1.572-0.36c-0.531-0.148-1.145-0.351-1.91-0.544
		c-0.752-0.182-1.74-0.383-2.727-0.516c-0.408-0.044-0.768-0.075-1.084-0.11c-0.824-0.099-1.633-0.198-2.402-0.301
		c-0.482-0.066-0.975-0.151-1.564-0.251c-0.643-0.113-1.025-0.169-1.355-0.26c-0.219-0.054-0.752-0.221-1.475-0.372
		c-0.547-0.099-0.828-0.13-1.006-0.167c-0.555-0.111-1.082-0.221-1.535-0.34c-0.391-0.096-0.561-0.129-0.789-0.197
		c-0.355-0.121-0.936-0.338-1.607-0.544c-0.523-0.146-1.021-0.265-1.455-0.367c-0.4-0.091-0.82-0.181-1.209-0.262
		c-0.58-0.14-1.096-0.263-1.658-0.421c-0.336-0.1-0.607-0.178-0.842-0.254c-0.453-0.143-0.828-0.265-1.225-0.401
		c-0.387-0.13-0.848-0.306-1.398-0.492c-1.008-0.32-1.854-0.573-2.799-0.89c-0.787-0.281-1.234-0.409-1.313-0.482
		c-0.016-0.003-0.334-0.22-0.963-0.547c-0.4-0.202-0.742-0.361-0.99-0.494c-0.279-0.131-0.697-0.342-1.162-0.55
		c-0.307-0.139-0.465-0.208-0.605-0.276c-0.49-0.212-0.967-0.434-1.613-0.768c-0.59-0.317-1.555-0.889-2.68-1.379
		c-0.326-0.143-0.717-0.311-1.076-0.455c-0.637-0.254-1.063-0.406-1.475-0.586c-0.391-0.169-0.631-0.27-0.854-0.395
		c-0.377-0.214-0.563-0.337-0.82-0.535c-0.27-0.182-0.682-0.52-1.295-0.939c-0.617-0.402-1.021-0.621-1.314-0.818
		c-0.12-0.076-0.437-0.293-0.843-0.534c-0.246-0.142-0.369-0.207-0.403-0.224c-0.623-0.381-0.824-0.452-0.859-0.508
		c-0.107-0.103-0.332-0.326-0.681-0.624c-0.232-0.196-0.482-0.439-0.928-0.81c-0.399-0.33-0.631-0.503-0.691-0.582
		c-0.229-0.228-0.483-0.49-0.855-0.828c-0.348-0.354-0.989-0.936-1.688-1.461c-1.074-0.691-2.173-1.275-2.826-1.662
		c-0.309-0.185-0.583-0.346-0.855-0.506c-0.271-0.16-0.733-0.445-1.269-0.729c-0.277-0.146-0.646-0.355-1.057-0.576
		c-0.105-0.144-0.332-0.451-0.75-0.935c-0.365-0.395-0.6-0.621-0.725-0.766c-0.336-0.377-0.492-0.576-0.746-0.951
		c-0.111-0.15-0.52-0.797-1.139-1.553c-0.447-0.515-0.744-0.811-0.829-0.912c-0.018-0.046-0.057-0.134-0.138-0.301
		c-0.063-0.119-0.29-0.6-0.64-1.18c-0.337-0.506-0.938-1.266-1.479-1.823c-0.463-0.47-0.743-0.701-0.817-0.766
		c0-0.001,0,0.001,0-0.001c-0.005-0.004,0.001,0.001-0.001-0.002c-0.013-0.022-0.068-0.122-0.171-0.303
		c-0.073-0.127-0.187-0.322-0.3-0.506c-0.075-0.117-0.269-0.396-0.465-0.648c-0.006-0.007-0.026-0.021-0.034-0.029
		c-0.52-0.727-1.175-1.478-1.622-1.918c-0.661-0.598-1.121-0.919-1.217-0.969c-0.155-0.151-0.477-0.466-0.913-0.834
		c-0.479-0.384-0.839-0.651-1.039-0.813c-0.17-0.141-0.335-0.289-0.59-0.504c-0.407-0.359-0.377-0.32-0.458-0.461
		c-0.291-0.375-0.512-0.677-0.722-1.025c-0.193-0.277-0.554-0.9-1.146-1.676c-0.422-0.521-0.768-0.908-1.018-1.223
		c-0.073-0.091-0.123-0.148-0.164-0.192c-0.068-0.211-0.154-0.494-0.278-0.864c-0.161-0.449-0.461-1.356-0.956-2.328
		c-0.187-0.344-0.371-0.654-0.484-0.849c-0.347-0.589-0.555-0.885-0.668-1.103c-0.219-0.392-0.274-0.461-0.235-0.407
		c-0.068-0.146-0.238-0.65-0.575-1.366c-0.216-0.432-0.551-1.027-0.857-1.502c-0.212-0.318-0.313-0.453-0.315-0.465
		c-0.138-0.211-0.232-0.42-0.468-0.879c-0.224-0.436-0.517-1.018-0.902-1.689c-0.206-0.36-0.332-0.562-0.415-0.732
		c-0.103-0.192-0.343-0.722-0.713-1.372c-0.483-0.81-0.75-1.159-0.748-1.233c-0.043-0.061-0.01,0.055-0.068-0.134
		c-0.05-0.12-0.159-0.682-0.416-1.485c-0.334-0.94-0.608-1.452-0.683-1.675c-0.113-0.282-0.36-0.996-0.743-1.793
		c-0.383-0.729-0.621-1.068-0.583-1.029c-0.16-0.311-0.276-0.524-0.357-0.688c-0.108-0.158-0.604-1.459-1.766-2.968
		c-0.059-0.172-0.136-0.381-0.232-0.629c-0.313-0.714-0.696-1.413-0.954-1.866c-0.305-0.535-0.493-0.832-0.597-1.066
		c-0.088-0.18-0.154-0.34-0.272-0.623c-0.18-0.426-0.403-1.051-0.701-1.753c-0.147-0.345-0.288-0.698-0.47-1.133
		c-0.186-0.442-0.189-0.388-0.161-0.366c-0.059-0.184-0.119-0.817-0.329-1.794c-0.241-1.064-0.477-1.828-0.604-2.404
		c-0.016-0.088-0.033-0.183-0.049-0.267c-0.023-0.139-0.046-0.276-0.047-0.39c-0.049-0.175-0.03-1.188-0.305-2.604
		c-0.192-0.764-0.385-1.301-0.441-1.506c-0.048-0.169-0.032-0.063-0.039-0.122c-0.01-0.056-0.016-0.097-0.025-0.148
		c0-0.005-0.002-0.011-0.002-0.016c-0.048-0.382-0.083-0.688-0.112-1.017c-0.008-0.227-0.013-0.478-0.02-0.8
		c-0.007-0.581-0.015-1.091-0.022-1.656c-0.001-0.503-0.003-1.04-0.005-1.556c-0.008-1.735-0.017-3.549-0.024-5.255
		c0-0.734,0.001-1.433,0.001-2.142c-0.008-0.438,0.079-1.447-0.025-2.76c0.021,0.447,0.025,0.291,0.027-0.052
		c-0.003-0.339-0.012-0.482-0.019-0.51c0.021-0.365,0.018-0.856,0.001-1.075c-0.022,0.492,0.016-0.947-1.334-3.806
		c1.129,2.42,1.196,2.986,1.195,2.802c-0.001-0.159,0.012-0.506,0.005-0.955c-0.014-0.408-0.002-0.791-0.003-1.327
		c-0.001-0.53,0-1.045-0.002-1.528c-0.007-1.021-0.041-1.79-0.017-2.576c0.02-0.692,0.05-1.242,0.126-1.721
		c0.056-0.36,0.079-0.545,0.108-0.682c0.026-0.16,0.168-0.832,0.23-1.647c0.015-0.534,0.001-0.908,0.01-1.118
		c0.021-0.527,0.077-1.037,0.142-1.783c0.066-0.684,0.145-1.501,0.199-2.379c0.155-2.303,0.11-4.194,0.427-5.641
		c0.07-0.377,0.085-0.516,0.098-0.543c0.063-0.389,0.318-1.133,0.524-2.25c0.12-0.619,0.201-1.241,0.261-1.698
		c0.103-0.848,0.14-1.438,0.213-1.836c0.126-0.716,0.278-1.377,0.506-2.217c0.252-0.963,0.526-1.993,0.785-3.017
		c0.303-1.201,0.568-2.217,0.877-3.283c0.151-0.52,0.254-0.904,0.365-1.213c0.1-0.293,0.218-0.6,0.352-0.963
		c0.104-0.286,0.118-0.341,0.154-0.414c0.092-0.205,0.261-0.554,0.448-0.997c0.074-0.167,0.183-0.407,0.293-0.673
		c0.264-0.624,0.483-1.188,0.699-1.715c0.239-0.637,0.366-1.023,0.555-1.397c0.149-0.313,0.325-0.652,0.532-1.058
		c0.242-0.477,0.521-1.005,0.788-1.537c0.41-0.814,0.682-1.391,1.023-2.004c0.155-0.279,0.34-0.607,0.515-0.93
		c0.276-0.498,0.551-0.992,0.804-1.496c0.235-0.487,0.365-0.781,0.477-0.967c0.297-0.535,0.424-0.705,0.99-1.406
		c0.248-0.309,0.535-0.655,0.857-1.038c0.245-0.293,0.538-0.632,0.833-0.985c0.27-0.324,0.479-0.584,0.653-0.787
		c0.347-0.408,0.762-0.919,1.177-1.49c0.437-0.6,0.965-1.345,1.376-1.934c0.322-0.471,0.452-0.674,0.685-0.988
		c0.364-0.501,0.844-1.135,1.323-1.766c0.229-0.308,0.409-0.555,0.606-0.813c0.492-0.617,0.953-1.163,1.4-1.671
		c0.458-0.534,0.699-0.82,1.146-1.235c0.386-0.352,0.624-0.576,0.837-0.722c0.245-0.188,0.702-0.439,1.389-0.931
		c0.527-0.41,1.031-0.832,1.407-1.146c0.818-0.688,1.587-1.351,2.296-1.992c1.683-1.443,2.795-2.674,4.607-4.357
		c0.369-0.343,0.846-0.769,1.347-1.24c0.249-0.232,0.553-0.514,0.85-0.803c0.697-0.676,1.309-1.29,1.836-1.822
		c0.457-0.463,0.614-0.643,0.827-0.795c0.295-0.244,0.778-0.563,1.461-1.07c0.628-0.486,1.25-0.977,1.752-1.354
		c0.241-0.178,0.398-0.291,0.617-0.439c0.37-0.248,0.681-0.458,0.95-0.621c0.224-0.137,0.481-0.282,0.819-0.486
		c0.556-0.352,1.284-0.801,1.985-1.288c0.524-0.354,1.018-0.71,1.431-1.008c0.374-0.271,0.587-0.439,0.748-0.544
		c0.517-0.35,1.039-0.697,1.568-1.047c0.732-0.486,1.361-0.937,1.873-1.254c1.02-0.633,1.998-1.2,3.117-1.894
		c0.33-0.192,0.676-0.405,0.994-0.606c0.438-0.295,1.094-0.727,1.721-1.207c2.16-1.682,4.006-2.833,6.648-4.162
		c1.045-0.527,1.674-0.905,2.328-1.111c0.41-0.199,1.338-0.406,2.486-0.84c0.785-0.324,0.926-0.466,0.713-0.396
		c0.1-0.055,0.645-0.111,1.514-0.326c0.598-0.18,1.191-0.382,1.758-0.587c0.359-0.119,0.473-0.177,0.488-0.196
		c0.186-0.025,0.617-0.06,1.186-0.154c0.99-0.187,1.592-0.411,1.564-0.379c0.525-0.127,1.035-0.266,1.475-0.388
		c0.275-0.077,0.703-0.193,1.168-0.345c0.406-0.145,0.66-0.248,0.844-0.303c0.41-0.133,0.635-0.201,1.064-0.293
		c0.313-0.06,0.748-0.126,1.23-0.216c0.449-0.085,0.883-0.169,1.328-0.255c0.445-0.096,0.885-0.188,1.369-0.287
		c0.984-0.2,2.014-0.41,3.021-0.619c0.568-0.116,1.266-0.234,1.984-0.393c0.5-0.112,0.975-0.225,1.396-0.326
		c0.756-0.188,1.344-0.323,2.135-0.48c0.246-0.048,0.507-0.096,0.77-0.145c0.588,0.006,1.197,0.018,1.871,0.025
		c1.963,0.01,3.811,0.017,5.738,0.059c3.51,0.081,6.986,0.35,10.713,0.656c0.719,0.056,1.352,0.119,1.891,0.198
		c0.096,0.012,0.303,0.053,0.693,0.107c0.625,0.083,1.369,0.177,1.975,0.253c0.344,0.044,0.506,0.064,0.775,0.109
		c0.389,0.063,0.736,0.119,1.037,0.177c0.291,0.058,0.48,0.093,0.672,0.136c0.359,0.074,0.877,0.195,1.479,0.309
		c0.855,0.147,1.781,0.293,2.652,0.422c0.607,0.097,1.041,0.156,1.43,0.241c0.391,0.082,1.033,0.259,1.846,0.416
		c0.682,0.126,1.207,0.203,1.643,0.3c1.053,0.227,2.305,0.59,3.652,0.887c0.66,0.141,1.045,0.201,1.342,0.283
		c0.926,0.235,2.473,0.781,4.148,1.078c0.979,0.14,1.453,0.133,1.684,0.189c0.322,0.053,0.727,0.135,1.189,0.221
		c0.691,0.126,1.27,0.244,1.854,0.379c0.387,0.09,1.008,0.268,1.822,0.416c0.889,0.156,1.506,0.223,1.85,0.328
		c0.168,0.047,0.326,0.113,0.729,0.256c0.381,0.123,0.859,0.293,1.391,0.474c0.283,0.095,0.623,0.217,1.016,0.347
		c0.406,0.132,0.465,0.137,0.426,0.132c0.316,0.146,0.754,0.374,1.283,0.626c0.41,0.189,0.736,0.339,1.031,0.485
		c0.248,0.124,0.459,0.231,0.693,0.354c0.336,0.175,0.549,0.29,0.777,0.426c0.418,0.239,0.563,0.312,0.791,0.479
		c0.164,0.107,0.57,0.422,1.127,0.785c0.342,0.221,0.496,0.309,0.604,0.392c0.369,0.269,0.768,0.57,1.131,0.865
		c0.291,0.228,0.779,0.675,1.52,1.203c0.416,0.278,0.576,0.363,0.547,0.352c0.254,0.195,0.455,0.363,0.717,0.59
		c0.266,0.228,0.385,0.331,0.553,0.5c0.189,0.18,0.555,0.549,1.006,0.943c0.369,0.311,0.707,0.571,0.926,0.739
		c0.203,0.154,0.295,0.219,0.336,0.246c0.137,0.124,0.498,0.484,0.996,0.898c0.531,0.424,1.045,0.766,1.24,0.896
		c0.307,0.207,0.652,0.428,0.982,0.631c0.158,0.093,0.24,0.139,0.283,0.16c0.17,0.129,0.645,0.527,1.379,1.004
		c0.395,0.236,0.689,0.391,0.807,0.46c0.285,0.163,0.559,0.314,0.813,0.456c0.273,0.154,0.463,0.257,0.637,0.362
		c0.293,0.177,0.514,0.31,0.699,0.437c0.188,0.121,0.348,0.249,0.652,0.476c0.117,0.079,0.197,0.132,0.262,0.172
		c0.223,0.22,0.393,0.37,0.525,0.483c0.359,0.307,0.842,0.713,1.27,1.068c0.209,0.172,0.299,0.24,0.334,0.265
		c0.234,0.247,0.422,0.463,0.668,0.772c0.164,0.197,0.504,0.696,1.076,1.356c0.508,0.564,0.982,1.043,1.262,1.36
		c0.297,0.328,0.41,0.438,0.418,0.459c-0.064-0.107,0.213,0.334,0.85,1.061c0.387,0.399,0.857,0.844,1.229,1.172
		c0.387,0.341,0.58,0.492,0.633,0.553c0.141,0.135,0.293,0.32,0.621,0.679c0.457,0.468,1.191,1.334,2.164,2.256
		c0.375,0.354,0.596,0.542,0.703,0.659c0.24,0.238,0.32,0.303,0.336,0.312c0.277,0.34,0.541,0.626,0.641,0.732
		c0.049,0.054,0.012,0.009-0.051-0.063c-0.045-0.057-0.207-0.281-0.357-0.509c0.211,0.342,0.469,0.657,0.758,0.952
		c0.045,0.057,0.102,0.126,0.182,0.221c0.139,0.161,0.547,0.578,0.939,0.908c0.004,0.003,0.012,0.007,0.018,0.01
		c0.078,0.109,0.16,0.221,0.258,0.348c0.203,0.238,0.318,0.362,0.387,0.428c0.154,0.252,0.443,0.717,0.918,1.326
		c0.299,0.322,0.477,0.488,0.58,0.563c0.133,0.356,0.359,0.938,0.711,1.633c0.289,0.524,0.576,0.995,0.768,1.321
		c0.24,0.41,0.27,0.422,0.227,0.369c0.15,0.344,0.336,0.787,0.535,1.226c0.109,0.237,0.555,1.118,1.115,1.886
		c0.314,0.393,0.619,0.738,0.832,0.99c0.232,0.275,0.492,0.592,0.756,0.9c0.281,0.381,0.109,0.172,0.063,0.192
		c0.049,0.145,0.297,0.856,0.793,1.782c0.262,0.426,0.645,0.973,0.953,1.359c0.078,0.099,0.137,0.17,0.18,0.224
		c0.025,0.048,0.131,0.241,0.324,0.551c0.289,0.411,0.494,0.706,0.727,1.128c0.369,0.715,0.68,1.348,0.879,1.84
		c0.068,0.146,0.234,0.685,0.623,1.521c0.41,0.792,0.512,0.875,0.471,0.865c0.086,0.217,0.18,0.621,0.373,1.285
		c0.127,0.418,0.25,0.847,0.371,1.262c0.076,0.27,0.215,0.731,0.379,1.184c0.16,0.429,0.506,1.243,0.908,1.95
		c-0.035-0.122,0.424,0.86,1.561,2.145c0.475,0.778,1.135,1.654,1.789,2.216c0.117,0.074,0.219,0.138,0.309,0.193
		c0.014,0.027,0.025,0.049,0.051,0.093c0.035,0.063,0.066,0.116,0.094,0.16c0.012,0.123,0.025,0.273,0.049,0.469
		c0.053,0.536,0.064,0.661,0.014,0.593c0.027,0.303,0.023,1.07,0.156,2.1c0.068,0.605,0.109,0.865,0.09,1.007
		c0.039,0.432,0.066,0.844,0.086,1.259c0.008,0.077,0.006,0.652,0.102,1.455c0.098,0.631,0.16,0.854,0.152,0.932
		c0.041,0.27,0.07,1.1,0.244,2.136c0.045,0.232,0.129,0.677,0.227,1.097c0.055,0.224,0.184,0.671,0.322,1.053
		c0.045,0.111,0.141,0.313,0.262,0.546c0.055,0.32,0.117,0.667,0.205,1.067c0.266,0.652,0.473,1.039,0.49,1.086
		c0.059,0.128,0.1,0.215,0.135,0.284c0.016,0.13,0.035,0.284,0.066,0.487c0.168,1.084,0.32,2.242,0.527,3.625
		c0.082,0.539,0.182,1.389,0.373,2.287c0.178,0.784,0.365,1.41,0.502,1.904c0.094,0.33,0.186,0.711,0.305,1.18
		c0.104,0.408,0.191,0.778,0.279,1.21c0.123,0.508,0.273,1.413,0.566,2.403c0.096,0.156,0.197,0.307,0.293,0.438
		c0.008,0.149,0.018,0.299,0.037,0.449c0,0.003,0.002,0.006,0.002,0.008c0.035,0.253,0.098,0.59,0.141,0.795
		c0.002,0.008,0.004,0.017,0.006,0.025c0,0.006,0.004,0.012,0.004,0.019c0.047,0.201,0.107,0.431,0.141,0.554
		c0.037,0.127,0.059,0.203,0.068,0.242c0.135,0.45,0.229,0.716,0.283,0.85c0.004,0.142,0.006,0.389,0.025,0.787
		c0.037,0.712,0.092,1.812,0.283,2.904c0.074,0.356,0.119,0.529,0.143,0.6c0.004,0.181-0.002,0.447-0.002,0.843
		c0.025,0.675,0.045,1.395,0.078,2.192C220.798,220.902,220.858,222.364,220.802,223.604z"/>
	<path fill="#FFFFFF" d="M89.749,50.971C89.79,50.914,89.794,50.908,89.749,50.971L89.749,50.971z"/>
	<path fill="#FFFFFF" d="M135.618,54.277c0.004,0.013,0.008,0.03,0.01,0.045c0-0.002,0.002-0.001,0.002-0.004
		C135.624,54.3,135.622,54.292,135.618,54.277z"/>
	<path fill="#FFFFFF" d="M135.618,54.277C135.573,54.079,135.565,54.079,135.618,54.277L135.618,54.277z"/>
	<path fill="#FFFFFF" d="M135.78,55.073c-0.016-0.115-0.035-0.244-0.061-0.388C135.673,54.536,135.714,54.708,135.78,55.073z"/>
	<path fill="#FFFFFF" d="M87.829,54.965c-0.002,0.004-0.003,0.007-0.004,0.011C87.813,55.018,87.818,55.003,87.829,54.965z"/>
	<path fill="#FFFFFF" d="M128.993,46.528c-0.004,0-0.004-0.001-0.008-0.001C128.938,46.523,128.944,46.523,128.993,46.528z"/>
	<path fill="#FFFFFF" d="M87.649,62.557c0-0.045,0-0.081-0.001-0.109c-0.001-0.007-0.001-0.012-0.001-0.02
		c0,0.032,0,0.079,0.002,0.136C87.649,62.561,87.649,62.56,87.649,62.557z"/>
	<path fill="#FFFFFF" d="M89.724,51.004c0.003-0.004,0.014-0.017,0.016-0.021c0.003-0.003,0.008-0.009,0.01-0.012
		C89.739,50.984,89.738,50.985,89.724,51.004z"/>
	<path fill="#FFFFFF" d="M149.909,70.349c0.029-0.037,0.061-0.079,0.053-0.093C149.944,70.288,149.927,70.318,149.909,70.349z"/>
	<path fill="#FFFFFF" d="M145.28,81.449C145.458,81.362,145.478,81.346,145.28,81.449L145.28,81.449z"/>
	<path fill="#FFFFFF" d="M154.86,64.755c0.047-0.067,0.057-0.088,0.061-0.106C154.901,64.685,154.882,64.72,154.86,64.755z"/>
	<path fill="#FFFFFF" d="M154.339,65.418c-0.039,0.037-0.08,0.074-0.121,0.111C154.284,65.479,154.312,65.451,154.339,65.418z"/>
	<path fill="#FFFFFF" d="M64.483,74.106c-0.059-0.08-0.115-0.153-0.166-0.221c0.436,0.673,0.531,0.972,0.412,0.633
		C64.571,74.264,64.485,74.121,64.483,74.106z"/>
	<path fill="#FFFFFF" d="M119.101,286.846c-0.004-0.49-0.02-0.942-0.039-1.418c-0.006-0.143-0.014-0.279-0.02-0.401
		c-0.014-0.384-0.023-0.759-0.031-1.138c0-0.242-0.002-0.455-0.002-0.645c0-0.347-0.014-0.515,0.006-0.573
		c0.007-0.139,0.025-0.473-0.045-0.979c0.018-0.261,0.021-0.486,0.014-0.628c0-0.064,0-0.273-0.025-0.533
		c-0.057-0.449-0.125-0.707-0.121-0.756c0.006-0.153,0.016-0.357,0.01-0.605c-0.033-0.223-0.064-0.447-0.102-0.689
		c-0.045-0.191-0.082-0.314-0.111-0.442c-0.016-0.095-0.025-0.171-0.039-0.304c-0.016-0.172-0.033-0.385-0.053-0.607
		c-0.02-0.254-0.041-0.566-0.074-0.861c-0.045-0.42-0.102-0.789-0.164-1.197c-0.047-0.246-0.092-0.381-0.107-0.52
		c-0.012-0.08-0.018-0.339-0.064-0.668c-0.094-0.501-0.217-0.777-0.17-0.593c-0.1-0.255-0.184-0.374-0.232-0.403
		c-0.092-0.016-0.197-0.403-0.354-0.768c-0.09-0.104-0.205-0.269-0.318-0.385c-0.123-0.128-0.443-0.485-0.893-0.721
		c-0.004-0.002-0.012-0.002-0.016-0.004c-0.006-0.002-0.009-0.008-0.014-0.01c-0.27-0.117-0.555-0.113-0.817-0.04
		c-0.026,0.004-0.058,0.005-0.079,0.011c-0.004,0.002-0.008,0.004-0.012,0.006c-0.052,0.019-0.094,0.051-0.143,0.076
		c-0.008,0.005-0.016,0.01-0.023,0.015c-0.002,0.001-0.004,0.003-0.008,0.005c-0.019,0.011-0.036,0.023-0.055,0.035
		c-0.068,0.041-0.142,0.073-0.199,0.127c-0.008,0.007-0.012,0.018-0.02,0.025c-0.01,0.009-0.016,0.021-0.025,0.031
		c-0.027,0.025-0.055,0.05-0.072,0.069c-0.029,0.04-0.055,0.088-0.084,0.133c-0.025,0.041-0.055,0.077-0.076,0.12
		c-0.012,0.021-0.019,0.037-0.029,0.058c-0.15,0.087-0.295,0.186-0.424,0.313c-0.361,0.358-0.551,0.819-0.586,1.289
		c-0.029,0.044-0.039,0.091-0.043,0.124c-0.008,0.157-0.004,0.325-0.002,0.403c0.008,0.154,0.01,0.195,0,0.17
		c-0.006,0.072-0.012,0.102-0.02,0.143c-0.061,0.33-0.129,0.646-0.195,0.944c-0.018,0.225-0.02,0.405-0.016,0.507
		c-0.006,0.14-0.012,0.271-0.02,0.41c-0.066,0.059-0.135,0.119-0.201,0.177c-0.035,0.124-0.066,0.23-0.098,0.323
		c-0.012,0.006-0.035,0.028-0.086,0.201c-0.068,0.262-0.107,0.469-0.143,0.58c-0.033,0.105-0.07,0.221-0.111,0.371
		c-0.061,0.299-0.107,0.559-0.158,0.754c-0.029,0.126-0.1,0.305-0.186,0.609c-0.029,0.108-0.078,0.295-0.115,0.488
		c-0.047,0.236-0.084,0.495-0.111,0.682c-0.281,2.469-0.16,5.125-0.23,7.573c0.012,1.979,0.107,3.847,0.137,5.778
		c0.023,0.879-0.008,1.66-0.053,2.572c-0.043,0.652-0.041,1.323-0.037,1.91c0.08,1.432,0.172,2.803,0.254,4.367
		c0.039,0.83,0.135,1.577,0.244,2.289c0.072,0.402,0.162,0.852,0.24,1.205c0.027,0.107,0.053,0.246,0.088,0.41
		c0.07,0.127,0.162,0.347,0.268,0.543c0.176,0.402,0.379,0.676,0.463,0.754c0.094,0.167,0.148,0.333,0.219,0.576
		c0.07,0.211,0.119,0.452,0.188,0.754c0.064,0.328,0.121,0.467,0.105,0.44c0.004,0.007,0.008-0.002,0.016-0.024
		c-0.053,0.552,0.186,1.114,0.68,1.44c0.713,0.47,1.67,0.272,2.141-0.438c0.221-0.336,0.289-0.725,0.23-1.092
		c0.009-0.045,0.029-0.085,0.031-0.132c0.089-0.247,0.17-0.479,0.255-0.719c0.158-0.22,0.272-0.476,0.272-0.769
		c0.008-0.061,0.014-0.119,0.02-0.18c0.021-0.096,0.033-0.194,0.033-0.297c0.051-0.298,0.102-0.589,0.152-0.881
		c0.055-0.163,0.09-0.334,0.09-0.516c0.01-0.153,0.018-0.305,0.027-0.461c0.07-1.215,0.123-2.313,0.23-3.217
		c0.064-1.275,0.203-2.277,0.199-3.503c-0.016-0.824,0.088-1.656,0.172-2.617c0.051-0.344,0.1-0.706,0.145-1.011
		c0.053-0.402,0.184-0.869,0.26-1.552c0.045-0.297,0.08-0.595,0.117-0.847c0.057-0.502,0.113-0.996,0.148-1.551
		c0.004-0.271,0.01-0.578,0.014-0.863c0-0.074,0-0.14,0.002-0.211c0.008-0.188,0.016-0.389,0.023-0.574
		c-0.006-0.522-0.016-0.99-0.021-1.49C119.103,287.512,119.104,287.178,119.101,286.846z"/>
	<path fill="#FFFFFF" d="M210.585,209.609c-0.375-0.02-0.738-0.05-1.107-0.086c-0.885-0.178-1.762-0.384-2.646-0.573
		c-0.199-0.089-0.418-0.14-0.65-0.14c-0.049-0.005-0.098-0.011-0.146-0.016c-0.113-0.024-0.229-0.038-0.348-0.038
		c-0.213-0.04-0.416-0.081-0.596-0.122c-0.117-0.02-0.217-0.039-0.328-0.058c-0.313-0.042-0.639-0.085-1.008-0.128
		c-0.262-0.027-0.545-0.055-0.822-0.082c-0.529-0.046-1.078-0.092-1.584-0.137c-0.689-0.086-1.479-0.184-2.238-0.258
		c-0.613-0.027-1.215-0.076-1.861-0.133c-1.148-0.031-2.354-0.092-3.596-0.114c-1.666-0.03-3.381-0.005-4.98,0.009
		c-0.799,0.023-1.627,0.08-2.346,0.098c-0.33,0.018-0.52,0.047-0.65,0.053c-0.15,0.01-0.342,0.026-0.488,0.047
		c-0.24,0.027-0.404,0.064-0.428,0.082c-0.004,0.008,0.131,0.016,0.26,0.029c0.002,0.001,0.01,0.003,0.012,0.004
		c-0.063-0.001-0.133-0.002-0.186-0.002c-0.105-0.009-0.395,0.011-0.768,0.102c-0.236,0.08-0.68,0.334-0.957,0.566
		c-0.156,0.165-0.455,0.641-0.588,0.998c-0.08,0.432,0.074,1.449,0.322,1.919c0.629,0.621,1.473,0.968,1.721,1.01
		c0.201,0.021,0.432,0.025,0.529,0.026c0.184,0.002,0.262,0.006,0.219,0.027c0.086,0.014,0.107,0.029,0.084,0.047
		c0.398,0.034,0.725,0.035,0.918,0.053c0.834,0.018,1.682-0.001,2.379,0.014c1.617-0.008,3.266-0.027,4.842,0.008
		c1.16,0.027,2.342,0.094,3.549,0.134c0.686-0.019,1.402-0.046,2.096-0.097c0.678-0.097,1.43-0.17,2.156-0.256
		c0.506-0.046,1.055-0.092,1.584-0.138c0.277-0.027,0.561-0.055,0.822-0.083c0.369-0.041,0.695-0.084,1.008-0.127
		c0.111-0.02,0.211-0.039,0.328-0.058c0.18-0.041,0.383-0.081,0.596-0.122c0.119,0,0.232-0.014,0.344-0.037
		c0.051-0.005,0.1-0.01,0.15-0.016c0.193,0,0.375-0.039,0.547-0.102c0.877-0.168,1.783-0.314,2.744-0.492
		c0.385-0.033,0.783-0.072,1.178-0.121c0.467-0.018,0.832-0.41,0.814-0.878C211.446,209.956,211.054,209.592,210.585,209.609z
		 M185.456,212.212c0.09-0.042,0.131-0.073,0.225-0.103c0.051-0.002,0.119-0.001,0.178-0.001c-0.1,0.055-0.191,0.101-0.244,0.116
		C185.374,212.265,185.304,212.258,185.456,212.212z"/>
	<path fill="#FFFFFF" d="M58.83,210.011c-0.291-0.267-0.669-0.44-1.095-0.453c-0.22-0.089-0.479-0.211-0.843-0.352
		c-0.53-0.132-1.224-0.298-1.909-0.382c-0.52-0.03-0.958-0.045-1.361-0.082c-0.652-0.109-1.469-0.269-2.306-0.357
		c-0.43-0.029-0.768-0.033-1.048-0.055c-0.199-0.008-0.453-0.026-0.761-0.039c-0.316-0.025-0.624-0.042-0.873-0.063
		c-0.785-0.043-1.604-0.09-2.358-0.135c-0.122,0.001-0.229,0.002-0.352,0.004c-0.295-0.014-0.612-0.027-0.944-0.041
		c-0.183-0.008-0.375-0.015-0.553-0.022c-0.391-0.007-0.774-0.015-1.13-0.022c-0.155,0.002-0.297,0.002-0.436,0.004
		c-0.166,0-0.333-0.002-0.536,0c-0.122,0.004-0.289,0.005-0.487,0.009c-0.793,0.008-1.576,0.054-2.242,0.063
		c-0.436,0.01-0.897,0.012-1.407,0.031c-0.173,0.013-0.361,0.027-0.54,0.043c-0.338,0.031-0.688,0.068-1.006,0.105
		c-0.404,0.061-0.703,0.118-1.024,0.166c-0.397,0.045-0.961,0.082-1.571,0.162c-0.865,0.134-1.631,0.293-2.3,0.354
		c-0.367,0.087-0.748,0.164-1.183,0.241c-0.288,0.06-0.588,0.125-0.855,0.188c-0.351,0.059-0.714,0.117-1.08,0.2
		c-0.3,0.045-0.554,0.108-0.752,0.152c-0.14,0.004-0.292,0.006-0.451,0.009c-0.094,0.016-0.183,0.028-0.31,0.046
		c-0.281,0.063-0.576,0.131-0.877,0.197c-0.13,0.009-0.252,0.04-0.371,0.08c-0.463,0.107-0.848,0.234-1.207,0.324
		c-0.179,0.061-0.393,0.1-0.665,0.141c-0.961,0.092-1.963,0.117-3.222,0.385c-0.463,0.066-0.785,0.494-0.72,0.957
		s0.494,0.785,0.957,0.719c1.112-0.068,1.95,0.092,2.98,0.187c0.271,0.042,0.592,0.083,0.899,0.099
		c0.476,0.012,0.861,0.008,1.239,0.023c0.1,0.014,0.202,0.019,0.306,0.012c0.326,0.023,0.625,0.044,0.891,0.072
		c0.098,0.002,0.21,0.005,0.353,0.002c0.146-0.021,0.34-0.045,0.53-0.074c0.294-0.009,0.5-0.021,0.649-0.006
		c0.253,0.039,0.495,0.1,0.849,0.157c0.283,0.063,0.567,0.123,0.824,0.188c0.433,0.084,0.864,0.168,1.292,0.241
		c0.951,0.032,1.896-0.039,2.672-0.057c0.443-0.02,0.906-0.004,1.394-0.007c0.405,0.008,0.765,0.007,1.146,0.009
		c0.305-0.012,0.597-0.02,0.89-0.021c0.15-0.002,0.292-0.001,0.444,0c0.409-0.012,0.82-0.007,1.308-0.012
		c0.786-0.013,1.551-0.058,2.201-0.063c0.136,0.002,0.302,0.008,0.49,0.009c0.158-0.001,0.301,0.001,0.491,0.001
		c0.139,0.001,0.28,0.002,0.436,0.004c0.355-0.008,0.739-0.016,1.13-0.023c0.178-0.007,0.37-0.015,0.553-0.022
		c0.332-0.013,0.649-0.026,0.944-0.04c0.122,0.002,0.229,0.002,0.352,0.004c0.749-0.045,1.573-0.089,2.367-0.135
		c0.288-0.021,0.543-0.048,0.771-0.063c0.237-0.001,0.51,0.007,0.805,0.004c0.399-0.015,0.692-0.046,0.968-0.055
		c0.63-0.048,1.364-0.022,2.135-0.031c0.514,0.028,1.007,0.031,1.476,0.045c0.422-0.036,0.923,0.003,1.506,0.041
		c0.417-0.022,0.9-0.043,1.328-0.111c0.321,0.01,0.621-0.075,0.882-0.222c0.44-0.168,0.801-0.528,0.942-1.016
		C59.647,211.063,59.372,210.38,58.83,210.011z"/>
	<path fill="#FFFFFF" d="M113.286,156.386c0.258,0.054,0.797,0.075,1.057,0.042c0.075-0.021,0.18-0.061,0.293-0.107
		c0.045-0.015,0.088-0.033,0.133-0.05c1.004-0.063,1.852-0.83,1.975-1.863l0,0c0.025-0.05,0.053-0.101,0.078-0.147
		c0.01-0.048,0.021-0.1,0.033-0.15c0.016-0.049,0.031-0.102,0.045-0.152c0.021-0.049,0.043-0.103,0.064-0.154
		c0.039-0.101,0.08-0.214,0.119-0.323c0.018-0.054,0.035-0.115,0.051-0.174c0.016-0.056,0.031-0.119,0.045-0.181
		c0.031-0.131,0.066-0.334,0.094-0.54c0.027-0.276,0.049-0.523,0.072-0.735c0.006-0.167,0.01-0.286,0.02-0.399
		c0.006-0.195,0.012-0.381,0.021-0.583c0.016-0.434,0.061-0.934,0.076-1.492c0.006-0.358-0.008-0.705-0.01-0.984
		c0.004-0.371,0.004-0.785-0.012-1.191c-0.033-0.605-0.066-1.137-0.074-1.811c-0.012-0.388-0.031-0.803-0.049-1.162
		s-0.041-0.699-0.068-1.028c-0.043-0.566-0.094-1.088-0.102-1.504c-0.006-0.226-0.006-0.47-0.014-0.744
		c-0.014-0.554-0.049-1.214-0.119-1.827c-0.051-0.443-0.109-0.759-0.129-1.047c-0.045-0.51-0.055-1.156-0.1-1.811
		c-0.057-0.662-0.152-1.27-0.229-1.776c-0.016-0.118-0.031-0.22-0.043-0.319c-0.025-0.162-0.043-0.309-0.064-0.5
		c-0.059-0.494-0.105-1.047-0.148-1.624c-0.135-1.285-0.395-2.462-0.596-3.465c-0.09-0.508-0.168-0.991-0.25-1.483
		c-0.019-0.18-0.068-0.347-0.133-0.507c-0.199-0.78-0.42-1.594-0.725-2.487c-0.033-0.156-0.097-0.298-0.172-0.43
		c-0.096-0.24-0.189-0.475-0.273-0.672c0-0.001,0-0.001,0-0.001c-0.031-0.157-0.092-0.3-0.17-0.429
		c-0.044-0.563-0.459-1.041-1.041-1.105c-0.66-0.074-1.254,0.401-1.328,1.061c-0.029,0.129-0.041,0.268-0.053,0.402
		c-0.004,0.019-0.013,0.035-0.017,0.054c-0.185,0.204-0.31,0.453-0.358,0.721c-0.014-0.023-0.014-0.045-0.014-0.057
		c0.002-0.043,0.002-0.075-0.016-0.053c-0.035,0.04-0.104,0.183-0.162,0.337c-0.07,0.186-0.148,0.537-0.164,0.904
		c0-0.099-0.074,0.029-0.137,0.428c-0.053,0.212-0.133,0.46-0.201,0.776c-0.078,0.319-0.133,0.637-0.184,0.9
		c-0.055,0.397-0.104,0.813-0.152,1.229c-0.021,0.189-0.051,0.437-0.068,0.725c-0.018,0.377-0.016,0.733-0.027,0.973
		c-0.012,0.201-0.039,0.372-0.057,0.678c-0.023,1.412-0.053,3.08-0.148,4.519c-0.055,0.754-0.111,1.679-0.068,2.597
		c0.043,0.5,0.115,0.984,0.16,1.362c0.039,0.317,0.053,0.667,0.09,1.084c0.029,0.257,0.061,0.44,0.076,0.58
		c0.025,0.177,0.037,0.435,0.061,0.767c0.025,0.377,0.047,0.682,0.07,1.023c0.027,0.514,0.043,1.218,0.063,1.874
		c0.031,0.965,0.049,1.791,0.031,2.798c-0.006,0.498-0.021,1.073-0.004,1.68c0.01,1.022,0.127,1.82,0.172,2.484
		c0.059,0.417,0.096,0.926,0.156,1.498c0.029,0.209,0.059,0.492,0.104,0.793c0.084,0.438,0.248,0.898,0.299,0.994
		c0.006,0,0.006-0.011,0.025,0.029c0.018,0.035,0.045,0.103,0.076,0.18c0.143,0.045,0.316,0.167,0.482,0.248
		c0.133,0.229,0.455,0.637,0.67,0.827C112.542,156.053,113.038,156.307,113.286,156.386z"/>
	<path fill="#FFFFFF" d="M182.903,160.084c-0.078-0.157-0.268-0.221-0.426-0.143c-1.688,0.715-3.365,2.417-4.516,3.537
		c-0.836,0.881-1.506,1.5-2.24,2.145c-0.002,0.001-0.004,0.001-0.004,0.002c-0.002,0.001-0.002,0.002-0.002,0.002
		c-0.727,0.681-1.49,1.267-2.166,1.771c-0.729,0.547-1.277,1.026-2.053,1.801c-0.904,0.908-1.781,1.944-2.67,2.691
		c-0.746,0.637-1.691,1.314-2.521,1.879c-1.309,0.86-2.395,1.653-3.844,2.969c-1.496,1.336-3.104,2.592-4.455,3.697
		c-1.523,1.308-3.07,2.379-4.834,4.311c-1.43,1.576-2.758,3.184-3.881,4.148c-1.291,1.109-2.482,2.156-3.947,3.563
		c-0.301,0.295-0.576,0.563-0.857,0.836c-0.119,0.117-0.24,0.232-0.357,0.349c-1.15,1.112-2.129,2.016-2.986,2.678
		c-1.541,1.201-3.732,2.514-5.404,4.459c-1.496,1.803-3.113,2.85-5.582,4.811c-2.143,1.737-3.408,3.577-4.934,4.79
		c-1.525,1.248-3.025,1.979-4.445,3.047c-0.729,0.591-1.285,1.111-2.014,1.71c-0.605,0.484-1.207,0.94-1.656,1.283
		c-0.521,0.537-0.881,0.959-1.139,1.307c-0.359,0.25-0.445,0.743-0.195,1.102c0.202,0.288,0.561,0.39,0.879,0.291
		c0.07,0.091,0.174,0.155,0.297,0.172c0.246,0.033,0.475-0.139,0.508-0.387c-0.005-0.014,0.057-0.053,0.193-0.158
		c0.253-0.101,0.531-0.22,0.846-0.365c0.482-0.318,1.137-0.766,1.789-1.236c0.824-0.576,1.418-1.03,2.131-1.512
		c1.211-0.885,2.805-1.629,4.588-3.016c1.854-1.479,3.113-3.272,4.984-4.723c2.385-1.894,4.248-3.137,6.012-5.216
		c1.305-1.601,3.238-2.74,4.934-4.074c1.266-1.005,2.721-2.428,4.418-4.11c1.393-1.409,2.488-2.437,3.732-3.574
		c1.279-1.162,2.666-2.883,4.033-4.433c1.563-1.784,2.934-2.759,4.527-4.175c1.252-1.164,2.824-2.532,4.301-4
		c1.338-1.316,2.236-2.056,3.461-2.952c0.842-0.595,1.852-1.343,2.652-2.048c0.986-0.877,1.893-1.984,2.727-2.857
		c0.725-0.763,1.148-1.165,1.814-1.697c0.668-0.531,1.486-1.194,2.254-1.949c0.691-0.729,1.342-1.46,2.133-2.426
		c0.967-1.281,2.357-3.044,3.773-3.873C182.917,160.432,182.981,160.24,182.903,160.084z"/>
</g>
</svg>
