<?xml version="1.0" encoding="utf-8"?>
<!-- Generator: Adobe Illustrator 16.0.0, SVG Export Plug-In . SVG Version: 6.00 Build 0)  -->
<!DOCTYPE svg PUBLIC "-//W3C//DTD SVG 1.1//EN" "http://www.w3.org/Graphics/SVG/1.1/DTD/svg11.dtd">
<svg version="1.1" id="Ebene_1" xmlns="http://www.w3.org/2000/svg" xmlns:xlink="http://www.w3.org/1999/xlink" x="0px" y="0px"
	 width="184.157px" height="166.971px" viewBox="0 0 184.157 166.971" enable-background="new 0 0 184.157 166.971"
	 xml:space="preserve">
<g>
	<path fill="#FFFFFF" d="M184.055,40.705c-0.057-0.349-0.137-0.7-0.199-0.941c-0.128-0.486-0.322-1.076-0.523-1.604
		c-0.266-0.688-0.645-1.778-1.326-2.897c-0.121-0.193-0.281-0.436-0.428-0.639c-0.268-0.365-0.496-0.621-0.59-0.738
		c-0.145-0.178-0.306-0.37-0.453-0.537c-0.295-0.333-0.666-0.725-1.016-1.048c-0.801-0.714-2.045-1.46-3.255-1.83
		c-1.507-0.425-3.153-0.607-4.509-0.734c-1.478-0.136-3.141-0.358-5.034-0.241c-0.822,0.062-1.714,0.21-2.479,0.386
		c0-0.062,0.002-0.127,0.004-0.222c0-0.066,0.002-0.123,0.004-0.188c0-0.001,0-0.004,0-0.005c0.055-0.552,0.039-1.031,0.029-1.356
		c0.004-0.065,0.008-0.119,0.01-0.196c0.002-0.125,0.002-0.296-0.002-0.438c-0.006-0.082-0.024-0.158-0.037-0.237
		c-0.028-0.535-0.103-1.166-0.27-1.769c-0.082-0.25-0.146-0.411-0.156-0.445c-0.052-0.148-0.078-0.226-0.093-0.25
		c-0.021-0.076-0.067-0.277-0.149-0.527c-0.115-0.299-0.301-0.688-0.459-0.962c-0.129-0.223-0.268-0.444-0.371-0.614
		c-0.123-0.198-0.248-0.401-0.377-0.604c-0.162-0.251-0.164-0.229-0.184-0.294c-0.082-0.186-0.213-0.505-0.374-0.836
		c-0.137-0.277-0.28-0.544-0.382-0.731c-0.07-0.133-0.191-0.34-0.305-0.509c-0.108-0.167-0.178-0.272-0.254-0.397
		c-0.201-0.3-0.414-0.559-0.543-0.706c0.008,0.021-0.256-0.334-0.75-0.775c0.086,0.073,0.101,0.084,0.019,0.006
		c-0.177-0.167-0.535-0.519-0.955-0.843c-0.295-0.216-0.421-0.284-0.396-0.275c-0.125-0.098-0.406-0.346-0.78-0.603
		c-0.462-0.296-0.765-0.434-0.751-0.438c-0.104-0.064-0.164-0.114-0.348-0.252c-0.246-0.182-0.412-0.298-0.574-0.438
		c-0.034-0.028-0.172-0.154-0.379-0.321c-0.129-0.102-0.316-0.252-0.51-0.398c-0.24-0.177-0.322-0.227-0.346-0.25
		c-0.105-0.088-0.254-0.218-0.438-0.37c-0.092-0.078-0.172-0.146-0.28-0.242c-0.437-0.382-0.929-0.83-1.462-1.295
		c-0.104-0.092-0.35-0.309-0.641-0.521c-0.131-0.09-0.228-0.155-0.289-0.201c-0.269-0.189-0.459-0.315-0.621-0.427
		c-0.142-0.098-0.309-0.211-0.467-0.32c-0.25-0.17-0.49-0.34-0.781-0.528c-0.205-0.132-0.422-0.271-0.646-0.408
		c-0.152-0.095-0.207-0.123-0.199-0.12c-0.096-0.062-0.382-0.286-0.818-0.534c-0.172-0.092-0.229-0.116-0.205-0.104
		c-0.239-0.143-0.551-0.315-0.844-0.456c-0.207-0.098-0.467-0.208-0.688-0.293c-0.461-0.175-0.854-0.288-1.163-0.401
		c-0.733-0.266-1.616-0.625-2.583-0.972c-1.805-0.646-3.684-1.378-6.122-2.012c-0.979-0.254-2.026-0.521-3.021-0.78
		c-1.172-0.305-2.412-0.607-3.875-0.856c-0.879-0.146-1.805-0.267-2.659-0.391c-0.736-0.107-1.478-0.213-2.224-0.31
		c-0.963-0.124-1.969-0.244-3.047-0.362c-1.104-0.12-2.229-0.217-3.225-0.332c-1.24-0.143-2.475-0.301-3.857-0.431
		c-1.256-0.115-2.549-0.208-3.703-0.31c-1.514-0.132-2.977-0.288-4.662-0.446c-1.11-0.104-2.246-0.216-3.351-0.311
		c-1.081-0.092-2.214-0.175-3.415-0.221c-1.818-0.067-3.679-0.05-5.347-0.051c-1.123-0.001-2.289-0.002-3.506,0
		c-1.384,0.003-2.763,0.019-4.074,0.051c-1.158,0.027-2.329,0.065-3.552,0.097c-1.25,0.032-2.496,0.075-3.706,0.116
		c-1.051,0.034-2.103,0.08-3.203,0.121c-0.975,0.037-1.996,0.083-2.93,0.144c-1.193,0.078-2.293,0.181-3.459,0.291
		c-1.671,0.157-3.517,0.362-5.208,0.644c-0.958,0.16-1.922,0.339-2.919,0.532c-0.076,0.008-0.153,0.021-0.229,0.035
		c-1.095,0.215-2.277,0.453-3.373,0.715c-0.604,0.146-1.177,0.295-1.726,0.437c-0.994,0.256-2.018,0.527-3.066,0.815
		c-1.51,0.417-2.996,0.87-4.323,1.274c-1.035,0.314-2.012,0.597-3.058,0.857c-1.384,0.348-2.761,0.706-4.071,1.103
		c-1.111,0.337-2.188,0.655-3.288,0.937c-1.305,0.335-2.676,0.729-3.872,1.195c-0.923,0.365-1.802,0.785-2.66,1.204
		c-1.133,0.554-2.378,1.203-3.396,1.76c-0.495,0.271-0.98,0.539-1.428,0.804c-0.775,0.459-1.472,0.895-2.133,1.297
		c-1.229,0.755-2.449,1.289-3.749,2.154c-0.134,0.091-0.393,0.262-0.655,0.468c-0.418,0.345-0.713,0.653-0.849,0.776
		c-0.221,0.208-0.557,0.542-0.852,0.902c-0.104,0.128-0.265,0.329-0.412,0.535c-0.341,0.49-0.565,0.895-0.732,1.149
		c-0.158,0.25-0.312,0.474-0.527,0.779c-0.194,0.274-0.475,0.665-0.71,1.042c-0.15,0.25-0.284,0.523-0.339,0.645
		c-0.101,0.219-0.336,0.875-0.417,1.505c-0.019,0.396-0.003,0.625-0.008,0.646c-0.003,0.181-0.003,0.392,0.002,0.609
		c-0.116,0.188-0.22,0.381-0.287,0.587c-0.074,0.223-0.12,0.458-0.136,0.703c-0.027,0.417,0.041,0.817,0.183,1.185
		c0.005,0.15,0.017,0.287,0.027,0.376c0.055,0.542,0.156,1.091,0.232,1.579c0.038,0.23,0.074,0.495,0.112,0.774
		c0.052,0.392,0.101,0.695,0.134,0.965c0.024,0.219,0.046,0.393,0.065,0.581c0.017,0.155,0.024,0.328,0.038,0.529
		c0,0.015,0.001,0.028,0.003,0.042c-0.007,0-0.019,0-0.024,0c-0.104,0-0.336-0.007-0.623,0.003c-0.474,0.049-1.12,0.256-1.636,0.508
		c-0.017-0.019-0.175,0.024-0.533,0.152c-0.251,0.111-0.731,0.282-1.275,0.539c-0.246,0.12-0.516,0.272-0.708,0.389
		c-0.237,0.144-0.5,0.314-0.743,0.479c-0.123,0.084-0.237,0.166-0.33,0.229c-0.715,0.506-1.379,0.839-2.258,1.359
		c-1.016,0.623-1.922,1.473-2.509,2.104c-0.268,0.288-0.448,0.485-0.647,0.67c-0.043,0.042-0.12,0.104-0.265,0.229
		C4.241,39.7,4,39.885,3.711,40.157c-0.178,0.173-0.369,0.384-0.489,0.524c-0.325,0.421-0.538,0.824-0.565,0.876
		c-0.014,0.033-0.115,0.182-0.276,0.465c-0.188,0.35-0.338,0.684-0.448,0.919c-0.079,0.176-0.249,0.502-0.442,0.964
		c-0.068,0.161-0.125,0.313-0.167,0.418c-0.057,0.152-0.134,0.379-0.197,0.597c0.007-0.03-0.014,0.013-0.071,0.169
		c-0.175,0.53-0.238,0.916-0.268,1.022c-0.03,0.118-0.06,0.229-0.096,0.359c-0.022,0.112-0.136,0.336-0.309,0.827
		c-0.123,0.364-0.243,0.835-0.311,1.197c-0.063,0.403-0.074,0.809-0.074,0.948c0,0.162-0.003,0.366,0,0.588
		c0.002,0.203-0.003,0.468,0,0.776c0.007,0.369,0.052,0.782,0.101,1.194c0,0.061-0.007,0.132-0.006,0.189
		c0.008,0.38,0.022,0.847,0.061,1.29c0.024,0.258,0.06,0.507,0.084,0.682c0.021,0.16,0.049,0.355,0.082,0.562
		c0.016,0.092,0.035,0.255,0.071,0.466c0.058,0.313,0.156,0.659,0.216,0.846c0.06,0.176,0.164,0.482,0.29,0.775
		c0.249,0.525,0.538,0.95,0.633,1.1c0.15,0.234,0.254,0.42,0.382,0.647c0.038,0.066,0.065,0.125,0.125,0.237
		c0.046,0.09,0.18,0.378,0.385,0.722c0.186,0.29,0.434,0.595,0.56,0.736c0.259,0.276,0.519,0.501,0.612,0.584
		C3.69,60.92,3.73,60.96,3.815,61.045c-0.017-0.029,0.011,0.023,0.21,0.292c0.003-0.008,0.123,0.202,0.372,0.542
		c0.53,0.625,1.188,1.098,1.401,1.237c0.014,0.009,0.027,0.015,0.041,0.023c0.261,0.324,0.538,0.637,0.828,0.896
		c0.372,0.32,0.614,0.492,0.653,0.56c0.057,0.047,0.199,0.288,0.625,0.749c0.243,0.232,0.617,0.521,0.879,0.692
		c0.292,0.184,0.573,0.33,0.746,0.425c0.167,0.092,0.229,0.12,0.177,0.094c0.229,0.132,0.445,0.234,0.546,0.284
		c0.27,0.131,0.541,0.249,0.742,0.344c0.375,0.175,0.582,0.254,0.705,0.33c0.172,0.097,0.489,0.293,0.901,0.487
		c0.246,0.11,0.563,0.237,0.835,0.332c0.21,0.072,0.412,0.137,0.565,0.187c0.221,0.069,0.287,0.084,0.278,0.087
		c0.109,0.041,0.358,0.146,0.666,0.248c0.099,0.031,0.235,0.071,0.389,0.113c0.15,0.069,0.299,0.134,0.414,0.182
		c0.027,0.012,0.097,0.04,0.183,0.075c-0.001,0.031-0.002,0.061-0.005,0.093c-0.055,0.799-0.117,1.598-0.167,2.305
		c-0.043,0.612-0.063,1.12-0.093,1.674c-0.063,1.113-0.159,2.603-0.216,3.999c-0.024,0.58-0.033,1.125-0.046,1.587
		c0.052,0.357,0.011,0.676,0.008,0.86c-0.019,0.663-0.063,1.305-0.106,1.945c-0.197,2.79-0.59,5.434-0.915,8.404
		c0.022,0.908,0.052,1.892,0.101,2.866c0.036,0.712,0.049,1.461,0.068,2.123c0.011,0.282,0.014,0.563,0.024,0.861
		c0.006,0.18,0.017,0.356,0.025,0.523c0.043,0.827,0.093,1.938,0.139,2.962c0.022,0.485,0.035,0.96,0.049,1.438
		c0.003,0.103,0.006,0.174,0.01,0.265c0,0.26,0.001,0.533,0.001,0.776c0.008-0.001,0.016-0.002,0.023-0.003
		c0.003,0.111,0.007,0.211,0.01,0.333c0.008,0.306,0.019,0.617,0.024,0.852c0.006,0.314,0.03,0.614,0.041,0.722
		c0.003-0.035-0.002,0.053,0.014,0.342c0.03,0.354,0.079,0.614,0.087,0.682c0.09,0.631,0.084,1.284,0.123,2.225
		c0.014,0.362,0.033,0.717,0.043,1.034c0.008,0.202,0.017,0.383,0.022,0.558c0.005,0.082,0,0.231,0,0.491
		c0.003,0.271,0.019,0.51,0.024,0.64c0.011,0.19,0.019,0.368,0.03,0.529c0.016,0.283,0.03,0.553,0.043,0.827
		c0.008,0.187,0.006,0.45,0.025,0.829c0.005,0.103,0.011,0.279,0.024,0.488c0.038,0.491,0.079,0.965,0.123,1.453
		c0.024,0.295,0.054,0.533,0.068,0.724c0.011,0.125,0.008,0.293,0.017,0.604c0.008,0.451,0.036,0.928,0.052,1.286
		c0.008,0.231,0.011,0.459,0.022,0.717c0.036,0.703,0.123,1.307,0.175,1.831c0.038,0.38,0.06,0.818,0.087,1.251
		c0.024,0.365,0.049,0.701,0.079,1.012c0.019,0.21,0.038,0.465,0.071,0.779c0.017,0.171,0.039,0.337,0.052,0.471
		c0.033,0.273,0.033,0.531,0.055,0.938c0.019,0.283,0.043,0.507,0.054,0.669c0.022,0.239,0.017,0.636,0.041,1.092
		c0.017,0.24,0.044,0.482,0.063,0.644c0.024,0.188,0.055,0.362,0.074,0.471c0.033,0.174,0.06,0.328,0.084,0.479
		c0.024,0.119,0.024,0.284,0.036,0.604c0.011,0.317,0,0.642-0.003,1.094c0.003,0.318,0.017,0.639,0.027,0.885
		c0.058,1.523,0.09,3.063,0.115,4.579c0.014,0.711,0.005,1.484,0.027,2.325c0.014,0.371,0.038,0.697,0.049,0.951
		c0.002,0.033-0.003,0.137-0.003,0.38c0,0.265,0.005,0.645,0.036,0.981c0.008,0.074,0.024,0.188,0.052,0.317
		c0.022,0.146,0.055,0.289,0.142,0.554c0.084,0.235,0.199,0.451,0.336,0.646c0.125,0.186,0.273,0.357,0.448,0.514
		c0.027,0.03,0.055,0.061,0.153,0.128c0.145,0.113,0.303,0.198,0.461,0.277c0.146,0.325,0.355,0.626,0.631,0.884
		c0.005,0.005,0.012,0.01,0.019,0.015c0.303,0.282,0.613,0.538,0.825,0.73c0.112,0.099,0.158,0.137,0.18,0.162
		c0.145,0.137,0.442,0.454,0.803,0.77c0.232,0.192,0.325,0.254,0.298,0.237c0.117,0.106,0.227,0.21,0.355,0.332
		c0.251,0.233,0.592,0.566,0.988,0.91c0.672,0.573,1.259,1.011,1.734,1.509c1.305,1.338,2.763,2.695,4.47,3.865
		c2.189,1.475,4.461,2.507,6.924,4.071c1.6,1.008,3.509,2.018,5.218,2.804c1.12,0.514,2.354,1.03,3.673,1.478
		c1.548,0.521,3.055,0.95,4.437,1.42c1.079,0.366,2.283,0.769,3.656,1.169c1.084,0.316,2.19,0.61,3.198,0.932
		c0.565,0.181,1.144,0.376,1.764,0.567c1.07,0.333,2.283,0.687,3.558,0.981c0.898,0.206,1.846,0.408,2.755,0.587
		c1.243,0.244,2.496,0.463,3.829,0.678c0.592,0.097,1.207,0.192,1.81,0.286c0.964,0.151,1.884,0.284,2.788,0.425
		c0.696,0.108,1.494,0.24,2.348,0.328c0.855,0.084,1.731,0.146,2.537,0.215c1.002,0.089,1.96,0.161,2.902,0.238
		c0.538,0.043,1.133,0.096,1.767,0.127c0.639,0.031,1.284,0.048,1.909,0.072c0.65,0.027,1.365,0.063,2.073,0.069
		c0.636,0.007,1.231-0.001,1.789,0c0.582,0.002,1.139-0.001,1.704,0c1.008,0.004,2.103,0.011,3.179,0
		c0.824-0.011,1.654-0.023,2.468-0.052c0.593-0.019,1.178-0.042,1.771-0.065c1.047-0.042,2.178-0.089,3.256-0.146
		c1.034-0.057,2.004-0.128,2.936-0.189c0.546-0.036,1.121-0.074,1.715-0.126c1.002-0.087,2.078-0.191,3.066-0.313
		c0.926-0.113,1.797-0.237,2.621-0.374c0.666-0.11,1.299-0.229,1.928-0.336c0.666-0.113,1.359-0.232,2.045-0.354
		c0.681-0.118,1.426-0.25,2.131-0.405c0.832-0.188,1.627-0.407,2.342-0.62c0.871-0.259,1.754-0.554,2.637-0.865
		c1.502-0.531,3.102-1.151,4.502-1.745c0.664-0.28,1.239-0.531,1.854-0.762c0.664-0.248,1.33-0.479,2.054-0.707
		c1.023-0.322,2.223-0.657,3.379-1.107c0.779-0.312,1.495-0.643,2.168-0.934c0.437-0.19,0.926-0.404,1.402-0.633
		c0.439-0.208,0.979-0.467,1.49-0.76c0.935-0.538,1.931-1.211,2.771-1.899c0.824-0.68,1.414-1.269,2.004-1.67
		c0.58-0.408,1.149-0.763,1.812-1.139c0.786-0.45,1.813-0.979,2.769-1.675c0.568-0.43,1.094-0.883,1.532-1.269
		c0.722-0.631,1.379-1.261,2.024-1.835c0.695-0.614,1.334-1.168,1.932-1.614c0.716-0.543,1.338-0.959,1.9-1.341
		c1-0.682,1.765-1.279,2.381-1.848c0.664-0.617,1.313-1.218,1.953-1.757c0.213-0.18,0.432-0.363,0.699-0.598
		c0.303-0.267,0.639-0.587,0.896-0.839c0.101-0.098,0.221-0.218,0.333-0.336c0.234-0.248,0.438-0.475,0.572-0.625
		c0.152-0.165,0.195-0.226,0.17-0.205c0.17-0.162,0.605-0.621,0.986-1.288c-0.027,0.054,0.139-0.417,0.157-1.304
		c0.058-0.184,0.099-0.375,0.117-0.572c0.009-0.099,0.024-0.237,0.032-0.403c0.009-0.24,0-0.392,0.004-0.437c0-0.1,0-0.195,0-0.288
		c0.008-0.079,0.011-0.16,0.011-0.241c0-0.087-0.003-0.171-0.011-0.256c0.002-0.224,0.002-0.473,0-0.727
		c-0.01-0.327-0.02-0.624-0.025-0.939c-0.008-0.578-0.016-1.297-0.046-2.01c-0.058-1.356-0.202-2.504-0.237-3.304
		c-0.039-0.778,0.006-1.739,0.002-3.071c-0.002-1.293,0.071-2.821,0.094-4.114c0.006-0.404,0-0.778,0-1.122
		c-0.006-0.662-0.014-1.32,0-2.064c0.017-1.06,0.07-2.356,0.07-3.46c0-0.747,0-1.33,0-1.938c0-0.895,0-1.9,0-3.073
		c0.004-1.464,0.03-3.097-0.023-4.32c-0.041-0.878-0.109-1.521-0.114-2.426c-0.012-1.007,0.015-2.302-0.024-3.396
		c-0.033-0.75-0.108-1.37-0.158-1.854c-0.07-0.681-0.145-1.292-0.176-2.078c-0.021-0.538-0.037-1.099-0.045-1.682
		c-0.018-1.002-0.022-2.111-0.103-3.064c-0.004-0.046-0.009-0.081-0.015-0.125c0.013-0.207,0.021-0.416,0.031-0.621
		c0.032-0.694,0.061-1.396,0.075-2.188c0.013-0.555,0.021-1.155,0.022-1.758c0.008-0.896,0.011-1.791,0.021-2.554
		c0.009-0.358,0.015-0.669,0.021-0.975c0.015-0.407,0.031-0.8,0.051-1.252c0.029-0.702,0.072-1.556,0.1-2.461
		c0.023-1.036,0.039-2.103,0.066-2.991c0.014-0.48,0.027-0.888,0.047-1.295c0.038-0.782,0.082-1.589,0.12-2.479
		c0.047-1.163,0.112-2.452,0.142-3.539c0.018-0.606,0.012-1.104,0.022-1.521c0.014-0.539,0.032-1.074,0.046-1.699
		c0.002-0.063,0.002-0.131,0.003-0.195c0.088-0.017,0.172-0.034,0.257-0.06c0.186-0.038,0.367-0.096,0.547-0.172
		c0.146,0.005,0.273,0.009,0.344,0.013c0.029-0.004,0.492,0.05,1.127-0.002c0.08-0.011,0.363-0.039,0.711-0.108
		c1.078-0.356,1.721-0.86,1.789-0.889c0.011-0.021,0.078-0.036,0.351-0.153c0.017-0.003,0.067-0.015,0.194-0.054
		c0.371-0.112,0.845-0.254,1.357-0.45c0.24-0.096,0.471-0.204,0.602-0.264c0.248-0.117,0.578-0.278,0.89-0.451
		c0.366-0.21,0.655-0.412,0.83-0.521c0.067-0.052,0.235-0.123,0.552-0.297c0.727-0.406,1.346-0.838,1.832-1.165
		c0.188-0.125,0.385-0.258,0.579-0.389c0.142-0.097,0.284-0.195,0.407-0.281c0.148-0.105,0.322-0.228,0.505-0.364
		c0.202-0.153,0.435-0.334,0.61-0.477c0.559-0.455,1.063-0.991,1.377-1.372c0.181-0.219,0.361-0.453,0.511-0.65
		c0.126-0.169,0.276-0.369,0.44-0.604c0.067-0.097,0.158-0.219,0.248-0.349c0.084-0.121,0.199-0.288,0.309-0.463
		c0.078-0.126,0.186-0.298,0.283-0.474c0.117-0.22,0.193-0.384,0.211-0.416c0.047-0.104,0.146-0.26,0.291-0.52
		c0.01-0.016,0.021-0.039,0.031-0.054c0.076-0.092,0.164-0.196,0.25-0.312c0.15-0.208,0.31-0.438,0.438-0.624
		c0.128-0.189,0.271-0.413,0.386-0.6c0.122-0.204,0.201-0.355,0.247-0.435c0.079-0.137,0.179-0.311,0.276-0.498
		c0.07-0.131,0.113-0.221,0.146-0.276c0.096-0.177,0.158-0.292,0.221-0.404c0.1-0.173,0.238-0.417,0.369-0.675
		c0.166-0.326,0.406-0.844,0.576-1.358c0.187-0.631,0.281-1.198,0.362-1.561c0.187-0.82,0.435-1.95,0.424-3.118
		C184.143,41.529,184.108,41.073,184.055,40.705z M170.881,35.999c0.297,0.181,0.547,0.307,0.633,0.354
		c0.234,0.126,0.426,0.214,0.521,0.262c0.1,0.048,0.166,0.079,0.221,0.104c0.012,0.017,0.014,0.021,0.041,0.061
		c0.17,0.24,0.279,0.367,0.295,0.391c0.094,0.125,0.184,0.249,0.266,0.358c0.033,0.047,0.057,0.076,0.073,0.1
		c0.006,0.013,0.014,0.029,0.021,0.041c0.1,0.221,0.174,0.432,0.277,0.712c0.072,0.202,0.139,0.413,0.246,0.726
		c0.113,0.309,0.213,0.518,0.234,0.573c0.067,0.128,0.076,0.28,0.168,0.712c0.039,0.178,0.072,0.305,0.094,0.41
		c0.074,0.347,0.123,0.56,0.137,0.828c0.006,0.014-0.003,0.096-0.008,0.343c-0.003,0.361,0.005,0.625,0,0.842
		c0,0.285,0.011,0.387,0.003,0.453c0,0.163-0.056,0.466-0.103,0.86c-0.029,0.272-0.053,0.565-0.058,0.898
		c-0.002-0.06-0.015-0.023-0.043,0.214c-0.015,0.149-0.026,0.267-0.038,0.365c-0.014,0.089,0.006,0,0.032-0.124
		c-0.082,0.344-0.106,0.535-0.106,0.521c-0.015,0.086-0.023,0.142-0.031,0.185c-0.006,0.013-0.01,0.02-0.021,0.042
		c-0.126,0.298-0.181,0.459-0.228,0.542c-0.073,0.157-0.145,0.28-0.242,0.437c-0.025,0.028-0.082,0.094-0.178,0.215
		c-0.143,0.197-0.243,0.355-0.32,0.48c-0.305,0.338-0.521,0.625-0.7,0.836c-0.161,0.191-0.325,0.391-0.47,0.57
		c-0.137,0.171-0.301,0.377-0.465,0.595c-0.098,0.128-0.211,0.279-0.313,0.424c-0.196,0.284-0.313,0.497-0.347,0.547
		c-0.071,0.122-0.2,0.288-0.383,0.541c-0.094,0.129-0.146,0.201-0.205,0.279c0,0.007-0.055,0.059-0.186,0.211
		c-0.258,0.296-0.447,0.518-0.619,0.708c-0.086,0.092-0.17,0.185-0.261,0.286c-0.163,0.182-0.265,0.304-0.37,0.415
		c-0.1,0.107-0.223,0.226-0.375,0.374c-0.166,0.161-0.222,0.222-0.242,0.234c0,0.021-0.033,0.021-0.295,0.167
		c-0.144,0.079-0.261,0.147-0.375,0.211c-0.006,0.004-0.016,0.009-0.021,0.013c-0.09,0.026-0.207,0.061-0.374,0.11
		c-0.216,0.066-0.362,0.12-0.456,0.148c-0.195,0.063-0.402,0.124-0.59,0.179c-0.204,0.063-0.485,0.161-0.707,0.259
		c-0.096,0.047-0.307,0.118-0.631,0.259c-0.268,0.117-0.602,0.25-0.928,0.383c0.002-0.165,0.002-0.333,0.008-0.494
		c0.021-0.789,0.063-1.665,0.093-2.612c0.021-0.64,0.038-1.298,0.047-1.878c0.005-0.354,0.011-0.659,0.021-0.953
		c0.021-0.514,0.056-1.021,0.094-1.668c0.029-0.523,0.085-1.185,0.099-1.877c0.029-1.453,0.002-2.909,0.002-3.914
		c-0.002-0.619,0-1.025,0.039-1.622c0.029-0.454,0.065-0.945,0.11-1.453c0.096-1.03,0.131-2.026,0.171-2.919
		c0.101-0.01,0.2-0.019,0.312-0.033c0.09-0.016,0.186-0.034,0.26-0.051c0.017,0,0.068-0.008,0.174-0.023
		c0.348-0.06,0.529-0.109,0.58-0.113c0.098-0.016,0.195-0.03,0.303-0.047c0.365-0.057,0.611-0.098,0.841-0.115
		c0.173-0.017,0.298-0.016,0.563-0.014c0.119,0,0.229-0.001,0.324,0c0.184,0,0.225-0.001,0.34,0.011
		c0.008-0.002,0.084,0.016,0.289,0.047c0.809,0.113,1.539,0.105,2.078,0.104C170.573,36.021,170.776,36,170.881,35.999z
		 M171.023,36.01c0.005,0,0.001,0,0.017,0.007C171.034,36.015,171.03,36.013,171.023,36.01z M172.385,36.777
		c-0.004-0.002-0.006-0.004-0.008-0.007C172.389,36.776,172.393,36.778,172.385,36.777z M21.073,25.057
		c0.109-0.169,0.276-0.399,0.461-0.66c0.232-0.33,0.453-0.655,0.661-0.978c0.271-0.426,0.415-0.703,0.584-0.932
		c0.046-0.066,0.104-0.137,0.208-0.266c0.085-0.114,0.134-0.154,0.328-0.334c0.281-0.267,0.393-0.398,0.521-0.494
		c0.03-0.028,0.109-0.076,0.29-0.198c0.863-0.598,2.001-1.088,3.528-2.012c0.683-0.417,1.346-0.83,2.07-1.258
		c0.38-0.226,0.784-0.449,1.262-0.711c0.969-0.529,2.108-1.125,3.17-1.643c0.841-0.412,1.513-0.736,2.253-1.025
		c0.931-0.369,1.985-0.667,3.219-0.982c1.199-0.309,2.387-0.66,3.517-1.001c1.204-0.365,2.452-0.689,3.809-1.029
		c1.142-0.286,2.255-0.606,3.329-0.934c1.33-0.405,2.744-0.837,4.181-1.232c1.021-0.281,2.001-0.542,2.979-0.793
		c0.56-0.144,1.081-0.282,1.627-0.412c0.926-0.222,1.919-0.424,2.924-0.622c0.077-0.009,0.15-0.021,0.227-0.035
		c1.054-0.207,2.013-0.386,2.993-0.549c1.532-0.257,3.189-0.438,4.812-0.592c1.168-0.11,2.182-0.206,3.296-0.278
		c0.876-0.057,1.829-0.099,2.782-0.136c1.111-0.042,2.152-0.086,3.181-0.12c1.212-0.041,2.433-0.083,3.659-0.115
		c1.24-0.03,2.411-0.068,3.544-0.097c1.272-0.031,2.591-0.044,3.954-0.048c1.204-0.002,2.361,0,3.486,0
		c1.701,0.001,3.461-0.017,5.143,0.046c1.107,0.042,2.105,0.115,3.151,0.204c1.067,0.091,2.182,0.201,3.307,0.307
		c1.649,0.155,3.132,0.313,4.694,0.45c1.201,0.106,2.477,0.197,3.672,0.309c1.292,0.118,2.461,0.271,3.74,0.417
		c1.08,0.124,2.216,0.221,3.252,0.335c1.05,0.113,2.003,0.229,2.947,0.351c0.701,0.09,1.396,0.19,2.127,0.296
		c0.904,0.131,1.771,0.241,2.537,0.371c1.276,0.214,2.26,0.459,3.398,0.755c1.002,0.26,2.051,0.53,3.027,0.782
		c2.152,0.55,3.756,1.188,5.64,1.863c0.853,0.304,1.715,0.656,2.565,0.966c0.48,0.171,0.836,0.271,1.063,0.362
		c0.117,0.044,0.183,0.072,0.304,0.131c0.114,0.052,0.193,0.097,0.383,0.209c0.221,0.127,0.381,0.204,0.412,0.222
		c-0.021-0.026,0.017,0.021,0.315,0.229c0.202,0.136,0.362,0.228,0.407,0.256c0.207,0.127,0.371,0.229,0.546,0.343
		c0.188,0.121,0.38,0.26,0.68,0.464c0.14,0.094,0.287,0.196,0.435,0.298c0.213,0.146,0.361,0.243,0.561,0.383
		c0.105,0.077,0.213,0.149,0.318,0.225c0.01-0.002,0.01,0.008,0.164,0.145c0.494,0.435,0.988,0.88,1.465,1.297
		c0.117,0.104,0.248,0.216,0.382,0.327c0.114,0.098,0.272,0.237,0.462,0.394c0.258,0.206,0.439,0.329,0.557,0.417
		c0.106,0.078,0.232,0.182,0.389,0.303c0.029,0.021,0.074,0.067,0.229,0.2c0.336,0.281,0.655,0.511,0.844,0.652
		c0.156,0.115,0.383,0.286,0.65,0.462c0.406,0.25,0.614,0.338,0.713,0.411c0.012-0.004,0.102,0.088,0.354,0.293
		c0.328,0.252,0.529,0.371,0.547,0.393c0.093,0.059,0.222,0.197,0.465,0.428c0.046,0.045,0.119,0.112,0.207,0.19
		c0.021,0.03,0.068,0.09,0.225,0.27c0.084,0.135,0.188,0.3,0.332,0.524c0.102,0.188,0.194,0.357,0.281,0.541
		c0.08,0.159,0.167,0.375,0.279,0.629c0.131,0.278,0.27,0.528,0.385,0.72c-0.109,0.129-0.208,0.268-0.289,0.414
		c-0.066,0.087-0.111,0.159-0.143,0.213c-0.143,0.255-0.24,0.523-0.299,0.796c-0.035,0.082-0.076,0.183-0.117,0.289
		c-0.004,0.022-0.029,0.077-0.078,0.205c-0.012,0.019-0.041,0.068-0.094,0.164c-0.063,0.118-0.067,0.125-0.188,0.292
		c-0.12,0.172-0.202,0.302-0.234,0.347c-0.035,0.058-0.055,0.079-0.152,0.196c-0.033,0.044-0.102,0.115-0.273,0.306
		c-0.158,0.18-0.268,0.318-0.309,0.366c-0.188,0.229-0.377,0.402-0.686,0.699c-0.16,0.156-0.307,0.296-0.461,0.439
		c-0.064,0.064-0.211,0.177-0.457,0.389c-0.277,0.255-0.453,0.456-0.475,0.474c-0.451,0.483-0.678,0.555-1.439,1.012
		c-1.166,0.702-2.563,1.624-3.854,2.494c-1.079,0.729-2.002,1.393-3.028,1.98c-0.902,0.53-1.966,0.978-3.369,1.508
		c-0.506,0.191-1.06,0.388-1.598,0.59c-0.92,0.344-1.701,0.654-2.477,0.935c-1.371,0.497-2.984,1.053-4.531,1.607
		c-1.405,0.508-2.553,1.03-3.727,1.509c-1.104,0.455-2.455,0.859-3.777,1.267c-1.354,0.417-2.521,0.844-3.821,1.214
		c-1.099,0.316-2.354,0.58-3.569,0.86c-1.18,0.271-2.094,0.496-3.181,0.684c-1.207,0.211-2.662,0.375-4.104,0.606
		c-0.941,0.152-1.826,0.331-2.658,0.479c-0.971,0.171-2.032,0.34-3.118,0.513c-1.476,0.234-2.747,0.468-4.042,0.663
		c-1.236,0.188-2.613,0.365-3.936,0.537c-1.074,0.14-1.963,0.27-2.861,0.37c-1.426,0.162-3.194,0.3-4.915,0.468
		c-1.507,0.146-2.802,0.235-4.229,0.326c-1.474,0.093-3.039,0.208-4.434,0.256c-0.825,0.029-1.601,0.025-2.447,0.022
		c-1.333-0.003-2.692,0.025-3.913-0.044c-1.218-0.066-2.343-0.212-3.643-0.307c-1.494-0.106-3.075-0.186-4.486-0.327
		c-1.917-0.188-3.976-0.44-6.042-0.757c-1.284-0.194-2.466-0.395-3.75-0.592c-1.496-0.23-2.987-0.469-4.221-0.729
		c-1.07-0.227-2.004-0.441-2.93-0.669c-0.513-0.128-1.098-0.285-1.791-0.439c-0.432-0.095-0.833-0.166-1.174-0.239
		c-1.095-0.225-2.007-0.622-3.053-1.106c-1.242-0.573-2.561-1.096-3.886-1.746c-1.371-0.659-2.465-1.531-3.776-2.401
		c-0.784-0.52-1.698-1.053-2.547-1.464c-0.497-0.236-0.942-0.401-1.231-0.526c-0.271-0.113-0.413-0.164-0.492-0.206
		c-0.024-0.019-0.084-0.063-0.213-0.15c-0.18-0.122-0.322-0.208-0.385-0.248c-1.139-0.73-1.928-1.435-2.965-2.338
		c-0.42-0.366-0.724-0.675-1.073-1.059c-0.169-0.184-0.347-0.393-0.557-0.625c-0.181-0.199-0.437-0.479-0.735-0.765
		c-0.352-0.313-0.601-0.477-0.592-0.477c-0.022-0.002-0.044-0.048-0.24-0.259c-0.065-0.061-0.106-0.134-0.281-0.366
		c-0.18-0.233-0.306-0.373-0.331-0.411c-0.019-0.017-0.041-0.062-0.147-0.22c-0.049-0.069-0.153-0.25-0.333-0.522
		c-0.268-0.387-0.516-0.677-0.62-0.821c-0.071-0.091-0.109-0.157-0.237-0.377c-0.065-0.139-0.131-0.295-0.208-0.477
		c-0.09-0.215-0.142-0.334-0.178-0.43c-0.314-0.842-0.633-1.564-0.83-2.359c-0.09-0.341-0.131-0.58-0.158-0.959
		C21.067,25.597,21.067,25.408,21.073,25.057z M14.377,61.769c-0.176-0.144-0.429-0.389-0.77-0.685
		c-0.191-0.165-0.609-0.515-1.117-0.805c-0.328-0.165-0.459-0.209-0.418-0.197c-0.137-0.072-0.237-0.128-0.328-0.182
		c-0.079-0.044-0.014,0.004-0.112-0.085c-0.093-0.074-0.284-0.286-0.601-0.587c-0.115-0.108-0.189-0.177-0.247-0.233
		c-0.063-0.188-0.131-0.405-0.206-0.627c-0.053-0.153-0.083-0.223-0.101-0.261c-0.022-0.185-0.055-0.429-0.115-0.7
		c-0.022-0.081-0.079-0.312-0.167-0.563c-0.083-0.207-0.445-0.72-0.94-1.188c-0.032-0.037-0.075-0.113-0.185-0.3
		c-0.043-0.063-0.169-0.353-0.439-0.788c-0.03-0.045-0.037-0.055-0.06-0.089c0-0.104,0-0.219,0-0.368c0-0.337,0.002-0.659,0-1.002
		c0-0.122,0.002-0.295,0-0.487c-0.003-0.112,0-0.21,0-0.36c0.001-0.11-0.001-0.165-0.003-0.191c0.014-0.097,0.049-0.247,0.096-0.486
		c0.024-0.137,0.043-0.225,0.071-0.343c0.03-0.132,0.085-0.326,0.142-0.575c0.024-0.108,0.036-0.167,0.038-0.189
		c0.032-0.081,0.116-0.3,0.21-0.638c0.079-0.325,0.109-0.497,0.142-0.582c0.087-0.275,0.106-0.36,0.169-0.46
		c0.033-0.065,0.098-0.175,0.21-0.376c0.024-0.047,0.123-0.213,0.235-0.439c0.15-0.315,0.273-0.62,0.355-0.827
		c0.096-0.237,0.232-0.599,0.336-0.958c0.15-0.56,0.167-0.789,0.268-0.974c-0.027,0.046,0.106-0.209,0.262-0.649
		c0.03-0.045,0.136-0.183,0.278-0.395c0.118-0.181,0.125-0.199,0.147-0.221c0.046-0.058,0.106-0.112,0.268-0.275
		c0.238-0.246,0.582-0.56,0.969-0.944c0.15-0.163,0.438-0.4,0.768-0.704c0.291-0.161,0.601-0.335,0.885-0.517
		c0.005-0.003,0.012-0.011,0.018-0.014c0.456-0.243,0.837-0.443,1.23-0.604c0.173-0.072,0.368-0.143,0.586-0.217
		c0.005,0.193,0.012,0.381,0.018,0.535c0.005,0.134-0.005,0.35-0.002,0.669c0.019,0.397,0.063,0.659,0.065,0.707
		c0.003-0.008,0.003,0.062,0.011,0.259c0.008,0.18,0.017,0.306,0.022,0.424c0.005,0.145,0,0.333-0.003,0.567c0,0.297,0,0.54,0,0.788
		c0,0.153,0,0.312,0,0.455c0,0.154,0,0.29,0,0.424c0,0.107,0,0.221,0,0.333c0,1.245,0,2.511,0,3.693
		c0,1.311-0.002,2.727-0.065,4.413c-0.049,1.365,0.005,2.488-0.002,3.564c-0.006,1.021,0.033,2.2,0,3.448
		c-0.011,0.493-0.051,1.048-0.086,1.625c-0.187-0.078-0.354-0.149-0.465-0.207c-0.093-0.043-0.331-0.185-0.727-0.356
		c-0.104-0.044-0.265-0.115-0.448-0.188C14.47,61.798,14.414,61.779,14.377,61.769z M8.575,54.698
		c-0.004-0.006-0.004-0.001-0.002-0.008C8.572,54.69,8.575,54.7,8.575,54.698z M157.04,135.008
		c-0.238,0.233-0.467,0.453-0.664,0.628c-0.236,0.206-0.412,0.354-0.619,0.528c-0.739,0.624-1.49,1.313-2.159,1.938
		c-0.433,0.403-0.845,0.726-1.726,1.326c-0.547,0.37-1.287,0.87-2.115,1.491c-0.75,0.566-1.553,1.258-2.273,1.896
		c-0.729,0.646-1.373,1.267-1.996,1.811c-0.439,0.384-0.797,0.697-1.201,0.996c-0.537,0.415-1.283,0.781-2.201,1.305
		c-0.742,0.425-1.533,0.916-2.246,1.417c-0.947,0.676-1.698,1.4-2.34,1.926c-0.631,0.521-1.242,0.935-2.008,1.372
		c-0.328,0.189-0.672,0.352-1.105,0.559c-0.401,0.189-0.803,0.365-1.236,0.556c-0.732,0.317-1.359,0.611-1.994,0.858
		c-0.869,0.348-1.881,0.625-2.994,0.974c-0.807,0.255-1.617,0.535-2.347,0.809c-0.741,0.28-1.431,0.578-2.065,0.849
		c-1.32,0.559-2.771,1.119-4.188,1.622c-0.839,0.296-1.587,0.547-2.371,0.779c-0.66,0.198-1.265,0.366-1.963,0.52
		c-0.573,0.13-1.196,0.236-1.882,0.356c-0.68,0.12-1.356,0.238-2.016,0.35c-0.668,0.113-1.293,0.229-1.906,0.331
		c-0.764,0.128-1.512,0.234-2.383,0.341c-0.914,0.112-1.904,0.206-2.881,0.292c-0.525,0.048-1.043,0.079-1.601,0.118
		c-0.945,0.063-1.879,0.131-2.867,0.187c-1.034,0.056-2.13,0.1-3.176,0.142c-0.595,0.024-1.157,0.048-1.726,0.067
		c-0.772,0.023-1.541,0.038-2.347,0.047c-1.027,0.01-2.083,0.003-3.104-0.001c-0.59-0.001-1.147,0.001-1.704,0
		c-0.601-0.001-1.177,0.007-1.753,0c-0.593-0.004-1.223-0.037-1.895-0.064c-0.667-0.026-1.294-0.043-1.871-0.069
		c-0.524-0.024-1.024-0.071-1.583-0.116c-0.956-0.078-1.893-0.149-2.867-0.235c-0.86-0.075-1.707-0.132-2.468-0.208
		c-0.675-0.065-1.313-0.175-2.045-0.29c-0.934-0.145-1.854-0.276-2.788-0.423c-0.595-0.093-1.196-0.188-1.777-0.281
		c-1.308-0.212-2.463-0.411-3.637-0.645c-0.871-0.172-1.737-0.355-2.586-0.551c-1.125-0.259-2.13-0.554-3.151-0.871
		c-0.56-0.173-1.123-0.364-1.734-0.559c-1.136-0.359-2.305-0.672-3.326-0.97c-1.278-0.373-2.362-0.734-3.427-1.098
		c-1.513-0.512-3.023-0.942-4.445-1.424c-1.142-0.384-2.094-0.785-3.129-1.262c-1.559-0.715-3.159-1.559-4.563-2.45
		c-2.76-1.737-4.997-2.751-6.771-3.971c-1.371-0.921-2.392-1.891-3.613-3.146c-0.772-0.78-1.559-1.387-2.091-1.846
		c-0.265-0.228-0.514-0.472-0.809-0.749c-0.128-0.118-0.259-0.243-0.398-0.37c-0.257-0.228-0.42-0.346-0.456-0.38
		c-0.101-0.078-0.271-0.268-0.524-0.516c-0.145-0.14-0.27-0.25-0.338-0.309c-0.15-0.136-0.291-0.258-0.417-0.364
		c-0.023-0.762-0.354-1.458-0.889-1.954c0-0.026-0.003-0.056-0.003-0.08c-0.022-0.733-0.014-1.474-0.027-2.264
		c-0.027-1.525-0.06-3.123-0.12-4.698c-0.011-0.273-0.021-0.487-0.021-0.664c0-0.362,0.013-0.783,0-1.28
		c-0.011-0.321-0.033-0.813-0.102-1.287c-0.035-0.23-0.076-0.45-0.106-0.609c-0.021-0.117-0.021-0.115-0.024-0.147
		c-0.017-0.131-0.024-0.199-0.03-0.301c-0.017-0.251-0.014-0.693-0.049-1.185c-0.019-0.264-0.041-0.433-0.046-0.556
		c-0.017-0.287-0.025-0.72-0.079-1.242c-0.019-0.157-0.036-0.302-0.049-0.425c-0.024-0.231-0.041-0.46-0.065-0.733
		c-0.024-0.271-0.046-0.519-0.065-0.844c-0.027-0.397-0.055-0.928-0.104-1.436c-0.065-0.665-0.139-1.123-0.153-1.538
		c-0.008-0.158-0.008-0.388-0.022-0.698c-0.016-0.406-0.041-0.832-0.049-1.173c-0.005-0.246-0.005-0.561-0.03-0.91
		c-0.024-0.319-0.057-0.594-0.074-0.79c-0.044-0.478-0.079-0.92-0.117-1.39c-0.006-0.084-0.008-0.192-0.017-0.36
		c-0.014-0.191-0.008-0.427-0.022-0.78c-0.014-0.292-0.03-0.604-0.049-0.916c-0.008-0.148-0.017-0.292-0.025-0.464
		c-0.011-0.205-0.021-0.327-0.019-0.401c-0.002-0.133,0.005-0.356-0.002-0.647c-0.006-0.212-0.017-0.402-0.022-0.582
		c-0.014-0.354-0.033-0.714-0.046-1.047c-0.036-0.833-0.041-1.748-0.167-2.741c-0.039-0.263-0.06-0.346-0.052-0.312
		c-0.002-0.03,0-0.229-0.033-0.568c-0.002-0.027-0.008-0.08-0.011-0.224c-0.005-0.277-0.017-0.604-0.022-0.892
		c-0.008-0.285-0.016-0.546-0.024-0.803c-0.003-0.099-0.005-0.164-0.01-0.248c-0.001-0.189-0.001-0.373-0.001-0.575
		c0-1.353,0.03-2.786,0.049-3.919c0.019-1.022,0.041-1.975,0.068-3.276c0.033-1.451,0.019-3.021,0.071-4.224
		c0.049-1.171,0.167-2.383,0.216-3.963c0.046-1.546,0.057-3.116,0.115-4.354c0.022-0.441,0.052-0.905,0.071-1.455
		c0.019-0.574,0.025-1.171,0.049-1.755c0.055-1.329,0.147-2.773,0.21-3.91c0.035-0.606,0.052-1.071,0.09-1.594
		c0.049-0.687,0.112-1.495,0.167-2.321c0.115-1.676,0.188-3.274,0.194-4.557c0.003-0.629-0.008-1.182,0.025-1.793
		c0.03-0.654,0.098-1.435,0.12-2.24c0.033-1.4-0.006-2.655,0-3.562c0.005-1.224-0.046-2.242-0.003-3.387
		c0.068-1.774,0.071-3.303,0.071-4.62c0-1.183,0-2.448,0-3.693c0-0.112,0-0.226,0-0.333c0-0.134,0-0.27,0-0.424
		c0-0.149,0-0.302,0-0.441c0-0.278,0-0.51,0-0.772c0-0.176,0.008-0.463,0-0.766c-0.008-0.218-0.02-0.396-0.025-0.521
		c-0.005-0.094-0.011-0.315-0.036-0.589c-0.019-0.156-0.03-0.229-0.035-0.256c-0.003-0.112,0.008-0.355,0-0.691
		c-0.008-0.274-0.019-0.522-0.022-0.73c-0.008-0.552,0.003-1.146-0.024-1.813c-0.008-0.192-0.015-0.399-0.022-0.605
		c0.024,0.028,0.045,0.05,0.074,0.081c0.167,0.186,0.358,0.406,0.576,0.646c0.429,0.467,0.961,1.004,1.523,1.497
		c1.032,0.901,2.163,1.881,3.602,2.82c0.158,0.102,0.246,0.152,0.278,0.176c0.153,0.104,0.5,0.346,0.926,0.563
		c0.325,0.154,0.592,0.254,0.731,0.313c0.423,0.181,0.743,0.295,0.994,0.419c0.645,0.31,1.24,0.657,1.893,1.092
		c1.122,0.74,2.55,1.837,4.398,2.758c1.513,0.74,2.906,1.295,3.998,1.801c1.139,0.525,2.632,1.142,4.221,1.497
		c0.442,0.095,0.833,0.163,1.142,0.233c0.571,0.125,1.081,0.265,1.66,0.407c0.969,0.239,1.999,0.477,3.118,0.712
		c1.379,0.29,3.006,0.552,4.517,0.784c1.248,0.192,2.438,0.394,3.763,0.596c2.149,0.326,4.347,0.596,6.335,0.793
		c1.548,0.151,3.203,0.235,4.634,0.339c1.149,0.081,2.326,0.23,3.73,0.312c1.441,0.078,2.943,0.049,4.208,0.053
		c0.841,0.002,1.723,0.007,2.657-0.025c1.508-0.054,3.146-0.173,4.593-0.265c1.441-0.091,2.837-0.187,4.418-0.34
		c1.666-0.163,3.47-0.305,5.002-0.477c0.979-0.111,1.911-0.246,2.952-0.381c1.32-0.171,2.748-0.357,4.046-0.554
		c1.379-0.209,2.671-0.443,4.085-0.669c1.087-0.173,2.195-0.349,3.217-0.528c0.9-0.16,1.739-0.33,2.578-0.465
		c1.3-0.212,2.785-0.379,4.169-0.618c1.257-0.221,2.33-0.48,3.478-0.744c1.162-0.269,2.556-0.563,3.85-0.933
		c0.145-0.042,0.277-0.084,0.418-0.125c0.156,0.048,0.307,0.088,0.415,0.108c1.091,0.015,1.924-0.263,2.253-0.408
		c0.007,0.009,0.126-0.011,0.415-0.093c0.128-0.041,0.347-0.085,0.675-0.178c0.281-0.083,0.54-0.178,0.688-0.232
		c0.205-0.076,0.416-0.153,0.59-0.221c0.24-0.091,0.314-0.127,0.386-0.146c0.062-0.021,0.138-0.041,0.276-0.077
		c0.145-0.043,0.385-0.077,0.77-0.162c0.357-0.086,0.669-0.193,0.799-0.235c0.1-0.032,0.281-0.09,0.486-0.168
		c0.035-0.011,0.178-0.056,0.416-0.15c0.523-0.242,0.895-0.492,1.005-0.551c0.097-0.055,0.13-0.077,0.153-0.089
		c0.023-0.002,0.068-0.01,0.16-0.029c0.199-0.043,0.412-0.095,0.596-0.139c0.229-0.057,0.477-0.128,0.66-0.185
		c0.255-0.082,0.5-0.177,0.64-0.231c0.149-0.059,0.31-0.121,0.451-0.179c0.011-0.007,0.075-0.024,0.269-0.09
		c0.072-0.027,0.109-0.042,0.158-0.063c0.521,0.171,1.098,0.194,1.662,0.027c0.443-0.133,0.861-0.257,1.245-0.373
		c0.606-0.184,1.097-0.56,1.44-1.035c0.019-0.007,0.041-0.017,0.059-0.022c0.037-0.004,0.146-0.022,0.357-0.071
		c0.926-0.25,1.639-0.631,1.896-0.745c0.043-0.025,0.231-0.085,0.581-0.243c0.292-0.146,0.494-0.271,0.549-0.3
		c0.077-0.047,0.219-0.114,0.424-0.22c0.213-0.108,0.166-0.095,0.262-0.129c0.068-0.027,0.117-0.046,0.238-0.086
		c0.19-0.063,0.411-0.144,0.59-0.214c0.332-0.135,0.678-0.309,0.896-0.426c0.228-0.124,0.433-0.245,0.562-0.319
		c0.049-0.03,0.014-0.009,0.141-0.067c-0.01,0.002,0.117-0.042,0.361-0.146c0.397-0.175,0.896-0.438,1.244-0.651
		c0.237-0.158,0.473-0.354,0.658-0.521c0.038-0.021,0.072-0.041,0.143-0.083c0.094-0.063,0.17-0.128,0.262-0.194
		c0.105-0.044,0.205-0.084,0.31-0.131c0.808-0.362,1.476-0.708,2.144-1.046c0.166-0.086,0.244-0.129,0.258-0.133
		c0.09-0.043,0.283-0.133,0.488-0.247c0.24-0.139,0.529-0.32,0.765-0.475c0.235-0.158,0.289-0.208,0.271-0.188
		c0.143-0.083,0.363-0.195,0.623-0.346c0.137-0.08,0.268-0.159,0.398-0.238c0.21-0.131,0.412-0.262,0.576-0.368
		c0.412-0.267,0.734-0.476,1.148-0.72c0.213-0.126,0.284-0.177,0.281-0.169c0.027-0.015,0.122-0.049,0.344-0.148
		c0.123-0.056,0.284-0.124,0.489-0.218c0.093-0.043,0.24-0.112,0.39-0.188c0.299-0.16,0.358-0.208,0.336-0.19
		c0.121-0.058,0.266-0.129,0.414-0.204c-0.061,1.131-0.084,2.268-0.188,3.337c-0.053,0.566-0.096,1.141-0.125,1.623
		c-0.044,0.728-0.053,1.333-0.051,1.976c0,1.063,0.027,2.456,0,3.799c-0.008,0.513-0.057,1.069-0.092,1.671
		c-0.033,0.605-0.074,1.171-0.099,1.783c-0.011,0.347-0.021,0.713-0.022,1.08c-0.008,0.543-0.023,1.147-0.045,1.768
		c-0.031,0.911-0.072,1.8-0.097,2.643c-0.017,0.683-0.006,1.258-0.022,1.774c-0.008,0.272-0.023,0.541-0.045,0.896
		c-0.059,0.933-0.086,2.1-0.096,3.174c-0.006,0.701-0.015,1.372-0.027,1.983c-0.012,0.577-0.03,1.094-0.045,1.667
		c-0.014,0.515-0.008,0.994-0.021,1.506c-0.03,1.022-0.09,2.276-0.142,3.462c-0.037,0.856-0.078,1.642-0.115,2.438
		c-0.021,0.449-0.038,0.911-0.055,1.406c-0.024,0.931-0.041,2.006-0.068,3.015c-0.02,0.805-0.061,1.585-0.09,2.307
		c-0.021,0-0.045-0.002-0.065-0.003c-0.021,0.272-0.063,0.527-0.096,0.724c-0.024,0.142-0.046,0.285-0.07,0.414
		c-0.014,0.118-0.024,0.232-0.038,0.348c-0.121,1.079-0.269,2-0.386,2.923c0.058,0.672,0.103,1.399,0.147,2.098
		c0.064,1.021,0.125,1.897,0.195,2.649c0.023,0.248,0.047,0.458,0.068,0.651c-0.016,0.389-0.034,0.795-0.047,1.222
		c-0.021,0.733-0.02,1.495-0.023,2.192c-0.003,0.562-0.014,1.117-0.021,1.638c-0.012,0.597-0.02,1.123-0.024,1.67
		c-0.006,0.71-0.003,1.458,0,2.236c0.041,0.283,0.088,0.557,0.14,0.813c0.088,0.427,0.18,0.838,0.262,1.298
		c0.082,0.003,0.164,0.006,0.246,0.009c0,0.339,0,0.678,0.004,1.004c0.011,1.116,0.087,1.898,0.119,2.636
		c0.017,0.344,0.024,0.745,0.027,1.188c0.043,0.816,0.117,1.935-0.009,2.992c0,1.124,0,2.097,0,2.956c0,0.607,0,1.19,0,1.938
		c0.003,0.975-0.052,2.229-0.071,3.359c-0.013,0.828-0.005,1.562,0,2.196c0,0.355,0.006,0.669,0,1.009
		c-0.016,1.19-0.093,2.766-0.093,4.204c0.003,1.222-0.041,2.28,0.007,3.323c0.049,1.043,0.19,2.141,0.233,3.271
		c0.024,0.636,0.032,1.282,0.044,1.863c0.006,0.38,0.018,0.691,0.021,0.963c0.006,0.27,0,0.545,0,0.852c0,0.089,0,0.179-0.002,0.279
		c-0.17,0.307-0.281,0.638-0.326,0.982c-0.008,0.024-0.026,0.062-0.033,0.083c0,0.016,0.003,0.03,0,0.046
		c-0.051,0.056-0.1,0.111-0.151,0.166C157.176,134.876,157.129,134.922,157.04,135.008z"/>
	<path fill="#FFFFFF" d="M50.59,149.78c-3.02-1.037-5.688-2.073-8.35-3.373c-1.518-0.74-2.919-1.631-3.918-2.444
		c-1.33-1.076-2.34-1.888-3.593-2.541c-1.535-0.782-3.037-1.129-3.987-1.899c-0.494-0.378-0.811-0.715-1.147-1.15
		c-0.161-0.208-0.292-0.403-0.423-0.649c-0.164-0.295-0.314-0.666-0.521-1.047c-0.382-0.688-0.715-1.063-0.759-1.453
		c-0.199-0.981-0.227-2.023-0.262-3.09c-0.036-1.094-0.105-2.313-0.022-3.531c0.429-0.147,0.743-0.541,0.754-1.021
		c0.002-0.227-0.03-0.643-0.118-0.971c-0.043-0.148-0.115-0.28-0.206-0.395c-0.083-0.127-0.19-0.239-0.326-0.326
		c-0.064-0.034-0.146-0.064-0.232-0.093c-0.074-0.023-0.143-0.058-0.218-0.067c-0.046-0.012-0.096-0.005-0.142-0.01
		c-0.1-0.015-0.194-0.021-0.262-0.017c-0.194,0.025-0.359,0.113-0.505,0.225c-0.197,0.118-0.375,0.261-0.48,0.392
		c-0.301,0.506-0.396,1.115-0.44,1.498c-0.169,1.592-0.068,3.176-0.027,4.39c0.033,1.063,0.077,2.282,0.3,3.45
		c0.21,0.896,0.705,1.563,0.994,2.094c0.147,0.262,0.298,0.631,0.516,1.038c0.18,0.33,0.41,0.674,0.62,0.947
		c0.407,0.524,0.931,1.071,1.543,1.548c1.374,1.032,3.044,1.447,4.331,2.121c1.065,0.544,1.884,1.215,3.211,2.292
		c1.114,0.901,2.714,1.917,4.344,2.714c2.744,1.338,5.543,2.428,8.604,3.48c0.584,0.198,1.218-0.11,1.417-0.692
		C51.483,150.614,51.175,149.981,50.59,149.78z"/>
	<path fill="#FFFFFF" d="M152.321,42.407c-0.13,0.075-0.236,0.174-0.322,0.286c-0.07-0.003-0.119,0.029-0.166,0.064
		c-0.123,0.102-0.231,0.202-0.324,0.278c-0.164,0.138-0.334,0.276-0.532,0.438c-0.451,0.366-1.052,0.854-1.718,1.387
		c-0.273,0.218-0.559,0.446-0.801,0.639c-0.199,0.159-0.357,0.283-0.533,0.418c-0.149,0.117-0.285,0.225-0.438,0.332
		c-0.329,0.239-0.688,0.487-1.133,0.761c-1.005,0.616-2.332,1.267-3.597,1.853c-0.871,0.403-1.809,0.858-2.858,1.472
		c-1.551,0.906-3.261,2.02-4.688,2.826c-0.461,0.261-0.885,0.496-1.307,0.718c-0.129,0.054-0.261,0.104-0.387,0.158
		c-0.398,0.177-0.751,0.368-1.057,0.525c-0.066,0.035-0.147,0.074-0.219,0.108c-0.334,0.138-0.684,0.269-1.063,0.395
		c-1.105,0.37-2.363,0.64-3.37,0.871c-0.214-0.155-0.478-0.244-0.763-0.213c-0.346,0.035-0.686,0.099-0.957,0.172
		s-0.655,0.188-0.983,0.381c-0.097,0.063-0.233,0.183-0.384,0.341c-0.148,0.12-0.278,0.265-0.352,0.457
		c-0.076,0.204-0.07,0.41-0.031,0.607c-0.037,0.029-0.078,0.051-0.112,0.082c-0.438,0.432-0.442,1.137-0.011,1.575
		c0.431,0.438,1.136,0.444,1.574,0.013c0.816-1.007,3.271-0.73,6.496-2.222c0.248-0.116,0.491-0.237,0.699-0.338
		c0.116-0.057,0.213-0.105,0.313-0.156c0.525-0.226,1.021-0.466,1.504-0.718c0.475-0.193,0.992-0.391,1.582-0.641
		c1.646-0.711,3.393-1.995,5.039-3.072c1.808-1.201,4.406-2.008,6.565-3.409c1.917-1.266,3.589-2.926,4.787-3.826
		c0.153-0.117,0.392-0.274,0.608-0.481c0.234-0.247,0.339-0.42,0.058-0.154c0.532-0.31,0.71-0.992,0.401-1.522
		C153.534,42.277,152.853,42.097,152.321,42.407z"/>
	<path fill="#FFFFFF" d="M26.257,32.078c0.023,0.136,0.041,0.299,0.062,0.484c0.021,0.175,0.082,0.553,0.271,0.948
		c0.048,0.139,0.125,0.271,0.231,0.388c0.325,0.336,0.906,0.688,1.485,0.765c0.614-0.004,1.111-0.506,1.106-1.122
		c-0.005-0.527-0.384-0.946-0.876-1.059c0.007-0.027,0.008-0.075-0.003-0.174c-0.022-0.195-0.049-0.421-0.079-0.62
		c-0.188-0.687-0.494-0.957-0.434-0.934c-0.046-0.025-0.027-0.215-0.025-0.636c0-0.556,0.039-0.917,0.268-1.354
		c0.104-0.218,0.249-0.435,0.413-0.656c0.513-0.719,1.27-1.209,2.479-2.19c0.696-0.567,1.56-1.132,2.589-1.873
		c1.396-1.003,2.468-1.854,3.773-2.586c0.912-0.516,2.136-1.001,3.708-1.494c0.871-0.273,1.786-0.545,2.782-0.852
		c0.505-0.156,0.983-0.336,1.507-0.496c0.762-0.232,1.679-0.423,2.695-0.666c0.748-0.178,1.537-0.366,2.354-0.573
		c1.027-0.26,2.086-0.563,3.31-0.934c1.652-0.5,3.577-1.122,5.573-1.813c0.325-0.112,0.652-0.216,0.991-0.325
		c0.483-0.157,0.983-0.36,1.518-0.563c0.576-0.218,0.866-0.86,0.647-1.436c-0.216-0.576-0.86-0.866-1.436-0.648
		c-0.56,0.212-1.016,0.399-1.415,0.527c-0.333,0.106-0.683,0.218-1.035,0.34c-1.971,0.683-3.858,1.292-5.488,1.785
		c-1.209,0.366-2.22,0.655-3.211,0.905c-0.803,0.203-1.579,0.388-2.324,0.566c-0.986,0.236-1.966,0.44-2.826,0.702
		c-0.59,0.18-1.079,0.363-1.516,0.498c-0.988,0.303-1.909,0.577-2.796,0.854c-1.641,0.518-3.072,1.085-4.131,1.68
		c-1.445,0.816-2.625,1.742-3.981,2.718c-0.994,0.715-1.903,1.312-2.695,1.953c-1.144,0.93-2.105,1.594-2.864,2.593
		c-0.205,0.279-0.448,0.655-0.623,1.003c-0.352,0.751-0.489,1.617-0.494,2.326c-0.003,0.414,0.011,1.009,0.213,1.544
		C26.122,31.918,26.211,32.035,26.257,32.078z"/>
	<path fill="#FFFFFF" d="M153.394,133.813c0.015-0.265-0.079-0.501-0.222-0.7c0.002-0.126,0.009-0.277,0.009-0.49
		c0-0.57,0.003-1.254-0.048-1.931c-0.092-1.214-0.055-2.616-0.092-3.883c-0.041-1.201-0.188-2.171-0.263-3.663
		c-0.065-1.337-0.075-2.861-0.093-3.839c-0.014-0.862-0.077-1.669-0.096-2.657c-0.024-1.118-0.094-2.082-0.199-2.934
		c-0.02-0.12-0.027-0.512-0.258-1.027c-0.092-0.131-0.368-0.374-0.578-0.479c-0.262-0.069-0.797-0.019-1.029,0.095
		c-0.127,0.106-0.236,0.251-0.33,0.397c-0.08,0.101-0.14,0.211-0.182,0.336c-0.037,0.088-0.063,0.169-0.072,0.232
		c-0.021,0.259-0.006,0.528-0.006,0.751c0,0.405,0,0.84,0,1.276c0,0.511,0,1.035,0,1.351c0,0.362,0.186,0.669,0.452,0.873
		c0.024,0.667,0.06,1.249,0.069,1.821c0.017,0.967,0.029,2.525,0.096,3.909c0.078,1.581,0.227,2.548,0.26,3.627
		c0.038,1.195,0,2.646,0.098,3.979c0.045,0.591,0.041,1.189,0.041,1.761c0.004,0.235-0.023,0.555,0.006,0.913
		c0.055,0.29,0.142,0.506,0.193,0.626c-0.035,0.426,0.174,0.853,0.571,1.068c0.54,0.295,1.218,0.098,1.513-0.442
		c0.133-0.242,0.152-0.512,0.1-0.762C153.379,133.974,153.388,133.902,153.394,133.813z"/>
</g>
</svg>
