<?xml version="1.0" encoding="utf-8"?>
<!-- Generator: Adobe Illustrator 16.0.0, SVG Export Plug-In . SVG Version: 6.00 Build 0)  -->
<!DOCTYPE svg PUBLIC "-//W3C//DTD SVG 1.1//EN" "http://www.w3.org/Graphics/SVG/1.1/DTD/svg11.dtd">
<svg version="1.1" id="Ebene_1" xmlns="http://www.w3.org/2000/svg" xmlns:xlink="http://www.w3.org/1999/xlink" x="0px" y="0px"
	 width="184.868px" height="176.086px" viewBox="0 0 184.868 176.086" enable-background="new 0 0 184.868 176.086"
	 xml:space="preserve">
<path d="M183.996,58.466c-0.857-1.182-2.225-2.154-3.387-2.751c-1.633-0.812-3.453-1.237-4.949-1.614
	c-0.484-0.103-1.201-0.444-2.193-0.633c-0.287-0.049-0.631-0.076-0.891-0.082c-0.258,0.008-0.525,0.028-0.734,0.051
	c-0.223,0.02-0.404,0.04-0.561,0.055c-0.047,0.001-0.082,0.002-0.111,0.003c0.076-1.173,0.16-2.269,0.271-3.151
	c0.176-1.578,0.391-3.043,0.543-4.75c0.176-1.803,0.152-3.805,0.156-5.541c-0.014-0.316-0.014-0.75-0.074-1.153
	c-0.021-0.084-0.047-0.179-0.072-0.273c-0.002-0.063,0-0.119-0.002-0.185c-0.016-0.221-0.055-0.413-0.07-0.525
	c-0.014-0.075-0.016-0.191-0.035-0.366c-0.043-0.337-0.135-0.677-0.207-0.942c-0.131-0.453-0.293-0.877-0.484-1.283
	c-0.061-0.101-0.125-0.201-0.193-0.308c-0.217-1.008-0.545-1.985-1.057-2.851c-0.34-0.549-0.777-1.219-1.277-1.917
	c-0.273-0.399-0.555-0.818-0.852-1.235c-0.273-0.367-0.541-0.679-0.758-0.983c-1.648-2.188-3.895-4.073-6.443-5.479
	c-0.078-0.043-0.162-0.096-0.24-0.141c-0.035-0.028-0.07-0.056-0.107-0.084c-0.756-0.58-1.258-0.916-1.117-0.805
	c-0.297-0.215-0.264-0.185,0.09,0.083c-0.105-0.078-0.268-0.202-0.477-0.358c0.818,0.725,0.572,0.5-0.619-0.236
	c-0.137-0.112-0.295-0.241-0.48-0.39c-0.189-0.133-0.24-0.157-0.205-0.113c0.193,0.142,0.42,0.309,0.66,0.488
	c-0.127-0.079-0.264-0.162-0.414-0.252c0.01,0.008,0.021,0.018,0.029,0.026c-0.033-0.021-0.068-0.046-0.102-0.069
	c0.023,0.014,0.051,0.029,0.072,0.043c-0.129-0.118-0.217-0.2-0.246-0.236c-0.809-0.592-1.178-0.848-0.797-0.674
	c0.037,0.019-0.146-0.08-0.672-0.312c0.064,0.043,0.119,0.08,0.189,0.13c0.229,0.172,0.436,0.334,0.635,0.491
	c-0.316-0.219-0.637-0.447-0.959-0.68c0.045,0.021,0.092,0.041,0.135,0.06c-0.477-0.325-0.742-0.494-0.633-0.426
	c-0.014-0.009-0.027-0.016-0.043-0.025c-0.133-0.098-0.262-0.188-0.396-0.288c-1.35-1.011-2.75-2.007-4.225-2.852
	c-0.105-0.083-0.217-0.171-0.34-0.268c-0.422-0.288-0.645-0.426-0.6-0.392c-0.463-0.31-1.496-0.933-2.172-1.28
	c-0.426-0.189-0.754-0.332-1.006-0.439c0.615,0.331,0.371,0.233-0.643-0.064c0.281,0.101,0.547,0.205,0.787,0.31
	c0.762,0.502,0.295,0.237-0.963-0.361c-0.094-0.027-0.191-0.055-0.293-0.084c-0.047-0.022-0.094-0.046-0.141-0.068
	c0.129,0.042,0.256,0.084,0.381,0.127c-0.277-0.131-0.578-0.272-0.924-0.43c-0.119-0.043-0.209-0.075-0.297-0.106
	c-0.303-0.147-0.602-0.294-0.904-0.444c-0.033-0.021-0.041-0.033,0.006-0.016c-0.031-0.013-0.059-0.026-0.094-0.04
	c0.025,0.017,0.053,0.034,0.074,0.048c-0.061-0.03-0.119-0.062-0.18-0.092c0.035,0.015,0.072,0.03,0.105,0.044
	c-0.145-0.094-0.34-0.22-0.604-0.387c-0.131-0.098-0.494-0.347-1.02-0.668c-0.182-0.087-0.115-0.03-0.064,0.015
	c0.998,0.711-0.332-0.271-3.34-1.689c-0.107-0.032-0.166-0.045-0.182-0.042c-0.123-0.059-0.248-0.118-0.377-0.179
	c-0.576-0.318-1.191-0.657-1.832-0.969c-1.271-0.625-2.627-1.227-3.984-1.749c-1.48-0.564-2.949-1.051-4.342-1.474
	c-0.645-0.193-1.268-0.358-1.852-0.525c-2.658-0.77-5.303-1.447-7.949-2.014c-0.809-0.168-1.561-0.316-2.26-0.461
	c-1.275-0.267-2.531-0.502-3.779-0.7c-2.789-0.447-5.631-0.723-8.27-1.019c-0.311-0.035-0.643-0.072-0.982-0.105
	c-0.375-0.056-0.766-0.107-1.156-0.148c-0.742-0.056-1.379-0.073-1.52-0.078c-0.822-0.019-1.424-0.004-1.623-0.006
	c-0.682,0.001-1.639-0.013-2.672,0c-0.191,0-0.396-0.001-0.596-0.001C94.154,0.133,92.039-0.108,89,0.057
	c-0.35,0.053-0.566,0.094-0.674,0.125c-1.457,0.039-2.928,0.13-4.383,0.206c-0.594,0.039-1.262,0.066-1.947,0.14
	c-2.18,0.239-4.281,0.597-6.277,0.912c-1.188,0.18-2.278,0.358-3.277,0.537c-1.43,0.269-2.697,0.542-3.939,0.78
	c-1.422,0.267-2.873,0.528-4.249,0.781c-2.105,0.389-4.022,0.743-5.851,1.126c-1.155,0.24-2.296,0.497-3.359,0.75
	c-2.413,0.578-4.559,1.196-6.584,1.834c-1.482,0.471-2.954,0.978-4.268,1.542c-1.008,0.434-1.911,0.877-2.778,1.259
	c-1.824,0.799-3.58,1.535-5.132,2.218c-1.123,0.508-2.186,0.983-3.208,1.471c-2.041,1.008-3.858,2.025-5.266,3.182
	c-2.029,1.665-3.6,3.403-5.033,4.534c0,0,0,0,0,0c-0.217,0.184-0.415,0.362-0.589,0.51c-0.307,0.207-0.538,0.359-0.749,0.5
	c-0.228,0.026-0.441,0.149-0.555,0.368c-0.015,0.019-0.027,0.035-0.042,0.054c-0.107,0.082-0.211,0.164-0.297,0.241
	c-0.152,0.139-0.234,0.317-0.281,0.502c-0.061,0.078-0.124,0.158-0.183,0.234c-0.104,0.089-0.191,0.199-0.255,0.329
	c-0.704,1.199-1.463,2.601-2.083,4.025c-0.233,0.56-0.443,1.105-0.654,1.61c-0.367,0.846-0.782,1.762-1.011,2.711
	c-0.281,1.465-0.292,3.145-0.268,4.719c0.048,0.964,0.175,1.953,0.413,2.907c-0.021,0.076-0.025,0.152-0.025,0.23
	c-0.01,0.059-0.023,0.119-0.028,0.174c-0.068,0.106-0.117,0.224-0.133,0.356c-0.02-0.033-0.037-0.061-0.041-0.062
	c-0.036-0.07-0.058-0.104-0.063-0.071c-0.008,0.074-0.018,0.18-0.026,0.314c0,0.043-0.008,0.118-0.014,0.182
	c-0.011,0.03-0.024,0.056-0.034,0.085c0,0.035,0.016,0.064,0.019,0.099c-0.013,0.123-0.029,0.259-0.042,0.421
	c-0.083,1.758-0.137,3.625-0.375,5.241c-0.158,1.033-0.345,1.987-0.535,2.967c-0.042-0.023-0.082-0.052-0.127-0.072
	c-0.314-0.14-0.65-0.156-0.96-0.08c-0.136-0.101-0.316-0.104-0.491-0.091c-0.294,0.038-0.654,0.122-0.961,0.218
	c-0.014,0.004-0.032,0.009-0.047,0.014c-0.048,0.007-0.097,0.013-0.144,0.021c-0.058,0.016-0.145,0.049-0.24,0.088
	c-0.352,0.104-0.758,0.24-1.14,0.426c-0.243,0.121-0.466,0.215-0.669,0.307c-0.093,0.043-0.222,0.119-0.366,0.225
	c-0.264,0.131-0.486,0.341-0.632,0.615c-0.119,0.058-0.241,0.116-0.346,0.174c-0.414,0.24-0.854,0.564-1.186,0.858
	c-0.47,0.437-0.736,0.798-1,0.967c-0.286,0.227-0.582,0.416-0.914,0.63c-0.289,0.182-0.622,0.365-0.987,0.604
	c-0.612,0.396-1.375,0.967-1.996,1.741c-1.032,1.331-1.96,3.64-2.339,5.651c-0.382,2.463-0.817,6.042,0.594,8.503
	c0.381,0.569,0.862,1.04,1.32,1.449c0.425,0.37,0.898,0.737,1.259,1.062c0.406,0.361,0.788,0.72,1.222,1.051
	c0.443,0.329,0.906,0.602,1.305,0.842c0.8,0.461,1.845,1.012,2.925,1.41c1.238,0.465,2.547,0.749,3.699,0.944
	c0.031,0.064,0.065,0.126,0.106,0.185c0.001,0.005,0,0.01,0.002,0.014c0.009,0.008,0.014,0.012,0.022,0.02
	c0.022,0.03,0.042,0.061,0.066,0.089c-0.004,0.117-0.01,0.238-0.013,0.353c-0.056,1.896,0.005,3.386-0.024,4.738
	c-0.048,1.736-0.126,4.067-0.125,6.514c0.02,2.072,0.075,3.699,0.038,5.541c-0.044,1.762-0.2,4.036-0.294,6.094
	c-0.066,1.381-0.071,2.572-0.071,3.743c0.004,1.45,0.003,3.279,0.005,5.259c-0.001,1.779-0.051,3.418-0.139,4.957
	c-0.044,0.729-0.103,1.476-0.146,2.358c-0.085,1.704-0.084,3.769-0.093,5.546c-0.018,1.663-0.036,2.981-0.054,4.525
	c-0.01,1.242-0.019,2.71-0.028,4.287c0.001,0.926,0.003,1.875,0.005,2.777c-0.004,0.823-0.015,1.614-0.012,2.461
	c0.012,0.613,0.026,1.271,0.053,1.985c0.056,1.306,0.169,2.775,0.254,4.161c0.085,0.775,0.154,1.52,0.221,2.245
	c0.12,0.968,0.236,1.901,0.38,2.768c0.054,0.436,0.116,0.874,0.189,1.28c0.038,0.203,0.081,0.415,0.126,0.611
	c0.038,0.197,0.083,0.408,0.128,0.597c0.105,0.52,0.496,0.904,0.974,1.037c0.162,0.306,0.516,0.465,0.854,0.351
	c0.069-0.023,0.125-0.065,0.18-0.105c0.123,0.269,0.304,0.535,0.491,0.782c0.08,0.138,0.177,0.269,0.302,0.379
	c0,0.001,0,0.001,0,0.001s0,0,0,0l0,0.001c0,0.001,0.001,0.001,0.002,0.001c0.398,0.373,0.891,0.714,1.308,0.977
	c0.42,0.26,0.82,0.488,1.175,0.723c0.363,0.223,0.592,0.381,0.808,0.608c0.729,0.724,1.567,2.003,2.946,2.981
	c1.631,1.068,4.088,1.953,6.324,2.901c0.001,0.001,0.003,0.001,0.004,0.002c0.74,0.416,1.673,0.864,2.336,1.109
	c1.6,0.828,3.152,1.709,5.04,2.376c4.456,1.537,8.58,3.785,13.687,5.619c2.987,1.068,6.99,2.119,10.287,2.99
	c1.918,0.529,3.782,1.007,6.11,1.406c2.916,0.479,6.326,0.855,9.201,1.074c1.725,0.127,3.385,0.207,5.217,0.219
	c4.244,0.023,8.791,0.107,13.154-0.113c7.84-0.396,16.615-0.517,24.643-2.852c2.393-0.706,4.641-1.579,7.264-2.339
	c2.395-0.689,5.037-1.32,7.268-2.079c1.293-0.442,2.414-0.898,3.527-1.269c2.389-0.794,5.002-1.507,7.41-2.212
	c3.379-1.014,5.83-2.084,8.23-3.061c0.002,0,0.002-0.001,0.004-0.001c0-0.001,0.002-0.001,0.004-0.002
	c3.035-1.216,6.482-2.624,9.035-4.562c3.602-2.908,5.855-6.104,6.594-7.855c0.023,0.008,0.043,0.023,0.066,0.03
	c0.018,0.036,0.039,0.069,0.061,0.101c0-0.057,0.006-0.115,0.018-0.173c0.027-0.099,0.063-0.19,0.092-0.255
	c0.023-0.064,0.057-0.127,0.129-0.228c0.033-0.073,0.051-0.107,0.057-0.121c0.004-0.019,0.02-0.078,0.055-0.181
	c0.037-0.095,0.078-0.171,0.096-0.209c0.027-0.054,0.059-0.121,0.094-0.193c0.037-0.076,0.072-0.157,0.119-0.251
	c0.041-0.081,0.082-0.146,0.1-0.177c0,0.001,0.012-0.027,0.055-0.112c0.037-0.071,0.07-0.12,0.074-0.13
	c0.055-0.111,0.09-0.174,0.102-0.195c0.016-0.047,0.027-0.093,0.043-0.143c0.018-0.063,0.029-0.117,0.051-0.215
	c0.02-0.082,0.041-0.172,0.061-0.258c0.016-0.072,0.031-0.152,0.049-0.241c0.004-0.016,0.01-0.066,0.029-0.155
	c0.018-0.08,0.035-0.143,0.041-0.166c0.021-0.098,0.025-0.111,0.023-0.1c0.016-0.078,0.031-0.15,0.045-0.216
	c0.02-0.085,0.037-0.153,0.051-0.229c-0.004,0.052-0.006,0.104-0.008,0.143c0.029-0.309,0.102-0.459,0.072-0.396
	c0.016-0.044,0.014-0.061,0.023-0.15c0.021-0.154,0.057-0.279,0.064-0.324c0.018-0.141,0.053-0.241,0.059-0.268
	c0.023-0.124,0.043-0.207,0.066-0.294c0.029-0.399,0.059-0.813,0.09-1.246c0.025-0.734,0.051-1.522,0.057-2.34
	c-0.055-1.418-0.133-2.854-0.152-4.086c-0.014-0.681-0.014-1.296-0.014-1.906c-0.012-0.813-0.012-1.589-0.018-2.427
	c0-0.901,0-1.852,0-2.777c-0.012-1.576-0.023-3.045-0.035-4.287c-0.02-1.542-0.041-2.863-0.061-4.526
	c-0.014-1.788-0.037-3.776,0.025-5.376c0.031-0.831,0.082-1.558,0.119-2.322c0.082-1.59,0.127-3.33,0.121-5.161
	c0-1.979,0-3.808-0.004-5.267c-0.006-1.162-0.006-2.258,0.051-3.563c0.094-2.015,0.25-4.318,0.299-6.166
	c0.061-1.934,0.027-3.619,0.029-5.654c-0.021-2.384,0.039-4.661,0.068-6.415c0.016-0.664,0.012-1.328,0.008-2.018
	c0.471-0.33,0.936-0.683,1.354-0.977c0.168-0.116,0.301-0.207,0.42-0.281c0.205-0.133,0.355-0.214,0.615-0.354
	c0.139-0.069,0.33-0.16,0.531-0.268c0.408-0.237,0.781-0.474,1.141-0.694c0.705-0.432,1.654-0.818,2.543-1.371
	c0.174-0.109,0.357-0.246,0.486-0.352c0.242-0.197,0.484-0.432,0.693-0.641c0.404-0.426,0.809-0.883,1.244-1.274
	c0.342-0.296,0.777-0.616,1.16-0.999c0.203-0.211,0.355-0.395,0.496-0.547c0.336-0.363,0.721-0.783,1.057-1.189
	c0.648-0.764,1.379-1.65,1.871-2.782c0.367-0.977,0.461-1.98,0.48-2.889c0.15-0.343,0.291-0.684,0.414-0.995
	C185.18,61.785,184.805,59.707,183.996,58.466z M13.971,57.68c-0.109,1.468-0.317,2.72-0.445,4.015
	c-0.156,1.502-0.239,3.532-0.279,5.469c-0.011,0.761-0.01,1.446-0.007,2.093c-0.191-0.128-0.425-0.275-0.64-0.396
	c-0.236-0.12-0.459-0.217-0.607-0.277c-0.683-0.288-1.06-0.351-1.143-0.471c-0.596-0.408-1.192-0.905-1.579-1.326
	c-0.438-0.397-0.622-0.497-0.887-0.917c-0.289-0.424-0.423-0.611-0.46-0.873c-0.126-0.379-0.022-1.153-0.059-2.167
	c-0.007-0.205-0.02-0.273-0.024-0.285c-0.005-0.062,0.005-0.134,0.047-0.32c0.065-0.316,0.169-0.688,0.255-1
	c0.059-0.188,0.041-0.186,0.063-0.236c0.182-0.397,0.488-0.799,0.901-1.592c0.156-0.305,0.298-0.603,0.417-0.809
	c0.034-0.061,0.044-0.078,0.096-0.148c0.114-0.171,0.258-0.354,0.428-0.551c0.242-0.287,0.515-0.553,0.927-0.902
	c0.081-0.069,0.144-0.117,0.219-0.179c0.203-0.106,0.407-0.214,0.606-0.321c0.299-0.155,0.604-0.32,0.876-0.482
	c0.192-0.108,0.355-0.209,0.494-0.292c0.453-0.045,0.833-0.31,1.042-0.686C14.127,55.896,14.048,56.792,13.971,57.68z
	 M158.363,21.179c-0.023-0.016-0.047-0.03-0.072-0.046c-0.033-0.028-0.063-0.052-0.1-0.083
	C158.248,21.093,158.303,21.134,158.363,21.179z M26.29,37.455c-0.037-1.135,0.33-2.209,0.719-3.304
	c0.251-0.696,0.624-1.653,1.178-2.563c0.504-0.811,1.217-1.575,2.3-2.498c0.508-0.429,1.113-0.906,1.757-1.42
	c0.393-0.308,0.8-0.599,1.204-0.923c0.521-0.416,1.055-1,1.743-1.595c0.832-0.714,1.859-1.399,3.108-2.116
	c0.809-0.464,1.721-0.859,2.627-1.334c0.558-0.29,1.122-0.635,1.749-1.022c0.714-0.441,1.537-0.843,2.42-1.293
	c1.525-0.751,3.128-1.612,4.75-2.212c0,0,0.001,0,0.001,0l0,0l0,0c0.506-0.185,1.031-0.33,1.529-0.471
	c1.318-0.353,2.679-0.647,4.099-0.993c0.493-0.093,1.008-0.257,1.592-0.442c0.246-0.096,0.522,0.024,0.619,0.27
	c0.097,0.245-0.024,0.522-0.27,0.619c-0.55,0.26-1.087,0.52-1.62,0.711c-1.412,0.437-2.735,0.813-3.994,1.242
	c-0.5,0.161-0.967,0.307-1.407,0.488c-1.5,0.603-3.008,1.472-4.538,2.282c-0.897,0.457-1.663,0.828-2.301,1.225
	c-0.63,0.39-1.247,0.766-1.855,1.083c-0.959,0.5-1.848,0.882-2.568,1.298c-1.206,0.692-2.1,1.29-2.846,1.936
	c-0.617,0.531-1.166,1.13-1.786,1.633c-0.437,0.354-0.852,0.654-1.213,0.939c-0.651,0.509-1.247,0.967-1.735,1.37
	c-1.044,0.857-1.593,1.41-2.022,2.074c-0.509,0.773-0.842,1.578-1.114,2.252c-0.441,1.076-0.789,1.871-0.787,2.74
	c-0.027,0.269-0.061,0.589-0.181,0.882c-0.018,0.072-0.048,0.141-0.096,0.203c-0.043,0.113-0.322,0.308-0.544,0.36
	c-0.373-0.039-0.643-0.373-0.604-0.746c0.014-0.131,0.073-0.241,0.148-0.337C26.33,37.708,26.309,37.594,26.29,37.455z
	 M163.756,147.125c-0.963,1.064-2.172,2.219-3.58,3.323c-2.414,1.845-5.719,3.194-8.73,4.401c-0.025,0.015-0.053,0.027-0.082,0.039
	c-0.027,0.011-0.055,0.02-0.082,0.027c-2.389,0.965-4.779,1.996-8.076,2.978c-2.398,0.705-5.027,1.425-7.439,2.229
	c-1.143,0.381-2.266,0.838-3.535,1.271c-2.184,0.745-4.805,1.371-7.221,2.068c-2.66,0.769-4.916,1.641-7.268,2.332
	c-7.896,2.301-16.561,2.407-24.42,2.801c-4.328,0.217-8.848,0.129-13.1,0.103c-1.811-0.013-3.438-0.091-5.148-0.218
	c-2.857-0.215-6.229-0.584-9.118-1.057c-2.295-0.382-4.11-0.837-6.023-1.354c-3.298-0.872-7.267-1.914-10.208-2.969
	c-5.04-1.811-9.164-4.063-13.692-5.632c-2.66-0.932-4.685-2.37-7.323-3.47c-2.265-0.954-4.661-1.806-6.173-2.802
	c-1.224-0.839-2.004-2.03-2.808-2.827c-0.007-0.006-0.015-0.014-0.021-0.02c-0.009-0.01-0.018-0.019-0.027-0.028
	c-0.243-0.237-0.517-0.433-0.841-0.634c-0.04-0.016-0.08-0.035-0.118-0.058c-0.043-0.026-0.083-0.056-0.12-0.089
	c-0.332-0.202-0.684-0.396-1.034-0.602c-0.019-0.009-0.037-0.018-0.056-0.028c-0.027-0.016-0.052-0.032-0.076-0.051
	c-0.311-0.188-0.63-0.398-0.907-0.624c-0.296-0.232-0.347-0.662-0.114-0.957c0.233-0.297,0.661-0.348,0.957-0.115
	c0.246,0.186,0.522,0.346,0.848,0.521c0.393,0.215,0.831,0.435,1.259,0.684c0.428,0.254,0.887,0.57,1.262,0.93
	c0.938,0.914,1.633,1.996,2.635,2.629c1.321,0.879,3.622,1.681,5.932,2.644c2.778,1.169,4.764,2.589,7.231,3.442
	c4.643,1.619,8.767,3.877,13.701,5.65c2.868,1.031,6.783,2.061,10.082,2.935c1.905,0.497,3.643,0.915,5.887,1.271
	c2.846,0.461,6.154,0.818,8.982,1.026c1.693,0.126,3.262,0.204,5.043,0.217c4.262,0.032,8.738,0.125,13.01-0.085
	c7.893-0.389,16.379-0.472,24.063-2.721c2.293-0.668,4.557-1.539,7.277-2.322c2.451-0.707,5.041-1.326,7.148-2.049
	c1.23-0.42,2.355-0.878,3.545-1.275c2.41-0.809,5.016-1.529,7.367-2.224c0.037-0.019,0.076-0.034,0.117-0.046
	c0.043-0.012,0.084-0.021,0.125-0.025c3.199-0.944,5.502-1.933,7.91-2.891c2.988-1.198,6.113-2.455,8.357-4.156
	c0.027-0.029,0.059-0.058,0.09-0.083c0.037-0.026,0.072-0.05,0.111-0.07c1.33-1.009,2.439-2.026,3.365-3.002
	c0.266-0.286,0.713-0.303,0.998-0.038C164.004,146.393,164.021,146.84,163.756,147.125z M21.947,133.216c0,0,0.002,0,0.003,0
	c0-0.005-0.002-0.008-0.002-0.013c0.007-0.338,0.287-0.606,0.625-0.6c0.333,0.008,0.595,0.279,0.596,0.61
	c0.005,0.001,0.02,0.001,0.02,0.002c0.012-0.006,0.023,0.001,0.035,0.012c0.023,0.019,0.047,0.053,0.07,0.099
	c0.017,0.139,0.046,0.417,0.054,0.705c-0.004,0.273-0.048,0.522-0.082,0.746c-0.082,0.465-0.184,1.053-0.259,1.57
	c-0.064,0.4-0.094,0.749-0.119,1.082c-0.014,0.181-0.03,0.326-0.036,0.457c-0.01,0.313,0.014,0.669,0.029,1.029
	c0.022,0.518,0.026,0.867,0.044,1.359c0.015,0.508,0.013,1.105,0.091,1.71c0.08,0.905,0.37,1.514,0.972,2.075
	c0.222,0.218,0.432,0.379,0.783,0.592c0.612,0.371,1.481,0.783,2.589,1.27c0.577,0.254,1.192,0.518,1.806,0.771
	c0.847,0.373,1.715,0.708,2.675,1.105c0.505,0.219,1.034,0.456,1.554,0.701c0.829,0.393,1.602,0.858,2.51,1.326c0,0,0.001,0,0.001,0
	s0.001,0.001,0.002,0.002c0.959,0.475,1.982,1.021,3.4,1.422c1.309,0.373,2.724,0.719,4.315,1.063
	c1.999,0.473,4.204,1.021,6.285,1.549c0.257,0.059,0.418,0.313,0.36,0.57c-0.058,0.258-0.313,0.42-0.571,0.361
	c-2.104-0.418-4.325-0.856-6.337-1.219c-1.612-0.321-3.074-0.651-4.414-1.006c-1.548-0.411-2.715-0.99-3.666-1.429
	c-0.976-0.431-1.755-0.829-2.534-1.129c-0.522-0.202-1.039-0.393-1.546-0.567c-0.955-0.35-1.854-0.648-2.757-0.996
	c-0.625-0.256-1.262-0.523-1.851-0.78c-1.131-0.496-2.102-0.958-2.809-1.382c-0.429-0.26-0.816-0.55-1.125-0.842
	c-0.833-0.815-1.425-2.029-1.574-3.252c-0.064-0.725-0.042-1.422-0.034-1.902c0.011-0.52,0.035-0.861,0.042-1.346
	c0.003-0.336-0.004-0.755,0.026-1.156c0.013-0.184,0.033-0.351,0.047-0.502c0.032-0.344,0.076-0.764,0.154-1.217
	c0.101-0.537,0.229-1.146,0.333-1.611c0.06-0.244,0.104-0.369,0.116-0.489c0.028-0.222,0.035-0.464,0.053-0.646
	c0.023-0.045,0.047-0.074,0.07-0.09c0.012-0.006,0.023-0.008,0.035-0.002c0,0,0.016,0,0.022,0c0-0.005-0.002-0.009-0.002-0.014
	C21.949,133.217,21.948,133.215,21.947,133.216z M161.285,59.968c-0.049-0.371,0.211-0.713,0.582-0.762
	c0.371-0.05,0.713,0.211,0.762,0.582c-0.031,0.063-0.064,0.143-0.104,0.197c-0.021,0.353-0.23,0.719-0.434,0.93
	c0,0.001,0,0.002-0.002,0.003c0,0,0,0,0,0.001c0,0,0,0.001-0.002,0.001c-0.201,0.197-0.449,0.371-0.676,0.541
	c-0.23,0.165-0.52,0.411-0.875,0.638c-0.182,0.113-0.363,0.197-0.506,0.271c-0.146,0.075-0.287,0.162-0.512,0.3
	c-0.188,0.116-0.387,0.241-0.566,0.357c-0.211,0.134-0.393,0.252-0.496,0.309c-0.617,0.325-1.031,0.6-1.5,0.95
	c-0.328,0.239-0.639,0.519-1.016,0.844c-0.305,0.268-0.646,0.585-1.035,0.886c-0.479,0.367-0.961,0.65-1.379,0.889
	c-0.586,0.334-1.287,0.706-2.029,1.021c-1.152,0.479-2.154,0.847-3.27,1.279c-1.098,0.435-2.48,0.919-3.775,1.386
	c-2.002,0.711-4.938,1.706-7.793,2.432c-1.412,0.345-2.707,0.582-3.857,0.754l0,0c0,0,0,0-0.002,0l0,0
	c-1.348,0.145-2.518,0.208-3.496,0.264c-0.262,0.033-0.5-0.153-0.531-0.415c-0.033-0.262,0.152-0.5,0.414-0.532
	c0.971-0.186,2.104-0.375,3.406-0.645c1.123-0.186,2.355-0.428,3.727-0.781c2.805-0.697,5.688-1.66,7.682-2.354
	c1.309-0.45,2.682-0.91,3.76-1.314c1.125-0.438,2.109-0.801,3.236-1.271c0.691-0.286,1.328-0.619,1.898-0.938
	c0.416-0.231,0.824-0.461,1.244-0.779c0.344-0.26,0.658-0.548,0.982-0.825c0.367-0.319,0.717-0.632,1.09-0.907
	c0.5-0.366,1.006-0.694,1.666-1.035c0.037-0.019,0.205-0.124,0.418-0.257c0.186-0.115,0.395-0.242,0.59-0.359
	c0.229-0.137,0.41-0.244,0.594-0.336c0.174-0.087,0.309-0.145,0.414-0.213c0.289-0.176,0.547-0.395,0.822-0.59
	c0.248-0.17,0.445-0.291,0.57-0.406c0.125-0.107,0.127-0.068,0.113-0.117C161.363,59.955,161.324,59.972,161.285,59.968z
	 M164.563,46.628c-1.426,1.125-2.947,2.711-4.826,4.205c-0.014,0.014-0.029,0.027-0.047,0.04c-0.01,0.008-0.021,0.016-0.031,0.022
	c-1.371,1.08-3.127,2.022-5.16,2.99c-1.021,0.48-2.088,0.946-3.225,1.449c-1.555,0.681-3.324,1.42-5.166,2.225
	c-0.895,0.393-1.799,0.836-2.793,1.264c-1.289,0.552-2.725,1.043-4.207,1.514c-2.025,0.639-4.152,1.252-6.555,1.83
	c-1.064,0.256-2.199,0.511-3.357,0.754c-1.826,0.382-3.744,0.738-5.863,1.133c-1.383,0.257-2.844,0.523-4.279,0.795
	c-1.262,0.24-2.535,0.516-3.959,0.782c-0.998,0.183-2.08,0.363-3.273,0.549c-2.014,0.317-4.102,0.68-6.27,0.921
	c-0.648,0.07-1.297,0.099-1.908,0.139c-1.615,0.098-3.225,0.221-4.803,0.264c-1.848,0.055-3.766,0.031-5.641,0.02
	c-0.543-0.001-1.057,0-1.533,0.004c-1.902,0.011-3.891-0.047-5.934-0.149c-0.586-0.031-1.164-0.102-1.729-0.161
	c-2.666-0.287-5.502-0.55-8.277-0.982c-1.243-0.193-2.482-0.422-3.758-0.684c-0.709-0.146-1.465-0.289-2.277-0.455
	c-2.645-0.551-5.275-1.205-7.937-1.957c-0.6-0.168-1.221-0.329-1.856-0.516c-1.391-0.412-2.837-0.883-4.311-1.434
	c-1.345-0.505-2.67-1.082-3.939-1.691c-0.693-0.332-1.362-0.703-2.011-1.054c-0.571-0.309-1.144-0.597-1.703-0.895
	c-0.673-0.362-1.377-0.731-2.124-1.118c-2.528-1.301-5.087-2.449-7.458-3.572c-0.037-0.012-0.073-0.025-0.108-0.041
	c-0.038-0.019-0.073-0.039-0.107-0.063c-1.876-0.904-3.617-2.115-5.337-3.389c-0.012-0.008-0.024-0.017-0.037-0.025
	c-0.013-0.01-0.025-0.019-0.037-0.029c-2.075-1.529-4.054-2.813-5.763-3.773c-0.021-0.009-0.041-0.02-0.062-0.031
	c-0.02-0.011-0.04-0.022-0.058-0.035c-2.27-1.264-4.219-2.856-5.729-4.74c-0.271-0.344-0.212-0.842,0.131-1.113
	c0.343-0.271,0.841-0.212,1.112,0.131c1.392,1.793,3.109,3.223,5.28,4.446c1.78,0.992,3.872,2.343,6.021,3.924
	c1.756,1.291,3.425,2.449,5.248,3.298c2.391,1.115,5.019,2.271,7.628,3.592c0.754,0.377,1.475,0.742,2.163,1.1
	c0.543,0.288,1.123,0.578,1.715,0.896c0.658,0.354,1.292,0.705,1.94,1.012c1.245,0.589,2.507,1.129,3.815,1.609
	c1.443,0.532,2.835,0.979,4.206,1.379c0.61,0.18,1.218,0.337,1.834,0.508c2.641,0.733,5.215,1.361,7.829,1.893
	c0.801,0.164,1.557,0.309,2.278,0.457c1.259,0.258,2.458,0.481,3.675,0.671c2.723,0.423,5.52,0.679,8.197,0.964
	c0.578,0.062,1.111,0.127,1.635,0.154c2.023,0.105,3.965,0.168,5.834,0.16c0.479-0.002,1-0.004,1.551-0.001
	c1.881,0.007,3.77,0.026,5.58-0.031c1.533-0.054,3.113-0.189,4.742-0.3c0.633-0.04,1.242-0.064,1.832-0.128
	c2.115-0.226,4.164-0.573,6.193-0.885c1.186-0.185,2.244-0.359,3.227-0.538c1.402-0.254,2.676-0.52,3.957-0.754
	c1.441-0.27,2.908-0.532,4.287-0.785c2.123-0.386,4.025-0.729,5.834-1.099c1.146-0.234,2.26-0.479,3.313-0.725
	c2.373-0.559,4.445-1.145,6.455-1.767c1.469-0.453,2.84-0.907,4.074-1.425c0.963-0.402,1.865-0.834,2.791-1.232
	c1.854-0.793,3.623-1.518,5.168-2.179c0.004-0.001,0.006-0.003,0.01-0.003c0.004-0.003,0.01-0.005,0.014-0.007
	c1.119-0.472,2.156-0.902,3.146-1.343c0.021-0.012,0.043-0.023,0.064-0.033c0.027-0.013,0.055-0.023,0.084-0.032
	c2.018-0.888,3.668-1.7,4.967-2.654c1.891-1.394,3.473-2.931,5.02-4.053c0.219-0.165,0.527-0.122,0.693,0.097
	C164.822,46.154,164.779,46.464,164.563,46.628z M176.623,65.854c-0.615,1.178-1.148,1.796-1.814,2.511
	c-0.756,0.819-1.359,1.859-1.877,2.578c-0.207,0.298-0.453,0.531-0.709,0.785c-0.314,0.309-0.59,0.518-0.967,0.81
	c-0.193,0.14-0.389,0.261-0.594,0.381c-0.078,0.028-0.148,0.062-0.227,0.089c-0.061,0.023-0.127,0.045-0.189,0.068
	c0.029-0.457,0.059-0.899,0.088-1.299c0.059-0.852,0.098-1.581,0.102-2.295c0.008-1.316-0.029-2.609-0.012-4.183
	c0.002-0.243,0.004-0.483,0.008-0.726c0.055-0.149,0.111-0.299,0.158-0.416c0.041-0.609,0.07-1.213,0.063-1.615
	c0.035-1.034,0.004-1.805-0.061-2.323c0.002-0.031,0.004-0.069,0.006-0.1c0.084-0.938,0.23-1.971,0.344-3.17
	c0.025,0.002,0.051,0.009,0.078,0.01c0.113,0.004,0.242,0.002,0.346,0c0.193,0.007,0.406,0.008,0.602,0.012
	c0.184,0.01,0.338,0.021,0.498,0.042c0.158,0.007,0.23,0.015,0.344,0.04c0.105,0.018,0.219,0.051,0.334,0.088
	c0.063,0.114,0.152,0.207,0.271,0.264c0.01,0.007,0.018,0.018,0.025,0.023c0.141,0.114,0.438,0.188,0.627,0.189
	c0.016-0.004,0.025-0.016,0.041-0.021c0.029,0.03,0.066,0.059,0.117,0.085c-0.061-0.088-0.057,0.123,0.221,0.52
	c0.357,0.436,0.855,0.809,1.289,1.051c0.254,0.132,0.42,0.189,0.439,0.222c0.066-0.063,0.178,0.438,0.494,1.062
	c0.23,0.431,0.436,0.877,0.67,1.321c0.115,0.212,0.166,0.286,0.193,0.376c0.107,0.232,0.098,0.66,0.117,1.244
	C177.35,64.289,177.016,65.138,176.623,65.854z"/>
</svg>
